<svg id="Layer_1" data-name="Layer 1" xmlns="http://www.w3.org/2000/svg" xmlns:xlink="http://www.w3.org/1999/xlink" width="14.22in" height="14.22in" viewBox="0 0 1024 1024"><defs><style>.cls-1{fill:url(#linear-gradient);}</style><linearGradient id="linear-gradient" x1="8" y1="511.99" x2="1016" y2="511.99" gradientUnits="userSpaceOnUse"><stop offset="0" stop-color="#03c3f8"/><stop offset="1" stop-color="#08b5a1"/></linearGradient></defs><path class="cls-1" d="M970.18,466.18H786.91a45.94,45.94,0,0,0-43.48,31.34l-94,282L418,85.16a45.84,45.84,0,0,0-87,0l-127,381H53.82a45.82,45.82,0,0,0,0,91.64H237.09a46,46,0,0,0,43.48-31.34l94-282L606,938.84a45.82,45.82,0,0,0,86.92,0l127.05-381H970.18a45.82,45.82,0,1,0,0-91.64Z"/></svg>