<svg width="50" height="46" viewBox="0 0 50 46" fill="none" xmlns="http://www.w3.org/2000/svg">
<path d="M49.9615 29.4565L42.0665 3.27105C41.9171 2.67232 41.3806 2.27271 40.7909 2.27271C40.7814 2.27271 40.7719 2.27279 40.7623 2.27303H9.23947C9.16283 2.27131 9.08552 2.27641 9.00789 2.2886C8.91981 2.30227 8.83436 2.32466 8.75245 2.35513C8.52695 2.43855 8.33558 2.57952 8.19116 2.75664C8.11082 2.85496 8.04412 2.96571 7.99428 3.08618C7.96607 3.15428 7.94338 3.22493 7.92685 3.29731L0.0384167 29.4564C-0.0146279 29.6689 -0.0115028 29.8879 0.0401438 30.0951L0.0384167 30.0956C0.0799478 30.262 0.482593 31.7654 1.80501 33.2786C3.03482 34.686 5.31787 36.3636 9.20995 36.3636C13.102 36.3636 15.3851 34.686 16.6149 33.2787C17.9373 31.7654 18.34 30.2621 18.3815 30.0957L18.3798 30.0952C18.4315 29.888 18.4346 29.669 18.3815 29.4565L10.8953 4.90813H39.1047L31.6185 29.4565C31.5654 29.669 31.5685 29.888 31.6202 30.0952L31.6185 30.0957C31.6601 30.2621 32.0626 31.7654 33.385 33.2787C34.6149 34.686 36.8979 36.3636 40.79 36.3636C44.6821 36.3636 46.9651 34.686 48.1949 33.2787C49.5173 31.7654 49.92 30.2621 49.9615 30.0957L49.9598 30.0952C50.0115 29.888 50.0146 29.669 49.9615 29.4565ZM9.20995 33.7286C6.01445 33.7286 4.30197 32.3012 3.4248 31.0936H14.995C14.1179 32.3012 12.4055 33.7286 9.20995 33.7286ZM15.4196 28.4586H3.00028L9.20995 9.02287L15.4196 28.4586ZM40.79 9.02287L46.9997 28.4586H34.5802L40.79 9.02287ZM40.79 33.7286C37.5945 33.7286 35.882 32.3012 35.0048 31.0936H46.5751C45.698 32.3012 43.9855 33.7286 40.79 33.7286Z" fill="#03C3F8"/>
<g style="mix-blend-mode:multiply">
<path d="M41.827 42.7807H27.0313L29.6289 9.46081C29.6427 9.28317 29.6205 9.10453 29.5634 8.93549L26.8536 0.914104C26.6692 0.368232 26.1514 0 25.5682 0C24.985 0 24.4673 0.368232 24.2829 0.914104L21.5731 8.93549C21.5159 9.10453 21.4936 9.28317 21.5075 9.46081L24.1051 42.7807H9.30948C8.56124 42.7807 7.95459 43.3793 7.95459 44.1176C7.95459 44.856 8.56124 45.4545 9.30948 45.4545H41.827C42.5753 45.4545 43.1819 44.856 43.1819 44.1176C43.1819 43.3793 42.5753 42.7807 41.827 42.7807ZM25.5682 5.5645L26.9061 9.5249L25.5682 26.6867L24.2304 9.5249L25.5682 5.5645Z" fill="#04BC88"/>
</g>
</svg>
