<svg xmlns="http://www.w3.org/2000/svg" width="14.22in" height="14.22in" viewBox="0 0 1024 1024"><defs><style>.cls-1{isolation:isolate;}.cls-2{fill:#03c3f8;}.cls-3{fill:#08b5a1;mix-blend-mode:multiply;}</style></defs><g class="cls-1"><g id="Layer_1" data-name="Layer 1"><path class="cls-2" d="M512,74.44A277.27,277.27,0,0,1,619.89,607,277.26,277.26,0,0,1,404.15,96.2,275.3,275.3,0,0,1,512,74.44m0-65.19c-189.09,0-342.37,153.28-342.37,342.37S322.93,694,512,694,854.4,540.71,854.4,351.62,701.11,9.25,512,9.25Z"/><path class="cls-3" d="M761.35,970.15l-54-418.83c-23.88,17.71-50.14,42.14-78.22,53.22l0,.13q-4.27,2-8.63,3.85a279.82,279.82,0,0,1-217,0c-2.26-.95-4.5-1.94-6.73-2.95l-.07.47c-27.68-11.26-53.58-35.29-77.16-52.77L262.69,970.15a41.62,41.62,0,0,0,62.67,41.16L512,899.32l186.68,112a41.62,41.62,0,0,0,62.67-41.16Zm-227.92-155a41.6,41.6,0,0,0-42.82,0l-134,80.44,32-224.53a343.54,343.54,0,0,0,249.2-.91l29.69,225.44Z"/></g></g></svg>