<svg width="99" height="188" viewBox="0 0 99 188" fill="none" xmlns="http://www.w3.org/2000/svg">
<mask id="mask0" mask-type="alpha" maskUnits="userSpaceOnUse" x="0" y="0" width="99" height="188">
<rect width="98.4368" height="187.759" fill="#C4C4C4"/>
</mask>
<g mask="url(#mask0)">
<path d="M128.636 130.259H105.204L79.1329 115.236C75.7688 113.303 69.9108 113.535 66.0247 115.778L40.8911 130.278H17.4781V146.856C17.3815 148.171 18.1162 149.437 19.7305 150.375L66.9624 177.645C70.3168 179.578 76.1845 179.337 80.0609 177.094L125.417 150.916C127.428 149.756 128.501 148.277 128.607 146.856L128.636 130.259Z" fill="url(#paint0_linear)"/>
<path d="M125.428 149.814L80.0716 175.992C76.2049 178.235 70.3275 178.476 66.9731 176.543L19.7412 149.263C18.1269 148.297 17.3922 147.069 17.4889 145.754V146.837C17.3922 148.152 18.1269 149.418 19.7412 150.356L66.9731 177.626C70.3275 179.559 76.1952 179.317 80.0716 177.075L125.428 150.897C127.439 149.737 128.512 148.258 128.618 146.837V145.754C128.531 147.137 127.439 148.645 125.428 149.814Z" fill="url(#paint1_linear)"/>
<path d="M18.9668 147.929V131.341H42.3701L67.5037 116.841C71.3704 114.598 77.2478 114.357 80.6119 116.3L106.712 131.351H128.665V130.268H105.204L79.1329 115.236C75.7688 113.303 69.9108 113.535 66.0247 115.778L40.8911 130.278H17.4781V146.856C17.3815 148.171 18.1162 149.437 19.7305 150.375L19.9915 150.52C19.6414 150.19 19.3682 149.786 19.1911 149.339C19.014 148.891 18.9375 148.41 18.9668 147.929Z" fill="#03C3F8"/>
<path d="M66.9719 161.038L19.74 133.768C16.376 131.834 16.84 128.441 20.7067 126.208L66.0536 100.021C69.9203 97.7878 75.7977 97.5365 79.1617 99.4795L126.394 126.749C129.748 128.683 129.294 132.076 125.427 134.319L80.0704 160.496C76.194 162.739 70.3263 162.981 66.9719 161.038Z" fill="url(#paint2_linear)"/>
<path d="M126.365 126.749L79.1328 99.4795C77.093 98.4397 74.8009 97.9974 72.5207 98.2035C74.1891 98.2583 75.8227 98.6949 77.2961 99.4795L124.528 126.749C127.882 128.683 127.428 132.076 123.561 134.319L78.2628 160.496C76.2682 161.592 74.0495 162.217 71.7764 162.323C74.6703 162.507 77.5577 161.874 80.1091 160.496L125.466 134.319C129.303 132.076 129.719 128.692 126.365 126.749Z" fill="#09D6A5"/>
<path style="mix-blend-mode:overlay" opacity="0.7" d="M68.5296 153.178L33.3619 132.878C30.8582 131.428 31.1772 128.905 34.0579 127.242L67.824 107.745C70.724 106.082 75.0741 105.898 77.5778 107.348L112.745 127.648C115.249 129.089 114.93 131.612 112.04 133.275L78.2641 152.772C75.3641 154.435 71.0237 154.619 68.5296 153.178Z" fill="url(#paint3_linear)"/>
<path d="M69.7761 146.866L44.2945 132.153C42.4868 131.109 42.7091 129.253 44.7971 128.074L69.2637 113.951C70.3363 113.351 71.5348 113.013 72.7623 112.962C73.9899 112.912 75.2121 113.151 76.3302 113.661L101.812 128.364C103.619 129.417 103.397 131.264 101.299 132.443L76.8425 146.566C75.77 147.165 74.5721 147.504 73.3449 147.556C72.1177 147.608 70.8954 147.372 69.7761 146.866Z" fill="#C4F5FF"/>
<path d="M69.0895 161.038L21.8576 133.768C18.4936 131.834 18.9576 128.441 22.8243 126.208L68.1808 100.021C70.1428 98.9419 72.3246 98.3237 74.5609 98.2131C71.6105 97.9848 68.6568 98.6124 66.0541 100.021L20.6783 126.208C16.8116 128.441 16.3766 131.834 19.7116 133.768L66.9435 161.038C69.0301 162.103 71.379 162.546 73.7102 162.314C72.0937 162.241 70.5143 161.805 69.0895 161.038Z" fill="#03C3F8"/>
<mask id="mask1" mask-type="alpha" maskUnits="userSpaceOnUse" x="43" y="112" width="61" height="36">
<path d="M69.7761 146.866L44.2945 132.153C42.4868 131.109 42.7091 129.253 44.7971 128.074L69.2637 113.951C70.3363 113.351 71.5348 113.013 72.7623 112.962C73.9899 112.912 75.2121 113.151 76.3302 113.661L101.812 128.364C103.619 129.417 103.397 131.264 101.299 132.443L76.8425 146.566C75.77 147.165 74.5721 147.504 73.3449 147.556C72.1177 147.608 70.8954 147.372 69.7761 146.866Z" fill="#6DE0F6"/>
</mask>
<g mask="url(#mask1)">
<path d="M44.787 130.066L69.2633 115.933C70.3365 115.336 71.5348 114.998 72.762 114.948C73.9892 114.898 75.2111 115.135 76.3297 115.643L101.821 130.356C102.172 130.556 102.475 130.829 102.71 131.158C102.856 130.921 102.95 130.655 102.983 130.379C103.017 130.103 102.991 129.822 102.907 129.557C102.822 129.292 102.682 129.048 102.494 128.842C102.307 128.636 102.077 128.473 101.821 128.364L76.3297 113.651C75.2111 113.144 73.9892 112.906 72.762 112.957C71.5348 113.007 70.3365 113.344 69.2633 113.941L44.787 128.074C43.163 129.041 42.6796 130.327 43.395 131.351C43.7423 130.811 44.2213 130.369 44.787 130.066Z" fill="#267FE5"/>
<path d="M44.7883 132.463L69.2646 118.339C70.3371 117.741 71.535 117.402 72.7622 117.35C73.9893 117.298 75.2116 117.534 76.331 118.04L101.822 132.753C102.104 132.919 102.356 133.131 102.567 133.381C102.761 133.148 102.898 132.873 102.966 132.577C103.035 132.282 103.033 131.974 102.96 131.68C102.888 131.385 102.747 131.112 102.549 130.882C102.352 130.652 102.103 130.471 101.822 130.355L76.331 115.642C75.2124 115.135 73.9905 114.897 72.7633 114.948C71.5361 114.998 70.3378 115.335 69.2646 115.932L44.7883 130.065C43.0676 131.032 42.6326 132.472 43.5413 133.526C43.8807 133.091 44.305 132.729 44.7883 132.463Z" fill="#25BFEC"/>
<path d="M43.7827 136.184C44.0669 135.877 44.3922 135.61 44.7494 135.392L69.2256 121.268C70.2981 120.67 71.496 120.331 72.7232 120.279C73.9504 120.227 75.1727 120.463 76.292 120.969L101.783 135.682C101.958 135.789 102.123 135.912 102.276 136.049C102.538 135.837 102.74 135.561 102.862 135.247C102.984 134.933 103.022 134.593 102.973 134.26C102.923 133.927 102.787 133.612 102.578 133.348C102.37 133.084 102.096 132.878 101.783 132.753L76.3307 118.04C75.2114 117.534 73.9891 117.298 72.7619 117.35C71.5347 117.402 70.3368 117.741 69.2643 118.339L44.788 132.463C42.9223 133.545 42.555 135.111 43.7827 136.184Z" fill="#18D0F7"/>
</g>
<path d="M49.2634 158.921C49.2634 160.032 48.4901 160.477 47.5331 159.887C47.0305 159.555 46.6123 159.111 46.3119 158.589C46.0115 158.067 45.8371 157.482 45.8027 156.881C45.8027 155.779 46.5761 155.334 47.5331 155.914C48.0357 156.246 48.4539 156.69 48.7543 157.212C49.0547 157.734 49.2291 158.319 49.2634 158.921Z" fill="#69DAF1"/>
<path d="M48.4208 159.5C47.9182 159.169 47.5 158.724 47.1996 158.202C46.8992 157.68 46.7248 157.095 46.6904 156.494C46.6825 156.213 46.7527 155.935 46.8934 155.692C46.2651 155.634 45.8301 156.098 45.8301 156.919C45.8645 157.521 46.0388 158.106 46.3392 158.628C46.6396 159.15 47.0578 159.594 47.5604 159.926C48.2274 160.313 48.8074 160.197 49.0878 159.733C48.8518 159.702 48.6247 159.623 48.4208 159.5Z" fill="#0259C1"/>
<path d="M54.6193 161.995C54.6193 163.106 53.846 163.551 52.889 162.961C52.3985 162.629 51.9909 162.189 51.6976 161.674C51.4043 161.16 51.2331 160.585 51.1973 159.994C51.1973 158.892 51.9803 158.447 52.9373 159.027C53.4259 159.36 53.8316 159.801 54.1232 160.315C54.4148 160.83 54.5845 161.404 54.6193 161.995Z" fill="#69DAF1"/>
<path d="M59.946 165.069C59.946 166.18 59.163 166.625 58.2059 166.035C57.7033 165.704 57.2851 165.259 56.9847 164.737C56.6843 164.215 56.51 163.63 56.4756 163.029C56.4756 161.927 57.2489 161.482 58.2059 162.062C58.7104 162.393 59.1304 162.837 59.4325 163.359C59.7347 163.881 59.9105 164.466 59.946 165.069Z" fill="#69DAF1"/>
<path d="M53.7478 162.604C53.2434 162.273 52.8234 161.829 52.5212 161.307C52.2191 160.785 52.0433 160.199 52.0078 159.597C51.9998 159.316 52.0701 159.038 52.2108 158.795C51.5921 158.737 51.1475 159.201 51.1475 160.032C51.1844 160.633 51.3609 161.216 51.663 161.736C51.9651 162.257 52.3843 162.699 52.8875 163.029C53.5545 163.416 54.1248 163.309 54.4148 162.836C54.1785 162.807 53.9511 162.727 53.7478 162.604Z" fill="#0259C1"/>
<path d="M59.0663 165.649C58.5586 165.313 58.1373 164.862 57.8366 164.333C57.5359 163.804 57.3644 163.211 57.3359 162.604C57.328 162.322 57.3982 162.045 57.5389 161.801C56.9106 161.743 56.4756 162.207 56.4756 163.039C56.5114 163.638 56.6865 164.221 56.9868 164.741C57.2872 165.261 57.7046 165.704 58.2059 166.035C58.8729 166.422 59.453 166.316 59.743 165.842C59.5064 165.825 59.276 165.759 59.0663 165.649Z" fill="#0259C1"/>
<path style="mix-blend-mode:lighten" opacity="0.2" d="M103.03 2.73434H43.0957V130.568C43.1222 130.943 43.2492 131.305 43.4635 131.614C43.6778 131.924 43.9715 132.17 44.3137 132.327L69.7953 147.04C70.9145 147.545 72.1361 147.782 73.3629 147.731C74.5896 147.681 75.7877 147.345 76.8618 146.75L101.299 132.637C101.74 132.437 102.127 132.135 102.427 131.754C102.726 131.374 102.93 130.927 103.02 130.452L103.03 2.73434Z" fill="url(#paint4_linear)"/>
<path style="mix-blend-mode:lighten" opacity="0.25" d="M100.187 14.9242H45.918V130.616C45.9459 130.957 46.0635 131.283 46.2587 131.564C46.454 131.844 46.72 132.067 47.0296 132.211L70.0849 145.522C71.0961 145.982 72.201 146.198 73.3109 146.153C74.4207 146.107 75.5044 145.802 76.4747 145.261L98.6212 132.472C99.0147 132.295 99.3608 132.028 99.6313 131.692C99.9018 131.356 100.089 130.961 100.178 130.539L100.187 14.9242Z" fill="url(#paint5_linear)"/>
<path opacity="0.3" d="M53.6028 102.186C53.4857 102.116 53.3846 102.023 53.3063 101.911C53.228 101.799 53.1742 101.672 53.1484 101.539V92.5387L55.0818 93.5054C55.2003 93.57 55.3022 93.6612 55.3794 93.772C55.4566 93.8827 55.5069 94.0099 55.5265 94.1434V103.192L53.6028 102.186Z" fill="#4DDBFB"/>
<path opacity="0.6" d="M53.6028 107.667C53.4846 107.596 53.3829 107.501 53.3045 107.388C53.2262 107.274 53.1729 107.146 53.1484 107.01V105.212L55.0818 106.179C55.2026 106.246 55.3064 106.341 55.3851 106.455C55.4638 106.569 55.5155 106.699 55.5361 106.836V108.644L53.6028 107.667Z" fill="#4DDBFB"/>
<path opacity="0.6" d="M53.6124 115.807C53.4902 115.735 53.3853 115.637 53.3051 115.52C53.2249 115.403 53.1714 115.27 53.1484 115.13V110.683L55.0818 111.65C55.2011 111.722 55.3035 111.819 55.3819 111.934C55.4603 112.049 55.5129 112.18 55.5361 112.317V116.783L53.6124 115.807Z" fill="#4DDBFB"/>
<path opacity="0.3" d="M60.931 98.6385C60.8134 98.5728 60.7123 98.4812 60.6352 98.3706C60.5582 98.2601 60.5073 98.1335 60.4863 98.0005V96.1444L62.4197 97.1111C62.5385 97.1778 62.6403 97.2709 62.7174 97.3832C62.7945 97.4955 62.8448 97.624 62.8644 97.7588V99.6245L60.931 98.6385Z" fill="#4DDBFB"/>
<path opacity="0.55" d="M60.9407 106.981C60.8225 106.91 60.7208 106.815 60.6424 106.701C60.564 106.588 60.5108 106.459 60.4863 106.324V101.79L62.4197 102.757C62.5361 102.828 62.6359 102.924 62.7126 103.037C62.7892 103.151 62.841 103.279 62.8644 103.414V107.967L60.9407 106.981Z" fill="#4DDBFB"/>
<path opacity="0.6" d="M60.9503 115.236C60.8281 115.164 60.7232 115.067 60.643 114.95C60.5628 114.833 60.5093 114.7 60.4863 114.56V110.036L62.4197 111.002C62.539 111.074 62.6414 111.171 62.7198 111.286C62.7982 111.401 62.8508 111.532 62.874 111.669V116.203L60.9503 115.236Z" fill="#4DDBFB"/>
<path opacity="0.65" d="M60.9503 128.025C60.8258 127.952 60.7195 127.851 60.6391 127.73C60.5588 127.61 60.5066 127.473 60.4863 127.329V118.233L62.4197 119.2C62.5419 119.272 62.6468 119.369 62.727 119.486C62.8072 119.603 62.8607 119.736 62.8837 119.876V129.031L60.9503 128.025Z" fill="#4DDBFB"/>
<path opacity="0.7" d="M60.96 133.603C60.8325 133.529 60.7235 133.428 60.6415 133.305C60.5594 133.183 60.5063 133.043 60.4863 132.898V131.09L62.4197 132.134C62.5472 132.208 62.6561 132.31 62.7382 132.432C62.8203 132.554 62.8734 132.694 62.8934 132.84V134.647L60.96 133.603Z" fill="#4DDBFB"/>
<path opacity="0.8" d="M60.9697 141.955C60.8423 141.878 60.7332 141.774 60.6498 141.65C60.5664 141.527 60.5106 141.387 60.4863 141.24V136.755L62.4197 137.818C62.5456 137.896 62.6532 138 62.735 138.124C62.8168 138.247 62.8708 138.387 62.8934 138.533V143.038L60.9697 141.955Z" fill="#4DDBFB"/>
<path opacity="0.7" d="M53.6221 128.441C53.4984 128.365 53.3922 128.264 53.3105 128.144C53.2288 128.024 53.1736 127.888 53.1484 127.745V118.784L55.0818 119.799C55.2052 119.872 55.3108 119.971 55.391 120.09C55.4713 120.209 55.5242 120.344 55.5458 120.485V129.495L53.6221 128.441Z" fill="#4DDBFB"/>
<path opacity="0.8" d="M53.6318 137.76C53.5044 137.683 53.3953 137.579 53.3119 137.455C53.2285 137.332 53.1727 137.192 53.1484 137.045V131.409L55.0818 132.463C55.2076 132.539 55.3157 132.642 55.3991 132.764C55.4824 132.885 55.539 133.023 55.5651 133.168V138.843L53.6318 137.76Z" fill="#4DDBFB"/>
<path opacity="0.8" d="M68.2969 146.17C68.1715 146.089 68.0645 145.983 67.9829 145.858C67.9013 145.733 67.8469 145.592 67.8232 145.445V140.612L69.7566 141.675C69.8837 141.754 69.992 141.86 70.0738 141.985C70.1556 142.11 70.209 142.252 70.2303 142.4V147.233L68.2969 146.17Z" fill="#4DDBFB"/>
<path opacity="0.7" d="M68.2871 137.683C68.1612 137.605 68.0536 137.5 67.9718 137.377C67.8901 137.253 67.836 137.114 67.8135 136.967V132.405L69.7468 133.439C69.8728 133.517 69.9804 133.621 70.0621 133.745C70.1439 133.868 70.1979 134.008 70.2205 134.154V138.736L68.2871 137.683Z" fill="#4DDBFB"/>
<path opacity="0.65" d="M68.2871 129.273C68.1627 129.195 68.0561 129.092 67.9745 128.971C67.8928 128.849 67.8379 128.711 67.8135 128.567V123.994L69.7468 124.961C69.8714 125.035 69.9777 125.136 70.058 125.256C70.1383 125.377 70.1906 125.514 70.2108 125.657V130.259L68.2871 129.273Z" fill="#4DDBFB"/>
<path opacity="0.6" d="M68.2775 120.93C68.1541 120.857 68.0485 120.758 67.9682 120.639C67.888 120.52 67.8351 120.385 67.8135 120.244V110.993L69.7468 111.959C69.8673 112.032 69.9703 112.131 70.0488 112.247C70.1273 112.364 70.1793 112.497 70.2012 112.636V121.926L68.2775 120.93Z" fill="#4DDBFB"/>
<path opacity="0.3" d="M68.2678 107.977C68.1485 107.905 68.0461 107.808 67.9677 107.693C67.8893 107.578 67.8367 107.447 67.8135 107.31V99.7695L69.7468 100.736C69.8632 100.808 69.9631 100.904 70.0397 101.017C70.1164 101.13 70.1681 101.259 70.1915 101.393V108.992L68.2678 107.977Z" fill="#4DDBFB"/>
<path opacity="0.15" d="M68.2679 96.7244C68.1492 96.6578 68.0473 96.5647 67.9702 96.4524C67.8931 96.3401 67.8428 96.2116 67.8232 96.0768V86.7967L69.7566 87.7053C69.8731 87.7689 69.9731 87.8588 70.0486 87.9679C70.1242 88.077 70.1731 88.2023 70.1916 88.3337V97.6621L68.2679 96.7244Z" fill="#4DDBFB"/>
<path opacity="0.15" d="M68.2583 83.7226C68.142 83.6612 68.0419 83.5732 67.9663 83.4656C67.8907 83.3581 67.8417 83.2341 67.8232 83.1039V81.1706L69.7566 82.0599C69.8731 82.1235 69.9731 82.2134 70.0486 82.3225C70.1242 82.4316 70.1731 82.5569 70.1916 82.6883V84.6216L68.2583 83.7226Z" fill="#4DDBFB"/>
<path opacity="0.08" d="M68.2486 78.1062C68.1348 78.0453 68.0371 77.9584 67.9632 77.8525C67.8893 77.7467 67.8413 77.625 67.8232 77.4972V72.8378L69.7566 73.7079C69.8718 73.7669 69.9709 73.8533 70.045 73.9595C70.1192 74.0656 70.1662 74.1883 70.1819 74.3169V78.9859L68.2486 78.1062Z" fill="#4DDBFB"/>
<path opacity="0.3" d="M60.931 93.1477C60.8134 93.082 60.7123 92.9904 60.6352 92.8799C60.5582 92.7694 60.5073 92.6428 60.4863 92.5097V90.644L62.4197 91.6107C62.5382 91.6753 62.6401 91.7665 62.7173 91.8773C62.7944 91.988 62.8448 92.1152 62.8644 92.2487V94.1241L60.931 93.1477Z" fill="#4DDBFB"/>
<path opacity="0.15" d="M60.9213 87.5023C60.8067 87.4365 60.7081 87.346 60.6329 87.2373C60.5576 87.1286 60.5076 87.0045 60.4863 86.874V82.3113L62.4197 83.2103C62.535 83.2729 62.6343 83.3613 62.7097 83.4686C62.7852 83.5759 62.8348 83.6993 62.8547 83.829V88.4207L60.9213 87.5023Z" fill="#4DDBFB"/>
<path opacity="0.08" d="M60.9213 79.2952C60.8067 79.2342 60.7078 79.1475 60.6324 79.0418C60.5569 78.9361 60.5069 78.8144 60.4863 78.6862V74.1042L62.4197 74.9839C62.5334 75.0448 62.6312 75.1318 62.7051 75.2376C62.779 75.3434 62.8269 75.4651 62.845 75.5929V80.1943L60.9213 79.2952Z" fill="#4DDBFB"/>
<path opacity="0.05" d="M60.9117 71.0592C60.7996 70.9985 60.7029 70.913 60.6292 70.809C60.5554 70.7051 60.5065 70.5856 60.4863 70.4598V61.2667L62.4197 62.1077C62.5307 62.1661 62.6262 62.25 62.6985 62.3525C62.7708 62.455 62.8177 62.5732 62.8354 62.6974V71.9292L60.9117 71.0592Z" fill="#4DDBFB"/>
<path opacity="0.02" d="M60.8629 58.2023C60.7522 58.1461 60.6566 58.0641 60.5842 57.9631C60.5119 57.8622 60.4649 57.7453 60.4473 57.6223V55.689L62.3806 56.501C62.4914 56.5572 62.587 56.6392 62.6594 56.7402C62.7317 56.8411 62.7787 56.958 62.7963 57.081V59.0143L60.8629 58.2023Z" fill="#4DDBFB"/>
<path opacity="0.05" d="M68.2486 69.8025C68.1356 69.743 68.0381 69.6578 67.9642 69.5537C67.8903 69.4495 67.842 69.3294 67.8232 69.2031V59.8843L69.7566 60.706C69.8686 60.7631 69.965 60.8467 70.0374 60.9494C70.1098 61.0522 70.1561 61.171 70.1723 61.2957V70.6531L68.2486 69.8025Z" fill="#4DDBFB"/>
<path opacity="0.02" d="M53.5738 57.719C53.4619 57.6656 53.3647 57.5858 53.2906 57.4864C53.2165 57.387 53.1677 57.2711 53.1484 57.1487V52.6149L55.0818 53.4366C55.1906 53.4903 55.2851 53.5692 55.3574 53.6667C55.4297 53.7642 55.4777 53.8775 55.4975 53.9973V58.56L53.5738 57.719Z" fill="#4DDBFB"/>
<path opacity="0.05" d="M53.5738 65.9357C53.4624 65.8767 53.3661 65.7928 53.2923 65.6905C53.2186 65.5883 53.1693 65.4704 53.1484 65.3461V60.822L55.0818 61.663C55.192 61.7211 55.2876 61.8035 55.3613 61.904C55.435 62.0045 55.4849 62.1204 55.5071 62.243V66.7864L53.5738 65.9357Z" fill="#4DDBFB"/>
<path opacity="0.08" d="M53.5834 78.5992C53.4698 78.537 53.3716 78.45 53.2963 78.3445C53.2209 78.2391 53.1704 78.118 53.1484 77.9902V68.9518L55.0818 69.8218C55.1964 69.8778 55.2958 69.9607 55.3715 70.0634C55.4473 70.166 55.4971 70.2854 55.5168 70.4115V79.4693L53.5834 78.5992Z" fill="#4DDBFB"/>
<path opacity="0.15" d="M53.5931 89.5614C53.4765 89.4993 53.3757 89.4112 53.2986 89.3039C53.2214 89.1967 53.1701 89.073 53.1484 88.9427V81.5669L55.0818 82.4756C55.1984 82.5377 55.2992 82.6258 55.3764 82.7331C55.4535 82.8403 55.5048 82.9639 55.5265 83.0943V90.499L53.5931 89.5614Z" fill="#4DDBFB"/>
<path opacity="0.3" d="M75.6336 101.345C75.657 101.21 75.7087 101.082 75.7854 100.969C75.862 100.855 75.9618 100.76 76.0783 100.688L78.0116 99.7211V108.982C77.9873 109.12 77.9332 109.251 77.8531 109.367C77.773 109.482 77.6687 109.578 77.5476 109.649L75.6143 110.616L75.6336 101.345Z" fill="#4DDBFB"/>
<path opacity="0.6" d="M75.6337 114.405C75.6556 114.266 75.7076 114.133 75.7861 114.016C75.8645 113.9 75.9676 113.801 76.088 113.728L78.0214 112.762V114.627C77.9984 114.767 77.9449 114.9 77.8647 115.017C77.7846 115.134 77.6796 115.232 77.5574 115.304L75.624 116.271L75.6337 114.405Z" fill="#4DDBFB"/>
<path opacity="0.6" d="M75.6337 120.07C75.6553 119.928 75.7082 119.793 75.7884 119.674C75.8687 119.556 75.9743 119.456 76.0977 119.383L78.0311 118.417V122.97C78.0083 123.112 77.954 123.248 77.872 123.367C77.7901 123.485 77.6826 123.584 77.5574 123.656L75.624 124.671L75.6337 120.07Z" fill="#4DDBFB"/>
<path opacity="0.3" d="M82.9707 97.7298C82.9903 97.595 83.0405 97.4665 83.1176 97.3542C83.1947 97.2419 83.2966 97.1488 83.4154 97.0821L85.3487 96.1154V97.9715C85.3278 98.1045 85.2769 98.2311 85.1998 98.3417C85.1228 98.4522 85.0217 98.5438 84.9041 98.6095L82.9707 99.5762V97.7298Z" fill="#4DDBFB"/>
<path opacity="0.55" d="M82.9707 103.404C82.9952 103.269 83.0484 103.14 83.1268 103.026C83.2051 102.913 83.3068 102.818 83.425 102.747L85.3584 101.78V106.314C85.3378 106.451 85.2861 106.581 85.2074 106.695C85.1286 106.809 85.0249 106.904 84.9041 106.971L82.9707 107.938V103.404Z" fill="#4DDBFB"/>
<path opacity="0.6" d="M82.9707 111.64C82.9939 111.503 83.0465 111.372 83.1249 111.257C83.2034 111.142 83.3057 111.045 83.425 110.973L85.3584 110.007V114.531C85.3365 114.67 85.2845 114.802 85.206 114.919C85.1276 115.036 85.0245 115.134 84.9041 115.207L82.9707 116.174V111.64Z" fill="#4DDBFB"/>
<path opacity="0.65" d="M82.9707 119.915C82.9937 119.775 83.0472 119.642 83.1274 119.525C83.2075 119.408 83.3125 119.31 83.4347 119.238L85.3681 118.272V127.368C85.3478 127.511 85.2956 127.648 85.2152 127.769C85.1349 127.889 85.0286 127.99 84.9041 128.064L82.9707 129.098V119.915Z" fill="#4DDBFB"/>
<path opacity="0.7" d="M82.9707 132.84C82.994 132.695 83.0483 132.557 83.1301 132.435C83.2119 132.313 83.3191 132.21 83.4444 132.134L85.3777 131.09V132.888C85.3578 133.034 85.3047 133.173 85.2226 133.296C85.1405 133.418 85.0316 133.52 84.9041 133.594L83.019 134.647L82.9707 132.84Z" fill="#4DDBFB"/>
<path opacity="0.8" d="M82.9707 138.533C82.9933 138.387 83.0473 138.247 83.1291 138.124C83.2108 138 83.3184 137.896 83.4444 137.818L85.3777 136.755V141.24C85.3534 141.386 85.2986 141.525 85.217 141.648C85.1354 141.771 85.0288 141.876 84.9041 141.955L83.019 143.038L82.9707 138.533Z" fill="#4DDBFB"/>
<path opacity="0.7" d="M75.6336 128.393C75.6563 128.249 75.7095 128.112 75.7895 127.99C75.8695 127.868 75.9745 127.765 76.0976 127.687L78.031 126.72V135.943C78.0113 136.091 77.9575 136.233 77.8736 136.357C77.7897 136.481 77.6781 136.584 77.5476 136.658L75.6143 137.702L75.6336 128.393Z" fill="#4DDBFB"/>
<path opacity="0.8" d="M75.6337 141.395C75.6563 141.248 75.7103 141.108 75.7921 140.985C75.8738 140.862 75.9814 140.757 76.1074 140.679L78.0407 139.616V145.416C78.0171 145.565 77.9617 145.706 77.8783 145.831C77.7949 145.956 77.6854 146.062 77.5574 146.141L75.624 147.224L75.6337 141.395Z" fill="#4DDBFB"/>
<path opacity="0.8" d="M90.3086 134.145C90.3286 133.999 90.3816 133.859 90.4637 133.737C90.5458 133.615 90.6548 133.513 90.7823 133.439L92.7156 132.376V137.045C92.6913 137.192 92.6356 137.332 92.5521 137.455C92.4687 137.579 92.3596 137.683 92.2323 137.76L90.3569 138.833L90.3086 134.145Z" fill="#4DDBFB"/>
<path opacity="0.7" d="M90.2979 126.102C90.3206 125.959 90.3749 125.824 90.4569 125.705C90.5388 125.586 90.6464 125.487 90.7715 125.415L92.7049 124.381V128.77C92.6797 128.913 92.6245 129.049 92.5428 129.169C92.4612 129.289 92.3549 129.39 92.2312 129.466L90.3462 130.519L90.2979 126.102Z" fill="#4DDBFB"/>
<path opacity="0.65" d="M90.2979 117.856C90.3232 117.717 90.3788 117.585 90.4607 117.47C90.5425 117.355 90.6486 117.259 90.7715 117.189L92.7049 116.174V120.611C92.6808 120.752 92.6259 120.886 92.544 121.003C92.4621 121.12 92.3552 121.217 92.2312 121.288L90.3462 122.322L90.2979 117.856Z" fill="#4DDBFB"/>
<path opacity="0.6" d="M90.2979 105.135C90.3235 104.998 90.3781 104.869 90.4582 104.755C90.5383 104.642 90.6418 104.547 90.7619 104.477L92.6952 103.511V112.501C92.6709 112.639 92.6168 112.77 92.5367 112.885C92.4566 113 92.3523 113.097 92.2312 113.168L90.2979 114.134V105.135Z" fill="#4DDBFB"/>
<path opacity="0.3" d="M90.2979 94.1144C90.3249 93.9823 90.3793 93.8572 90.4575 93.7473C90.5358 93.6375 90.6361 93.5452 90.7522 93.4764L92.6855 92.5097V99.8565C92.6598 99.9904 92.606 100.117 92.5277 100.229C92.4494 100.341 92.3483 100.434 92.2312 100.504L90.2979 101.471V94.1144Z" fill="#4DDBFB"/>
<path opacity="0.15" d="M90.3075 81.4026C90.3288 81.2734 90.379 81.1506 90.4543 81.0435C90.5296 80.9364 90.6281 80.8477 90.7425 80.7839L92.6759 79.8849V88.9137C92.6542 89.044 92.6029 89.1676 92.5258 89.2749C92.4487 89.3822 92.3479 89.4703 92.2312 89.5324L90.2979 90.499L90.3075 81.4026Z" fill="#4DDBFB"/>
<path opacity="0.15" d="M90.3086 75.9312C90.3269 75.8023 90.376 75.6796 90.4517 75.5736C90.5275 75.4676 90.6276 75.3814 90.7436 75.3222L92.677 74.4425V76.2792C92.6564 76.4074 92.6064 76.5291 92.5309 76.6348C92.4555 76.7404 92.3565 76.8272 92.2419 76.8882L90.3086 77.7872V75.9312Z" fill="#4DDBFB"/>
<path opacity="0.08" d="M90.3086 67.7531C90.3288 67.6285 90.3777 67.5104 90.4516 67.408C90.5254 67.3056 90.6221 67.2219 90.7339 67.1634L92.6673 66.3031V70.8175C92.6471 70.9421 92.5981 71.0602 92.5243 71.1626C92.4505 71.2649 92.3538 71.3487 92.2419 71.4072L90.3086 72.2965V67.7531Z" fill="#4DDBFB"/>
<path opacity="0.3" d="M82.9707 92.2101C82.9903 92.0765 83.0406 91.9493 83.1178 91.8386C83.195 91.7279 83.2968 91.6366 83.4154 91.5721L85.3487 90.6054V92.4711C85.3292 92.6046 85.2788 92.7318 85.2016 92.8425C85.1245 92.9533 85.0226 93.0445 84.9041 93.1091L82.9707 94.0758V92.2101Z" fill="#4DDBFB"/>
<path opacity="0.15" d="M82.9707 83.829C82.9906 83.6993 83.0402 83.5759 83.1157 83.4686C83.1911 83.3613 83.2904 83.2729 83.4057 83.2103L85.3391 82.3113V86.874C85.3178 87.0045 85.2677 87.1286 85.1925 87.2373C85.1172 87.346 85.0187 87.4365 84.9041 87.5023L82.9707 88.469V83.829Z" fill="#4DDBFB"/>
<path opacity="0.08" d="M82.9716 75.6025C82.9897 75.4748 83.0376 75.353 83.1115 75.2472C83.1854 75.1414 83.2832 75.0545 83.3969 74.9935L85.3303 74.1235V78.6959C85.3119 78.8249 85.2628 78.9475 85.1871 79.0535C85.1114 79.1595 85.0113 79.2457 84.8953 79.3049L82.9619 80.2039L82.9716 75.6025Z" fill="#4DDBFB"/>
<path opacity="0.05" d="M82.9716 62.6974C82.9893 62.5732 83.0362 62.455 83.1084 62.3525C83.1807 62.25 83.2763 62.1661 83.3873 62.1077L85.3206 61.2764V70.4598C85.3018 70.5861 85.2535 70.7062 85.1796 70.8103C85.1057 70.9145 85.0083 70.9997 84.8953 71.0591L82.9619 71.9291L82.9716 62.6974Z" fill="#4DDBFB"/>
<path opacity="0.02" d="M82.9707 57.1003C82.9883 56.9774 83.0353 56.8605 83.1076 56.7595C83.18 56.6586 83.2756 56.5765 83.3864 56.5203L85.3197 55.7083V57.6417C85.3021 57.7646 85.2551 57.8815 85.1828 57.9825C85.1104 58.0834 85.0148 58.1655 84.9041 58.2217L82.9707 59.053V57.1003Z" fill="#4DDBFB"/>
<path opacity="0.03" d="M90.3075 55.0606C90.3266 54.9394 90.3742 54.8245 90.4465 54.7253C90.5188 54.6261 90.6136 54.5456 90.7232 54.4903L92.6565 53.6686V62.7264C92.6378 62.8515 92.5895 62.9703 92.5155 63.0729C92.4415 63.1755 92.344 63.2588 92.2312 63.3161L90.2979 64.1667L90.3075 55.0606Z" fill="#4DDBFB"/>
<path opacity="0.03" d="M75.6337 60.2033C75.6497 60.0799 75.696 59.9623 75.7686 59.8611C75.8411 59.7598 75.9376 59.6782 76.0494 59.6233L77.9827 58.8017V63.4707C77.9648 63.5961 77.9167 63.7152 77.8426 63.8179C77.7686 63.9206 77.6707 64.0038 77.5574 64.0604L75.624 64.9014L75.6337 60.2033Z" fill="#4DDBFB"/>
<path opacity="0.05" d="M75.6338 68.6618C75.651 68.535 75.6987 68.4142 75.7728 68.3099C75.8469 68.2055 75.9451 68.1206 76.0591 68.0625L77.9925 67.2118V71.8712C77.9737 71.9987 77.9254 72.1201 77.8516 72.2258C77.7778 72.3315 77.6804 72.4186 77.5671 72.4802L75.6338 73.3405V68.6618Z" fill="#4DDBFB"/>
<path opacity="0.08" d="M75.6337 77.0332C75.6543 76.905 75.7043 76.7833 75.7797 76.6777C75.8552 76.572 75.9541 76.4853 76.0687 76.4242L78.0021 75.5542V84.8536C77.9819 84.9845 77.9311 85.1087 77.8538 85.2162C77.7765 85.3237 77.675 85.4115 77.5574 85.4723L75.624 86.381L75.6337 77.0332Z" fill="#4DDBFB"/>
<path opacity="0.15" d="M75.6338 90.0447C75.6533 89.9112 75.7037 89.784 75.7809 89.6732C75.858 89.5625 75.9599 89.4713 76.0785 89.4067L78.0118 88.498V96.0768C77.9922 96.2116 77.942 96.3401 77.8649 96.4524C77.7878 96.5647 77.6859 96.6578 77.5671 96.7245L75.6338 97.6911V90.0447Z" fill="#4DDBFB"/>
</g>
<defs>
<linearGradient id="paint0_linear" x1="6.96069" y1="146.412" x2="142.392" y2="146.412" gradientUnits="userSpaceOnUse">
<stop offset="0.03" stop-color="#005FE7"/>
<stop offset="0.04" stop-color="#0062E4"/>
<stop offset="0.13" stop-color="#0074CD"/>
<stop offset="0.22" stop-color="#0081BD"/>
<stop offset="0.33" stop-color="#0089B4"/>
<stop offset="0.48" stop-color="#008BB1"/>
<stop offset="0.75" stop-color="#1B94A8"/>
<stop offset="1" stop-color="#399D9E"/>
</linearGradient>
<linearGradient id="paint1_linear" x1="6.96177" y1="162.343" x2="142.393" y2="162.343" gradientUnits="userSpaceOnUse">
<stop stop-color="#03C3F8"/>
<stop offset="0.23" stop-color="#379FC4"/>
<stop offset="0.51" stop-color="#38A0C2"/>
<stop offset="0.78" stop-color="#4FB0A8"/>
<stop offset="1" stop-color="#09D6A5"/>
</linearGradient>
<linearGradient id="paint2_linear" x1="22.8634" y1="130.648" x2="127.529" y2="156.131" gradientUnits="userSpaceOnUse">
<stop offset="0.03" stop-color="#0087D4"/>
<stop offset="0.04" stop-color="#008AD4"/>
<stop offset="0.16" stop-color="#009AD4"/>
<stop offset="0.3" stop-color="#00A3D4"/>
<stop offset="0.48" stop-color="#00A6D4"/>
<stop offset="0.75" stop-color="#1BA2BA"/>
<stop offset="1" stop-color="#399D9E"/>
</linearGradient>
<linearGradient id="paint3_linear" x1="37.3353" y1="130.626" x2="115.261" y2="149.59" gradientUnits="userSpaceOnUse">
<stop stop-color="#630692"/>
<stop offset="0.23" stop-color="#5B0E94"/>
<stop offset="0.59" stop-color="#432399"/>
<stop offset="1" stop-color="#2142A1"/>
</linearGradient>
<linearGradient id="paint4_linear" x1="73.053" y1="147.746" x2="73.053" y2="2.73434" gradientUnits="userSpaceOnUse">
<stop stop-color="#25BFEC"/>
<stop offset="0.71" stop-color="#25BFEC" stop-opacity="0"/>
</linearGradient>
<linearGradient id="paint5_linear" x1="73.0526" y1="146.16" x2="73.0526" y2="14.9242" gradientUnits="userSpaceOnUse">
<stop stop-color="#70E8FC"/>
<stop offset="0.75" stop-color="#70E8FC" stop-opacity="0"/>
</linearGradient>
</defs>
</svg>
