<svg width="65" height="40" viewBox="0 0 65 40" fill="none" xmlns="http://www.w3.org/2000/svg">
<path fill-rule="evenodd" clip-rule="evenodd" d="M56.8882 18.897C56.32 10.0647 48.9763 3.0769 40.0005 3.0769C31.8758 3.0769 25.0884 8.8023 23.4528 16.4385C21.9274 15.761 20.2386 15.3846 18.462 15.3846C11.6646 15.3846 6.1543 20.8949 6.1543 27.6923C6.1543 33.9686 10.8523 39.1477 16.9235 39.9048V40H18.462H53.8466H55.3851V39.8909C60.604 39.1444 64.6158 34.6561 64.6158 29.2308C64.6158 24.3393 61.3548 20.2096 56.8882 18.897Z" fill="#03C3F8"/>
<g style="mix-blend-mode:screen">
<path d="M5.55172 10.7115C5.95993 4.73135 11.2358 0 17.6842 0C23.5211 0 28.3974 3.87657 29.5724 9.04694C30.6683 8.58823 31.8815 8.33333 33.1579 8.33333C38.0413 8.33333 42 12.0643 42 16.6667C42 20.9163 38.6249 24.4229 34.2632 24.9355V25H6.63158V24.9262C2.8822 24.4207 0 21.3817 0 17.7083C0 14.3964 2.34282 11.6003 5.55172 10.7115Z" fill="#A84DB1"/>
</g>
</svg>
