<svg width="189" height="178" viewBox="0 0 189 178" fill="none" xmlns="http://www.w3.org/2000/svg">
<mask id="mask0" mask-type="alpha" maskUnits="userSpaceOnUse" x="0" y="0" width="189" height="178">
<rect width="189" height="178" fill="#C4C4C4"/>
</mask>
<g mask="url(#mask0)">
<path opacity="0.4" d="M181.195 153.135C148.191 186.31 94.711 186.31 61.7076 153.135C28.7042 119.96 28.7042 66.1006 61.7076 32.9257C94.711 -0.249235 148.191 -0.249235 181.195 32.9257C214.198 66.1006 214.198 119.902 181.195 153.135Z" fill="url(#paint0_radial)"/>
<path opacity="0.4" d="M251.779 145.455C223.465 173.989 177.535 173.989 149.222 145.455C120.909 116.921 120.909 70.7401 149.222 42.2063C177.535 13.7297 223.465 13.7297 251.779 42.2063C280.092 70.6828 280.092 116.979 251.779 145.455Z" fill="url(#paint1_radial)"/>
<path d="M164.036 159.951C162.092 159.951 160.261 159.55 158.889 158.748L117.248 134.684C115.875 133.881 115.132 132.793 115.132 131.589C115.132 130.157 116.219 128.667 118.106 127.579L158.088 104.488C161.577 102.483 166.839 102.253 169.871 104.03L211.511 128.094C212.884 128.897 213.627 129.985 213.627 131.188C213.627 132.621 212.54 134.111 210.653 135.199L170.671 158.29C168.784 159.378 166.324 159.951 164.036 159.951ZM159.174 158.29C162.034 159.951 167.125 159.722 170.443 157.831L210.424 134.741C212.14 133.767 213.112 132.449 213.112 131.188C213.112 130.157 212.426 129.183 211.225 128.495L169.585 104.431C166.725 102.769 161.634 102.998 158.317 104.889L118.335 127.98C116.619 128.954 115.647 130.272 115.647 131.532C115.647 132.564 116.333 133.538 117.534 134.225L159.174 158.29Z" fill="url(#paint2_linear)"/>
<path opacity="0.1" d="M164.036 165.165C162.092 165.165 160.261 164.764 158.889 163.962L117.248 139.898C115.875 139.095 115.132 138.007 115.132 136.803C115.132 135.371 116.219 133.881 118.106 132.793L158.088 109.702C161.577 107.697 166.839 107.467 169.871 109.244L211.511 133.308C212.884 134.111 213.627 135.199 213.627 136.402C213.627 137.835 212.54 139.325 210.653 140.413L170.671 163.504C168.784 164.592 166.324 165.165 164.036 165.165ZM164.723 108.556C162.492 108.556 160.147 109.072 158.317 110.16L118.335 133.251C116.619 134.225 115.647 135.543 115.647 136.803C115.647 137.835 116.333 138.809 117.534 139.496L159.174 163.561C162.034 165.223 167.125 164.994 170.443 163.103L210.424 140.012C212.14 139.038 213.112 137.72 213.112 136.46C213.112 135.428 212.426 134.454 211.225 133.767L169.585 109.702C168.326 108.9 166.553 108.556 164.723 108.556Z" fill="url(#paint3_linear)"/>
<g opacity="0.4">
<path opacity="0.4" d="M213.341 108.27H192.692L169.699 94.9767C166.724 93.2578 161.577 93.487 158.145 95.4351L136.066 108.27H115.418V122.135C115.36 123.281 115.99 124.427 117.42 125.23L159.06 149.294C162.034 151.013 167.182 150.784 170.614 148.836L210.596 125.745C212.369 124.714 213.341 123.396 213.398 122.193V108.27H213.341Z" fill="url(#paint4_linear)"/>
<path opacity="0.4" d="M116.733 123.11V109.244H137.382L159.517 96.4091C162.949 94.4611 168.097 94.2319 171.072 95.9508L194.065 109.244H213.398V108.27H192.75L169.756 94.9767C166.782 93.2578 161.634 93.487 158.202 95.4351L136.066 108.27H115.418V122.135C115.36 123.281 115.99 124.427 117.42 125.23L117.648 125.344C116.962 124.714 116.676 123.912 116.733 123.11Z" fill="#D4088C"/>
<path opacity="0.4" d="M159.002 135.43L117.362 111.365C114.388 109.646 114.788 106.667 118.163 104.661L158.144 81.5705C161.576 79.6224 166.724 79.3932 169.699 81.1121L211.339 105.177C214.313 106.896 213.913 109.875 210.538 111.881L170.556 134.971C167.125 136.977 161.977 137.149 159.002 135.43Z" fill="url(#paint5_linear)"/>
<path opacity="0.4" d="M211.339 105.176L169.698 81.1109C168.154 80.2514 166.038 79.8503 163.864 79.9649C165.466 80.0795 166.896 80.4233 168.04 81.1109L209.68 105.176C212.654 106.894 212.254 109.874 208.879 111.879L168.898 134.97C167.239 135.944 165.18 136.46 163.178 136.574C165.694 136.746 168.44 136.173 170.499 134.97L210.481 111.879C213.913 109.874 214.313 106.894 211.339 105.176Z" fill="#6EE8FC"/>
<path opacity="0.4" d="M164.094 129.699C162.606 129.699 161.234 129.412 160.204 128.782L129.203 110.848C128.116 110.218 127.544 109.358 127.544 108.384C127.544 107.238 128.402 106.092 129.832 105.29L159.575 88.1011C162.206 86.5541 166.21 86.4395 168.498 87.7573L199.499 105.691C200.586 106.322 201.158 107.181 201.158 108.155C201.158 109.301 200.3 110.447 198.87 111.249L169.127 128.438C167.697 129.298 165.867 129.699 164.094 129.699ZM160.547 128.209C162.664 129.412 166.324 129.24 168.784 127.865L198.527 110.676C199.728 109.989 200.472 109.072 200.472 108.155C200.472 107.467 200.014 106.78 199.156 106.322L168.155 88.3876C166.038 87.1843 162.378 87.3562 159.918 88.7313L130.175 105.92C128.974 106.608 128.23 107.525 128.23 108.441C128.23 109.129 128.688 109.817 129.546 110.275L160.547 128.209Z" fill="#480689"/>
<path opacity="0.4" d="M160.891 135.428L119.251 111.364C116.277 109.645 116.677 106.665 120.052 104.66L160.033 81.5692C161.635 80.6525 163.694 80.0795 165.639 79.9649C163.122 79.793 160.262 80.3087 158.146 81.5692L118.221 104.717C114.789 106.665 114.446 109.702 117.42 111.421L159.061 135.486C160.605 136.402 162.779 136.746 164.952 136.632C163.408 136.46 161.978 136.116 160.891 135.428Z" fill="#D4088C"/>
</g>
<g opacity="0.5">
<path opacity="0.5" d="M213.341 89.1897H192.692L169.698 75.8968C166.724 74.1779 161.576 74.4071 158.144 76.3552L136.009 89.1897H115.36V103.056C115.303 104.202 115.932 105.347 117.362 106.15L159.002 130.214C161.977 131.933 167.124 131.704 170.556 129.756L210.538 106.665C212.311 105.634 213.283 104.316 213.341 103.113V89.1897V89.1897Z" fill="url(#paint6_linear)"/>
<path opacity="0.5" d="M116.733 104.03V90.1638H137.382L159.517 77.3293C162.949 75.3812 168.097 75.152 171.072 76.8709L194.065 90.1638H213.398V89.1897H192.75L169.756 75.8968C166.782 74.1779 161.634 74.4071 158.202 76.3552L136.066 89.1897H115.418V103.056C115.36 104.202 115.99 105.347 117.42 106.15L117.648 106.264C116.962 105.577 116.676 104.832 116.733 104.03Z" fill="#D4088C"/>
<path opacity="0.5" d="M159.002 116.35L117.362 92.285C114.388 90.5661 114.788 87.5867 118.163 85.5813L158.144 62.4906C161.576 60.5425 166.724 60.3134 169.699 62.0323L211.339 86.097C214.313 87.8159 213.913 90.7953 210.538 92.8007L170.556 115.891C167.125 117.839 161.977 118.069 159.002 116.35Z" fill="url(#paint7_linear)"/>
<path opacity="0.5" d="M211.339 86.0957L169.698 62.031C168.154 61.1715 166.038 60.7705 163.864 60.8851C165.466 60.9996 166.896 61.3434 168.04 62.031L209.68 86.0957C212.654 87.8146 212.254 90.794 208.879 92.7994L168.898 115.89C167.239 116.864 165.18 117.38 163.178 117.494C165.694 117.666 168.44 117.093 170.499 115.89L210.481 92.7994C213.913 90.794 214.313 87.7573 211.339 86.0957Z" fill="#6EE8FC"/>
<path opacity="0.5" d="M164.093 110.619C162.605 110.619 161.233 110.332 160.203 109.702L129.202 91.7681C128.115 91.1378 127.543 90.2784 127.543 89.3043C127.543 88.1584 128.401 87.0124 129.831 86.2103L159.574 69.0212C162.205 67.4742 166.209 67.3596 168.497 68.6774L199.498 86.6114C200.585 87.2416 201.157 88.1011 201.157 89.0751C201.157 90.2211 200.299 91.367 198.869 92.1692L169.126 109.358C167.696 110.16 165.866 110.619 164.093 110.619ZM164.607 68.4482C163.006 68.4482 161.29 68.8493 159.917 69.5942L130.174 86.7833C128.973 87.4708 128.229 88.3876 128.229 89.3043C128.229 89.9919 128.687 90.6795 129.545 91.1378L160.546 109.072C162.663 110.275 166.323 110.103 168.783 108.728L198.526 91.5389C199.727 90.8513 200.471 89.9346 200.471 89.0178C200.471 88.3303 200.013 87.6427 199.155 87.1843L168.154 69.2504C167.239 68.6774 165.98 68.4482 164.607 68.4482Z" fill="#480689"/>
<path opacity="0.5" d="M160.89 116.348L119.25 92.2838C116.276 90.5649 116.676 87.5854 120.051 85.58L160.032 62.4894C161.634 61.5726 163.693 60.9996 165.638 60.8851C163.121 60.7132 160.261 61.2288 158.145 62.4894L118.22 85.58C114.788 87.5281 114.445 90.5649 117.42 92.2838L159.06 116.348C160.604 117.265 162.778 117.609 164.951 117.494C163.407 117.323 161.977 116.979 160.89 116.348Z" fill="#D4088C"/>
</g>
<g opacity="0.7">
<path opacity="0.7" d="M213.341 70.0526H192.692L169.698 56.7597C166.724 55.0408 161.576 55.27 158.144 57.2181L136.009 70.0526H115.36V83.9184C115.303 85.0644 115.932 86.2103 117.362 87.0125L159.002 111.077C161.977 112.796 167.124 112.567 170.556 110.619L210.538 87.5281C212.311 86.4968 213.283 85.179 213.341 83.9757V70.0526V70.0526Z" fill="url(#paint8_linear)"/>
<path opacity="0.7" d="M116.733 84.8925V71.0266H137.382L159.517 58.1921C162.949 56.244 168.097 56.0148 171.072 57.7337L194.065 71.0266H213.398V70.0526H192.75L169.756 56.7597C166.782 55.0408 161.634 55.27 158.202 57.2181L136.066 70.0526H115.418V83.9184C115.36 85.0644 115.99 86.2103 117.42 87.0125L117.648 87.1271C116.962 86.4968 116.676 85.6946 116.733 84.8925Z" fill="#D4088C"/>
<path opacity="0.7" d="M159.002 97.2126L117.362 73.1479C114.388 71.429 114.788 68.4495 118.163 66.4441L158.144 43.3535C161.576 41.4054 166.724 41.1762 169.699 42.8951L211.339 66.9598C214.313 68.6787 213.913 71.6582 210.538 73.6635L170.556 96.7542C167.125 98.7023 161.977 98.9315 159.002 97.2126Z" fill="url(#paint9_linear)"/>
<path opacity="0.7" d="M211.339 66.9585L169.698 42.8938C168.154 42.0344 166.038 41.6333 163.864 41.7479C165.466 41.8625 166.896 42.2063 168.04 42.8938L209.68 66.9585C212.654 68.6774 212.254 71.6569 208.879 73.6623L168.898 96.7529C167.239 97.727 165.18 98.2426 163.178 98.3572C165.694 98.5291 168.44 97.9562 170.499 96.7529L210.481 73.6623C213.913 71.6569 214.313 68.6774 211.339 66.9585Z" fill="#6EE8FC"/>
<path opacity="0.7" d="M164.093 91.4816C162.605 91.4816 161.233 91.1951 160.203 90.5649L129.202 72.6309C128.115 72.0007 127.543 71.1412 127.543 70.1672C127.543 69.0212 128.401 67.8753 129.831 67.0731L159.574 49.884C162.205 48.337 166.209 48.2224 168.497 49.5403L199.498 67.4742C200.585 68.1045 201.157 68.9639 201.157 69.938C201.157 71.0839 200.299 72.2298 198.869 73.032L169.126 90.2211C167.696 91.0805 165.866 91.4816 164.093 91.4816ZM164.607 49.3111C163.006 49.3111 161.29 49.7121 159.917 50.457L130.174 67.6461C128.973 68.3337 128.229 69.2504 128.229 70.1672C128.229 70.8547 128.687 71.5423 129.545 72.0007L160.546 89.9346C162.663 91.1378 166.323 90.9659 168.783 89.5908L198.526 72.4017C199.727 71.7142 200.471 70.7974 200.471 69.8807C200.471 69.1931 200.013 68.5055 199.155 68.0472L168.154 50.1132C167.239 49.5976 165.98 49.3111 164.607 49.3111Z" fill="#480689"/>
<path opacity="0.7" d="M160.89 97.2113L119.25 73.1466C116.276 71.4277 116.676 68.4482 120.051 66.4429L160.032 43.3522C161.634 42.4354 163.693 41.8625 165.638 41.7479C163.121 41.576 160.261 42.0917 158.145 43.3522L118.22 66.5001C114.788 68.4482 114.445 71.485 117.42 73.2039L159.06 97.2686C160.604 98.1853 162.778 98.5291 164.951 98.4145C163.407 98.2426 161.977 97.8416 160.89 97.2113Z" fill="#D4088C"/>
</g>
<path d="M213.341 50.9154H192.692L169.698 37.6225C166.724 35.9036 161.576 36.1328 158.144 38.0809L136.009 50.9154H115.36V64.7812C115.303 65.9272 115.932 67.0731 117.362 67.8753L159.002 91.94C161.977 93.6589 167.124 93.4297 170.556 91.4816L210.538 68.3909C212.311 67.3596 213.283 66.0418 213.341 64.8385V50.9154V50.9154Z" fill="url(#paint10_linear)"/>
<path d="M116.733 65.7553V51.8894H137.382L159.517 39.0549C162.949 37.1068 168.097 36.8776 171.072 38.5965L194.065 51.8894H213.398V50.9154H192.75L169.756 37.6225C166.782 35.9036 161.634 36.1328 158.202 38.0809L136.066 50.9154H115.418V64.7812C115.36 65.9272 115.99 67.0731 117.42 67.8753L117.648 67.9899C116.962 67.3596 116.676 66.5574 116.733 65.7553Z" fill="#D4088C"/>
<path d="M159.002 78.0754L117.362 54.0107C114.388 52.2918 114.788 49.3123 118.163 47.3069L158.144 24.2163C161.576 22.2682 166.724 22.039 169.699 23.7579L211.339 47.8226C214.313 49.5415 213.913 52.521 210.538 54.5264L170.556 77.617C167.125 79.6224 161.977 79.7943 159.002 78.0754Z" fill="url(#paint11_linear)"/>
<path d="M211.339 47.8214L169.698 23.7566C168.154 22.8972 166.038 22.4961 163.864 22.6107C165.466 22.7253 166.896 23.0691 168.04 23.7566L209.68 47.8214C212.654 49.5403 212.254 52.5197 208.879 54.5251L168.898 77.6158C167.239 78.5898 165.18 79.1055 163.178 79.2201C165.694 79.392 168.44 78.819 170.499 77.6158L210.481 54.5251C213.913 52.5197 214.313 49.5403 211.339 47.8214Z" fill="#6EE8FC"/>
<path d="M164.093 72.2299C162.663 72.2299 161.29 71.9434 160.26 71.3704L129.259 53.4365C128.229 52.8635 127.657 52.004 127.657 51.0873C127.657 49.9986 128.458 48.91 129.888 48.1078L159.631 30.9188C162.205 29.429 166.209 29.2572 168.44 30.575L199.441 48.4516C200.471 49.0246 201.043 49.884 201.043 50.8008C201.043 51.8894 200.242 52.9781 198.812 53.7802L169.069 70.9693C167.696 71.8288 165.866 72.2299 164.093 72.2299ZM164.607 30.0593C162.949 30.0593 161.233 30.4604 159.86 31.2625L130.117 48.4516C128.858 49.1965 128.115 50.1705 128.115 51.0873C128.115 51.8321 128.63 52.5197 129.488 53.0354L160.489 70.9693C162.605 72.2299 166.38 72.058 168.897 70.6255L198.64 53.4365C199.899 52.6916 200.642 51.7176 200.642 50.8008C200.642 50.0559 200.127 49.3684 199.269 48.8527L168.268 30.9188C167.296 30.3458 165.98 30.0593 164.607 30.0593Z" fill="url(#paint12_linear)"/>
<path d="M160.89 78.0741L119.25 54.0094C116.276 52.2905 116.676 49.3111 120.051 47.3057L160.032 24.215C161.634 23.2983 163.693 22.7253 165.638 22.6107C163.121 22.4388 160.261 22.9545 158.145 24.215L118.22 47.363C114.788 49.3111 114.445 52.3478 117.42 54.0667L159.06 78.1314C160.604 79.0482 162.778 79.392 164.951 79.2774C163.407 79.1055 161.977 78.7617 160.89 78.0741Z" fill="#25BFEC"/>
<path d="M171.758 85.8093L206.934 65.4115C207.278 65.2396 207.506 64.724 207.506 64.3229V62.6613C207.506 62.2029 207.22 62.031 206.934 62.2029L171.758 82.6006C171.414 82.7725 171.186 83.2882 171.186 83.6893V85.3509C171.186 85.8092 171.414 86.0384 171.758 85.8093Z" fill="#6DE0F6"/>
<path d="M206.191 65.0113C206.534 64.8394 206.763 64.3237 206.763 63.9226V62.3756L206.934 62.261C207.278 62.0891 207.506 62.261 207.506 62.7194V64.381C207.506 64.8394 207.22 65.2977 206.934 65.4696L171.758 85.8673C171.414 86.0392 171.186 85.8673 171.186 85.409V85.2944L206.191 65.0113Z" fill="#267FE5"/>
<path d="M157.286 85.8093L122.109 65.4115C121.766 65.2396 121.537 64.724 121.537 64.3229V62.6613C121.537 62.2029 121.823 62.031 122.109 62.2029L157.286 82.6006C157.629 82.7725 157.858 83.2882 157.858 83.6893V85.3509C157.858 85.8092 157.572 86.0384 157.286 85.8093Z" fill="#6DE0F6"/>
<path d="M122.853 65.0113C122.509 64.8394 122.281 64.3237 122.281 63.9226V62.3756L122.109 62.261C121.766 62.0891 121.537 62.261 121.537 62.7194V64.381C121.537 64.8394 121.823 65.2977 122.109 65.4696L157.286 85.8673C157.629 86.0392 157.858 85.8673 157.858 85.409V85.2944L122.853 65.0113Z" fill="#267FE5"/>
<path d="M159.002 78.0754L117.362 54.0107C114.388 52.2918 114.788 49.3123 118.163 47.3069L158.144 24.2163C161.576 22.2682 166.724 22.039 169.699 23.7579L211.339 47.8226C214.313 49.5415 213.913 52.521 210.538 54.5264L170.556 77.617C167.125 79.6224 161.977 79.7943 159.002 78.0754Z" fill="url(#paint13_linear)"/>
<path d="M161.176 67.0731L136.409 52.7489C134.636 51.7175 134.865 49.9413 136.924 48.7954L160.661 35.0441C162.72 33.8409 165.752 33.7263 167.525 34.7577L192.292 49.0819C194.065 50.1132 193.836 51.8894 191.777 53.0354L168.04 66.7866C166.038 67.9899 162.949 68.1045 161.176 67.0731Z" fill="#6DE0F6"/>
<path d="M164.093 73.7769C162.549 73.7769 161.062 73.4904 159.975 72.8028L126.8 53.6083C125.656 52.9781 125.084 52.0613 125.084 51.03C125.084 49.8267 125.942 48.6808 127.486 47.764L159.289 29.3717C162.091 27.7674 166.324 27.5955 168.783 28.9706L201.958 48.1651C203.102 48.7954 203.674 49.7121 203.674 50.7435C203.674 51.9467 202.816 53.0927 201.272 54.0094L169.47 72.4017C167.925 73.3185 165.981 73.7769 164.093 73.7769ZM164.665 28.6269C162.892 28.6269 161.062 29.0279 159.632 29.8874L127.83 48.2797C126.514 49.0819 125.713 50.0559 125.713 51.03C125.713 51.8321 126.228 52.577 127.143 53.0927L160.318 72.2871C162.606 73.605 166.61 73.4331 169.241 71.8861L201.043 53.4937C202.359 52.6916 203.16 51.7175 203.16 50.7435C203.16 49.9413 202.645 49.1965 201.73 48.6808L168.555 29.4863C167.468 28.9706 166.095 28.6269 164.665 28.6269Z" fill="url(#paint14_linear)"/>
<path d="M136.237 52.6343C136.409 52.4624 136.638 52.2905 136.924 52.1759L160.661 38.4247C162.72 37.2214 165.751 37.1068 167.525 38.1382L192.291 52.4624C192.349 52.5197 192.406 52.577 192.463 52.577C193.836 51.4311 193.836 49.9413 192.291 49.0819L167.525 34.7577C165.751 33.7263 162.663 33.8409 160.661 35.0441L136.924 48.7954C134.979 49.9413 134.75 51.6029 136.237 52.6343Z" fill="url(#paint15_linear)"/>
<path d="M124.112 103.743V102.368C124.112 101.68 124.684 101.394 125.371 101.852L153.169 117.896C153.855 118.297 154.427 119.213 154.427 119.901V121.276C154.427 121.964 153.855 122.25 153.169 121.792L125.371 105.749C124.684 105.405 124.112 104.488 124.112 103.743Z" fill="#38025B"/>
<path opacity="0.5" d="M111.757 113.369L131.891 101.68L159.231 117.494L139.098 129.183L111.757 113.369Z" fill="#6EE8FC"/>
<path opacity="0.5" d="M111.757 111.364L131.891 99.6751L159.231 115.489L139.098 127.12L111.757 111.364Z" fill="#25BFEC"/>
<path opacity="0.5" d="M159.231 117.494V115.489L139.098 127.12V129.183L159.231 117.494Z" fill="#6EE8FC"/>
<path opacity="0.5" d="M131.891 101.68V99.6751L111.757 111.364V113.369L131.891 101.68Z" fill="#6EE8FC"/>
<path d="M140.357 130.444L141.501 129.813C141.672 129.699 141.787 129.469 141.787 129.183V127.808C141.787 127.12 141.215 126.204 140.528 125.802L112.73 109.759C112.33 109.53 111.986 109.53 111.758 109.645L110.671 110.275L111.414 110.447V111.707C111.414 112.395 111.986 113.312 112.673 113.713L140.471 129.756L140.357 130.444Z" fill="url(#paint16_linear)"/>
<path d="M141.786 127.751V129.126C141.786 129.412 141.729 129.584 141.557 129.699C141.615 129.584 141.615 129.469 141.615 129.355V127.98C141.615 127.235 141.043 126.318 140.299 125.917L111.986 109.53H111.929C112.158 109.473 112.386 109.53 112.729 109.702L140.528 125.745C141.214 126.146 141.786 127.063 141.786 127.751Z" fill="#6DE0F6"/>
<path d="M110.327 112.223V110.848C110.327 110.16 110.899 109.874 111.586 110.332L139.384 126.375C140.07 126.777 140.642 127.693 140.642 128.381V129.756C140.642 130.444 140.07 130.73 139.384 130.272L111.586 114.229C110.899 113.827 110.327 112.911 110.327 112.223Z" fill="url(#paint17_linear)"/>
<path d="M138.584 107.983L138.641 110.447L141.329 111.994V109.53L138.584 107.983Z" fill="#50DEFF"/>
<path d="M137.268 107.181L134.351 105.519V107.983L137.268 109.645V107.181Z" fill="#50DEFF"/>
<path d="M142.301 120.531L140.071 119.271L139.327 119.672L141.558 120.99L142.301 120.531Z" fill="#50DEFF"/>
<path d="M141.787 118.239L141.043 118.698L143.274 119.958L144.017 119.557L141.787 118.239Z" fill="#50DEFF"/>
<path d="M129.146 115.489L122.854 111.822L131.777 106.665V104.087L118.507 111.765L129.146 117.953V115.489Z" fill="#50DEFF"/>
<path d="M143.617 113.369L146.934 115.26L142.759 117.724L144.99 118.984L151.339 115.317L143.617 110.848V113.369Z" fill="#50DEFF"/>
<path d="M131.834 119.5L131.777 116.979L130.519 116.291V118.755L131.834 119.5Z" fill="#50DEFF"/>
<path d="M138.412 120.245L137.897 120.531L134.351 118.468V120.99L138.011 123.052L140.642 121.505L138.412 120.245Z" fill="#50DEFF"/>
<path d="M141.672 115.203L143.216 114.343L144.703 115.203L143.216 116.062L141.672 115.203Z" fill="#50DEFF"/>
<path d="M139.099 116.692L140.586 115.833L142.073 116.692L140.586 117.552L139.099 116.692Z" fill="#50DEFF"/>
<path d="M136.753 115.374L138.297 114.515L139.784 115.374L138.297 116.234L136.753 115.374Z" fill="#50DEFF"/>
<path d="M125.485 111.822L126.973 110.963L128.46 111.822L126.973 112.681L125.485 111.822Z" fill="#50DEFF"/>
<path d="M139.385 113.885L140.872 113.025L142.359 113.885L140.872 114.744L139.385 113.885Z" fill="#50DEFF"/>
<path d="M136.524 118.239L138.012 117.323L139.499 118.182L138.012 119.099L136.524 118.239Z" fill="#50DEFF"/>
<path opacity="0.4" d="M152.997 121.104L153.054 119.099L125.656 103.285L126.743 102.655L136.638 106.894L155.342 117.724C155.342 117.724 154.656 120.015 154.599 119.958C154.541 119.901 154.37 120.245 154.37 120.245L152.997 121.104Z" fill="#0C0F38"/>
<path d="M124.112 84.8925V83.5173C124.112 82.8298 124.684 82.5433 125.371 83.0017L153.169 99.0448C153.855 99.4459 154.427 100.363 154.427 101.05V102.425C154.427 103.113 153.855 103.399 153.169 102.941L125.371 86.8978C124.684 86.5541 124.112 85.6373 124.112 84.8925Z" fill="#38025B"/>
<path opacity="0.5" d="M111.757 94.5183L131.891 82.8871L159.231 98.6437L139.098 110.332L111.757 94.5183Z" fill="#6EE8FC"/>
<path opacity="0.5" d="M111.757 92.5129L131.891 80.8244L159.231 96.6383L139.098 108.27L111.757 92.5129Z" fill="#25BFEC"/>
<path opacity="0.5" d="M159.231 98.6437V96.6383L139.098 108.27V110.332L159.231 98.6437Z" fill="#6EE8FC"/>
<path opacity="0.5" d="M131.891 82.8871V80.8244L111.757 92.513V94.5183L131.891 82.8871Z" fill="#6EE8FC"/>
<path d="M140.357 111.593L141.501 110.963C141.672 110.848 141.787 110.619 141.787 110.332V108.957C141.787 108.27 141.215 107.353 140.528 106.952L112.73 90.9086C112.33 90.6794 111.986 90.6794 111.758 90.794L110.671 91.4243L111.414 91.5962V92.8567C111.414 93.5443 111.986 94.461 112.673 94.8621L140.471 110.905L140.357 111.593Z" fill="url(#paint18_linear)"/>
<path d="M141.786 108.9V110.275C141.786 110.561 141.729 110.733 141.557 110.848C141.615 110.733 141.615 110.619 141.615 110.504V109.129C141.615 108.384 141.043 107.467 140.299 107.066L111.986 90.6794H111.929C112.158 90.6221 112.386 90.6794 112.729 90.8513L140.528 106.894C141.214 107.296 141.786 108.212 141.786 108.9Z" fill="#6DE0F6"/>
<path d="M110.327 93.3724V91.9973C110.327 91.3097 110.899 91.0232 111.586 91.4816L139.384 107.525C140.07 107.926 140.642 108.843 140.642 109.53V110.905C140.642 111.593 140.07 111.879 139.384 111.421L111.586 95.3778C110.899 94.9767 110.327 94.0599 110.327 93.3724Z" fill="url(#paint19_linear)"/>
<path d="M138.584 89.1324L138.641 91.5962L141.329 93.2005V90.6795L138.584 89.1324Z" fill="#50DEFF"/>
<path d="M137.268 88.3303L134.351 86.6687V89.1324L137.268 90.794V88.3303Z" fill="#50DEFF"/>
<path d="M142.301 101.68L140.071 100.42L139.327 100.821L141.558 102.139L142.301 101.68Z" fill="#50DEFF"/>
<path d="M141.787 99.4459L141.043 99.847L143.274 101.165L144.017 100.706L141.787 99.4459Z" fill="#50DEFF"/>
<path d="M129.146 96.6383L122.854 92.9713L131.777 87.8146V85.2362L118.507 92.914L129.146 99.1021V96.6383Z" fill="#50DEFF"/>
<path d="M143.617 94.5183L146.934 96.4091L142.759 98.8729L144.99 100.133L151.339 96.4664L143.617 92.0546V94.5183Z" fill="#50DEFF"/>
<path d="M131.834 100.649L131.777 98.1853L130.519 97.4405V99.9042L131.834 100.649Z" fill="#50DEFF"/>
<path d="M138.412 101.394L137.897 101.68L134.351 99.6178V102.139L138.011 104.202L140.642 102.655L138.412 101.394Z" fill="#50DEFF"/>
<path d="M141.672 96.3518L143.216 95.4924L144.703 96.3518L143.216 97.2113L141.672 96.3518Z" fill="#50DEFF"/>
<path d="M139.099 97.8416L140.586 96.9821L142.073 97.8416L140.586 98.701L139.099 97.8416Z" fill="#50DEFF"/>
<path d="M136.753 96.5237L138.297 95.6643L139.784 96.5237L138.297 97.3832L136.753 96.5237Z" fill="#50DEFF"/>
<path d="M125.485 92.9713L126.973 92.1119L128.46 92.9713L126.973 93.8881L125.485 92.9713Z" fill="#50DEFF"/>
<path d="M139.385 95.034L140.872 94.1746L142.359 95.034L140.872 95.8935L139.385 95.034Z" fill="#50DEFF"/>
<path d="M136.524 99.3886L138.012 98.5291L139.499 99.3886L138.012 100.248L136.524 99.3886Z" fill="#50DEFF"/>
<path opacity="0.4" d="M152.997 102.253L153.054 100.248L125.656 84.4341L126.743 83.8038L136.638 88.0438L155.342 98.8729C155.342 98.8729 154.656 101.165 154.599 101.107C154.541 101.05 154.37 101.394 154.37 101.394L152.997 102.253Z" fill="#0C0F38"/>
<path d="M206.191 103.743V102.368C206.191 101.68 205.619 101.394 204.933 101.852L177.134 117.896C176.448 118.297 175.876 119.213 175.876 119.901V121.276C175.876 121.964 176.448 122.25 177.134 121.792L204.933 105.749C205.619 105.405 206.191 104.488 206.191 103.743Z" fill="#38025B"/>
<path opacity="0.5" d="M218.546 113.369L198.412 101.68L171.071 117.494L191.205 129.183L218.546 113.369Z" fill="#6EE8FC"/>
<path opacity="0.5" d="M218.546 111.364L198.412 99.6751L171.071 115.489L191.205 127.12L218.546 111.364Z" fill="#25BFEC"/>
<path opacity="0.5" d="M171.071 117.494V115.489L191.205 127.12V129.183L171.071 117.494Z" fill="#6EE8FC"/>
<path d="M189.89 130.444L188.746 129.814C188.574 129.7 188.46 129.47 188.46 129.184V127.809C188.46 127.121 189.032 126.204 189.718 125.803L217.517 109.76C217.917 109.531 218.26 109.531 218.489 109.646L219.576 110.276L218.832 110.448V111.708C218.832 112.396 218.26 113.313 217.574 113.714L189.776 129.757L189.89 130.444Z" fill="url(#paint20_linear)"/>
<path d="M188.52 127.751V129.126C188.52 129.412 188.577 129.584 188.748 129.699C188.691 129.584 188.691 129.469 188.691 129.355V127.98C188.691 127.235 189.263 126.318 190.007 125.917L218.32 109.53H218.377C218.148 109.473 217.919 109.53 217.576 109.702L189.778 125.745C189.092 126.146 188.52 127.063 188.52 127.751Z" fill="#6DE0F6"/>
<path d="M191.663 107.983V110.447L188.975 111.994V109.53L191.663 107.983Z" fill="#50DEFF"/>
<path d="M187.945 120.531L190.176 119.271L190.92 119.672L188.689 120.99L187.945 120.531Z" fill="#50DEFF"/>
<path d="M188.459 118.239L189.203 118.698L186.972 119.958L186.229 119.557L188.459 118.239Z" fill="#50DEFF"/>
<path d="M186.629 113.369L183.312 115.26L187.545 117.724L185.314 118.984L178.965 115.317L186.629 110.848V113.369Z" fill="#50DEFF"/>
<path d="M188.574 115.203L187.087 114.343L185.6 115.203L187.087 116.062L188.574 115.203Z" fill="#50DEFF"/>
<path d="M191.205 116.692L189.661 115.833L188.174 116.692L189.661 117.552L191.205 116.692Z" fill="#50DEFF"/>
<path d="M190.92 113.885L189.432 113.025L187.945 113.885L189.432 114.744L190.92 113.885Z" fill="#50DEFF"/>
<path opacity="0.4" d="M177.306 121.104L177.248 119.099L204.589 103.285L203.502 102.655L193.607 106.894L174.903 117.724C174.903 117.724 175.59 120.015 175.647 119.958C175.704 119.901 175.876 120.245 175.876 120.245L177.306 121.104Z" fill="#0C0F38"/>
<path d="M206.191 84.8925V83.5173C206.191 82.8298 205.619 82.5433 204.933 83.0017L177.134 99.0448C176.448 99.4459 175.876 100.363 175.876 101.05V102.425C175.876 103.113 176.448 103.399 177.134 102.941L204.933 86.8978C205.619 86.5541 206.191 85.6373 206.191 84.8925Z" fill="#38025B"/>
<path opacity="0.5" d="M218.546 94.5183L198.412 82.8871L171.071 98.6437L191.205 110.332L218.546 94.5183Z" fill="#6EE8FC"/>
<path opacity="0.5" d="M218.546 92.5129L198.412 80.8244L171.071 96.6383L191.205 108.27L218.546 92.5129Z" fill="#25BFEC"/>
<path opacity="0.5" d="M171.071 98.6437V96.6383L191.205 108.27V110.332L171.071 98.6437Z" fill="#6EE8FC"/>
<path d="M189.89 111.594L188.746 110.963C188.574 110.849 188.46 110.62 188.46 110.333V108.958C188.46 108.27 189.032 107.354 189.718 106.953L217.517 90.9095C217.917 90.6803 218.26 90.6803 218.489 90.7949L219.576 91.4251L218.832 91.597V92.8576C218.832 93.5451 218.26 94.4619 217.574 94.863L189.776 110.906L189.89 111.594Z" fill="url(#paint21_linear)"/>
<path d="M188.52 108.9V110.275C188.52 110.561 188.577 110.733 188.748 110.848C188.691 110.733 188.691 110.619 188.691 110.504V109.129C188.691 108.384 189.263 107.467 190.007 107.066L218.32 90.6794H218.377C218.148 90.6221 217.919 90.6794 217.576 90.8513L189.778 106.894C189.092 107.296 188.52 108.212 188.52 108.9Z" fill="#6DE0F6"/>
<path d="M191.663 89.1324V91.5962L188.975 93.2005V90.6795L191.663 89.1324Z" fill="#50DEFF"/>
<path d="M187.945 101.68L190.176 100.42L190.92 100.821L188.689 102.139L187.945 101.68Z" fill="#50DEFF"/>
<path d="M188.459 99.4459L189.203 99.847L186.972 101.165L186.229 100.706L188.459 99.4459Z" fill="#50DEFF"/>
<path d="M186.629 94.5183L183.312 96.4091L187.545 98.8729L185.314 100.133L178.965 96.4664L186.629 92.0546V94.5183Z" fill="#50DEFF"/>
<path d="M188.574 96.3518L187.087 95.4924L185.6 96.3518L187.087 97.2113L188.574 96.3518Z" fill="#50DEFF"/>
<path d="M191.205 97.8416L189.661 96.9821L188.174 97.8416L189.661 98.701L191.205 97.8416Z" fill="#50DEFF"/>
<path d="M190.92 95.034L189.432 94.1746L187.945 95.034L189.432 95.8935L190.92 95.034Z" fill="#50DEFF"/>
<path opacity="0.4" d="M177.306 102.253L177.248 100.248L204.589 84.4341L203.502 83.8038L193.607 88.0438L174.903 98.8729C174.903 98.8729 175.59 101.165 175.647 101.107C175.704 101.05 175.876 101.394 175.876 101.394L177.306 102.253Z" fill="#0C0F38"/>
<g opacity="0.4">
<g opacity="0.4">
<path opacity="0.4" d="M164.437 40.6019L163.007 39.7425L164.437 38.9403L165.867 39.7425L164.437 40.6019Z" fill="#2C75E4"/>
<path opacity="0.1" d="M167.24 42.2063L165.867 41.4041L167.24 40.602L168.67 41.4041L167.24 42.2063Z" fill="#2C75E4"/>
<path opacity="0.4" d="M170.1 43.8679L168.67 43.0657L170.1 42.2063L171.53 43.0657L170.1 43.8679Z" fill="#2C75E4"/>
<path opacity="0.4" d="M172.902 45.4722L171.529 44.67L172.902 43.8679L174.332 44.67L172.902 45.4722Z" fill="#2C75E4"/>
<path opacity="0.4" d="M175.762 47.1338L174.332 46.3317L175.762 45.4722L177.192 46.3317L175.762 47.1338Z" fill="#2C75E4"/>
<path opacity="0.4" d="M178.621 48.7954L177.191 47.9359L178.621 47.1338L179.994 47.9359L178.621 48.7954Z" fill="#2C75E4"/>
<path opacity="0.4" d="M181.424 50.3997L179.994 49.5976L181.424 48.7954L182.854 49.5976L181.424 50.3997Z" fill="#2C75E4"/>
<path opacity="0.4" d="M184.284 52.0613L182.854 51.2592L184.284 50.3997L185.657 51.2592L184.284 52.0613Z" fill="#2C75E4"/>
<path opacity="0.1" d="M187.087 53.723L185.657 52.8635L187.087 52.0613L188.517 52.8635L187.087 53.723Z" fill="#2C75E4"/>
</g>
<g opacity="0.4">
<path opacity="0.4" d="M161.577 42.2063L160.147 41.4041L161.577 40.602L163.007 41.4041L161.577 42.2063Z" fill="#2C75E4"/>
<path opacity="0.4" d="M164.438 43.8679L163.008 43.0657L164.438 42.2063L165.81 43.0657L164.438 43.8679Z" fill="#2C75E4"/>
<path opacity="0.4" d="M167.241 45.5295L165.811 44.67L167.241 43.8679L168.67 44.67L167.241 45.5295Z" fill="#2C75E4"/>
<path opacity="0.4" d="M170.1 47.1338L168.67 46.3316L170.1 45.5295L171.473 46.3316L170.1 47.1338Z" fill="#2C75E4"/>
<path opacity="0.4" d="M172.903 48.7954L171.473 47.9933L172.903 47.1338L174.333 47.9933L172.903 48.7954Z" fill="#2C75E4"/>
<path opacity="0.4" d="M175.763 50.3997L174.333 49.5976L175.763 48.7954L177.193 49.5976L175.763 50.3997Z" fill="#2C75E4"/>
<path opacity="0.4" d="M178.565 52.0613L177.192 51.2592L178.565 50.3997L179.995 51.2592L178.565 52.0613Z" fill="#2C75E4"/>
<path opacity="0.4" d="M181.425 53.723L179.995 52.8635L181.425 52.0613L182.855 52.8635L181.425 53.723Z" fill="#2C75E4"/>
<path opacity="0.4" d="M184.228 55.3273L182.855 54.5251L184.228 53.723L185.658 54.5251L184.228 55.3273Z" fill="#2C75E4"/>
</g>
<g opacity="0.4">
<path opacity="0.4" d="M158.717 43.8679L157.345 43.0657L158.717 42.2063L160.147 43.0657L158.717 43.8679Z" fill="#2C75E4"/>
<path opacity="0.4" d="M161.577 45.5295L160.147 44.67L161.577 43.8679L163.007 44.67L161.577 45.5295Z" fill="#2C75E4"/>
<path opacity="0.4" d="M164.381 47.1338L163.008 46.3316L164.381 45.5295L165.811 46.3316L164.381 47.1338Z" fill="#2C75E4"/>
<path opacity="0.1" d="M167.241 48.7954L165.811 47.9932L167.241 47.1338L168.67 47.9932L167.241 48.7954Z" fill="#2C75E4"/>
<path opacity="0.4" d="M170.043 50.457L168.67 49.5976L170.043 48.7954L171.473 49.5976L170.043 50.457Z" fill="#2C75E4"/>
<path opacity="0.4" d="M172.903 52.0613L171.473 51.2592L172.903 50.457L174.333 51.2592L172.903 52.0613Z" fill="#2C75E4"/>
<path opacity="0.4" d="M175.763 53.723L174.333 52.8635L175.763 52.0613L177.136 52.8635L175.763 53.723Z" fill="#2C75E4"/>
<path opacity="0.4" d="M178.566 55.3273L177.136 54.5251L178.566 53.723L179.996 54.5251L178.566 55.3273Z" fill="#2C75E4"/>
<path opacity="0.4" d="M181.425 56.9889L179.995 56.1867L181.425 55.3273L182.798 56.1867L181.425 56.9889Z" fill="#2C75E4"/>
</g>
<g opacity="0.4">
<path opacity="0.4" d="M155.914 45.5295L154.484 44.7273L155.914 43.8679L157.287 44.7273L155.914 45.5295Z" fill="#2C75E4"/>
<path opacity="0.4" d="M158.717 47.1338L157.287 46.3316L158.717 45.5295L160.147 46.3316L158.717 47.1338Z" fill="#2C75E4"/>
<path opacity="0.1" d="M161.577 48.7954L160.147 47.9932L161.577 47.1338L162.95 47.9932L161.577 48.7954Z" fill="#2C75E4"/>
<path opacity="0.4" d="M164.38 50.457L162.95 49.5975L164.38 48.7954L165.81 49.5975L164.38 50.457Z" fill="#2C75E4"/>
<path opacity="0.4" d="M167.24 52.0613L165.81 51.2592L167.24 50.457L168.669 51.2592L167.24 52.0613Z" fill="#2C75E4"/>
<path opacity="0.4" d="M170.043 53.7229L168.67 52.9208L170.043 52.0613L171.473 52.9208L170.043 53.7229Z" fill="#2C75E4"/>
<path opacity="0.4" d="M172.903 55.3272L171.473 54.5251L172.903 53.7229L174.333 54.5251L172.903 55.3272Z" fill="#2C75E4"/>
<path opacity="0.4" d="M175.705 56.9889L174.332 56.1867L175.705 55.3272L177.135 56.1867L175.705 56.9889Z" fill="#2C75E4"/>
<path opacity="0.4" d="M178.565 58.6505L177.135 57.791L178.565 56.9889L179.995 57.791L178.565 58.6505Z" fill="#2C75E4"/>
</g>
<g opacity="0.4">
<path opacity="0.4" d="M153.055 47.1911L151.625 46.3316L153.055 45.5295L154.485 46.3316L153.055 47.1911Z" fill="#2C75E4"/>
<path opacity="0.4" d="M155.858 48.7954L154.485 47.9933L155.858 47.1911L157.288 47.9933L155.858 48.7954Z" fill="#2C75E4"/>
<path opacity="0.4" d="M158.718 50.457L157.288 49.5976L158.718 48.7954L160.148 49.5976L158.718 50.457Z" fill="#2C75E4"/>
<path opacity="0.4" d="M161.52 52.0613L160.147 51.2592L161.52 50.457L162.95 51.2592L161.52 52.0613Z" fill="#2C75E4"/>
<path opacity="0.4" d="M164.38 53.723L162.95 52.9208L164.38 52.0613L165.81 52.9208L164.38 53.723Z" fill="#2C75E4"/>
<path opacity="0.4" d="M167.241 55.3845L165.811 54.5251L167.241 53.7229L168.613 54.5251L167.241 55.3845Z" fill="#2C75E4"/>
<path opacity="0.4" d="M170.043 56.9889L168.613 56.1867L170.043 55.3846L171.473 56.1867L170.043 56.9889Z" fill="#2C75E4"/>
<path opacity="0.4" d="M172.903 58.6505L171.473 57.791L172.903 56.9889L174.275 57.791L172.903 58.6505Z" fill="#2C75E4"/>
<path opacity="0.4" d="M175.705 60.2548L174.275 59.4526L175.705 58.6505L177.135 59.4526L175.705 60.2548Z" fill="#2C75E4"/>
</g>
<g opacity="0.4">
<path opacity="0.4" d="M150.195 48.7954L148.765 47.9933L150.195 47.1911L151.625 47.9933L150.195 48.7954Z" fill="#2C75E4"/>
<path opacity="0.4" d="M153.055 50.457L151.625 49.6549L153.055 48.7954L154.428 49.6549L153.055 50.457Z" fill="#2C75E4"/>
<path opacity="0.4" d="M155.858 52.0613L154.428 51.2592L155.858 50.457L157.288 51.2592L155.858 52.0613Z" fill="#2C75E4"/>
<path opacity="0.4" d="M158.717 53.723L157.287 52.9208L158.717 52.0613L160.09 52.9208L158.717 53.723Z" fill="#2C75E4"/>
<path opacity="0.1" d="M161.52 55.3846L160.09 54.5251L161.52 53.723L162.95 54.5251L161.52 55.3846Z" fill="#2C75E4"/>
<path opacity="0.4" d="M164.38 56.9889L162.95 56.1867L164.38 55.3846L165.81 56.1867L164.38 56.9889Z" fill="#2C75E4"/>
<path opacity="0.4" d="M167.182 58.6505L165.81 57.8483L167.182 56.9889L168.612 57.8483L167.182 58.6505Z" fill="#2C75E4"/>
<path opacity="0.4" d="M170.042 60.3121L168.612 59.4526L170.042 58.6505L171.472 59.4526L170.042 60.3121Z" fill="#2C75E4"/>
<path opacity="0.4" d="M172.845 61.9164L171.473 61.1143L172.845 60.3121L174.275 61.1143L172.845 61.9164Z" fill="#2C75E4"/>
</g>
<g opacity="0.4">
<path opacity="0.4" d="M147.335 50.457L145.962 49.6549L147.335 48.7954L148.765 49.6549L147.335 50.457Z" fill="#2C75E4"/>
<path opacity="0.4" d="M150.195 52.1186L148.765 51.2592L150.195 50.457L151.625 51.2592L150.195 52.1186Z" fill="#2C75E4"/>
<path opacity="0.4" d="M152.998 53.723L151.625 52.9208L152.998 52.1187L154.428 52.9208L152.998 53.723Z" fill="#2C75E4"/>
<path opacity="0.4" d="M155.858 55.3846L154.428 54.5824L155.858 53.723L157.288 54.5824L155.858 55.3846Z" fill="#2C75E4"/>
<path opacity="0.4" d="M158.66 56.9889L157.287 56.1867L158.66 55.3846L160.09 56.1867L158.66 56.9889Z" fill="#2C75E4"/>
<path opacity="0.1" d="M161.52 58.6505L160.09 57.8483L161.52 56.9889L162.95 57.8483L161.52 58.6505Z" fill="#2C75E4"/>
<path opacity="0.4" d="M164.38 60.3121L162.95 59.4526L164.38 58.6505L165.753 59.4526L164.38 60.3121Z" fill="#2C75E4"/>
<path opacity="0.4" d="M167.183 61.9164L165.753 61.1143L167.183 60.3121L168.613 61.1143L167.183 61.9164Z" fill="#2C75E4"/>
<path opacity="0.1" d="M170.042 63.578L168.612 62.7759L170.042 61.9164L171.415 62.7759L170.042 63.578Z" fill="#2C75E4"/>
</g>
<g opacity="0.4">
<path opacity="0.4" d="M144.532 52.1186L143.103 51.2592L144.532 50.457L145.905 51.2592L144.532 52.1186Z" fill="#2C75E4"/>
<path opacity="0.4" d="M147.335 53.723L145.905 52.9208L147.335 52.1187L148.765 52.9208L147.335 53.723Z" fill="#2C75E4"/>
<path opacity="0.4" d="M150.196 55.3846L148.766 54.5824L150.196 53.723L151.568 54.5824L150.196 55.3846Z" fill="#2C75E4"/>
<path opacity="0.4" d="M152.997 57.0462L151.567 56.1867L152.997 55.3846L154.427 56.1867L152.997 57.0462Z" fill="#2C75E4"/>
<path opacity="0.4" d="M155.858 58.6505L154.428 57.8483L155.858 57.0462L157.288 57.8483L155.858 58.6505Z" fill="#2C75E4"/>
<path opacity="0.4" d="M158.661 60.3121L157.288 59.4527L158.661 58.6505L160.091 59.4527L158.661 60.3121Z" fill="#2C75E4"/>
<path opacity="0.4" d="M161.52 61.9164L160.09 61.1143L161.52 60.3121L162.95 61.1143L161.52 61.9164Z" fill="#2C75E4"/>
<path opacity="0.4" d="M164.323 63.578L162.95 62.7759L164.323 61.9164L165.753 62.7759L164.323 63.578Z" fill="#2C75E4"/>
<path opacity="0.4" d="M167.183 65.2396L165.753 64.3802L167.183 63.578L168.613 64.3802L167.183 65.2396Z" fill="#2C75E4"/>
</g>
<g opacity="0.4">
<path opacity="0.4" d="M141.672 53.7229L140.242 52.9208L141.672 52.1186L143.102 52.9208L141.672 53.7229Z" fill="#2C75E4"/>
<path opacity="0.1" d="M144.475 55.3845L143.103 54.5824L144.475 53.7229L145.905 54.5824L144.475 55.3845Z" fill="#2C75E4"/>
<path opacity="0.4" d="M147.335 57.0462L145.905 56.1867L147.335 55.3846L148.765 56.1867L147.335 57.0462Z" fill="#2C75E4"/>
<path opacity="0.4" d="M150.137 58.6505L148.765 57.8483L150.137 57.0461L151.567 57.8483L150.137 58.6505Z" fill="#2C75E4"/>
<path opacity="0.4" d="M152.997 60.3121L151.567 59.5099L152.997 58.6505L154.427 59.5099L152.997 60.3121Z" fill="#2C75E4"/>
<path opacity="0.4" d="M155.858 61.9164L154.428 61.1142L155.858 60.3121L157.23 61.1142L155.858 61.9164Z" fill="#2C75E4"/>
<path opacity="0.4" d="M158.66 63.578L157.23 62.7758L158.66 61.9164L160.09 62.7758L158.66 63.578Z" fill="#2C75E4"/>
<path opacity="0.4" d="M161.52 65.2396L160.09 64.3802L161.52 63.578L162.893 64.3802L161.52 65.2396Z" fill="#2C75E4"/>
<path opacity="0.4" d="M164.323 66.8439L162.893 66.0418L164.323 65.2396L165.752 66.0418L164.323 66.8439Z" fill="#2C75E4"/>
</g>
</g>
<path d="M80.9851 129.871C87.998 129.871 93.6831 124.176 93.6831 117.151C93.6831 110.126 87.998 104.431 80.9851 104.431C73.9722 104.431 68.2871 110.126 68.2871 117.151C68.2871 124.176 73.9722 129.871 80.9851 129.871Z" fill="url(#paint22_linear)"/>
<path d="M69.7173 149.409C75.2771 149.409 79.7842 146.792 79.7842 143.565C79.7842 140.337 75.2771 137.72 69.7173 137.72C64.1575 137.72 59.6504 140.337 59.6504 143.565C59.6504 146.792 64.1575 149.409 69.7173 149.409Z" fill="#070A28"/>
<path opacity="0.8" d="M88.4786 42.3209C89.4263 42.3209 90.1946 41.5513 90.1946 40.602C90.1946 39.6526 89.4263 38.8831 88.4786 38.8831C87.531 38.8831 86.7627 39.6526 86.7627 40.602C86.7627 41.5513 87.531 42.3209 88.4786 42.3209Z" fill="#D4088C"/>
<path d="M92.9399 81.9704C91.4527 81.9704 90.1943 80.7671 90.1943 79.2201C90.1943 77.6731 91.3955 76.4698 92.9399 76.4698C94.4842 76.4698 95.6854 77.6731 95.6854 79.2201C95.6854 80.7671 94.427 81.9704 92.9399 81.9704ZM92.9399 77.6731C92.0819 77.6731 91.3383 78.3606 91.3383 79.2774C91.3383 80.1368 92.0247 80.8817 92.9399 80.8817C93.7978 80.8817 94.5414 80.1941 94.5414 79.2774C94.5414 78.3606 93.7978 77.6731 92.9399 77.6731Z" fill="#6EE1F8"/>
</g>
<defs>
<radialGradient id="paint0_radial" cx="0" cy="0" r="1" gradientUnits="userSpaceOnUse" gradientTransform="translate(121.474 93.0115) rotate(45.1814) scale(84.7433 84.7416)">
<stop offset="0.0107527" stop-color="#D4088C"/>
<stop offset="1" stop-color="#071033" stop-opacity="0"/>
</radialGradient>
<radialGradient id="paint1_radial" cx="0" cy="0" r="1" gradientUnits="userSpaceOnUse" gradientTransform="translate(200.48 93.8437) rotate(45.1814) scale(72.7678 72.7663)">
<stop offset="0.0107527" stop-color="#2142A1"/>
<stop offset="1" stop-color="#071033" stop-opacity="0"/>
</radialGradient>
<linearGradient id="paint2_linear" x1="115.159" y1="131.367" x2="213.598" y2="131.367" gradientUnits="userSpaceOnUse">
<stop stop-color="#D4088C"/>
<stop offset="0.2258" stop-color="#8D139B"/>
<stop offset="0.5108" stop-color="#6EE1F8"/>
<stop offset="0.7796" stop-color="#6EE8FC"/>
<stop offset="1" stop-color="#6EE8FC"/>
</linearGradient>
<linearGradient id="paint3_linear" x1="115.159" y1="136.602" x2="213.598" y2="136.602" gradientUnits="userSpaceOnUse">
<stop stop-color="#D4088C"/>
<stop offset="0.2258" stop-color="#8D139B"/>
<stop offset="0.5108" stop-color="#6EE1F8"/>
<stop offset="0.7796" stop-color="#6EE8FC"/>
<stop offset="1" stop-color="#6EE8FC"/>
</linearGradient>
<linearGradient id="paint4_linear" x1="106.151" y1="122.164" x2="225.467" y2="122.164" gradientUnits="userSpaceOnUse">
<stop stop-color="#A31FA9"/>
<stop offset="0.0667915" stop-color="#8B17A0"/>
<stop offset="0.1494" stop-color="#740F98"/>
<stop offset="0.2393" stop-color="#640A92"/>
<stop offset="0.3408" stop-color="#5B078F"/>
<stop offset="0.4785" stop-color="#58068E"/>
<stop offset="0.6264" stop-color="#4D22A3"/>
<stop offset="0.9436" stop-color="#3168DA"/>
<stop offset="1" stop-color="#2C75E4"/>
</linearGradient>
<linearGradient id="paint5_linear" x1="114.611" y1="108.288" x2="206.485" y2="130.983" gradientUnits="userSpaceOnUse">
<stop stop-color="#8D139B"/>
<stop offset="0.1651" stop-color="#851BA1"/>
<stop offset="0.4284" stop-color="#6E33B2"/>
<stop offset="0.7551" stop-color="#4958CD"/>
<stop offset="1" stop-color="#2979E4"/>
</linearGradient>
<linearGradient id="paint6_linear" x1="106.15" y1="103.047" x2="225.466" y2="103.047" gradientUnits="userSpaceOnUse">
<stop stop-color="#A31FA9"/>
<stop offset="0.0667915" stop-color="#8B17A0"/>
<stop offset="0.1494" stop-color="#740F98"/>
<stop offset="0.2393" stop-color="#640A92"/>
<stop offset="0.3408" stop-color="#5B078F"/>
<stop offset="0.4785" stop-color="#58068E"/>
<stop offset="0.6264" stop-color="#4D22A3"/>
<stop offset="0.9436" stop-color="#3168DA"/>
<stop offset="1" stop-color="#2C75E4"/>
</linearGradient>
<linearGradient id="paint7_linear" x1="114.611" y1="89.1707" x2="206.485" y2="111.865" gradientUnits="userSpaceOnUse">
<stop stop-color="#8D139B"/>
<stop offset="0.1651" stop-color="#851BA1"/>
<stop offset="0.4284" stop-color="#6E33B2"/>
<stop offset="0.7551" stop-color="#4958CD"/>
<stop offset="1" stop-color="#2979E4"/>
</linearGradient>
<linearGradient id="paint8_linear" x1="106.15" y1="83.9292" x2="225.466" y2="83.9292" gradientUnits="userSpaceOnUse">
<stop stop-color="#A31FA9"/>
<stop offset="0.0667915" stop-color="#8B17A0"/>
<stop offset="0.1494" stop-color="#740F98"/>
<stop offset="0.2393" stop-color="#640A92"/>
<stop offset="0.3408" stop-color="#5B078F"/>
<stop offset="0.4785" stop-color="#58068E"/>
<stop offset="0.6264" stop-color="#4D22A3"/>
<stop offset="0.9436" stop-color="#3168DA"/>
<stop offset="1" stop-color="#2C75E4"/>
</linearGradient>
<linearGradient id="paint9_linear" x1="114.611" y1="70.053" x2="206.485" y2="92.7479" gradientUnits="userSpaceOnUse">
<stop stop-color="#8D139B"/>
<stop offset="0.1651" stop-color="#851BA1"/>
<stop offset="0.4284" stop-color="#6E33B2"/>
<stop offset="0.7551" stop-color="#4958CD"/>
<stop offset="1" stop-color="#2979E4"/>
</linearGradient>
<linearGradient id="paint10_linear" x1="106.15" y1="64.8115" x2="225.466" y2="64.8115" gradientUnits="userSpaceOnUse">
<stop stop-color="#A31FA9"/>
<stop offset="0.0667915" stop-color="#8B17A0"/>
<stop offset="0.1494" stop-color="#740F98"/>
<stop offset="0.2393" stop-color="#640A92"/>
<stop offset="0.3408" stop-color="#5B078F"/>
<stop offset="0.4785" stop-color="#58068E"/>
<stop offset="0.6264" stop-color="#4D22A3"/>
<stop offset="0.9436" stop-color="#3168DA"/>
<stop offset="1" stop-color="#2C75E4"/>
</linearGradient>
<linearGradient id="paint11_linear" x1="114.611" y1="50.9354" x2="206.485" y2="73.6302" gradientUnits="userSpaceOnUse">
<stop stop-color="#267FE5"/>
<stop offset="0.1699" stop-color="#2C87E7"/>
<stop offset="0.441" stop-color="#3D9FEB"/>
<stop offset="0.7773" stop-color="#59C4F2"/>
<stop offset="1" stop-color="#6EE1F8"/>
</linearGradient>
<linearGradient id="paint12_linear" x1="127.706" y1="50.933" x2="201.049" y2="50.933" gradientUnits="userSpaceOnUse">
<stop stop-color="#6DE0F6"/>
<stop offset="0.1595" stop-color="#68D8F5"/>
<stop offset="0.4138" stop-color="#5AC0F1"/>
<stop offset="0.7294" stop-color="#439BEA"/>
<stop offset="1" stop-color="#2C75E4"/>
</linearGradient>
<linearGradient id="paint13_linear" x1="114.611" y1="50.9354" x2="206.485" y2="73.6302" gradientUnits="userSpaceOnUse">
<stop stop-color="#267FE5"/>
<stop offset="0.1699" stop-color="#2C87E7"/>
<stop offset="0.441" stop-color="#3D9FEB"/>
<stop offset="0.7773" stop-color="#59C4F2"/>
<stop offset="1" stop-color="#6EE1F8"/>
</linearGradient>
<linearGradient id="paint14_linear" x1="125.442" y1="54.8306" x2="203.316" y2="47.0614" gradientUnits="userSpaceOnUse">
<stop stop-color="#A31FA9"/>
<stop offset="0.0502812" stop-color="#8B17A0"/>
<stop offset="0.1125" stop-color="#740F98"/>
<stop offset="0.1801" stop-color="#640A92"/>
<stop offset="0.2565" stop-color="#5B078F"/>
<stop offset="0.3602" stop-color="#58068E"/>
<stop offset="0.5416" stop-color="#4D22A3"/>
<stop offset="0.9308" stop-color="#3168DA"/>
<stop offset="1" stop-color="#2C75E4"/>
</linearGradient>
<linearGradient id="paint15_linear" x1="135.266" y1="43.3669" x2="193.501" y2="43.3669" gradientUnits="userSpaceOnUse">
<stop stop-color="#A31FA9"/>
<stop offset="0.0667915" stop-color="#8B17A0"/>
<stop offset="0.1494" stop-color="#740F98"/>
<stop offset="0.2393" stop-color="#640A92"/>
<stop offset="0.3408" stop-color="#5B078F"/>
<stop offset="0.4785" stop-color="#58068E"/>
<stop offset="0.6264" stop-color="#4D22A3"/>
<stop offset="0.9436" stop-color="#3168DA"/>
<stop offset="1" stop-color="#2C75E4"/>
</linearGradient>
<linearGradient id="paint16_linear" x1="137.429" y1="111.711" x2="109.297" y2="132.134" gradientUnits="userSpaceOnUse">
<stop stop-color="#2C75E4"/>
<stop offset="0.0564218" stop-color="#3168DA"/>
<stop offset="0.3736" stop-color="#4D22A3"/>
<stop offset="0.5215" stop-color="#58068E"/>
<stop offset="0.6592" stop-color="#5B078F"/>
<stop offset="0.7607" stop-color="#640A92"/>
<stop offset="0.8506" stop-color="#740F98"/>
<stop offset="0.9332" stop-color="#8B17A0"/>
<stop offset="1" stop-color="#A31FA9"/>
</linearGradient>
<linearGradient id="paint17_linear" x1="125.696" y1="119.975" x2="146.786" y2="83.4796" gradientUnits="userSpaceOnUse">
<stop stop-color="#A31FA9"/>
<stop offset="0.0667915" stop-color="#8B17A0"/>
<stop offset="0.1494" stop-color="#740F98"/>
<stop offset="0.2393" stop-color="#640A92"/>
<stop offset="0.3408" stop-color="#5B078F"/>
<stop offset="0.4785" stop-color="#58068E"/>
<stop offset="0.6264" stop-color="#4D22A3"/>
<stop offset="0.9436" stop-color="#3168DA"/>
<stop offset="1" stop-color="#2C75E4"/>
</linearGradient>
<linearGradient id="paint18_linear" x1="137.429" y1="92.8652" x2="109.297" y2="113.288" gradientUnits="userSpaceOnUse">
<stop stop-color="#2C75E4"/>
<stop offset="0.0564218" stop-color="#3168DA"/>
<stop offset="0.3736" stop-color="#4D22A3"/>
<stop offset="0.5215" stop-color="#58068E"/>
<stop offset="0.6592" stop-color="#5B078F"/>
<stop offset="0.7607" stop-color="#640A92"/>
<stop offset="0.8506" stop-color="#740F98"/>
<stop offset="0.9332" stop-color="#8B17A0"/>
<stop offset="1" stop-color="#A31FA9"/>
</linearGradient>
<linearGradient id="paint19_linear" x1="125.696" y1="101.128" x2="146.786" y2="64.634" gradientUnits="userSpaceOnUse">
<stop stop-color="#A31FA9"/>
<stop offset="0.0667915" stop-color="#8B17A0"/>
<stop offset="0.1494" stop-color="#740F98"/>
<stop offset="0.2393" stop-color="#640A92"/>
<stop offset="0.3408" stop-color="#5B078F"/>
<stop offset="0.4785" stop-color="#58068E"/>
<stop offset="0.6264" stop-color="#4D22A3"/>
<stop offset="0.9436" stop-color="#3168DA"/>
<stop offset="1" stop-color="#2C75E4"/>
</linearGradient>
<linearGradient id="paint20_linear" x1="192.853" y1="111.712" x2="220.986" y2="132.135" gradientUnits="userSpaceOnUse">
<stop stop-color="#58068E"/>
<stop offset="0.2835" stop-color="#4D22A3"/>
<stop offset="0.8918" stop-color="#3168DA"/>
<stop offset="1" stop-color="#2C75E4"/>
</linearGradient>
<linearGradient id="paint21_linear" x1="192.854" y1="92.866" x2="220.986" y2="113.289" gradientUnits="userSpaceOnUse">
<stop stop-color="#58068E"/>
<stop offset="0.2835" stop-color="#4D22A3"/>
<stop offset="0.8918" stop-color="#3168DA"/>
<stop offset="1" stop-color="#2C75E4"/>
</linearGradient>
<linearGradient id="paint22_linear" x1="89.966" y1="108.166" x2="71.9956" y2="126.105" gradientUnits="userSpaceOnUse">
<stop stop-color="#D4088C"/>
<stop offset="0.0449631" stop-color="#CC088C"/>
<stop offset="0.4621" stop-color="#85078A"/>
<stop offset="0.7624" stop-color="#590689"/>
<stop offset="0.914" stop-color="#480689"/>
</linearGradient>
</defs>
</svg>
