<svg width="50" height="53" viewBox="0 0 50 53" fill="none" xmlns="http://www.w3.org/2000/svg">
<path fill-rule="evenodd" clip-rule="evenodd" d="M22.5127 0C21.4081 0 20.5127 0.89543 20.5127 2V50.5636C20.5127 51.6681 21.4081 52.5636 22.5127 52.5636H37.1799V42.0251C37.1799 41.4728 37.6276 41.0251 38.1799 41.0251H42.5901C43.1424 41.0251 43.5901 41.4728 43.5901 42.0251V52.5636H47.9996C49.1041 52.5636 49.9996 51.6681 49.9996 50.5636V2C49.9996 0.895431 49.1041 0 47.9996 0H22.5127ZM27.9234 7.69219C27.3711 7.69219 26.9234 8.13991 26.9234 8.69219V13.1024C26.9234 13.6547 27.3711 14.1024 27.9234 14.1024H32.3336C32.8858 14.1024 33.3336 13.6547 33.3336 13.1024V8.69219C33.3336 8.13991 32.8858 7.69219 32.3336 7.69219H27.9234ZM37.1799 8.69219C37.1799 8.13991 37.6276 7.69219 38.1799 7.69219H42.5901C43.1424 7.69219 43.5901 8.13991 43.5901 8.69219V13.1024C43.5901 13.6547 43.1424 14.1024 42.5901 14.1024H38.1799C37.6276 14.1024 37.1799 13.6547 37.1799 13.1024V8.69219ZM27.9234 17.9485C27.3711 17.9485 26.9234 18.3962 26.9234 18.9485V23.3587C26.9234 23.911 27.3711 24.3587 27.9234 24.3587H32.3336C32.8858 24.3587 33.3336 23.911 33.3336 23.3587V18.9485C33.3336 18.3962 32.8858 17.9485 32.3336 17.9485H27.9234ZM37.1799 18.9485C37.1799 18.3962 37.6276 17.9485 38.1799 17.9485H42.5901C43.1424 17.9485 43.5901 18.3962 43.5901 18.9485V23.3587C43.5901 23.911 43.1424 24.3587 42.5901 24.3587H38.1799C37.6276 24.3587 37.1799 23.911 37.1799 23.3587V18.9485ZM27.9234 28.2049C27.3711 28.2049 26.9234 28.6526 26.9234 29.2049V33.615C26.9234 34.1673 27.3711 34.615 27.9234 34.615H32.3336C32.8858 34.615 33.3336 34.1673 33.3336 33.615V29.2049C33.3336 28.6526 32.8858 28.2049 32.3336 28.2049H27.9234ZM37.1799 29.2049C37.1799 28.6526 37.6276 28.2049 38.1799 28.2049H42.5901C43.1424 28.2049 43.5901 28.6526 43.5901 29.2049V33.615C43.5901 34.1673 43.1424 34.615 42.5901 34.615H38.1799C37.6276 34.615 37.1799 34.1673 37.1799 33.615V29.2049Z" fill="#03C3F8"/>
<g style="mix-blend-mode:multiply">
<path fill-rule="evenodd" clip-rule="evenodd" d="M0 22.1247C0 21.1838 0.655764 20.3702 1.57514 20.1703L27.062 14.6297C28.3086 14.3587 29.4869 15.3083 29.4869 16.584V50.5637C29.4869 51.6683 28.5914 52.5637 27.4869 52.5637H2C0.895431 52.5637 0 51.6682 0 50.5637V22.1247ZM6.41024 27.923C6.41024 27.3707 6.85795 26.923 7.41024 26.923H11.8204C12.3727 26.923 12.8204 27.3707 12.8204 27.923V32.3332C12.8204 32.8855 12.3727 33.3332 11.8204 33.3332H7.41024C6.85795 33.3332 6.41024 32.8855 6.41024 32.3332V27.923ZM17.6668 26.923C17.1145 26.923 16.6668 27.3707 16.6668 27.923V32.3332C16.6668 32.8855 17.1145 33.3332 17.6668 33.3332H22.077C22.6293 33.3332 23.077 32.8855 23.077 32.3332V27.923C23.077 27.3707 22.6293 26.923 22.077 26.923H17.6668ZM6.41024 38.1791C6.41024 37.6268 6.85795 37.1791 7.41024 37.1791H11.8204C12.3727 37.1791 12.8204 37.6268 12.8204 38.1791V42.5893C12.8204 43.1416 12.3727 43.5893 11.8204 43.5893H7.41024C6.85795 43.5893 6.41024 43.1416 6.41024 42.5893V38.1791ZM17.6668 37.1791C17.1145 37.1791 16.6668 37.6268 16.6668 38.1791V42.5893C16.6668 43.1416 17.1145 43.5893 17.6668 43.5893H22.077C22.6293 43.5893 23.077 43.1416 23.077 42.5893V38.1791C23.077 37.6268 22.6293 37.1791 22.077 37.1791H17.6668Z" fill="#08B5A1"/>
</g>
</svg>
