<svg id="Layer_1" data-name="Layer 1" xmlns="http://www.w3.org/2000/svg" xmlns:xlink="http://www.w3.org/1999/xlink" width="14.22in" height="14.22in" viewBox="0 0 1024 1024"><defs><style>.cls-1{fill:url(#linear-gradient);}</style><linearGradient id="linear-gradient" x1="8.02" y1="516.87" x2="1016.02" y2="516.87" gradientUnits="userSpaceOnUse"><stop offset="0" stop-color="#03c3f8"/><stop offset="1" stop-color="#08b5a1"/></linearGradient></defs><path class="cls-1" d="M870,217.72a197.37,197.37,0,0,1,58,140.13,197.19,197.19,0,0,1-58,140L512,855.84,154.05,497.9A198.12,198.12,0,1,1,434.23,217.72l46.65,46.65a44,44,0,0,0,62.24,0l46.74-46.74a197.84,197.84,0,0,1,280.13,0Zm62.23-62.24a285.93,285.93,0,0,0-404.6-.09L512,171l-15.54-15.54A286.13,286.13,0,1,0,91.82,560.13L480.88,949.19a44,44,0,0,0,62.24,0L932.18,560.13a285.85,285.85,0,0,0,0-404.65Z"/></svg>