<svg width="63" height="63" viewBox="0 0 63 63" fill="none" xmlns="http://www.w3.org/2000/svg">
<path fill-rule="evenodd" clip-rule="evenodd" d="M13.7414 43.6698C13.7456 43.6674 13.7497 43.665 13.7539 43.6626L27.621 35.6564C28.9544 34.8866 30.621 35.8488 30.621 37.3884L30.6211 41.6086L30.621 53.4008L30.6211 56.8649L27.621 55.1329L13.7539 47.1267L10.7539 45.3947L13.7414 43.6698Z" fill="#03C3F8"/>
<path fill-rule="evenodd" clip-rule="evenodd" d="M21.2497 27.6585L21.2497 27.6585L9.93356 21.1251L9.93356 44.0657L12.9164 42.3436C12.9221 42.3403 12.9279 42.337 12.9336 42.3337L26.8008 34.3275C28.1341 33.5577 28.1341 31.6332 26.8008 30.8634L21.2497 27.6585Z" fill="#03C3F8"/>
<path fill-rule="evenodd" clip-rule="evenodd" d="M13.7282 20.5056L10.7402 18.7805L30.6074 7.31018V10.7605C30.6074 10.7651 30.6074 10.7697 30.6074 10.7744L30.6074 26.7867C30.6074 28.3263 28.9407 29.2886 27.6074 28.5188L13.7403 20.5126C13.7362 20.5103 13.7322 20.5079 13.7282 20.5056Z" fill="#03C3F8"/>
<path fill-rule="evenodd" clip-rule="evenodd" d="M49.0536 20.4563C49.0482 20.4595 49.0427 20.4627 49.0372 20.4659L35.17 28.4721C33.8367 29.2419 32.17 28.2796 32.17 26.74L32.17 22.1951L32.17 22.1952L32.1699 7.26347L35.17 8.99557L49.0372 17.0018L52.0371 18.7338L49.0536 20.4563Z" fill="#03C3F8"/>
<path fill-rule="evenodd" clip-rule="evenodd" d="M42.4406 36.9338L36.1993 33.3304C34.866 32.5606 34.866 30.6361 36.1993 29.8663L39.854 27.7562L50.0664 21.8601L53.0664 20.128L53.0664 23.5921L53.0664 39.6045C53.0664 39.6051 53.0664 39.6056 53.0664 39.6062L53.0664 43.0686L50.0664 41.3365L42.4406 36.9338Z" fill="#03C3F8"/>
<path fill-rule="evenodd" clip-rule="evenodd" d="M32.459 52.4649C32.459 52.4602 32.459 52.4555 32.459 52.4507L32.459 36.4383C32.459 34.8987 34.1257 33.9365 35.459 34.7063L39.3953 36.9789L39.3953 36.9788L52.3262 44.4445L49.3315 46.1735C49.3297 46.1745 49.3279 46.1756 49.3261 46.1766L35.459 54.1828C35.4572 54.1838 35.4554 54.1849 35.4536 54.1859L32.459 55.9148L32.459 52.4649Z" fill="#03C3F8"/>
<g style="mix-blend-mode:screen">
<circle cx="9.65247" cy="44.4958" r="6.38759" transform="rotate(-120 9.65247 44.4958)" fill="#A64EB2"/>
</g>
<g style="mix-blend-mode:screen">
<circle cx="10.0108" cy="20.3209" r="6.38759" transform="rotate(-60 10.0108 20.3209)" fill="#A64EB2"/>
</g>
<g style="mix-blend-mode:screen">
<ellipse cx="32" cy="6.5" rx="7" ry="6.5" fill="#A64EB2"/>
</g>
<g style="mix-blend-mode:screen">
<circle cx="54.077" cy="20.0016" r="6.38759" transform="rotate(60 54.077 20.0016)" fill="#A64EB2"/>
</g>
<g style="mix-blend-mode:screen">
<circle cx="52.8398" cy="44.4733" r="6.38759" transform="rotate(120 52.8398 44.4733)" fill="#A64EB2"/>
</g>
<g style="mix-blend-mode:screen">
<ellipse cx="30.5" cy="57" rx="6.5" ry="6" transform="rotate(-180 30.5 57)" fill="#A64EB2"/>
</g>
</svg>
