<svg width="50" height="53" viewBox="0 0 50 53" fill="none" xmlns="http://www.w3.org/2000/svg">
<g style="mix-blend-mode:multiply">
<path fill-rule="evenodd" clip-rule="evenodd" d="M22.5587 52.3762C22.6256 52.3427 25.0445 51.1274 28.1822 48.9266C29.9493 47.6874 31.9623 46.1252 33.918 44.2689C36.1745 42.1302 38.4025 39.5633 40.0835 36.6137C40.3128 36.2118 40.5325 35.8003 40.7426 35.3817C41.4805 33.9033 42.0775 32.3292 42.4691 30.6666C42.7986 29.2743 42.9825 27.8198 42.9825 26.3151V9.56935C42.9825 8.55025 42.3449 7.67945 41.4327 7.3302L22.3294 0.153467C21.7659 -0.0594245 21.1713 -0.0427162 20.6531 0.153467L1.54978 7.3302C0.596997 7.68663 0.00716374 8.5909 0 9.56935V26.3151C0 27.8198 0.183851 29.2743 0.511033 30.6689C0.902632 32.3315 1.49963 33.9057 2.23749 35.3841C2.44524 35.8027 2.66491 36.2118 2.89656 36.6161C4.57763 39.5657 6.80556 42.1326 9.06214 44.2712C11.0202 46.1276 13.0333 47.6898 14.7979 48.9289C17.9356 51.1298 20.3545 52.3451 20.4214 52.3785C21.1187 52.7278 21.9019 52.7039 22.5562 52.3785L22.5587 52.3762ZM21.4907 4.94738L38.2061 11.227V26.3149C38.2061 27.4297 38.07 28.5134 37.8217 29.5708C37.5256 30.8315 37.0648 32.0587 36.4702 33.2453C36.303 33.5801 36.1239 33.9127 35.9376 34.2428C34.555 36.6686 32.6638 38.8742 30.6365 40.7952C28.8861 42.453 27.0665 43.8716 25.4428 45.0079C23.8094 46.1514 22.3981 47.0006 21.4907 47.5174L21.4907 4.94738Z" fill="#03C3F8"/>
</g>
<g style="mix-blend-mode:multiply">
<path d="M45.9233 4.22023L21.3447 29.2232L11.0934 18.795C10.1598 17.8452 8.64822 17.8452 7.71694 18.795C6.78566 19.7448 6.78325 21.2824 7.71694 22.2298L19.6564 34.3754C20.5901 35.3252 22.1016 35.3252 23.0329 34.3754L49.2998 7.65503C50.2335 6.70522 50.2335 5.16758 49.2998 4.22023C48.3661 3.27287 46.8545 3.27042 45.9233 4.22023H45.9233Z" fill="#08B5A1"/>
</g>
</svg>
