<svg width="41" height="36" viewBox="0 0 41 36" fill="none" xmlns="http://www.w3.org/2000/svg">
<path d="M5.48209 33.2281L5.89209 33.6381V33.6481C6.0298 33.7878 6.21677 33.868 6.41292 33.8715C6.60906 33.875 6.79876 33.8015 6.94135 33.6667C7.08393 33.532 7.16805 33.3468 7.17567 33.1507C7.18328 32.9547 7.11379 32.7635 6.98209 32.6181L6.58209 32.1781C4.94866 30.3793 3.70584 28.2614 2.93209 25.9581C2.07179 23.4118 1.81839 20.6997 2.19209 18.0381C2.33209 17.3381 2.39209 16.6381 2.63209 15.9181L2.93209 14.8381L3.34209 13.7781C3.46209 13.4281 3.63209 13.0781 3.81209 12.7481C3.98209 12.4081 4.14209 12.0581 4.33209 11.7281C4.76209 11.0881 5.12209 10.4081 5.63209 9.82811C6.53209 8.58811 7.66209 7.53811 8.83209 6.59811C10.5628 5.29288 12.5186 4.31668 14.6021 3.71811C15.2721 3.58811 15.9121 3.36811 16.5621 3.30811C17.2021 3.22811 17.8321 3.12811 18.4321 3.12811C19.0521 3.10811 19.6121 3.07811 20.2121 3.12811C21.2302 3.18722 22.241 3.33783 23.2321 3.57811C24.4839 3.89641 25.6976 4.34904 26.8521 4.92811L27.3221 5.17811L27.3821 5.20811L27.4221 5.23811C27.6243 5.3366 27.844 5.39429 28.0685 5.40789C28.293 5.4215 28.5181 5.39074 28.7307 5.31738C28.9434 5.24402 29.1395 5.1295 29.3079 4.98035C29.4762 4.8312 29.6136 4.65034 29.7121 4.44811C29.8106 4.24587 29.8683 4.02622 29.8819 3.80169C29.8955 3.57715 29.8647 3.35214 29.7914 3.13949C29.718 2.92685 29.6035 2.73073 29.4543 2.56235C29.3052 2.39396 29.1243 2.2566 28.9221 2.15811C26.2449 0.808102 23.2997 0.0735306 20.3021 0.00810806C19.6721 -0.0218919 18.9421 0.038108 18.2421 0.078108C17.5221 0.108108 16.7921 0.258108 16.0421 0.378108C15.2821 0.478108 14.5421 0.758108 13.7721 0.948108C13.0221 1.20811 12.2521 1.48811 11.4921 1.83811C8.34238 3.2797 5.63301 5.53348 3.64209 8.36811C3.10209 9.05811 2.70209 9.83811 2.26209 10.5881C2.06209 10.9681 1.89209 11.3681 1.70209 11.7681C1.52209 12.1481 1.34209 12.5481 1.22209 12.9681L0.792092 14.1681L0.492091 15.3981C0.272091 16.1981 0.212091 17.0781 0.0920913 17.8981C-0.182235 20.6919 0.158105 23.5118 1.08923 26.1601C2.02036 28.8083 3.51971 31.2208 5.48209 33.2281Z" fill="#2AD1D1"/>
<path d="M33.8621 34.8481C33.6748 35.0343 33.4213 35.1389 33.1571 35.1389C32.893 35.1389 32.6395 35.0343 32.4521 34.8481L30.3221 32.7281C30.1338 32.5398 30.028 32.2844 30.028 32.0181C30.028 31.7518 30.1338 31.4964 30.3221 31.3081C30.5104 31.1198 30.7658 31.014 31.0321 31.014C31.2984 31.014 31.5538 31.1198 31.7421 31.3081L33.8621 33.4381C34.0454 33.625 34.148 33.8763 34.148 34.1381C34.148 34.3998 34.0454 34.6511 33.8621 34.8381V34.8481ZM37.2021 30.4981C37.1368 30.6126 37.0495 30.7132 36.9451 30.7939C36.8408 30.8745 36.7215 30.9338 36.5941 30.9682C36.4668 31.0026 36.3339 31.0114 36.2031 30.9943C36.0724 30.9771 35.9463 30.9342 35.8321 30.8681L33.2321 29.3681C33.0014 29.2355 32.8328 29.0166 32.7634 28.7597C32.694 28.5028 32.7295 28.2288 32.8621 27.9981C32.9947 27.7673 33.2136 27.5987 33.4705 27.5293C33.7274 27.4599 34.0014 27.4955 34.2321 27.6281L36.8321 29.1281C36.9467 29.1934 37.0473 29.2807 37.1279 29.3851C37.2086 29.4894 37.2679 29.6087 37.3023 29.7361C37.3367 29.8634 37.3455 29.9963 37.3283 30.1271C37.3111 30.2578 37.2683 30.3839 37.2021 30.4981V30.4981ZM39.3021 25.4381C39.2674 25.5648 39.2081 25.6835 39.1274 25.7873C39.0468 25.8912 38.9465 25.978 38.8323 26.0431C38.718 26.1081 38.5921 26.1499 38.4617 26.1662C38.3312 26.1825 38.1989 26.173 38.0721 26.1381L35.1721 25.3681C35.0448 25.3339 34.9253 25.275 34.8207 25.1947C34.7161 25.1144 34.6283 25.0143 34.5624 24.9001C34.4965 24.7859 34.4537 24.6598 34.4365 24.5291C34.4193 24.3983 34.428 24.2654 34.4621 24.1381C34.4963 24.0107 34.5552 23.8913 34.6355 23.7866C34.7158 23.682 34.8159 23.5942 34.9301 23.5283C35.1608 23.3952 35.4349 23.3591 35.6921 23.4281L38.5921 24.2081C38.7189 24.2428 38.8376 24.3021 38.9414 24.3828C39.0452 24.4634 39.1321 24.5637 39.1971 24.6779C39.2622 24.7922 39.304 24.9181 39.3203 25.0485C39.3366 25.179 39.327 25.3113 39.2921 25.4381H39.3021ZM40.0121 19.9981C40.0121 20.2633 39.9068 20.5176 39.7192 20.7052C39.5317 20.8927 39.2774 20.9981 39.0121 20.9981H36.0121C35.7469 20.9981 35.4926 20.8927 35.305 20.7052C35.1175 20.5176 35.0121 20.2633 35.0121 19.9981C35.0121 19.7328 35.1175 19.4785 35.305 19.291C35.4926 19.1034 35.7469 18.9981 36.0121 18.9981H39.0121C39.2774 18.9981 39.5317 19.1034 39.7192 19.291C39.9068 19.4785 40.0121 19.7328 40.0121 19.9981ZM39.2921 14.5581C39.327 14.6848 39.3366 14.8172 39.3203 14.9476C39.304 15.078 39.2622 15.2039 39.1971 15.3182C39.1321 15.4324 39.0452 15.5327 38.9414 15.6134C38.8376 15.694 38.7189 15.7533 38.5921 15.7881L35.6921 16.5681C35.5648 16.6022 35.4319 16.6109 35.3011 16.5937C35.1704 16.5765 35.0443 16.5337 34.9301 16.4678C34.6994 16.3347 34.5311 16.1153 34.4621 15.8581C34.3932 15.6008 34.4292 15.3267 34.5624 15.096C34.6955 14.8653 34.9149 14.697 35.1721 14.6281L38.0721 13.8581C38.3267 13.7906 38.5976 13.8263 38.826 13.9573C39.0544 14.0884 39.2219 14.3042 39.2921 14.5581V14.5581ZM37.1921 9.49806C37.2587 9.6116 37.3021 9.73715 37.3201 9.86752C37.338 9.99789 37.33 10.1305 37.2965 10.2578C37.2631 10.3851 37.2048 10.5045 37.1252 10.6092C37.0455 10.7139 36.9459 10.8019 36.8321 10.8681L34.2321 12.3681C34.0014 12.5007 33.7274 12.5362 33.4705 12.4668C33.2136 12.3974 32.9947 12.2288 32.8621 11.9981C32.7295 11.7673 32.694 11.4934 32.7634 11.2364C32.8328 10.9795 33.0014 10.7607 33.2321 10.6281L35.8321 9.12806C35.9463 9.06194 36.0724 9.01906 36.2031 9.00187C36.3339 8.98469 36.4668 8.99355 36.5941 9.02794C36.7215 9.06233 36.8408 9.12158 36.9451 9.20226C37.0495 9.28294 37.1368 9.38347 37.2021 9.49806H37.1921ZM17.3521 18.3381L33.1121 4.39806C33.3111 4.19915 33.5808 4.0874 33.8621 4.0874C34.1434 4.0874 34.4132 4.19915 34.6121 4.39806C34.8111 4.59697 34.9228 4.86676 34.9228 5.14806C34.9228 5.42937 34.8111 5.69915 34.6121 5.89806L20.6721 21.6581C20.2255 22.066 19.6388 22.286 19.0341 22.2723C18.4294 22.2586 17.8533 22.0123 17.4256 21.5846C16.9979 21.1569 16.7516 20.5808 16.7379 19.9761C16.7242 19.3714 16.9442 18.7847 17.3521 18.3381V18.3381Z" fill="#03C3F8"/>
</svg>
