<svg width="108" height="193" viewBox="0 0 108 193" fill="none" xmlns="http://www.w3.org/2000/svg">
<mask id="mask0" mask-type="alpha" maskUnits="userSpaceOnUse" x="0" y="0" width="108" height="193">
<rect width="107.551" height="192.368" fill="#C4C4C4"/>
</mask>
<g mask="url(#mask0)">
<path d="M137.143 90.0075H113.699L87.6409 76.3766C84.2791 74.6204 78.4182 74.8379 74.5406 76.8681L49.4429 90.0075H26.0438V151.37C25.946 152.563 26.6753 153.707 28.2939 154.552L75.5011 179.244C78.8629 180.992 84.7238 180.775 88.6014 178.745L133.959 155.044C135.969 153.989 137.045 152.627 137.143 151.37V90.0075Z" fill="url(#paint0_linear)"/>
<path d="M133.942 154.061L88.5843 177.77C84.7067 179.792 78.8013 180.018 75.484 178.261L28.3212 153.57C26.7026 152.724 25.9733 151.58 26.0712 150.387V151.37C25.9733 152.563 26.7026 153.707 28.3212 154.552L75.5285 179.244C78.8903 180.992 84.7511 180.775 88.6288 178.745L133.986 155.044C135.996 153.988 137.072 152.627 137.17 151.37V150.387C137.028 151.676 135.934 153.006 133.942 154.061Z" fill="url(#paint1_linear)"/>
<path d="M27.5291 152.337V90.9903H50.9281L76.0437 77.8509C79.9213 75.8208 85.8266 75.6033 89.1439 77.3595L115.211 90.9903H137.143V90.0075H113.699L87.6409 76.3766C84.2791 74.6204 78.4182 74.8379 74.5406 76.8681L49.4429 90.0075H26.0438V151.37C25.946 152.563 26.6753 153.707 28.2939 154.552L28.5607 154.689C28.2102 154.389 27.9363 154.023 27.7581 153.616C27.5799 153.21 27.5018 152.773 27.5291 152.337V152.337Z" fill="#03C3F8"/>
<path d="M75.5108 117.873L28.3214 93.1815C24.9596 91.4253 25.3865 88.3479 29.2641 86.3339L74.6215 62.625C78.4991 60.6029 84.4044 60.3773 87.7217 62.1336L134.929 86.8253C138.291 88.5815 137.864 91.6589 133.995 93.6729L88.6378 117.382C84.7335 119.412 78.8726 119.629 75.5108 117.873Z" fill="url(#paint2_linear)"/>
<path d="M134.875 86.8253L87.6682 62.1094C85.6274 61.1744 83.3385 60.7754 81.0603 60.9574C82.7222 61.0099 84.3492 61.4038 85.8184 62.1094L133.035 86.8012C136.387 88.5574 135.969 91.6348 132.092 93.6488L86.7344 117.358C84.7356 118.332 82.5188 118.883 80.251 118.969C83.1405 119.15 86.028 118.591 88.5843 117.358L133.942 93.6488C137.81 91.6509 138.237 88.5815 134.875 86.8253Z" fill="#09D6A5"/>
<path style="mix-blend-mode:overlay" opacity="0.7" d="M77.0664 110.752L41.9189 92.3679C39.4198 91.0628 39.7311 88.7829 42.6126 87.2684L76.4083 69.6257C79.2898 68.1112 83.6566 67.95 86.1913 69.2551L121.339 87.639C123.838 88.9441 123.527 91.232 120.645 92.7385L86.8939 110.389C83.9323 111.896 79.5655 112.057 77.0664 110.752Z" fill="url(#paint3_linear)"/>
<path d="M78.3113 105.04L52.8489 91.7234C51.0702 90.7728 51.2658 89.1213 53.3558 88.0257L77.8043 75.2408C79.8943 74.1451 83.0605 74.0243 84.8659 74.9749L110.328 88.2915C112.107 89.2341 111.911 90.8936 109.821 91.9892L85.3728 104.806C83.2828 105.862 80.1256 105.983 78.3113 105.04Z" fill="#C4F5FF"/>
<mask id="mask1" mask-type="alpha" maskUnits="userSpaceOnUse" x="51" y="74" width="61" height="32">
<path d="M78.3113 105.04L52.8489 91.7234C51.0702 90.7728 51.2658 89.1213 53.3558 88.0257L77.8043 75.2408C79.8943 74.1451 83.0605 74.0243 84.8659 74.9749L110.328 88.2915C112.107 89.2341 111.911 90.8936 109.821 91.9892L85.3728 104.806C83.2828 105.862 80.1256 105.983 78.3113 105.04Z" fill="#6DE0F6"/>
</mask>
<g mask="url(#mask1)">
<path d="M53.3471 89.8309L77.8045 77.0379C79.8945 75.9423 83.0606 75.8215 84.866 76.7721L110.346 90.0968C110.698 90.2755 111.002 90.5232 111.236 90.8218C111.388 90.6088 111.487 90.3678 111.524 90.1161C111.562 89.8644 111.537 89.6083 111.452 89.3663C111.367 89.1243 111.224 88.9024 111.032 88.7167C110.841 88.5309 110.607 88.386 110.346 88.2922L84.866 74.9998C83.0873 74.0572 79.8945 74.1941 77.8045 75.2656L53.3471 88.0586C51.7195 88.9125 51.2304 90.0968 51.9419 91.0313C52.2901 90.5295 52.7737 90.1164 53.3471 89.8309Z" fill="#267FE5"/>
<path d="M53.3465 91.9973L77.8039 79.2124C79.8939 78.1168 83.06 77.9959 84.8654 78.9465L110.346 92.2632C110.625 92.4124 110.874 92.6031 111.084 92.8271C111.893 91.8684 111.68 90.7889 110.346 90.0961L84.8654 76.7714C83.0867 75.8208 79.8939 75.9658 77.8039 77.0372L53.3465 89.8302C51.6212 90.7245 51.1854 92.0054 52.0925 92.956C52.4375 92.5654 52.8635 92.2397 53.3465 91.9973V91.9973Z" fill="#25BFEC"/>
<path d="M52.3331 95.3647C52.6342 95.0881 52.9753 94.8496 53.3469 94.6558L77.8043 81.8628C79.8943 80.7672 83.0605 80.6463 84.8659 81.597L110.346 94.9216C110.522 95.0159 110.689 95.1237 110.844 95.2439C111.105 95.052 111.307 94.8016 111.428 94.5176C111.55 94.2335 111.587 93.9256 111.537 93.6244C111.486 93.3232 111.35 93.0391 111.141 92.8004C110.932 92.5616 110.658 92.3764 110.346 92.2632L84.8659 78.9465C83.0871 77.9959 79.8943 78.1409 77.8043 79.2124L53.3469 91.9973C51.4437 92.9801 51.1058 94.398 52.3331 95.3647Z" fill="#18D0F7"/>
</g>
<path d="M77.6272 117.873L30.4199 93.1815C27.067 91.4253 27.485 88.3479 31.3626 86.3339L76.72 62.625C78.6889 61.6624 80.8709 61.1118 83.1056 61.0138C80.1599 60.8055 77.2098 61.3645 74.6033 62.625L29.2104 86.3339C25.3328 88.364 24.9059 91.4253 28.2677 93.1815L75.4749 117.873C77.5466 118.828 79.8759 119.228 82.1896 119.025C80.5937 118.95 79.0358 118.557 77.6272 117.873Z" fill="#03C3F8"/>
<path d="M97.8694 163.084L95.2547 164.453C94.5788 164.808 94.0273 164.453 94.0273 163.648V130.497C94.0356 130.083 94.1509 129.676 94.364 129.31C94.5772 128.943 94.8822 128.627 95.2547 128.386L97.8694 127.017C98.5453 126.67 99.0878 127.017 99.0878 127.823V160.941C99.0869 161.36 98.9759 161.773 98.7641 162.146C98.5522 162.518 98.2455 162.84 97.8694 163.084V163.084Z" fill="#C4F5FF"/>
<path d="M97.8694 127.017L97.2379 127.347V159.869C97.2314 160.283 97.1178 160.69 96.9062 161.056C96.6945 161.423 96.3908 161.739 96.0195 161.98L94.0273 163.019V163.615C94.0273 164.421 94.5788 164.808 95.2547 164.421L97.8694 163.052C98.2407 162.811 98.5444 162.494 98.756 162.128C98.9677 161.761 99.0813 161.355 99.0878 160.941V127.855C99.0878 127.041 98.5809 126.67 97.8694 127.017Z" fill="#00AFFC"/>
<path d="M107.518 158.041L104.85 159.41C104.183 159.765 103.632 159.41 103.632 158.605V125.454C103.644 125.036 103.765 124.626 103.984 124.258C104.204 123.89 104.516 123.574 104.895 123.335L107.563 121.966C108.23 121.611 108.781 121.966 108.781 122.771V155.89C108.775 156.313 108.656 156.729 108.437 157.103C108.217 157.478 107.902 157.799 107.518 158.041V158.041Z" fill="#C4F5FF"/>
<path d="M107.519 121.974L106.887 122.304V154.826C106.881 155.24 106.767 155.646 106.556 156.013C106.344 156.38 106.04 156.696 105.669 156.937L103.677 157.976V158.572C103.677 159.378 104.228 159.765 104.895 159.378L107.563 158.008C107.933 157.766 108.236 157.449 108.447 157.083C108.659 156.717 108.773 156.311 108.782 155.898V122.812C108.737 121.998 108.186 121.619 107.519 121.974Z" fill="#00AFFC"/>
<path style="mix-blend-mode:overlay" opacity="0.35" d="M74.568 172.606L34.0398 151.427C33.44 151.036 32.9493 150.523 32.6065 149.93C32.2638 149.337 32.0785 148.68 32.0654 148.011V102.962C32.0654 101.648 32.9548 101.044 34.0398 101.616L74.568 122.796C75.1708 123.184 75.6638 123.696 76.0069 124.289C76.35 124.883 76.5335 125.541 76.5423 126.211V171.253C76.5157 172.574 75.6352 173.178 74.568 172.606Z" fill="url(#paint4_linear)"/>
<path d="M68.5908 162.173L39.9979 147.221C39.5722 146.946 39.224 146.584 38.9814 146.164C38.7389 145.744 38.6087 145.278 38.6016 144.805V112.999C38.6016 112.073 39.2241 111.638 39.9979 112.041L68.5908 127.001C69.017 127.276 69.3655 127.638 69.6082 128.058C69.8508 128.478 69.9806 128.944 69.9871 129.418V161.199C69.9871 162.149 69.3645 162.576 68.5908 162.173Z" fill="#C3F5FF"/>
<path d="M41.9633 146.029C41.5371 145.754 41.1886 145.392 40.946 144.972C40.7033 144.552 40.5735 144.086 40.567 143.612V112.347L39.9979 112.041C39.2241 111.638 38.6016 112.041 38.6016 112.999V144.805C38.6087 145.278 38.7389 145.744 38.9814 146.164C39.224 146.584 39.5722 146.946 39.9979 147.221L68.5908 162.173C69.3645 162.576 69.9871 162.173 69.9871 161.223V160.683L41.9633 146.029Z" fill="#2C73DA"/>
<path d="M49.5774 125.72L43.7432 122.667V121.772L49.5774 124.818V125.72Z" fill="#2C73DA"/>
<path d="M54.2101 128.137L51.293 126.614V125.72L54.2101 127.242V128.137Z" fill="#2EC8F1"/>
<path d="M58.6476 130.457L55.7305 128.934V128.04L58.6476 129.563V130.457Z" fill="#2C73DA"/>
<path d="M63.086 132.777L60.1689 131.254V130.36L63.086 131.883V132.777Z" fill="#2C73DA"/>
<path d="M49.5774 127.871L43.7432 124.818V123.923L49.5774 126.977V127.871Z" fill="#2C73DA"/>
<path d="M54.2101 130.288L51.293 128.765V127.871L54.2101 129.393V130.288Z" fill="#2EC8F1"/>
<path d="M58.6476 132.616L55.7305 131.085V130.191L58.6476 131.714V132.616Z" fill="#2C73DA"/>
<path d="M63.086 134.936L60.1689 133.405V132.511L63.086 134.034V134.936Z" fill="#2C73DA"/>
<path d="M49.5774 130.022L43.7432 126.977V126.074L49.5774 129.128V130.022Z" fill="#2C73DA"/>
<path d="M56.4335 132.713L55.7309 132.342L51.293 130.022V130.916L55.7309 133.236L56.4335 133.607L58.648 134.767V133.865L56.4335 132.713Z" fill="#2C73DA"/>
<path d="M63.086 137.087L60.1689 135.564V134.662L63.086 136.193V137.087Z" fill="#2C73DA"/>
<path d="M64.6074 132.68V134.831V135.725V136.982V137.24V137.884L67.5245 139.407V138.771V138.513V137.256V136.354V134.203L64.6074 132.68Z" fill="#2C73DA"/>
<path d="M49.5774 132.173L43.7432 129.128V128.225L49.5774 131.279V132.173Z" fill="#2EC8F1"/>
<path d="M54.2101 134.598L51.293 133.075V132.173L54.2101 133.703V134.598Z" fill="#2C73DA"/>
<path d="M58.6476 136.024L57.8649 135.613L55.7305 134.493V135.395L57.8649 136.507L58.6476 136.918L63.0855 139.238V138.344L58.6476 136.024Z" fill="#2C73DA"/>
<path d="M67.5245 141.558L64.6074 140.035V139.141L67.5245 140.664V141.558Z" fill="#2C73DA"/>
<path d="M49.5774 138.634L43.7432 135.58V134.686L49.5774 137.739V138.634Z" fill="#2C73DA"/>
<path d="M54.2101 141.059L51.293 139.528V138.634L54.2101 140.156V141.059Z" fill="#2C73DA"/>
<path d="M58.6476 142.476L57.8649 142.074L55.7305 140.954V141.848L57.8649 142.968L58.6476 143.379L63.0855 145.699V144.797L58.6476 142.476Z" fill="#2C73DA"/>
<path d="M67.5245 148.019L64.6074 146.496V145.594L67.5245 147.125V148.019Z" fill="#2C73DA"/>
<path d="M49.5774 140.785L43.7432 137.739V136.837L49.5774 139.89V140.785Z" fill="#2C73DA"/>
<path d="M54.2101 143.21L51.293 141.687V140.785L54.2101 142.307V143.21Z" fill="#2C73DA"/>
<path d="M67.5245 150.17L64.6074 148.647V147.745L67.5245 149.276V150.17Z" fill="#2C73DA"/>
<path d="M49.5774 142.936L43.7432 139.89V138.996L49.5774 142.041V142.936Z" fill="#2C73DA"/>
<path d="M54.2101 145.36L51.293 143.838V142.936L54.2101 144.466V145.36Z" fill="#2C73DA"/>
<path d="M58.6476 144.635L57.8649 144.225L55.7305 143.105V143.733V144.007V146.158L57.8649 147.278L58.6476 147.681L63.0855 150.001V147.85V147.584V146.956L58.6476 144.635Z" fill="#2EC8F1"/>
<path d="M67.5245 152.321L64.6074 150.798V149.904L67.5245 151.427V152.321Z" fill="#2C73DA"/>
<path d="M49.5774 134.332L43.7432 131.279V130.384L49.5774 133.429V134.332Z" fill="#2C73DA"/>
<path d="M54.2101 136.749L51.293 135.226V134.332L54.2101 135.854V136.749Z" fill="#2EC8F1"/>
<path d="M63.086 141.389L60.1689 139.866V138.972L63.086 140.495V141.389Z" fill="#2C73DA"/>
<path d="M67.5245 143.709L64.6074 142.186V141.292L67.5245 142.815V143.709Z" fill="#2C73DA"/>
<path d="M49.5774 136.483L43.7432 133.429V132.535L49.5774 135.58V136.483Z" fill="#2C73DA"/>
<path d="M54.2101 138.9L51.293 137.377V136.483L54.2101 138.005V138.9Z" fill="#2C73DA"/>
<path d="M55.7305 136.652V137.095V137.546V139.697L58.6476 141.22V139.069V138.626V138.174L55.7305 136.652Z" fill="#2EC8F1"/>
<path d="M63.086 143.548L60.1689 142.017V141.123L63.086 142.646V143.548Z" fill="#2C73DA"/>
<path d="M67.5245 145.868L64.6074 144.337V143.443L67.5245 144.966V145.868Z" fill="#2C73DA"/>
<path style="mix-blend-mode:lighten" opacity="0.2" d="M111.556 -25.363H51.6221V90.37C51.6434 90.7137 51.7682 91.0456 51.983 91.3297C52.1978 91.6137 52.4943 91.839 52.8405 91.9812L78.3029 105.298C80.0816 106.248 83.2744 106.103 85.3644 105.04L109.813 92.247C110.255 92.0681 110.642 91.7953 110.943 91.4516C111.243 91.108 111.447 90.7038 111.538 90.2733V90.2733L111.556 -25.363Z" fill="url(#paint5_linear)"/>
<path style="mix-blend-mode:lighten" opacity="0.25" d="M108.711 -14.3263H54.46V90.4022C54.4836 90.7102 54.5985 91.0068 54.7926 91.2605C54.9866 91.5143 55.2527 91.716 55.5628 91.8443L78.6061 103.928C79.6187 104.343 80.7246 104.538 81.835 104.496C82.9455 104.454 84.0296 104.177 85.0006 103.687L107.128 92.1182C107.526 91.9543 107.875 91.7064 108.146 91.3952C108.417 91.0841 108.601 90.7187 108.684 90.3297V90.3297L108.711 -14.3263Z" fill="url(#paint6_linear)"/>
<path opacity="0.3" d="M62.1167 64.6793C61.996 64.6197 61.8923 64.5355 61.8136 64.4335C61.7349 64.3315 61.6834 64.2143 61.6631 64.0912V55.9385L63.5752 56.7924C63.692 56.8513 63.7927 56.9334 63.8697 57.0324C63.9467 57.1314 63.998 57.2449 64.0199 57.3644V65.5654L62.1167 64.6793Z" fill="#4DDBFB"/>
<path opacity="0.6" d="M62.1167 69.6418C61.9986 69.5773 61.8971 69.4908 61.8189 69.388C61.7407 69.2852 61.6876 69.1685 61.6631 69.0456V67.4344L63.5663 68.3206C63.6869 68.3802 63.7907 68.4643 63.8694 68.5664C63.9481 68.6684 63.9996 68.7856 64.0199 68.9087V70.5199L62.1167 69.6418Z" fill="#4DDBFB"/>
<path opacity="0.6" d="M62.1617 77.005C62.0399 76.9397 61.9355 76.8511 61.8556 76.7453C61.7757 76.6395 61.7223 76.5192 61.6992 76.3927V72.3647L63.6024 73.267C63.7253 73.3282 63.8304 73.4148 63.9092 73.5198C63.988 73.6249 64.0383 73.7452 64.056 73.8712V77.8992L62.1617 77.005Z" fill="#4DDBFB"/>
<path opacity="0.3" d="M69.4809 61.473C69.3624 61.411 69.2603 61.3263 69.1819 61.2246C69.1035 61.123 69.0508 61.007 69.0273 60.8849V59.2012L70.9484 60.0551C71.0673 60.1156 71.1693 60.2002 71.2464 60.3022C71.3235 60.4041 71.3737 60.5208 71.393 60.6432V62.335L69.4809 61.473Z" fill="#4DDBFB"/>
<path opacity="0.55" d="M69.4898 69.0215C69.369 68.9592 69.2648 68.8734 69.1849 68.7703C69.1049 68.6673 69.0511 68.5495 69.0273 68.4254V64.3168L70.9395 65.1868C71.0601 65.2464 71.1638 65.3306 71.2425 65.4326C71.3212 65.5347 71.3727 65.6518 71.393 65.7749V69.9077L69.4898 69.0215Z" fill="#4DDBFB"/>
<path opacity="0.6" d="M69.4898 76.4491C69.3681 76.3838 69.2636 76.2952 69.1837 76.1894C69.1038 76.0837 69.0504 75.9633 69.0273 75.8369V71.7766L70.9306 72.6628C71.0529 72.7255 71.158 72.8124 71.2381 72.917C71.3181 73.0216 71.3711 73.1413 71.393 73.267V77.3836L69.4898 76.4491Z" fill="#4DDBFB"/>
<path opacity="0.65" d="M69.4987 88.074C69.3759 88.005 69.2706 87.9134 69.1894 87.8052C69.1082 87.6969 69.053 87.5744 69.0273 87.4456V79.2043L70.9306 80.1146C71.0534 80.1808 71.1585 80.2707 71.2384 80.3779C71.3184 80.4852 71.3712 80.6071 71.393 80.735V89.0166L69.4987 88.074Z" fill="#4DDBFB"/>
<path opacity="0.7" d="M69.5076 93.1171C69.3812 93.0472 69.2728 92.9535 69.19 92.8422C69.1071 92.731 69.0516 92.605 69.0273 92.4726V90.8614L70.9217 91.804C71.0447 91.8746 71.1502 91.9677 71.2313 92.0772C71.3125 92.1868 71.3675 92.3105 71.393 92.4404V94.0516L69.5076 93.1171Z" fill="#4DDBFB"/>
<path opacity="0.8" d="M69.5076 100.69C69.3824 100.617 69.2751 100.521 69.1925 100.409C69.1099 100.296 69.0537 100.17 69.0273 100.037V96.0092L70.9128 96.9679C71.0403 97.0386 71.1492 97.1336 71.2321 97.2463C71.3151 97.359 71.37 97.4866 71.393 97.6204V101.697L69.5076 100.69Z" fill="#4DDBFB"/>
<path opacity="0.7" d="M62.1706 88.4526C62.0474 88.384 61.9418 88.2925 61.8605 88.1842C61.7793 88.0759 61.7243 87.9532 61.6992 87.8243V79.7038L63.5936 80.6383C63.7153 80.7036 63.8198 80.7922 63.8997 80.898C63.9796 81.0038 64.0329 81.1241 64.056 81.2505V89.4113L62.1706 88.4526Z" fill="#4DDBFB"/>
<path opacity="0.8" d="M62.1795 96.8873C62.0545 96.8158 61.9473 96.7217 61.8647 96.6107C61.782 96.4998 61.7257 96.3745 61.6992 96.2428V91.1111L63.5847 92.0698C63.7101 92.1388 63.8178 92.2313 63.9006 92.3411C63.9834 92.4508 64.0394 92.5753 64.0649 92.7062V97.8379L62.1795 96.8873Z" fill="#4DDBFB"/>
<path opacity="0.8" d="M76.8357 104.492C76.7092 104.419 76.601 104.322 76.5183 104.208C76.4356 104.094 76.3801 103.966 76.3555 103.832V99.4652L78.2498 100.424C78.3751 100.498 78.4818 100.595 78.563 100.709C78.6442 100.823 78.6981 100.951 78.7212 101.084V105.467L76.8357 104.492Z" fill="#4DDBFB"/>
<path opacity="0.7" d="M76.8357 96.8228C76.7083 96.7521 76.5993 96.6571 76.5164 96.5444C76.4334 96.4318 76.3785 96.3041 76.3555 96.1703V92.0376L78.2498 92.9801C78.3751 93.0484 78.4823 93.1408 78.5638 93.2507C78.6452 93.3607 78.699 93.4856 78.7212 93.6165V97.7735L76.8357 96.8228Z" fill="#4DDBFB"/>
<path opacity="0.65" d="M76.8268 89.1938C76.7023 89.1247 76.5957 89.0321 76.5144 88.9222C76.433 88.8124 76.3788 88.6879 76.3555 88.5574V84.4166L78.2587 85.335C78.3834 85.401 78.4898 85.4919 78.5699 85.6008C78.6501 85.7097 78.7018 85.8337 78.7212 85.9633V90.1283L76.8268 89.1938Z" fill="#4DDBFB"/>
<path opacity="0.6" d="M76.8179 81.6453C76.6959 81.5783 76.5914 81.4882 76.5116 81.3811C76.4318 81.274 76.3785 81.1525 76.3555 81.025V72.6548L78.2676 73.5329C78.3881 73.5986 78.4911 73.6875 78.5695 73.7933C78.6479 73.8991 78.6997 74.0192 78.7212 74.1451V82.5556L76.8179 81.6453Z" fill="#4DDBFB"/>
<path opacity="0.3" d="M76.8082 69.9237C76.6917 69.8644 76.5903 69.7836 76.5106 69.6864C76.431 69.5892 76.3748 69.478 76.3457 69.3598V62.5122L78.2667 63.3178C78.3868 63.3792 78.4894 63.4649 78.5666 63.5684C78.6438 63.6719 78.6934 63.7902 78.7114 63.9139V70.8019L76.8082 69.9237Z" fill="#4DDBFB"/>
<path opacity="0.15" d="M76.8089 59.7329C76.6911 59.6731 76.5897 59.5898 76.5127 59.4893C76.4357 59.3888 76.3849 59.2738 76.3643 59.1528V50.7504L78.2853 51.556C78.4004 51.6158 78.4994 51.6983 78.5748 51.7972C78.6502 51.8962 78.7002 52.0092 78.7211 52.128V60.5868L76.8089 59.7329Z" fill="#4DDBFB"/>
<path opacity="0.15" d="M76.8 47.963C76.6834 47.9069 76.5831 47.8265 76.5073 47.7285C76.4316 47.6305 76.3825 47.5176 76.3643 47.3991V45.659L78.2853 46.4646C78.4019 46.5207 78.5022 46.6011 78.578 46.6991C78.6537 46.7971 78.7028 46.91 78.7211 47.0285V48.7767L76.8 47.963Z" fill="#4DDBFB"/>
<path opacity="0.08" d="M76.7912 42.8796C76.6773 42.8233 76.5794 42.7438 76.5053 42.6473C76.4312 42.5509 76.3829 42.4401 76.3643 42.3238V38.1105L78.2942 38.9161C78.4088 38.9695 78.5074 39.0472 78.5817 39.1426C78.6561 39.238 78.7039 39.3482 78.7211 39.4639V43.7013L76.7912 42.8796Z" fill="#4DDBFB"/>
<path opacity="0.3" d="M69.472 56.4702C69.3541 56.4104 69.2528 56.3271 69.1758 56.2266C69.0987 56.1261 69.048 56.0111 69.0273 55.8901V54.2306L70.9484 55.0362C71.0652 55.0951 71.1658 55.1771 71.2428 55.2762C71.3198 55.3752 71.3712 55.4887 71.393 55.6082V57.308L69.472 56.4702Z" fill="#4DDBFB"/>
<path opacity="0.15" d="M69.472 51.3787C69.3562 51.3206 69.2563 51.2399 69.1793 51.1423C69.1024 51.0447 69.0505 50.9329 69.0273 50.8148V46.6821L70.9573 47.4877C71.0714 47.5467 71.1696 47.6278 71.245 47.7254C71.3203 47.8229 71.3709 47.9343 71.393 48.0516V52.2005L69.472 51.3787Z" fill="#4DDBFB"/>
<path opacity="0.08" d="M69.4631 43.9511C69.35 43.8929 69.2524 43.813 69.1771 43.7169C69.1018 43.6209 69.0507 43.5111 69.0273 43.3952V39.2544L70.9573 40.06C71.0726 40.1135 71.1723 40.1911 71.248 40.2863C71.3238 40.3816 71.3735 40.4918 71.393 40.6078V44.7728L69.4631 43.9511Z" fill="#4DDBFB"/>
<path opacity="0.05" d="M69.4542 36.4912C69.3416 36.4375 69.2444 36.3608 69.1703 36.2671C69.0962 36.1734 69.0473 36.0653 69.0273 35.9515V27.6296L70.9661 28.3949C71.0788 28.4444 71.1764 28.5179 71.2508 28.6091C71.3251 28.7003 71.374 28.8065 71.393 28.9185V37.2807L69.4542 36.4912Z" fill="#4DDBFB"/>
<path opacity="0.02" d="M69.4453 24.8502C69.3348 24.7992 69.2393 24.7251 69.1667 24.6341C69.094 24.543 69.0462 24.4376 69.0273 24.3266V22.6348L70.975 23.376C71.086 23.4265 71.1819 23.5004 71.2546 23.5916C71.3274 23.6827 71.3749 23.7884 71.393 23.8996V25.6397L69.4453 24.8502Z" fill="#4DDBFB"/>
<path opacity="0.05" d="M76.7823 35.3553C76.6698 35.3004 76.5733 35.2221 76.5006 35.1269C76.428 35.0317 76.3812 34.9222 76.3643 34.8075V26.3728L78.3031 27.122C78.4166 27.1716 78.5144 27.2463 78.5875 27.3392C78.6606 27.4322 78.7065 27.5404 78.7211 27.6537V36.1287L76.7823 35.3553Z" fill="#4DDBFB"/>
<path opacity="0.02" d="M62.1172 24.4152C62.0074 24.3655 61.9122 24.2928 61.8395 24.2031C61.7668 24.1135 61.7187 24.0094 61.6992 23.8996V19.7991L63.6469 20.5402C63.7565 20.5881 63.8518 20.6592 63.9246 20.7476C63.9973 20.836 64.0455 20.9389 64.0649 21.0478V25.1725L62.1172 24.4152Z" fill="#4DDBFB"/>
<path opacity="0.05" d="M62.1163 31.8429C62.0037 31.7934 61.9061 31.7199 61.8317 31.6286C61.7574 31.5374 61.7085 31.4313 61.6895 31.3192V27.2267L63.6283 27.9921C63.7409 28.0416 63.8385 28.1151 63.9129 28.2063C63.9872 28.2975 64.0361 28.4037 64.0552 28.5157V32.6323L62.1163 31.8429Z" fill="#4DDBFB"/>
<path opacity="0.08" d="M62.1164 43.3227C62.0034 43.2646 61.9057 43.1846 61.8304 43.0886C61.7551 42.9926 61.704 42.8827 61.6807 42.7669V34.5819L63.6106 35.3875C63.724 35.4413 63.8222 35.5179 63.8978 35.6115C63.9734 35.7051 64.0242 35.8131 64.0464 35.9273V44.1364L62.1164 43.3227Z" fill="#4DDBFB"/>
<path opacity="0.15" d="M62.1166 53.2477C62.0008 53.1896 61.9008 53.1089 61.8239 53.0113C61.7469 52.9138 61.695 52.8019 61.6719 52.6838V45.9973L63.5929 46.8029C63.7076 46.8602 63.807 46.9397 63.8839 47.0358C63.9607 47.1319 64.0132 47.2422 64.0376 47.3588V54.0695L62.1166 53.2477Z" fill="#4DDBFB"/>
<path opacity="0.3" d="M84.1738 63.914C84.1932 63.7916 84.2433 63.6749 84.3205 63.5729C84.3976 63.471 84.4995 63.3864 84.6185 63.3259L86.5306 62.4719V70.8583C86.5087 70.984 86.4557 71.1036 86.3757 71.2083C86.2956 71.3129 86.1905 71.3998 86.0682 71.4625L84.1738 72.3406V63.914Z" fill="#4DDBFB"/>
<path opacity="0.6" d="M84.1738 75.7402C84.1953 75.6143 84.2471 75.4942 84.3255 75.3884C84.4038 75.2826 84.5069 75.1937 84.6274 75.128L86.5306 74.2418V75.9336C86.5087 76.0604 86.4558 76.1811 86.3758 76.2871C86.2958 76.393 86.1907 76.4814 86.0682 76.5458L84.1738 77.4159V75.7402Z" fill="#4DDBFB"/>
<path opacity="0.6" d="M84.173 80.8477C84.1936 80.7195 84.2459 80.5971 84.326 80.4897C84.406 80.3823 84.5118 80.2927 84.6354 80.2274L86.5298 79.3251V83.474C86.5064 83.6035 86.4521 83.7268 86.3706 83.8353C86.2892 83.9438 86.1827 84.035 86.0584 84.1024L84.1641 85.0208L84.173 80.8477Z" fill="#4DDBFB"/>
<path opacity="0.3" d="M91.4648 60.6432C91.4852 60.5201 91.5367 60.4029 91.6154 60.3009C91.6941 60.1989 91.7978 60.1147 91.9184 60.0551L93.8305 59.2495V60.9252C93.8102 61.0483 93.7587 61.1654 93.68 61.2675C93.6013 61.3695 93.4976 61.4536 93.377 61.5133L91.4737 62.3672L91.4648 60.6432Z" fill="#4DDBFB"/>
<path opacity="0.55" d="M91.4648 65.7749C91.4852 65.6518 91.5367 65.5347 91.6154 65.4326C91.6941 65.3306 91.7978 65.2464 91.9184 65.1868L93.8305 64.3168V68.4254C93.8072 68.5486 93.7545 68.6657 93.6762 68.7687C93.5979 68.8716 93.4958 68.9579 93.377 69.0215L91.4737 69.8996L91.4648 65.7749Z" fill="#4DDBFB"/>
<path opacity="0.6" d="M91.4648 73.2348C91.4868 73.109 91.5397 72.9894 91.6198 72.8848C91.6999 72.7802 91.805 72.6933 91.9273 72.6306L93.8661 71.7766V75.8047C93.843 75.9311 93.7897 76.0514 93.7098 76.1572C93.6299 76.263 93.5254 76.3516 93.4036 76.4169L91.5093 77.3192L91.4648 73.2348Z" fill="#4DDBFB"/>
<path opacity="0.65" d="M91.4648 80.735C91.4867 80.6071 91.5395 80.4852 91.6195 80.3779C91.6994 80.2707 91.8045 80.1808 91.9273 80.1146L93.8305 79.2043V87.4456C93.8066 87.5749 93.752 87.698 93.6707 87.8065C93.5893 87.9149 93.4831 88.0062 93.3592 88.074L91.4737 89.0085L91.4648 80.735Z" fill="#4DDBFB"/>
<path opacity="0.7" d="M91.4648 92.4243C91.4904 92.2944 91.5454 92.1707 91.6266 92.0611C91.7077 91.9515 91.8132 91.8585 91.9362 91.7878L93.8305 90.8453V92.4565C93.8067 92.588 93.7524 92.7134 93.6712 92.8245C93.5899 92.9356 93.4836 93.0298 93.3592 93.101L91.4737 94.0516L91.4648 92.4243Z" fill="#4DDBFB"/>
<path opacity="0.8" d="M91.4648 97.556C91.4879 97.4222 91.5428 97.2945 91.6257 97.1818C91.7087 97.0692 91.8176 96.9742 91.9451 96.9034L93.8661 95.9447V99.9728C93.8398 100.106 93.7836 100.232 93.701 100.344C93.6183 100.457 93.5111 100.552 93.3859 100.625L91.5093 101.6L91.4648 97.556Z" fill="#4DDBFB"/>
<path opacity="0.7" d="M84.173 88.4043C84.1935 88.2739 84.2457 88.1493 84.3256 88.0392C84.4056 87.9292 84.5114 87.8366 84.6354 87.7679L86.5298 86.8414V95.1955C86.5072 95.3284 86.4525 95.4551 86.3694 95.5666C86.2864 95.678 86.1771 95.7714 86.0495 95.84L84.1641 96.7906L84.173 88.4043Z" fill="#4DDBFB"/>
<path opacity="0.8" d="M84.1738 100.182C84.1958 100.048 84.2492 99.9196 84.3305 99.8057C84.4118 99.6917 84.5191 99.5949 84.6452 99.5216L86.5395 98.571V103.832C86.5165 103.966 86.4617 104.095 86.3788 104.209C86.296 104.323 86.187 104.42 86.0593 104.492L84.1738 105.467V100.182Z" fill="#4DDBFB"/>
<path opacity="0.8" d="M98.8379 93.6085C98.8612 93.4779 98.9154 93.3535 98.9968 93.2436C99.0781 93.1338 99.1847 93.0411 99.3093 92.9721L101.195 92.0134V96.2428C101.168 96.3745 101.112 96.4998 101.029 96.6107C100.947 96.7217 100.839 96.8158 100.714 96.8873L98.8379 97.8621V93.6085Z" fill="#4DDBFB"/>
<path opacity="0.7" d="M98.8301 86.3339C98.8557 86.2051 98.9109 86.0826 98.9921 85.9744C99.0733 85.8661 99.1787 85.7745 99.3014 85.7055L101.196 84.771V88.799C101.17 88.9278 101.115 89.0503 101.034 89.1586C100.953 89.2668 100.847 89.3584 100.724 89.4274L98.839 90.3861L98.8301 86.3339Z" fill="#4DDBFB"/>
<path opacity="0.65" d="M98.8301 78.866C98.8564 78.7395 98.912 78.6196 98.9933 78.5141C99.0745 78.4085 99.1796 78.3198 99.3014 78.2537L101.196 77.3434V81.3714C101.172 81.4996 101.117 81.6216 101.036 81.7287C100.954 81.8358 100.848 81.9256 100.724 81.9917L98.839 82.9262L98.8301 78.866Z" fill="#4DDBFB"/>
<path opacity="0.6" d="M98.8301 67.3458C98.85 67.2205 98.9023 67.1013 98.9827 66.9977C99.063 66.8941 99.1692 66.8092 99.2925 66.7497L101.196 65.8716V74.0082C101.171 74.1332 101.118 74.2519 101.038 74.3562C100.958 74.4605 100.854 74.5479 100.733 74.6124L98.839 75.5227L98.8301 67.3458Z" fill="#4DDBFB"/>
<path opacity="0.3" d="M98.8301 57.3725C98.8517 57.2508 98.9038 57.1352 98.9824 57.0347C99.0611 56.9341 99.1641 56.8512 99.2836 56.7924L101.196 55.9385V62.6008C101.174 62.7225 101.122 62.838 101.043 62.9386C100.965 63.0392 100.862 63.122 100.742 63.1809L98.839 64.059L98.8301 57.3725Z" fill="#4DDBFB"/>
<path opacity="0.15" d="M98.8379 45.8845C98.8575 45.7675 98.9071 45.6562 98.9828 45.5597C99.0585 45.4631 99.1581 45.384 99.2737 45.3287L101.195 44.5231V52.6838C101.172 52.8019 101.12 52.9138 101.043 53.0113C100.966 53.1089 100.866 53.1897 100.75 53.2478L98.8379 54.0534V45.8845Z" fill="#4DDBFB"/>
<path opacity="0.15" d="M98.8379 40.9059C98.8565 40.7906 98.9049 40.681 98.979 40.5858C99.0532 40.4906 99.1511 40.4126 99.2648 40.3581L101.195 39.5525V41.2282C101.174 41.3438 101.124 41.4534 101.048 41.5485C100.972 41.6436 100.873 41.7214 100.759 41.776L98.8379 42.5816V40.9059Z" fill="#4DDBFB"/>
<path opacity="0.08" d="M98.8379 33.5024C98.8584 33.3898 98.9077 33.2831 98.9819 33.1908C99.056 33.0985 99.1529 33.0231 99.2648 32.9707L101.195 32.1651V36.2495C101.175 36.3634 101.126 36.4714 101.052 36.5651C100.978 36.6588 100.88 36.7356 100.768 36.7893L98.8379 37.5949V33.5024Z" fill="#4DDBFB"/>
<path opacity="0.3" d="M91.4648 55.6646C91.4867 55.5451 91.5381 55.4316 91.6151 55.3326C91.6921 55.2335 91.7927 55.1515 91.9095 55.0926L93.8305 54.287V55.9707C93.8099 56.0916 93.7592 56.2067 93.6821 56.3072C93.6051 56.4077 93.5037 56.491 93.3859 56.5507L91.4648 57.3563V55.6646Z" fill="#4DDBFB"/>
<path opacity="0.15" d="M91.4648 48.0597C91.487 47.9423 91.5375 47.8309 91.6129 47.7334C91.6882 47.6359 91.7865 47.5547 91.9006 47.4957L93.8305 46.6901V50.8309C93.8074 50.949 93.7555 51.0609 93.6786 51.1584C93.6016 51.256 93.5016 51.3367 93.3859 51.3948L91.4648 52.2005V48.0597Z" fill="#4DDBFB"/>
<path opacity="0.08" d="M91.4648 40.5998C91.4851 40.4839 91.5351 40.374 91.6107 40.2789C91.6864 40.1837 91.7857 40.106 91.9006 40.052L93.8305 39.2464V43.3872C93.8072 43.503 93.7561 43.6129 93.6808 43.7089C93.6055 43.8049 93.5078 43.8849 93.3948 43.943L91.4648 44.7486V40.5998Z" fill="#4DDBFB"/>
<path opacity="0.05" d="M91.4648 28.9185C91.4839 28.8065 91.5328 28.7003 91.6071 28.6091C91.6815 28.5179 91.7791 28.4444 91.8917 28.3949L93.8305 27.6376V35.9515C93.8106 36.0653 93.7617 36.1734 93.6876 36.2671C93.6134 36.3608 93.5162 36.4375 93.4036 36.4912L91.4648 37.2968V28.9185Z" fill="#4DDBFB"/>
<path opacity="0.02" d="M91.4648 23.8593C91.4837 23.7483 91.5315 23.6429 91.6041 23.5519C91.6768 23.4608 91.7723 23.3867 91.8828 23.3357L93.8661 22.6348V24.3266C93.8472 24.4376 93.7995 24.543 93.7268 24.6341C93.6541 24.7251 93.5586 24.7992 93.4481 24.8502L91.5004 25.5994L91.4648 23.8593Z" fill="#4DDBFB"/>
<path opacity="0.03" d="M98.8379 22.0064C98.8558 21.8971 98.9034 21.7936 98.9764 21.705C99.0493 21.6164 99.1453 21.5456 99.2559 21.4989L101.195 20.7497V28.9588C101.173 29.07 101.123 29.1751 101.049 29.2659C100.975 29.3567 100.879 29.4308 100.768 29.4824L98.8379 30.288V22.0064Z" fill="#4DDBFB"/>
<path opacity="0.03" d="M84.1738 26.6628C84.1907 26.5501 84.2375 26.4429 84.3103 26.3502C84.3831 26.2576 84.4798 26.1824 84.5918 26.1311L86.5395 25.39V29.6113C86.5217 29.7258 86.4735 29.8347 86.3992 29.9287C86.3249 30.0227 86.2266 30.099 86.1126 30.1511L84.1738 30.9084V26.6628Z" fill="#4DDBFB"/>
<path opacity="0.05" d="M84.1738 34.3241C84.1917 34.2096 84.2398 34.1008 84.3141 34.0068C84.3885 33.9128 84.4868 33.8365 84.6007 33.7844L86.5395 32.9788V37.1921C86.5223 37.3078 86.4745 37.418 86.4002 37.5134C86.3259 37.6087 86.2272 37.6864 86.1126 37.7399L84.1738 38.5455V34.3241Z" fill="#4DDBFB"/>
<path opacity="0.08" d="M84.1738 41.9048C84.1925 41.7885 84.2408 41.6778 84.3149 41.5813C84.389 41.4848 84.4868 41.4053 84.6007 41.349L86.5395 40.5434V48.978C86.5186 49.0968 86.4686 49.2098 86.3932 49.3088C86.3178 49.4078 86.2189 49.4902 86.1037 49.55L84.1738 50.3556V41.9048Z" fill="#4DDBFB"/>
<path opacity="0.15" d="M84.1738 53.6828C84.1947 53.564 84.2447 53.451 84.3201 53.352C84.3955 53.2531 84.4944 53.1706 84.6096 53.1108L86.5395 52.3052V59.1689C86.5189 59.2899 86.4681 59.405 86.3911 59.5055C86.314 59.606 86.2127 59.6892 86.0948 59.749L84.1738 60.5546V53.6828Z" fill="#4DDBFB"/>
</g>
<defs>
<linearGradient id="paint0_linear" x1="15.5316" y1="127.806" x2="150.892" y2="127.806" gradientUnits="userSpaceOnUse">
<stop offset="0.03" stop-color="#005FE7"/>
<stop offset="0.04" stop-color="#0062E4"/>
<stop offset="0.13" stop-color="#0074CD"/>
<stop offset="0.22" stop-color="#0081BD"/>
<stop offset="0.33" stop-color="#0089B4"/>
<stop offset="0.48" stop-color="#008BB1"/>
<stop offset="0.75" stop-color="#1B94A8"/>
<stop offset="1" stop-color="#399D9E"/>
</linearGradient>
<linearGradient id="paint1_linear" x1="15.5322" y1="165.404" x2="150.893" y2="165.404" gradientUnits="userSpaceOnUse">
<stop stop-color="#03C3F8"/>
<stop offset="0.23" stop-color="#379FC4"/>
<stop offset="0.51" stop-color="#38A0C2"/>
<stop offset="0.78" stop-color="#4FB0A8"/>
<stop offset="1" stop-color="#09D6A5"/>
</linearGradient>
<linearGradient id="paint2_linear" x1="30.7246" y1="90.2354" x2="134.082" y2="118.008" gradientUnits="userSpaceOnUse">
<stop offset="0.03" stop-color="#0087D4"/>
<stop offset="0.04" stop-color="#008AD4"/>
<stop offset="0.16" stop-color="#009AD4"/>
<stop offset="0.3" stop-color="#00A3D4"/>
<stop offset="0.48" stop-color="#00A6D4"/>
<stop offset="0.75" stop-color="#1BA2BA"/>
<stop offset="1" stop-color="#399D9E"/>
</linearGradient>
<linearGradient id="paint3_linear" x1="45.1865" y1="90.2203" x2="122.131" y2="110.893" gradientUnits="userSpaceOnUse">
<stop stop-color="#630692"/>
<stop offset="0.23" stop-color="#5B0E94"/>
<stop offset="0.59" stop-color="#432399"/>
<stop offset="1" stop-color="#2142A1"/>
</linearGradient>
<linearGradient id="paint4_linear" x1="725.46" y1="10646.1" x2="7994.92" y2="12289.7" gradientUnits="userSpaceOnUse">
<stop stop-color="#00FF6A"/>
<stop offset="1" stop-color="#13FF75"/>
</linearGradient>
<linearGradient id="paint5_linear" x1="81.5935" y1="105.926" x2="81.5935" y2="-25.363" gradientUnits="userSpaceOnUse">
<stop stop-color="#25BFEC"/>
<stop offset="0.71" stop-color="#25BFEC" stop-opacity="0"/>
</linearGradient>
<linearGradient id="paint6_linear" x1="81.5943" y1="104.492" x2="81.5943" y2="-14.3263" gradientUnits="userSpaceOnUse">
<stop stop-color="#70E8FC"/>
<stop offset="0.75" stop-color="#70E8FC" stop-opacity="0"/>
</linearGradient>
</defs>
</svg>
