<svg width="45" height="50" viewBox="0 0 45 50" fill="none" xmlns="http://www.w3.org/2000/svg">
<rect x="1.5" y="20.9193" width="33.2903" height="27.4839" rx="1.5" stroke="#03C3F8" stroke-width="3"/>
<path d="M27.5804 19.4194C27.5804 15.8261 26.5098 8.50905 24.6042 5.96823C22.6986 3.42742 20.114 2 17.4191 2C14.7242 2 12.1396 3.42741 10.234 5.96823C8.32837 8.50905 7.25781 15.8261 7.25781 19.4194" stroke="#03C3F8" stroke-width="3"/>
<g style="mix-blend-mode:multiply">
<path d="M41.2828 14.2669L18.8708 37.2535L9.52322 27.6662C8.67184 26.793 7.29354 26.793 6.44435 27.6662C5.59517 28.5394 5.59297 29.9531 6.44435 30.824L17.3314 41.9901C18.1827 42.8634 19.561 42.8634 20.4102 41.9901L44.3617 17.4247C45.213 16.5514 45.213 15.1378 44.3617 14.2669C43.5103 13.3959 42.132 13.3936 41.2828 14.2669H41.2828Z" fill="#04BC88"/>
</g>
</svg>
