<svg width="212" height="199" viewBox="0 0 212 199" fill="none" xmlns="http://www.w3.org/2000/svg">
<mask id="mask0" mask-type="alpha" maskUnits="userSpaceOnUse" x="0" y="0" width="212" height="199">
<rect width="212" height="199" fill="#C4C4C4"/>
</mask>
<g mask="url(#mask0)">
<path d="M186.168 177.526L125.245 145.709C123.495 144.796 123.713 143.196 125.731 142.142L185.676 110.838C187.7 109.779 190.753 109.666 192.529 110.579L253.457 142.401C255.208 143.314 254.99 144.909 252.965 145.963L192.996 177.272C190.977 178.326 187.943 178.439 186.168 177.526Z" fill="#071033"/>
<path d="M125.246 145.709L128.205 147.253L185.676 117.24C187.701 116.186 190.754 116.068 192.529 116.986L250.499 147.253L252.991 145.963C255.015 144.909 255.233 143.314 253.483 142.401L192.554 110.579C190.803 109.666 187.751 109.779 185.701 110.838L125.757 142.142C123.713 143.196 123.495 144.813 125.246 145.709Z" fill="#131F60"/>
<mask id="mask1" mask-type="alpha" maskUnits="userSpaceOnUse" x="124" y="109" width="131" height="70">
<path d="M186.169 177.526L125.246 145.709C123.496 144.796 123.714 143.196 125.732 142.142L185.677 110.838C187.701 109.779 190.754 109.666 192.529 110.579L253.458 142.401C255.209 143.314 254.991 144.909 252.966 145.963L192.997 177.272C190.978 178.326 187.944 178.439 186.169 177.526Z" fill="#071033"/>
</mask>
<g mask="url(#mask1)">
<path d="M237.117 146.064H216.826L194.243 134.27C191.333 132.754 186.25 132.94 182.892 134.698L161.155 146.064H140.846V159.025C140.759 160.057 141.394 161.048 142.796 161.781L183.701 183.144C186.611 184.66 191.694 184.474 195.052 182.716L234.332 162.204C236.077 161.291 237.005 160.141 237.098 159.025L237.117 146.064Z" fill="url(#paint0_linear)"/>
<path d="M234.338 161.381L195.058 181.899C191.7 183.651 186.617 183.843 183.707 182.322L142.802 160.958C141.4 160.226 140.764 159.234 140.852 158.208V159.054C140.764 160.085 141.4 161.077 142.802 161.809L183.707 183.172C186.617 184.688 191.7 184.502 195.058 182.744L234.338 162.232C236.082 161.319 237.011 160.169 237.104 159.054V158.208C237.011 159.318 236.082 160.474 234.338 161.381Z" fill="url(#paint1_linear)"/>
<path d="M142.129 159.904V146.943H162.401L184.206 135.543C187.564 133.791 192.648 133.599 195.551 135.121L218.141 146.915H237.148V146.064H216.826L194.243 134.27C191.333 132.754 186.25 132.94 182.892 134.698L161.155 146.064H140.846V159.025C140.759 160.057 141.394 161.048 142.796 161.781L143.026 161.899C142.727 161.644 142.493 161.334 142.338 160.99C142.183 160.646 142.112 160.276 142.129 159.904V159.904Z" fill="#03C3F8"/>
</g>
<path d="M183.707 170.172L142.802 148.814C139.892 147.298 140.254 144.644 143.612 142.892L182.891 122.374C186.249 120.621 191.333 120.43 194.242 121.951L235.154 143.314C238.064 144.836 237.696 147.49 234.338 149.243L195.058 169.755C191.682 171.508 186.617 171.699 183.707 170.172Z" fill="url(#paint2_linear)"/>
<path d="M235.154 143.314L194.242 121.951C192.475 121.139 190.491 120.791 188.516 120.948C189.957 120.996 191.367 121.339 192.641 121.951L233.552 143.314C236.462 144.836 236.094 147.49 232.736 149.243L193.488 169.755C191.763 170.61 189.845 171.097 187.881 171.181C190.388 171.33 192.891 170.836 195.101 169.755L234.381 149.243C237.695 147.49 238.063 144.813 235.154 143.314Z" fill="#09D6A5"/>
<path style="mix-blend-mode:overlay" opacity="0.7" d="M185.053 164.018L154.595 148.116C152.433 146.988 152.726 145.005 155.218 143.703L184.461 128.426C186.953 127.124 190.741 126.983 192.909 128.11L223.367 144.019C225.535 145.146 225.236 147.124 222.744 148.431L193.495 163.703C191.003 165.01 187.221 165.151 185.053 164.018Z" fill="url(#paint3_linear)"/>
<path d="M186.137 159.07L164.07 147.546C162.5 146.729 162.693 145.292 164.506 144.351L185.688 133.289C187.501 132.342 190.242 132.241 191.812 133.058L213.879 144.582C215.442 145.399 215.249 146.836 213.436 147.777L192.254 158.845C190.435 159.792 187.707 159.893 186.137 159.07Z" fill="#C7F6FF"/>
<path d="M185.545 170.172L144.633 148.814C141.724 147.298 142.091 144.644 145.449 142.892L184.698 122.374C186.401 121.532 188.292 121.047 190.23 120.954C187.674 120.782 185.117 121.275 182.86 122.374L143.58 142.892C140.222 144.644 139.842 147.298 142.77 148.814L183.707 170.172C185.504 170.993 187.522 171.337 189.526 171.164C188.134 171.105 186.774 170.766 185.545 170.172V170.172Z" fill="#03C3F8"/>
<mask id="mask2" mask-type="alpha" maskUnits="userSpaceOnUse" x="163" y="132" width="52" height="28">
<path d="M186.137 159.07L164.07 147.546C162.5 146.729 162.693 145.292 164.506 144.351L185.688 133.289C187.501 132.342 190.242 132.241 191.812 133.058L213.879 144.582C215.442 145.399 215.249 146.836 213.436 147.777L192.254 158.845C190.435 159.792 187.707 159.893 186.137 159.07Z" fill="#6DE0F6"/>
</mask>
<g mask="url(#mask2)">
<path d="M164.5 145.94L185.682 134.873C187.495 133.926 190.236 133.819 191.806 134.642L213.879 146.171C214.186 146.324 214.45 146.538 214.651 146.797C215.181 146.014 214.95 145.168 213.879 144.611L191.806 133.081C190.236 132.264 187.495 132.365 185.682 133.312L164.5 144.379C163.086 145.118 162.669 146.143 163.286 146.949C163.593 146.528 164.01 146.181 164.5 145.94Z" fill="#267FE5"/>
<path d="M164.5 147.789L185.682 136.721C187.495 135.774 190.236 135.673 191.806 136.496L213.878 148.02C214.114 148.152 214.324 148.318 214.501 148.51C215.199 147.682 215.012 146.746 213.878 146.143L191.818 134.613C190.248 133.791 187.507 133.898 185.694 134.844L164.512 145.912C163.017 146.69 162.643 147.794 163.422 148.623C163.719 148.285 164.085 148.002 164.5 147.789Z" fill="#25BFEC"/>
<path d="M163.647 150.702C163.904 150.461 164.198 150.254 164.519 150.088L185.701 139.02C187.514 138.073 190.255 137.966 191.825 138.789L213.898 150.319C214.053 150.398 214.197 150.492 214.328 150.601C215.262 149.722 215.156 148.679 213.898 148.02L191.825 136.496C190.255 135.673 187.514 135.774 185.701 136.721L164.519 147.789C162.881 148.64 162.563 149.885 163.647 150.702Z" fill="#18D0F7"/>
</g>
<path d="M237.122 119.686H216.831L194.248 107.891C191.338 106.37 186.255 106.561 182.897 108.314L161.154 119.686H140.845V132.647C140.764 133.672 141.399 134.664 142.795 135.397L183.707 156.76C186.616 158.282 191.693 158.09 195.058 156.337L234.337 135.825C236.082 134.912 237.01 133.757 237.097 132.647L237.122 119.686Z" fill="url(#paint4_linear)"/>
<path d="M234.344 135.002L195.064 155.52C191.7 157.273 186.623 157.464 183.714 155.949L142.802 134.58C141.406 133.853 140.771 132.861 140.852 131.83V132.681C140.771 133.706 141.406 134.698 142.802 135.431L183.714 156.794C186.623 158.315 191.7 158.124 195.064 156.371L234.344 135.859C236.089 134.946 237.017 133.791 237.104 132.681V131.852C237.017 132.934 236.089 134.106 234.344 135.002Z" fill="url(#paint5_linear)"/>
<path d="M142.134 133.543V120.531H162.4L184.205 109.165C187.569 107.412 192.647 107.22 195.556 108.736L218.14 120.531H237.153V119.686H216.831L194.248 107.891C191.338 106.37 186.255 106.561 182.897 108.314L161.154 119.686H140.845V132.647C140.764 133.672 141.399 134.664 142.795 135.397L143.025 135.515C142.73 135.262 142.498 134.956 142.345 134.616C142.191 134.276 142.119 133.91 142.134 133.543V133.543Z" fill="#03C3F8"/>
<path d="M183.713 143.799L142.801 122.436C139.892 120.914 140.259 118.26 143.617 116.507L182.866 95.995C186.224 94.2368 191.307 94.0509 194.217 95.5668L235.122 116.936C238.032 118.452 237.67 121.106 234.312 122.858L195.033 143.376C191.681 145.129 186.622 145.32 183.713 143.799Z" fill="url(#paint6_linear)"/>
<path d="M235.154 116.936L194.248 95.5668C192.479 94.7553 190.493 94.4097 188.517 94.5693C189.959 94.615 191.372 94.9561 192.647 95.5668L233.553 116.936C236.462 118.452 236.101 121.106 232.743 122.858L193.463 143.376C191.737 144.228 189.82 144.716 187.856 144.802C190.365 144.947 192.869 144.453 195.083 143.376L234.344 122.836C237.702 121.106 238.063 118.452 235.154 116.936Z" fill="#09D6A5"/>
<path style="mix-blend-mode:overlay" opacity="0.7" d="M185.06 137.64L154.602 121.709C152.433 120.582 152.733 118.604 155.225 117.296L184.468 102.025C186.96 100.717 190.754 100.577 192.922 101.709L223.38 117.612C225.542 118.739 225.249 120.723 222.757 122.024L193.514 137.296C191.009 138.614 187.228 138.767 185.06 137.64Z" fill="url(#paint7_linear)"/>
<path d="M186.137 132.692L164.071 121.145C162.501 120.322 162.7 118.891 164.513 117.95L185.695 106.882C187.501 105.936 190.242 105.834 191.812 106.651L213.879 118.175C215.449 118.998 215.256 120.43 213.443 121.376L192.261 132.438C190.436 133.408 187.707 133.509 186.137 132.692Z" fill="#C7F6FF"/>
<path d="M185.551 143.799L144.639 122.436C141.73 120.914 142.091 118.26 145.455 116.507L184.735 95.9951C186.435 95.151 188.324 94.6655 190.261 94.575C187.706 94.3985 185.15 94.8916 182.897 95.9951L143.649 116.507C140.291 118.26 139.911 120.914 142.832 122.436L183.744 143.799C185.54 144.625 187.558 144.971 189.563 144.796C188.161 144.737 186.79 144.396 185.551 143.799V143.799Z" fill="#03C3F8"/>
<mask id="mask3" mask-type="alpha" maskUnits="userSpaceOnUse" x="163" y="106" width="52" height="28">
<path d="M186.137 132.692L164.071 121.145C162.501 120.322 162.7 118.891 164.513 117.95L185.695 106.882C187.501 105.936 190.242 105.834 191.812 106.651L213.879 118.175C215.449 118.998 215.256 120.43 213.443 121.376L192.261 132.438C190.436 133.408 187.707 133.509 186.137 132.692Z" fill="#6DE0F6"/>
</mask>
<g mask="url(#mask3)">
<path d="M164.5 119.528L185.682 108.461C187.495 107.514 190.236 107.413 191.806 108.23L213.885 119.759C214.191 119.913 214.455 120.127 214.657 120.385C215.187 119.607 214.957 118.762 213.885 118.198L191.806 106.674C190.236 105.852 187.495 105.953 185.682 106.9L164.5 117.967C163.092 118.706 162.675 119.731 163.292 120.543C163.592 120.117 164.008 119.768 164.5 119.528Z" fill="#267FE5"/>
<path d="M164.5 121.41L185.682 110.342C187.495 109.396 190.236 109.294 191.806 110.111L213.885 121.641C214.122 121.769 214.332 121.933 214.508 122.126C215.212 121.297 215.019 120.362 213.885 119.759L191.806 108.229C190.236 107.412 187.495 107.513 185.682 108.46L164.5 119.528C163.011 120.311 162.631 121.416 163.416 122.238C163.713 121.9 164.082 121.618 164.5 121.41Z" fill="#25BFEC"/>
<path d="M163.647 124.323C163.904 124.082 164.198 123.873 164.519 123.703L185.701 112.636C187.513 111.689 190.255 111.588 191.825 112.405L213.897 123.963C214.051 124.045 214.195 124.141 214.327 124.25C215.255 123.371 215.149 122.323 213.897 121.669L191.818 110.139C190.248 109.322 187.507 109.424 185.694 110.37L164.513 121.438C162.88 122.272 162.563 123.484 163.647 124.323Z" fill="#18D0F7"/>
</g>
<path opacity="0.5" d="M215.305 92.2194L163.372 94.4735V119.607C163.367 119.92 163.464 120.228 163.65 120.492C163.836 120.757 164.103 120.966 164.419 121.094L186.485 132.619C188.055 133.436 190.796 133.334 192.603 132.388L213.785 121.32C214.8 120.79 215.293 120.108 215.261 119.466L215.305 92.2194Z" fill="#C7F6FF"/>
<path opacity="0.5" d="M237.478 84.9725L141.219 85.8234V120.097C141.132 121.123 141.755 122.114 143.156 122.847L184.062 144.21C186.972 145.732 192.055 145.54 195.413 143.788L234.693 123.275C236.562 122.289 237.484 121.021 237.434 119.832H237.471L237.478 84.9725Z" fill="#C7F6FF"/>
<path d="M158.364 103.253C158.364 103.907 158.15 104.545 157.748 105.089C157.347 105.632 156.776 106.055 156.109 106.305C155.441 106.554 154.707 106.62 153.999 106.492C153.29 106.364 152.64 106.049 152.13 105.586C151.619 105.124 151.272 104.535 151.132 103.894C150.992 103.253 151.065 102.589 151.342 101.986C151.619 101.382 152.088 100.867 152.69 100.505C153.291 100.143 153.997 99.9499 154.719 99.951C155.199 99.951 155.673 100.036 156.116 100.203C156.558 100.369 156.96 100.612 157.299 100.919C157.637 101.225 157.906 101.589 158.088 101.99C158.271 102.391 158.365 102.82 158.364 103.253Z" fill="#C7F6FF"/>
<path opacity="0.5" d="M162.252 115.042C164.643 115.042 166.581 113.289 166.581 111.126C166.581 108.963 164.643 107.209 162.252 107.209C159.86 107.209 157.922 108.963 157.922 111.126C157.922 113.289 159.86 115.042 162.252 115.042Z" fill="#C7F6FF"/>
<path opacity="0.15" d="M153.896 114.535C154.698 114.535 155.347 113.947 155.347 113.222C155.347 112.497 154.698 111.909 153.896 111.909C153.094 111.909 152.444 112.497 152.444 113.222C152.444 113.947 153.094 114.535 153.896 114.535Z" fill="#C7F6FF"/>
<path opacity="0.15" d="M162.251 107.547C162.251 107.807 162.166 108.061 162.006 108.277C161.847 108.493 161.62 108.661 161.355 108.76C161.089 108.86 160.798 108.886 160.516 108.835C160.234 108.784 159.976 108.659 159.773 108.476C159.57 108.292 159.432 108.058 159.376 107.803C159.32 107.549 159.348 107.285 159.458 107.045C159.568 106.805 159.754 106.6 159.993 106.456C160.231 106.311 160.512 106.234 160.799 106.234C161.184 106.234 161.553 106.373 161.826 106.619C162.098 106.865 162.251 107.199 162.251 107.547Z" fill="#C7F6FF"/>
<path d="M177.116 127.75C177.116 128.084 177.006 128.411 176.801 128.689C176.596 128.967 176.304 129.184 175.962 129.312C175.621 129.44 175.245 129.473 174.882 129.408C174.52 129.343 174.187 129.182 173.925 128.945C173.664 128.709 173.486 128.407 173.414 128.08C173.342 127.752 173.379 127.412 173.52 127.103C173.662 126.794 173.901 126.53 174.209 126.344C174.516 126.158 174.877 126.059 175.247 126.059C175.743 126.059 176.218 126.237 176.568 126.554C176.919 126.871 177.116 127.301 177.116 127.75Z" fill="#C7F6FF"/>
<path opacity="0.5" d="M164.693 121.709C164.694 122.223 164.527 122.726 164.212 123.154C163.897 123.582 163.449 123.915 162.925 124.113C162.4 124.31 161.822 124.363 161.265 124.263C160.707 124.163 160.195 123.916 159.793 123.553C159.39 123.19 159.116 122.727 159.005 122.223C158.894 121.719 158.95 121.197 159.167 120.722C159.384 120.247 159.753 119.84 160.225 119.555C160.697 119.269 161.253 119.117 161.821 119.117C162.198 119.116 162.571 119.182 162.92 119.312C163.268 119.442 163.585 119.633 163.852 119.874C164.118 120.115 164.33 120.401 164.474 120.715C164.619 121.03 164.693 121.368 164.693 121.709Z" fill="#C7F6FF"/>
<path opacity="0.5" d="M176.73 117.127C176.732 117.641 176.564 118.144 176.249 118.572C175.934 119 175.486 119.334 174.962 119.531C174.437 119.729 173.859 119.781 173.302 119.682C172.744 119.582 172.232 119.335 171.83 118.972C171.427 118.609 171.153 118.146 171.042 117.642C170.931 117.138 170.987 116.615 171.204 116.14C171.422 115.665 171.79 115.259 172.262 114.973C172.735 114.688 173.29 114.535 173.858 114.535C174.235 114.534 174.609 114.601 174.957 114.731C175.305 114.861 175.622 115.052 175.889 115.292C176.156 115.533 176.367 115.819 176.512 116.134C176.656 116.449 176.73 116.786 176.73 117.127Z" fill="#C7F6FF"/>
<path opacity="0.15" d="M217.716 104.499C217.655 105.03 217.422 105.534 217.045 105.946C216.668 106.357 216.165 106.659 215.598 106.812C215.032 106.965 214.429 106.963 213.864 106.806C213.299 106.649 212.798 106.345 212.424 105.931C212.051 105.516 211.821 105.011 211.765 104.479C211.708 103.947 211.827 103.412 212.107 102.941C212.386 102.47 212.814 102.085 213.335 101.833C213.857 101.582 214.449 101.476 215.037 101.529C215.828 101.601 216.554 101.955 217.056 102.512C217.559 103.069 217.796 103.784 217.716 104.499Z" fill="#C7F6FF"/>
<path opacity="0.15" d="M205.643 130.269C205.643 130.649 205.519 131.02 205.285 131.336C205.052 131.652 204.72 131.899 204.332 132.044C203.944 132.189 203.517 132.228 203.104 132.153C202.692 132.079 202.314 131.896 202.017 131.627C201.72 131.359 201.517 131.016 201.435 130.644C201.353 130.271 201.395 129.884 201.556 129.533C201.717 129.182 201.989 128.882 202.339 128.671C202.688 128.46 203.099 128.347 203.519 128.347C203.798 128.347 204.074 128.397 204.332 128.493C204.59 128.59 204.824 128.731 205.021 128.91C205.218 129.088 205.375 129.3 205.482 129.533C205.588 129.766 205.643 130.016 205.643 130.269Z" fill="#C7F6FF"/>
<path d="M209.599 126.696C211.594 126.696 213.212 125.233 213.212 123.427C213.212 121.622 211.594 120.159 209.599 120.159C207.603 120.159 205.985 121.622 205.985 123.427C205.985 125.233 207.603 126.696 209.599 126.696Z" fill="#C7F6FF"/>
<path opacity="0.5" d="M207.785 113.718C207.786 114.232 207.619 114.735 207.304 115.163C206.988 115.591 206.54 115.925 206.015 116.123C205.49 116.32 204.912 116.372 204.354 116.272C203.797 116.172 203.284 115.924 202.882 115.561C202.48 115.197 202.207 114.733 202.096 114.229C201.985 113.725 202.043 113.202 202.261 112.727C202.479 112.252 202.848 111.846 203.321 111.561C203.795 111.276 204.351 111.125 204.919 111.126C205.296 111.126 205.668 111.193 206.016 111.323C206.364 111.453 206.68 111.644 206.946 111.885C207.212 112.126 207.423 112.411 207.567 112.726C207.711 113.04 207.785 113.378 207.785 113.718V113.718Z" fill="#C7F6FF"/>
<path opacity="0.5" d="M188.517 139.065C190.888 139.065 192.809 137.327 192.809 135.183C192.809 133.038 190.888 131.3 188.517 131.3C186.146 131.3 184.225 133.038 184.225 135.183C184.225 137.327 186.146 139.065 188.517 139.065Z" fill="#C7F6FF"/>
<path d="M174.891 108.528C174.893 109.042 174.725 109.545 174.41 109.973C174.096 110.401 173.648 110.735 173.123 110.932C172.598 111.129 172.021 111.182 171.463 111.082C170.905 110.983 170.393 110.736 169.991 110.372C169.589 110.009 169.314 109.546 169.203 109.042C169.092 108.538 169.148 108.016 169.365 107.541C169.583 107.066 169.951 106.66 170.423 106.374C170.896 106.088 171.451 105.936 172.019 105.936C172.396 105.935 172.77 106.001 173.118 106.131C173.466 106.261 173.783 106.452 174.05 106.693C174.317 106.934 174.528 107.22 174.673 107.535C174.817 107.849 174.891 108.187 174.891 108.528V108.528Z" fill="#C7F6FF"/>
<path d="M237.485 72.9468H217.225L194.61 61.1522C191.701 59.6307 186.617 59.8223 183.259 61.5749L161.492 72.9468H141.22V85.9361C141.139 86.9674 141.774 87.9592 143.17 88.6861L184.082 110.049C186.991 111.571 192.075 111.379 195.433 109.627L234.712 89.1144C236.457 88.2015 237.385 87.0463 237.472 85.9361L237.485 72.9468Z" fill="url(#paint8_linear)"/>
<path d="M234.705 88.2635L195.419 108.776C192.061 110.528 186.977 110.72 184.068 109.204L143.156 87.8352C141.761 87.1083 141.125 86.1446 141.206 85.0852V85.9361C141.125 86.9674 141.761 87.9592 143.156 88.6861L184.068 110.049C186.977 111.571 192.061 111.379 195.419 109.627L234.699 89.1144C236.443 88.2015 237.371 87.0463 237.459 85.9361V85.0796C237.378 86.2066 236.449 87.3337 234.705 88.2635Z" fill="url(#paint9_linear)"/>
<path d="M142.497 86.7701V73.809H162.775L184.58 62.4371C187.938 60.6845 193.015 60.4929 195.925 62.0088L218.471 73.809H237.478V72.9581H217.225L194.61 61.1522C191.701 59.6307 186.617 59.8223 183.259 61.5749L161.492 72.9468H141.22V85.9361C141.139 86.9674 141.774 87.9592 143.17 88.6861L143.4 88.8045C143.094 88.5459 142.855 88.2297 142.699 87.8781C142.542 87.5266 142.474 87.1484 142.497 86.7701V86.7701Z" fill="#03C3F8"/>
<path d="M184.074 97.0601L143.162 75.6969C140.253 74.1753 140.621 71.5211 143.978 69.7686L183.258 49.2562C186.616 47.5037 191.7 47.3121 194.609 48.828L235.521 70.1968C238.424 71.7127 238.063 74.3669 234.705 76.1195L195.419 96.6375C192.067 98.39 186.984 98.6042 184.074 97.0601Z" fill="url(#paint10_linear)"/>
<path d="M235.522 70.1968L194.61 48.8279C192.84 48.0164 190.854 47.6708 188.878 47.8305C190.321 47.8762 191.733 48.2172 193.009 48.8279L233.921 70.1968C236.824 71.7127 236.462 74.3669 233.104 76.1195L193.825 96.6375C192.1 97.4921 190.182 97.9797 188.218 98.0632C190.727 98.2134 193.232 97.7191 195.444 96.6375L234.724 76.1195C238.063 74.3726 238.406 71.7127 235.522 70.1968Z" fill="#09D6A5"/>
<path style="mix-blend-mode:overlay" opacity="0.7" d="M185.451 90.9008L154.961 74.9925C152.799 73.8654 153.092 71.8874 155.584 70.5801L184.828 55.3085C187.32 54.0011 191.107 53.8603 193.275 54.9929L223.734 70.8956C225.895 72.0227 225.602 74.0063 223.111 75.308L193.867 90.5852C191.369 91.887 187.587 92.0278 185.451 90.9008Z" fill="url(#paint11_linear)"/>
<path d="M186.499 85.953L164.432 74.4289C162.869 73.6118 163.062 72.1748 164.875 71.2337L186.056 60.1661C187.869 59.2194 190.61 59.1179 192.174 59.9407L214.241 71.4648C215.81 72.2819 215.617 73.7189 213.804 74.66L192.623 85.722C190.81 86.6687 188.069 86.7701 186.499 85.953Z" fill="#C7F6FF"/>
<path d="M185.913 97.0601L145.001 75.6969C142.092 74.1753 142.46 71.5211 145.817 69.7686L185.097 49.2562C186.799 48.4121 188.691 47.9266 190.629 47.8362C188.073 47.6592 185.514 48.1523 183.259 49.2562L143.98 69.7686C140.622 71.5211 140.242 74.1753 143.163 75.6969L184.075 97.0601C185.871 97.8863 187.889 98.2324 189.894 98.0576C188.502 97.9967 187.142 97.656 185.913 97.0601V97.0601Z" fill="#03C3F8"/>
<mask id="mask4" mask-type="alpha" maskUnits="userSpaceOnUse" x="163" y="59" width="53" height="28">
<path d="M186.499 85.953L164.432 74.4289C162.869 73.6118 163.062 72.1748 164.875 71.2337L186.056 60.1661C187.869 59.2194 190.61 59.1179 192.174 59.9407L214.241 71.4648C215.81 72.2819 215.617 73.7189 213.804 74.66L192.623 85.722C190.81 86.6687 188.069 86.7701 186.499 85.953Z" fill="#6DE0F6"/>
</mask>
<g mask="url(#mask4)">
<path d="M164.893 72.7884L186.075 61.7208C187.888 60.774 190.629 60.6726 192.199 61.4897L214.272 73.0194C214.576 73.175 214.84 73.3884 215.044 73.645C215.574 72.8673 215.343 72.022 214.272 71.4585L192.199 59.9344C190.629 59.1116 187.888 59.2131 186.075 60.1598L164.893 71.2331C163.479 71.9656 163.061 72.9969 163.678 73.8028C163.983 73.3782 164.401 73.0295 164.893 72.7884Z" fill="#267FE5"/>
<path d="M164.894 74.6714L186.076 63.6038C187.889 62.6571 190.63 62.5556 192.2 63.3728L214.273 74.9025C214.509 75.0334 214.72 75.1991 214.896 75.3928C215.593 74.5587 215.407 73.6233 214.273 73.0203L192.2 61.4906C190.63 60.6735 187.889 60.7749 186.076 61.7216L164.894 72.7893C163.399 73.5726 163.025 74.6771 163.804 75.4998C164.104 75.1614 164.474 74.8799 164.894 74.6714V74.6714Z" fill="#25BFEC"/>
<path d="M163.996 77.5849C164.253 77.3417 164.546 77.133 164.868 76.965L186.075 65.9199C187.888 64.9732 190.629 64.8717 192.199 65.6888L214.259 77.1904C214.413 77.2729 214.557 77.3692 214.689 77.4778C215.624 76.5987 215.518 75.5505 214.259 74.8968L192.187 63.3671C190.617 62.55 187.875 62.6514 186.063 63.5982L164.881 74.6658C163.249 75.4998 162.925 76.7452 163.996 77.5849Z" fill="#18D0F7"/>
</g>
<path d="M168.767 95.4033C168.767 96.2712 168.095 96.6206 167.266 96.1866C166.83 95.9287 166.467 95.5817 166.206 95.1735C165.945 94.7653 165.794 94.3074 165.765 93.8367C165.765 92.9689 166.437 92.6195 167.266 93.0534C167.703 93.3107 168.067 93.6576 168.328 94.0659C168.588 94.4742 168.739 94.9324 168.767 95.4033V95.4033Z" fill="#69DAF1"/>
<path d="M168.007 95.8485C167.57 95.5919 167.206 95.2452 166.945 94.8368C166.684 94.4283 166.533 93.9697 166.506 93.4986C166.5 93.2796 166.56 93.0632 166.68 92.8731C166.145 92.828 165.765 93.1831 165.765 93.8367C165.794 94.3074 165.945 94.7653 166.206 95.1735C166.467 95.5817 166.83 95.9287 167.266 96.1867C167.845 96.491 168.338 96.4008 168.593 96.0345C168.385 96.0127 168.185 95.9492 168.007 95.8485V95.8485Z" fill="#0259C1"/>
<path d="M173.379 97.8096C173.379 98.6774 172.706 99.0268 171.877 98.5929C171.44 98.3357 171.077 97.9888 170.816 97.5805C170.555 97.1722 170.404 96.7139 170.376 96.243C170.376 95.3752 171.049 95.0258 171.877 95.4597C172.314 95.7176 172.677 96.0647 172.938 96.4729C173.198 96.881 173.35 97.3389 173.379 97.8096V97.8096Z" fill="#69DAF1"/>
<path d="M177.975 100.216C177.975 101.084 177.302 101.433 176.473 101.005C176.036 100.746 175.672 100.398 175.412 99.9892C175.151 99.5799 175 99.1209 174.972 98.6493C174.972 97.7871 175.645 97.432 176.473 97.866C176.909 98.1239 177.273 98.4709 177.533 98.8791C177.794 99.2873 177.945 99.7452 177.975 100.216V100.216Z" fill="#69DAF1"/>
<path d="M172.619 98.2604C172.182 98.0025 171.819 97.6555 171.559 97.2473C171.298 96.8391 171.147 96.3812 171.117 95.9105C171.11 95.6896 171.171 95.4712 171.292 95.2794C170.756 95.2343 170.376 95.595 170.376 96.243C170.404 96.7147 170.555 97.1737 170.816 97.5829C171.077 97.9921 171.44 98.3401 171.877 98.5985C172.457 98.8972 172.949 98.8127 173.204 98.4408C172.997 98.4184 172.798 98.357 172.619 98.2604V98.2604Z" fill="#0259C1"/>
<path d="M177.228 100.667C176.791 100.409 176.427 100.063 176.167 99.6542C175.906 99.2459 175.755 98.7877 175.727 98.3168C175.721 98.096 175.781 97.878 175.901 97.6856C175.365 97.6405 174.985 98.0012 174.985 98.6549C175.015 99.1256 175.166 99.5835 175.427 99.9917C175.687 100.4 176.05 100.747 176.487 101.005C177.066 101.309 177.558 101.219 177.814 100.853C177.606 100.828 177.407 100.765 177.228 100.667V100.667Z" fill="#0259C1"/>
<path style="mix-blend-mode:lighten" opacity="0.2" d="M215.305 -27.062H163.372V73.0765C163.395 73.3714 163.506 73.6553 163.692 73.8983C163.878 74.1413 164.134 74.3343 164.431 74.4571L186.498 85.9812C188.068 86.804 190.809 86.6969 192.615 85.7502L213.797 74.6882C214.178 74.5363 214.512 74.3032 214.772 74.0087C215.031 73.7142 215.208 73.3673 215.286 72.9976L215.305 -27.062Z" fill="url(#paint12_linear)"/>
<path style="mix-blend-mode:lighten" opacity="0.25" d="M212.862 -17.5216H165.839V73.1102C165.861 73.3771 165.962 73.6337 166.131 73.8536C166.299 74.0736 166.53 74.2488 166.798 74.3613L186.765 84.7865C188.186 85.5304 190.665 85.4346 192.304 84.578L211.479 74.5642C211.826 74.4254 212.131 74.2123 212.366 73.9433C212.602 73.6743 212.761 73.3574 212.831 73.0201L212.862 -17.5216Z" fill="url(#paint13_linear)"/>
<path opacity="0.3" d="M172.493 50.8454C172.39 50.7928 172.301 50.7199 172.233 50.6322C172.165 50.5444 172.12 50.4439 172.101 50.3382V43.2829L173.758 44.0211C173.86 44.0712 173.948 44.142 174.015 44.228C174.082 44.3141 174.126 44.413 174.144 44.517V51.6061L172.493 50.8454Z" fill="#88E9FF"/>
<path opacity="0.6" d="M172.499 55.1338C172.394 55.081 172.304 55.0074 172.235 54.9186C172.166 54.8298 172.12 54.7281 172.101 54.621V53.2122L173.752 53.9786C173.854 54.033 173.943 54.1071 174.011 54.1957C174.078 54.2842 174.124 54.3852 174.144 54.4914V55.9115L172.499 55.1338Z" fill="#88E9FF"/>
<path opacity="0.6" d="M172.499 61.5073C172.395 61.4514 172.305 61.3756 172.236 61.2851C172.167 61.1946 172.121 61.0915 172.101 60.9832V57.5006L173.745 58.2839C173.85 58.3383 173.94 58.413 174.009 58.5026C174.078 58.5923 174.124 58.6946 174.144 58.8024V62.3019L172.499 61.5073Z" fill="#88E9FF"/>
<path opacity="0.3" d="M178.841 48.0672C178.74 48.0134 178.653 47.9401 178.586 47.8524C178.519 47.7648 178.474 47.665 178.455 47.56V46.1061L180.112 46.8443C180.215 46.8966 180.304 46.9694 180.37 47.0574C180.437 47.1453 180.481 47.2459 180.498 47.3515V48.811L178.841 48.0672Z" fill="#88E9FF"/>
<path opacity="0.55" d="M178.848 54.5985C178.743 54.5441 178.654 54.4693 178.586 54.3796C178.518 54.2899 178.473 54.1875 178.455 54.08V50.5298L180.106 51.2793C180.209 51.3331 180.298 51.407 180.366 51.4957C180.434 51.5844 180.479 51.6856 180.498 51.7921V55.3649L178.848 54.5985Z" fill="#88E9FF"/>
<path opacity="0.6" d="M178.854 61.0283C178.748 60.9718 178.658 60.8951 178.589 60.8036C178.52 60.712 178.475 60.6079 178.455 60.4986V56.954L180.106 57.726C180.21 57.7819 180.299 57.8578 180.367 57.9484C180.435 58.039 180.48 58.142 180.498 58.2501V61.8116L178.854 61.0283Z" fill="#88E9FF"/>
<path opacity="0.65" d="M178.86 71.0872C178.751 71.0264 178.657 70.9442 178.587 70.8468C178.517 70.7493 178.472 70.6389 178.455 70.5237V63.412L180.1 64.201C180.21 64.2602 180.304 64.342 180.373 64.4399C180.442 64.5377 180.485 64.6489 180.498 64.7645V71.9269L178.86 71.0872Z" fill="#88E9FF"/>
<path opacity="0.7" d="M178.866 75.4489C178.756 75.388 178.662 75.306 178.591 75.2086C178.52 75.1112 178.474 75.0009 178.455 74.8854V73.4709L180.094 74.2937C180.202 74.3551 180.295 74.4374 180.365 74.5348C180.435 74.6322 180.481 74.7422 180.498 74.8572V76.2773L178.866 75.4489Z" fill="#88E9FF"/>
<path opacity="0.8" d="M178.866 82.0027C178.758 81.9401 178.665 81.8576 178.594 81.7605C178.523 81.6635 178.476 81.5539 178.455 81.4392V77.9284L180.087 78.7568C180.197 78.8182 180.29 78.9004 180.361 78.9977C180.432 79.095 180.479 79.2051 180.498 79.3203V82.8254L178.866 82.0027Z" fill="#88E9FF"/>
<path opacity="0.7" d="M172.512 71.4141C172.402 71.3532 172.308 71.2712 172.237 71.1738C172.166 71.0764 172.119 70.966 172.101 70.8505V63.8459L173.745 64.6461C173.85 64.7029 173.94 64.7797 174.009 64.8712C174.078 64.9626 174.124 65.0666 174.144 65.1758V72.2368L172.512 71.4141Z" fill="#88E9FF"/>
<path opacity="0.8" d="M172.518 78.7117C172.408 78.65 172.314 78.5678 172.242 78.4707C172.17 78.3735 172.122 78.2635 172.101 78.1482V73.7301L173.733 74.5585C173.844 74.6194 173.938 74.7013 174.01 74.7986C174.082 74.8959 174.13 75.0063 174.15 75.122V79.5626L172.518 78.7117Z" fill="#88E9FF"/>
<path opacity="0.8" d="M185.221 85.2937C185.112 85.2317 185.018 85.1495 184.946 85.0524C184.874 84.9552 184.825 84.8454 184.804 84.7302V80.9546L186.442 81.7829C186.551 81.8452 186.644 81.9277 186.715 82.0248C186.786 82.1219 186.833 82.2316 186.853 82.3465V86.139L185.221 85.2937Z" fill="#88E9FF"/>
<path opacity="0.7" d="M185.215 78.6554C185.105 78.5939 185.012 78.5117 184.941 78.4144C184.87 78.3171 184.823 78.2071 184.804 78.0918V74.5191L186.442 75.3306C186.553 75.3905 186.648 75.4723 186.719 75.5698C186.79 75.6674 186.836 75.7782 186.853 75.8941V79.4894L185.215 78.6554Z" fill="#88E9FF"/>
<path opacity="0.65" d="M185.209 72.0621C185.1 72.0001 185.008 71.9176 184.938 71.8203C184.868 71.7231 184.822 71.6133 184.804 71.4986V67.9146L186.448 68.7035C186.558 68.764 186.652 68.8461 186.722 68.9436C186.792 69.0412 186.837 69.1517 186.853 69.267V72.8736L185.209 72.0621Z" fill="#88E9FF"/>
<path opacity="0.6" d="M185.209 65.5252C185.098 65.4653 185.004 65.3834 184.934 65.2857C184.864 65.1881 184.819 65.0773 184.804 64.9617V57.7429L186.455 58.5093C186.56 58.5646 186.65 58.6402 186.719 58.7309C186.788 58.8215 186.834 58.9248 186.853 59.0334V66.3141L185.209 65.5252Z" fill="#88E9FF"/>
<path opacity="0.3" d="M185.196 55.3817C185.092 55.3259 185.003 55.2499 184.935 55.1594C184.867 55.0688 184.822 54.9658 184.804 54.8577V48.9294L186.461 49.6676C186.565 49.7207 186.654 49.7945 186.722 49.8833C186.79 49.9721 186.835 50.0737 186.853 50.1804V56.1369L185.196 55.3817Z" fill="#88E9FF"/>
<path opacity="0.15" d="M185.19 46.5682C185.088 46.515 185 46.4419 184.933 46.3541C184.867 46.2664 184.822 46.1662 184.804 46.061V38.7859L186.473 39.496C186.575 39.5464 186.662 39.6174 186.728 39.7034C186.794 39.7895 186.837 39.8882 186.853 39.9919V47.3177L185.19 46.5682Z" fill="#88E9FF"/>
<path opacity="0.15" d="M185.184 36.3797C185.083 36.3302 184.996 36.2601 184.93 36.175C184.864 36.09 184.821 35.9922 184.804 35.8894V34.3904L186.48 35.0836C186.58 35.1334 186.666 35.2036 186.731 35.2887C186.795 35.3738 186.837 35.4715 186.853 35.5738V37.0841L185.184 36.3797Z" fill="#88E9FF"/>
<path opacity="0.08" d="M185.184 31.9785C185.082 31.931 184.995 31.8622 184.929 31.7779C184.863 31.6936 184.82 31.5962 184.804 31.4939V27.8535L186.486 28.5297C186.585 28.577 186.67 28.6452 186.734 28.7285C186.798 28.8119 186.839 28.9081 186.853 29.0087V32.6717L185.184 31.9785Z" fill="#88E9FF"/>
<path opacity="0.3" d="M178.841 43.7618C178.739 43.7102 178.651 43.6382 178.584 43.5513C178.517 43.4644 178.473 43.3649 178.455 43.2603V41.8008L180.112 42.5277C180.215 42.5778 180.303 42.6487 180.37 42.7347C180.437 42.8207 180.481 42.9196 180.498 43.0236V44.5057L178.841 43.7618Z" fill="#88E9FF"/>
<path opacity="0.15" d="M178.835 39.3325C178.734 39.283 178.647 39.213 178.581 39.1279C178.515 39.0428 178.472 38.945 178.455 38.8423V35.2695L180.118 35.9739C180.219 36.0238 180.306 36.0939 180.372 36.1789C180.438 36.264 180.481 36.3616 180.498 36.4642V40.0539L178.835 39.3325Z" fill="#88E9FF"/>
<path opacity="0.08" d="M178.829 32.9084C178.73 32.86 178.645 32.7916 178.58 32.7085C178.515 32.6254 178.472 32.5299 178.455 32.4294V28.8453L180.125 29.5328C180.224 29.5792 180.31 29.6463 180.375 29.7286C180.44 29.811 180.482 29.9061 180.498 30.0062V33.6128L178.829 32.9084Z" fill="#88E9FF"/>
<path opacity="0.05" d="M178.823 26.4729C178.725 26.4268 178.641 26.3603 178.577 26.279C178.513 26.1977 178.471 26.1039 178.455 26.0052V18.7864L180.137 19.4457C180.233 19.49 180.317 19.5546 180.379 19.634C180.442 19.7135 180.483 19.8055 180.498 19.9022V27.1322L178.823 26.4729Z" fill="#88E9FF"/>
<path opacity="0.02" d="M178.816 16.3745C178.718 16.3341 178.633 16.2713 178.57 16.1923C178.507 16.1132 178.467 16.0207 178.455 15.9237V14.4247L180.137 15.0671C180.233 15.1104 180.316 15.174 180.379 15.2525C180.442 15.331 180.483 15.422 180.498 15.5179V17.0282L178.816 16.3745Z" fill="#88E9FF"/>
<path opacity="0.05" d="M185.178 25.4698C185.078 25.4234 184.992 25.3563 184.927 25.274C184.862 25.1917 184.82 25.0965 184.804 24.9964V17.6988L186.492 18.3412C186.588 18.3868 186.672 18.4524 186.734 18.5328C186.797 18.6131 186.838 18.7059 186.853 18.8033V26.1291L185.178 25.4698Z" fill="#88E9FF"/>
<path opacity="0.02" d="M172.468 16.0026C172.372 15.9601 172.289 15.8976 172.225 15.8202C172.161 15.7427 172.118 15.6527 172.101 15.5574V12.0072L173.789 12.6496C173.885 12.6917 173.968 12.7542 174.03 12.8317C174.093 12.9093 174.135 12.9996 174.15 13.0948V16.6619L172.468 16.0026Z" fill="#88E9FF"/>
<path opacity="0.05" d="M172.474 22.4324C172.377 22.3881 172.292 22.3237 172.227 22.2444C172.163 22.1651 172.119 22.0732 172.101 21.976V18.4314L173.783 19.0964C173.879 19.1414 173.962 19.2061 174.026 19.2853C174.09 19.3646 174.132 19.4561 174.15 19.5528V23.0918L172.474 22.4324Z" fill="#88E9FF"/>
<path opacity="0.08" d="M172.481 32.3617C172.38 32.3144 172.294 32.2464 172.228 32.1632C172.162 32.08 172.118 31.9839 172.101 31.8827V24.7823L173.776 25.4698C173.875 25.5147 173.96 25.58 174.025 25.6603C174.09 25.7406 174.133 25.8337 174.15 25.9319V33.0661L172.481 32.3617Z" fill="#88E9FF"/>
<path opacity="0.15" d="M172.487 40.9555C172.386 40.905 172.299 40.8347 172.232 40.7499C172.166 40.6651 172.121 40.5678 172.101 40.4652V34.6891L173.77 35.4048C173.869 35.4535 173.955 35.5219 174.021 35.6048C174.087 35.6878 174.131 35.7831 174.15 35.8837V41.6881L172.487 40.9555Z" fill="#88E9FF"/>
<path opacity="0.3" d="M191.576 50.1804C191.594 50.0749 191.638 49.9745 191.705 49.8866C191.772 49.7987 191.86 49.7258 191.962 49.6732L193.62 48.935V56.1876C193.601 56.2964 193.555 56.4001 193.486 56.4908C193.417 56.5815 193.327 56.657 193.221 56.7117L191.576 57.4668V50.1804Z" fill="#88E9FF"/>
<path opacity="0.6" d="M191.576 60.414C191.593 60.3049 191.638 60.2008 191.706 60.1092C191.774 60.0176 191.863 59.9408 191.968 59.8843L193.619 59.1179V60.5831C193.599 60.6923 193.553 60.7963 193.484 60.8878C193.415 60.9793 193.325 61.056 193.22 61.1128L191.569 61.8905L191.576 60.414Z" fill="#88E9FF"/>
<path opacity="0.6" d="M191.576 64.8377C191.591 64.7227 191.635 64.6124 191.704 64.5148C191.773 64.4173 191.865 64.335 191.974 64.2742L193.619 63.4965V67.0862C193.604 67.2019 193.559 67.3129 193.489 67.4106C193.419 67.5083 193.325 67.5901 193.214 67.6497L191.569 68.4443L191.576 64.8377Z" fill="#88E9FF"/>
<path opacity="0.3" d="M197.911 47.3515C197.93 47.2463 197.974 47.1462 198.041 47.0584C198.108 46.9707 198.195 46.8975 198.297 46.8443L199.955 46.1061V47.56C199.935 47.665 199.89 47.7648 199.824 47.8524C199.757 47.9401 199.67 48.0134 199.568 48.0672L197.911 48.811V47.3515Z" fill="#88E9FF"/>
<path opacity="0.55" d="M197.911 51.7921C197.93 51.6856 197.976 51.5844 198.043 51.4957C198.111 51.407 198.2 51.3331 198.304 51.2793L199.955 50.5298V54.0856C199.936 54.1931 199.891 54.2955 199.823 54.3852C199.756 54.4749 199.666 54.5497 199.562 54.6041L197.911 55.3649V51.7921Z" fill="#88E9FF"/>
<path opacity="0.6" d="M197.911 58.2501C197.93 58.142 197.975 58.039 198.043 57.9484C198.111 57.8578 198.2 57.7819 198.304 57.726L199.955 56.954V60.4986C199.935 60.6079 199.889 60.712 199.82 60.8036C199.751 60.8951 199.661 60.9718 199.556 61.0283L197.911 61.8116V58.2501Z" fill="#88E9FF"/>
<path opacity="0.65" d="M197.911 64.7363C197.926 64.6211 197.969 64.5104 198.038 64.4127C198.107 64.3151 198.2 64.233 198.31 64.1728L199.955 63.3838V70.5406C199.938 70.6558 199.892 70.7662 199.822 70.8636C199.752 70.9611 199.659 71.0433 199.55 71.1041L197.911 71.8987V64.7363Z" fill="#88E9FF"/>
<path opacity="0.7" d="M197.911 74.8572C197.929 74.7415 197.975 74.6308 198.046 74.5333C198.117 74.4358 198.212 74.3539 198.322 74.2937L199.955 73.4766V74.8854C199.936 75.0009 199.889 75.1112 199.818 75.2086C199.747 75.306 199.653 75.388 199.543 75.4489L197.911 76.2773V74.8572Z" fill="#88E9FF"/>
<path opacity="0.8" d="M197.911 79.3203C197.931 79.2051 197.977 79.095 198.048 78.9977C198.119 78.9004 198.213 78.8182 198.322 78.7568L199.955 77.9284V81.4392C199.934 81.5539 199.886 81.6635 199.815 81.7605C199.744 81.8576 199.652 81.9401 199.543 82.0027L197.911 82.8254V79.3203Z" fill="#88E9FF"/>
<path opacity="0.7" d="M191.576 71.3746C191.591 71.259 191.636 71.1482 191.706 71.0505C191.776 70.9529 191.87 70.871 191.981 70.8111L193.619 70.0109V77.2409C193.6 77.3561 193.553 77.4662 193.482 77.5635C193.411 77.6608 193.317 77.743 193.208 77.8044L191.569 78.6272L191.576 71.3746Z" fill="#88E9FF"/>
<path opacity="0.8" d="M191.576 81.5632C191.596 81.4479 191.642 81.3379 191.713 81.2406C191.784 81.1433 191.878 81.0611 191.987 80.9996L193.626 80.1712V84.7245C193.604 84.8398 193.556 84.9496 193.484 85.0467C193.412 85.1438 193.318 85.2261 193.208 85.2881L191.576 86.1334V81.5632Z" fill="#88E9FF"/>
<path opacity="0.8" d="M204.284 75.8772C204.304 75.7619 204.35 75.6519 204.421 75.5546C204.492 75.4573 204.586 75.3751 204.695 75.3136L206.328 74.4853V78.1425C206.306 78.2579 206.258 78.3679 206.186 78.465C206.114 78.5622 206.02 78.6444 205.91 78.7061L204.284 79.5514V75.8772Z" fill="#88E9FF"/>
<path opacity="0.7" d="M204.278 69.5826C204.296 69.4667 204.342 69.3559 204.413 69.2584C204.484 69.1608 204.579 69.079 204.689 69.0191L206.328 68.2076V71.6733C206.308 71.7883 206.261 71.898 206.19 71.9952C206.119 72.0924 206.026 72.1748 205.917 72.2368L204.278 73.0595V69.5826Z" fill="#88E9FF"/>
<path opacity="0.65" d="M204.278 63.1021C204.298 62.9922 204.345 62.8878 204.415 62.7962C204.485 62.7046 204.577 62.6282 204.683 62.5723L206.328 61.7778V65.2547C206.306 65.3646 206.258 65.469 206.188 65.5612C206.118 65.6534 206.028 65.7314 205.923 65.7901L204.278 66.5959V63.1021Z" fill="#88E9FF"/>
<path opacity="0.6" d="M204.278 53.1502C204.3 53.0436 204.346 52.9425 204.415 52.8539C204.484 52.7654 204.573 52.6914 204.677 52.6374L206.328 51.8766V58.9151C206.308 59.0241 206.261 59.1278 206.191 59.2185C206.121 59.3091 206.029 59.3845 205.923 59.4391L204.278 60.2281V53.1502Z" fill="#88E9FF"/>
<path opacity="0.3" d="M204.278 44.5057C204.297 44.4021 204.342 44.3037 204.409 44.2179C204.476 44.132 204.563 44.0609 204.665 44.0098L206.328 43.2716V49.0308C206.309 49.1366 206.263 49.237 206.195 49.3248C206.128 49.4126 206.039 49.4854 205.935 49.538L204.278 50.2931V44.5057Z" fill="#88E9FF"/>
<path opacity="0.15" d="M204.284 34.582C204.301 34.4815 204.344 34.386 204.409 34.3029C204.474 34.2198 204.559 34.1514 204.658 34.103L206.328 33.393V40.4652C206.308 40.568 206.263 40.6654 206.196 40.7503C206.129 40.8352 206.042 40.9053 205.941 40.9555L204.284 41.6881V34.582Z" fill="#88E9FF"/>
<path opacity="0.15" d="M204.284 30.2711C204.301 30.1711 204.343 30.0762 204.408 29.9939C204.473 29.9117 204.559 29.8444 204.658 29.7977L206.328 29.1046V30.5472C206.309 30.6474 206.265 30.7423 206.199 30.8245C206.133 30.9066 206.047 30.9738 205.948 31.0205L204.284 31.725V30.2711Z" fill="#88E9FF"/>
<path opacity="0.08" d="M204.284 23.8694C204.301 23.7716 204.343 23.6787 204.406 23.5983C204.47 23.518 204.554 23.4525 204.652 23.4073L206.328 22.7311V26.2644C206.309 26.3632 206.266 26.4568 206.201 26.538C206.137 26.6191 206.052 26.6856 205.954 26.7321L204.284 27.4196V23.8694Z" fill="#88E9FF"/>
<path opacity="0.3" d="M197.911 43.0236C197.929 42.9203 197.972 42.8219 198.038 42.736C198.104 42.65 198.19 42.5788 198.291 42.5277L199.955 41.8008V43.2603C199.936 43.3649 199.892 43.4644 199.825 43.5513C199.758 43.6382 199.67 43.7102 199.568 43.7618L197.911 44.5057V43.0236Z" fill="#88E9FF"/>
<path opacity="0.15" d="M197.911 36.4642C197.929 36.3623 197.972 36.2654 198.036 36.1805C198.101 36.0957 198.186 36.0251 198.285 35.9739L199.955 35.2695V38.8704C199.937 38.9738 199.894 39.0722 199.828 39.1581C199.762 39.2441 199.675 39.3153 199.575 39.3664L197.911 40.0539V36.4642Z" fill="#88E9FF"/>
<path opacity="0.08" d="M197.911 30.0062C197.926 29.9058 197.968 29.8103 198.033 29.7278C198.099 29.6454 198.185 29.5784 198.285 29.5328L199.955 28.8453V32.4294C199.937 32.5299 199.895 32.6254 199.83 32.7085C199.765 32.7916 199.68 32.86 199.581 32.9084L197.911 33.6128V30.0062Z" fill="#88E9FF"/>
<path opacity="0.05" d="M197.911 19.9022C197.926 19.8055 197.967 19.7135 198.03 19.634C198.093 19.5546 198.176 19.49 198.272 19.4457L199.955 18.7864V25.9826C199.939 26.0816 199.898 26.1758 199.834 26.2573C199.77 26.3387 199.685 26.405 199.587 26.4504L197.911 27.1322V19.9022Z" fill="#88E9FF"/>
<path opacity="0.02" d="M197.911 15.5179C197.923 15.4209 197.963 15.3283 198.026 15.2493C198.089 15.1703 198.174 15.1075 198.272 15.0671L199.955 14.4247V15.9237C199.939 16.0195 199.898 16.1106 199.835 16.1891C199.772 16.2675 199.689 16.3311 199.593 16.3745L197.911 17.0282V15.5179Z" fill="#88E9FF"/>
<path opacity="0.03" d="M204.284 13.9232C204.297 13.8271 204.337 13.7358 204.4 13.6578C204.464 13.5798 204.548 13.5179 204.646 13.478L206.328 12.8299V19.9303C206.311 20.0275 206.269 20.1196 206.205 20.199C206.141 20.2785 206.057 20.3429 205.96 20.3868L204.284 21.0574V13.9232Z" fill="#88E9FF"/>
<path opacity="0.03" d="M191.576 17.9524C191.591 17.8555 191.632 17.7633 191.695 17.6838C191.757 17.6043 191.841 17.5398 191.938 17.4959L193.626 16.8535V20.5108C193.609 20.6086 193.567 20.7015 193.504 20.7819C193.44 20.8622 193.356 20.9277 193.258 20.9729L191.582 21.6322L191.576 17.9524Z" fill="#88E9FF"/>
<path opacity="0.05" d="M191.576 24.5795C191.591 24.4798 191.633 24.3848 191.696 24.3025C191.76 24.2201 191.845 24.1528 191.944 24.1061L193.626 23.4468V27.0928C193.61 27.1929 193.567 27.288 193.502 27.3703C193.437 27.4527 193.351 27.5198 193.252 27.5662L191.582 28.248L191.576 24.5795Z" fill="#88E9FF"/>
<path opacity="0.08" d="M191.576 31.1389C191.592 31.0381 191.635 30.9422 191.7 30.859C191.765 30.7757 191.85 30.7075 191.95 30.6599L193.626 29.978V37.2588C193.61 37.3618 193.567 37.46 193.501 37.5452C193.435 37.6304 193.347 37.7003 193.246 37.749L191.582 38.4591L191.576 31.1389Z" fill="#88E9FF"/>
<path opacity="0.15" d="M191.576 41.3274C191.594 41.2241 191.637 41.1257 191.703 41.0398C191.769 40.9538 191.855 40.8826 191.956 40.8315L193.626 40.1215V46.061C193.606 46.166 193.562 46.2658 193.495 46.3535C193.428 46.4411 193.341 46.5144 193.24 46.5682L191.576 47.3008V41.3274Z" fill="#88E9FF"/>
</g>
<defs>
<linearGradient id="paint0_linear" x1="131.731" y1="158.721" x2="249.035" y2="158.721" gradientUnits="userSpaceOnUse">
<stop offset="0.03" stop-color="#005FE7"/>
<stop offset="0.04" stop-color="#0062E4"/>
<stop offset="0.13" stop-color="#0074CD"/>
<stop offset="0.22" stop-color="#0081BD"/>
<stop offset="0.33" stop-color="#0089B4"/>
<stop offset="0.48" stop-color="#008BB1"/>
<stop offset="0.75" stop-color="#1B94A8"/>
<stop offset="1" stop-color="#399D9E"/>
</linearGradient>
<linearGradient id="paint1_linear" x1="131.731" y1="171.203" x2="249.034" y2="171.203" gradientUnits="userSpaceOnUse">
<stop stop-color="#3095CB"/>
<stop offset="0.23" stop-color="#379FC4"/>
<stop offset="0.51" stop-color="#38A0C2"/>
<stop offset="0.78" stop-color="#4FB0A8"/>
<stop offset="1" stop-color="#09D6A5"/>
</linearGradient>
<linearGradient id="paint2_linear" x1="144.199" y1="146.129" x2="233.745" y2="170.215" gradientUnits="userSpaceOnUse">
<stop offset="0.03" stop-color="#0087D4"/>
<stop offset="0.04" stop-color="#008AD4"/>
<stop offset="0.16" stop-color="#009AD4"/>
<stop offset="0.3" stop-color="#00A3D4"/>
<stop offset="0.48" stop-color="#00A6D4"/>
<stop offset="0.75" stop-color="#1BA2BA"/>
<stop offset="1" stop-color="#399D9E"/>
</linearGradient>
<linearGradient id="paint3_linear" x1="156.735" y1="146.113" x2="223.395" y2="164.052" gradientUnits="userSpaceOnUse">
<stop stop-color="#630692"/>
<stop offset="0.23" stop-color="#5B0E94"/>
<stop offset="0.59" stop-color="#432399"/>
<stop offset="1" stop-color="#2142A1"/>
</linearGradient>
<linearGradient id="paint4_linear" x1="131.731" y1="132.34" x2="249.041" y2="132.34" gradientUnits="userSpaceOnUse">
<stop offset="0.03" stop-color="#005FE7"/>
<stop offset="0.04" stop-color="#0062E4"/>
<stop offset="0.13" stop-color="#0074CD"/>
<stop offset="0.22" stop-color="#0081BD"/>
<stop offset="0.33" stop-color="#0089B4"/>
<stop offset="0.48" stop-color="#008BB1"/>
<stop offset="0.75" stop-color="#1B94A8"/>
<stop offset="1" stop-color="#399D9E"/>
</linearGradient>
<linearGradient id="paint5_linear" x1="184404" y1="8865.22" x2="202528" y2="8865.22" gradientUnits="userSpaceOnUse">
<stop stop-color="#3095CB"/>
<stop offset="0.23" stop-color="#379FC4"/>
<stop offset="0.51" stop-color="#38A0C2"/>
<stop offset="0.78" stop-color="#4FB0A8"/>
<stop offset="1" stop-color="#09D6A5"/>
</linearGradient>
<linearGradient id="paint6_linear" x1="156038" y1="98.5628" x2="160030" y2="-6517.64" gradientUnits="userSpaceOnUse">
<stop offset="0.03" stop-color="#0087D4"/>
<stop offset="0.04" stop-color="#008AD4"/>
<stop offset="0.16" stop-color="#009AD4"/>
<stop offset="0.3" stop-color="#00A3D4"/>
<stop offset="0.48" stop-color="#00A6D4"/>
<stop offset="0.75" stop-color="#1BA2BA"/>
<stop offset="1" stop-color="#399D9E"/>
</linearGradient>
<linearGradient id="paint7_linear" x1="117088" y1="-271.686" x2="119301" y2="-3940.25" gradientUnits="userSpaceOnUse">
<stop stop-color="#630692"/>
<stop offset="0.23" stop-color="#5B0E94"/>
<stop offset="0.59" stop-color="#432399"/>
<stop offset="1" stop-color="#2142A1"/>
</linearGradient>
<linearGradient id="paint8_linear" x1="132.107" y1="85.6149" x2="249.402" y2="85.6149" gradientUnits="userSpaceOnUse">
<stop offset="0.03" stop-color="#005FE7"/>
<stop offset="0.04" stop-color="#0062E4"/>
<stop offset="0.13" stop-color="#0074CD"/>
<stop offset="0.22" stop-color="#0081BD"/>
<stop offset="0.33" stop-color="#0089B4"/>
<stop offset="0.48" stop-color="#008BB1"/>
<stop offset="0.75" stop-color="#1B94A8"/>
<stop offset="1" stop-color="#399D9E"/>
</linearGradient>
<linearGradient id="paint9_linear" x1="132.098" y1="98.0801" x2="249.395" y2="98.0801" gradientUnits="userSpaceOnUse">
<stop stop-color="#03C3F8"/>
<stop offset="0.23" stop-color="#379FC4"/>
<stop offset="0.51" stop-color="#38A0C2"/>
<stop offset="0.78" stop-color="#4FB0A8"/>
<stop offset="1" stop-color="#09D6A5"/>
</linearGradient>
<linearGradient id="paint10_linear" x1="148138" y1="-3574.67" x2="152129" y2="-10192.8" gradientUnits="userSpaceOnUse">
<stop offset="0.03" stop-color="#0087D4"/>
<stop offset="0.04" stop-color="#008AD4"/>
<stop offset="0.16" stop-color="#009AD4"/>
<stop offset="0.3" stop-color="#00A3D4"/>
<stop offset="0.48" stop-color="#00A6D4"/>
<stop offset="0.75" stop-color="#1BA2BA"/>
<stop offset="1" stop-color="#399D9E"/>
</linearGradient>
<linearGradient id="paint11_linear" x1="111154" y1="-3017.62" x2="113366" y2="-6685.45" gradientUnits="userSpaceOnUse">
<stop stop-color="#630692"/>
<stop offset="0.23" stop-color="#5B0E94"/>
<stop offset="0.59" stop-color="#432399"/>
<stop offset="1" stop-color="#2142A1"/>
</linearGradient>
<linearGradient id="paint12_linear" x1="189.338" y1="86.5335" x2="189.338" y2="-27.0733" gradientUnits="userSpaceOnUse">
<stop stop-color="#25BFEC"/>
<stop offset="0.71" stop-color="#25BFEC" stop-opacity="0"/>
</linearGradient>
<linearGradient id="paint13_linear" x1="189.338" y1="85.2937" x2="189.338" y2="-17.5216" gradientUnits="userSpaceOnUse">
<stop stop-color="#70E8FC"/>
<stop offset="0.75" stop-color="#70E8FC" stop-opacity="0"/>
</linearGradient>
</defs>
</svg>
