<?xml version="1.0" encoding="utf-8"?>
<!-- Generator: Adobe Illustrator 24.1.2, SVG Export Plug-In . SVG Version: 6.00 Build 0)  -->
<svg version="1.1" id="Layer_1" xmlns="http://www.w3.org/2000/svg" xmlns:xlink="http://www.w3.org/1999/xlink" x="0px" y="0px"
	 viewBox="0 0 640 640" style="enable-background:new 0 0 640 640;" xml:space="preserve">
<style type="text/css">
	.st0{fill:#03C3F8;}
	.st1{fill:#08B5A1;}
</style>
<g id="icomoon-ignore">
</g>
<path class="st0" d="M294.8,160h-41.1c-0.1,0.1-0.1,0.2-0.2,0.3c-27.6,1.8-55.8,12.8-84,32.6c-23.8,16.8-47.8,40-71.2,69
	c-39.4,48.8-63.6,96.9-64.6,98.9c-3.5,7-1.4,15.5,4.9,20.1c2.8,2,6.1,3,9.4,3c4.1,0,8.2-1.6,11.3-4.6c0.2-0.1,15.4-15.2,41.5-30
	c21.5-12.2,54.7-26.5,94.8-29c0.2,0.4,0.3,0.8,0.5,1.2l27.9-17.5c0-0.1,0-0.1,0-0.1C224,294.2,237.1,226.1,294.8,160z"/>
<path class="st0" d="M432,288c-44.1,0-80-35.9-80-80s35.9-80,80-80s80,35.9,80,80S476.1,288,432,288z M432,160
	c-26.5,0-48,21.5-48,48s21.5,48,48,48s48-21.5,48-48S458.5,160,432,160z"/>
<path class="st1" d="M16,640c-4.2,0-8.3-1.6-11.3-4.7c-4.4-4.4-5.8-10.9-3.7-16.8c49.2-135.4,101-204.1,153.9-204.1
	c17.4,0,33.7,7.5,48.5,22.2c23.3,23.3,24.1,46.5,20.7,61.9c-10.7,48.2-78.9,95.5-202.6,140.5C19.7,639.7,17.8,640,16,640L16,640z
	 M154.8,446.5c-15.8,0-34.5,13.9-53.9,40.1c-19.1,25.8-38.3,62.6-57.2,109.7c42.7-17.2,77.1-34.6,102.4-52
	c34.2-23.5,44.3-41.6,46.7-52.7c2.5-11.1-1.5-21.7-12.1-32.3C172,450.7,163.6,446.5,154.8,446.5z"/>
<path class="st0" d="M336,416.2c0,0,0,0-0.1,0l-17.5,27.9c0.4,0.2,0.8,0.3,1.2,0.5c-2.5,40.1-16.8,73.3-29,94.8
	c-14.8,26.1-29.8,41.4-30,41.5c-3.1,3.1-4.6,7.2-4.6,11.3c0,3.3,1,6.6,3,9.4c4.6,6.3,13.1,8.4,20.1,4.9c2-1,50.1-25.2,98.9-64.6
	c29-23.4,52.3-47.4,69-71.2c19.8-28.2,30.8-56.4,32.6-84c0.1-0.1,0.2-0.1,0.3-0.2v-41.1C413.9,403.1,345.8,416.2,336,416.2z"/>
<path class="st1" d="M479.7,386.6c7.7-5.7,15.3-11.9,22.9-18.6c40.5-35.7,72.7-80.2,95.6-132C625.9,173,640,99,640,16V0h-16l0,0
	c-83,0-157,14.1-220,41.9c-51.9,22.9-96.3,55-132,95.6c-6.7,7.6-12.8,15.2-18.6,22.9c0,0-71.5,105.5-57.9,160.1
	c10.1,26,39.2,57,53.1,70.9c13.9,13.9,45,43,70.9,53.1C319.6,444.4,371.1,466.6,479.7,386.6z M481.4,344
	c-66.5,58.7-135.5,72-145.4,72c-0.1,0-6.6-0.1-24.3-12.6c-12.3-8.7-26.7-21-40.4-34.7c-13.7-13.7-26.1-28.1-34.7-40.4
	C224.1,310.6,224,304.1,224,304c0-9.9,13.3-78.9,72-145.4C366.3,79,473.8,35.4,607.8,32.2C604.6,166.2,561,273.7,481.4,344z"/>
</svg>
