<svg xmlns="http://www.w3.org/2000/svg" width="8.89in" height="8.89in" viewBox="0 0 640 640"><defs><style>.cls-1{isolation:isolate;}.cls-2{fill:#03c3f8;}.cls-3,.cls-4{fill:#08b5a1;}.cls-4{mix-blend-mode:multiply;}</style></defs><g class="cls-1"><g id="Layer_1" data-name="Layer 1"><path class="cls-2" d="M294.77,160H253.66l-.21.28c-27.59,1.84-55.8,12.79-84,32.64-23.83,16.78-47.79,40-71.2,69a608.68,608.68,0,0,0-64.58,98.9,16,16,0,0,0,25.6,18.49c.15-.15,15.44-15.19,41.54-30,21.51-12.17,54.66-26.46,94.76-29,.15.39.32.78.48,1.17L224,304.1a.67.67,0,0,1,0-.1C224,294.15,237.1,226.11,294.77,160Z" transform="translate(0 0)"/><path class="cls-2" d="M432,288a80,80,0,1,1,80-80A80.09,80.09,0,0,1,432,288Zm0-128a48,48,0,1,0,48,48A48.05,48.05,0,0,0,432,160Z" transform="translate(0 0)"/><path class="cls-3" d="M16,640A16,16,0,0,1,1,618.53C50.2,483.13,102,414.47,154.83,414.47c17.43,0,33.74,7.48,48.48,22.22,23.31,23.3,24.14,46.49,20.73,61.85-10.7,48.24-78.86,95.51-202.57,140.5A16,16,0,0,1,16,640ZM154.84,446.47c-15.85,0-34.5,13.89-53.93,40.15-19.11,25.83-38.3,62.63-57.2,109.67,42.72-17.17,77.06-34.61,102.38-52,34.15-23.46,44.25-41.6,46.71-52.68s-1.5-21.68-12.11-32.3C172,450.67,163.59,446.47,154.84,446.47Z" transform="translate(0 0)"/><path class="cls-2" d="M336,416.15h-.1l-17.46,27.94,1.17.47c-2.53,40.1-16.82,73.26-29,94.76-14.77,26.1-29.81,41.39-30,41.55a16,16,0,0,0,18.49,25.6,610.27,610.27,0,0,0,98.9-64.58c29-23.42,52.25-47.37,69-71.2,19.85-28.18,30.8-56.39,32.64-84l.28-.21V345.39C413.89,403.06,345.85,416.15,336,416.15Z" transform="translate(0 0)"/><path class="cls-4" d="M479.72,386.56c7.66-5.72,15.31-11.89,22.87-18.56,40.5-35.74,72.65-80.16,95.55-132C625.92,173,640,99,640,16V0H624C541,0,467,14.08,404,41.86c-51.88,22.9-96.3,55.05-132,95.55q-10,11.35-18.55,22.87S182,265.79,195.59,320.39c10.14,26,39.16,57,53.1,70.92s44.95,43,70.92,53.1C319.61,444.41,371.09,466.64,479.72,386.56ZM481.41,344C414.86,402.72,345.92,416,336,416c-.06,0-6.61-.14-24.29-12.58-12.33-8.68-26.68-21-40.4-34.73s-26.05-28.07-34.73-40.4C224.14,310.61,224,304.06,224,304c0-9.92,13.28-78.86,72-145.41C366.26,79,473.83,35.42,607.81,32.19,604.58,166.17,561,273.74,481.41,344Z" transform="translate(0 0)"/></g></g></svg>