<svg id="Layer_1" data-name="Layer 1" xmlns="http://www.w3.org/2000/svg" xmlns:xlink="http://www.w3.org/1999/xlink" width="13.61in" height="12.98in" viewBox="0 0 979.64 934.74"><defs><style>.cls-1{fill:url(#linear-gradient);}</style><linearGradient id="linear-gradient" x1="351.91" y1="328.7" x2="662.16" y2="740.83" gradientUnits="userSpaceOnUse"><stop offset="0" stop-color="#03c3f8"/><stop offset="1" stop-color="#08b5a1"/></linearGradient></defs><path class="cls-1" d="M795.14,958.46a31.31,31.31,0,0,1-14.64-3.61L512,813.67,243.6,954.81a31.22,31.22,0,0,1-14.69,3.65,31.71,31.71,0,0,1-31.27-37l51.25-298.87L31.74,411.12a31.68,31.68,0,0,1-.57-44.74,31.3,31.3,0,0,1,18-9.19l300.28-43.93L483.66,41.35a31.63,31.63,0,0,1,56.69-.07l134.28,272,300.13,43.87A31.64,31.64,0,0,1,1001.5,393a31.05,31.05,0,0,1-9.21,18.07L775.11,622.63l51.24,298.83A31.71,31.71,0,0,1,800.5,958,33,33,0,0,1,795.14,958.46ZM512,746.27a31.34,31.34,0,0,1,14.68,3.64L753.08,869l-43.2-252a31.39,31.39,0,0,1,9.12-28L902.16,410.52,649,373.52a31.49,31.49,0,0,1-23.8-17.32L512,126.85,398.81,356.21A31.8,31.8,0,0,1,375,373.48l-253.22,37L305,588.94a31.67,31.67,0,0,1,9.12,28L270.87,869,497.25,749.9A32.27,32.27,0,0,1,512,746.27Z" transform="translate(-22.2 -23.72)"/></svg>