<svg id="Layer_1" data-name="Layer 1" xmlns="http://www.w3.org/2000/svg" xmlns:xlink="http://www.w3.org/1999/xlink" width="14.22in" height="14.22in" viewBox="0 0 1024 1024"><defs><style>.cls-1{fill:url(#linear-gradient);}.cls-2{fill:url(#linear-gradient-2);}</style><linearGradient id="linear-gradient" x1="958.53" y1="512" x2="18.02" y2="512" gradientUnits="userSpaceOnUse"><stop offset="0" stop-color="#03c3f8"/><stop offset="0.33" stop-color="#04bfde"/><stop offset="1" stop-color="#08b5a1"/></linearGradient><linearGradient id="linear-gradient-2" x1="256" y1="512" x2="768" y2="512" gradientUnits="userSpaceOnUse"><stop offset="0" stop-color="#03c3f8"/><stop offset="1" stop-color="#08b5a1"/></linearGradient></defs><path class="cls-1" d="M469.33,42.67V128a42.67,42.67,0,1,0,85.34,0V42.67a42.67,42.67,0,1,0-85.34,0Zm0,853.33v85.33a42.67,42.67,0,1,0,85.34,0V896a42.67,42.67,0,1,0-85.34,0ZM149.89,210.22l60.59,60.59a42.66,42.66,0,0,0,60.33-60.33l-60.59-60.59a42.66,42.66,0,0,0-60.33,60.33ZM753.2,813.53l60.58,60.58a42.66,42.66,0,0,0,60.33-60.33l-60.58-60.59a42.66,42.66,0,0,0-60.33,60.34ZM42.67,554.67H128a42.67,42.67,0,0,0,0-85.34H42.67a42.67,42.67,0,0,0,0,85.34Zm853.33,0h85.33a42.67,42.67,0,0,0,0-85.34H896a42.67,42.67,0,1,0,0,85.34ZM210.22,874.11l60.59-60.58a42.66,42.66,0,0,0-60.33-60.34l-60.59,60.59a42.66,42.66,0,0,0,60.33,60.33Zm603.31-603.3,60.58-60.59a42.66,42.66,0,0,0-60.33-60.33l-60.59,60.58a42.67,42.67,0,0,0,60.34,60.34Z"/><path class="cls-2" d="M768,512a255,255,0,1,0-19.37,97.88A254.94,254.94,0,0,0,768,512Zm-98.26,65.24A171.05,171.05,0,1,1,682.67,512,171.11,171.11,0,0,1,669.74,577.24Z"/></svg>