<svg width="50" height="50" viewBox="0 0 50 50" fill="none" xmlns="http://www.w3.org/2000/svg">
<path d="M2 1.5H32.6154C32.8915 1.5 33.1154 1.72386 33.1154 2V20.4806C33.1154 20.7568 32.8915 20.9806 32.6154 20.9806H9.63813C8.552 20.9806 7.52742 21.4849 6.86484 22.3455L2.39618 28.1497C2.105 28.5279 1.5 28.322 1.5 27.8447V22.4806V2C1.5 1.72386 1.72386 1.5 2 1.5Z" stroke="#04BC88" stroke-width="3"/>
<g style="mix-blend-mode:multiply">
<path d="M42.1837 37.1062L40.9847 38.0075L42.1837 37.1062L47.6003 44.3116C47.8889 44.6955 48.5 44.4914 48.5 44.0112V37.2093V13.6279C48.5 13.3518 48.2761 13.1279 48 13.1279H13.5385C13.2623 13.1279 13.0385 13.3518 13.0385 13.6279V35.2093C13.0385 35.4855 13.2623 35.7093 13.5385 35.7093H39.386C40.4863 35.7093 41.5225 36.2267 42.1837 37.1062Z" stroke="#03C3F8" stroke-width="3"/>
</g>
</svg>
