<svg id="Layer_1" data-name="Layer 1" xmlns="http://www.w3.org/2000/svg" xmlns:xlink="http://www.w3.org/1999/xlink" width="14.22in" height="14.22in" viewBox="0 0 1024 1024"><defs><style>.cls-1{fill:url(#linear-gradient);}</style><linearGradient id="linear-gradient" x1="-0.01" y1="512" x2="1024" y2="512" gradientUnits="userSpaceOnUse"><stop offset="0" stop-color="#03c3f8"/><stop offset="1" stop-color="#08b5a1"/></linearGradient></defs><path class="cls-1" d="M725.33,298.67h153L576,601,392.83,417.84a42.6,42.6,0,0,0-60.33,0l-320,320a42.66,42.66,0,0,0,60.33,60.33L362.67,508.33,545.83,691.5a42.64,42.64,0,0,0,60.34,0L938.67,359V512a42.67,42.67,0,1,0,85.33,0V256a42.56,42.56,0,0,0-42.28-42.67H725.33a42.67,42.67,0,0,0,0,85.34Z"/></svg>