<svg width="60" height="43" viewBox="0 0 60 43" fill="none" xmlns="http://www.w3.org/2000/svg">
<path fill-rule="evenodd" clip-rule="evenodd" d="M31.0154 5.66348L24.9471 12.7211C23.8728 13.999 23.8728 15.7997 24.9181 17.0776C26.5731 19.0525 29.6217 19.0816 31.3348 17.1647L36.9386 10.8332C38.2742 9.35201 40.7132 10.7461 40.1034 12.6339C40.5924 13.2003 41.0986 13.761 41.6041 14.3211C42.2392 15.0246 42.8733 15.7271 43.4715 16.4386C44.3852 17.5719 45.2758 18.7397 46.1652 19.9058C46.689 20.5925 47.2123 21.2787 47.7397 21.9569C48.6397 23.1186 49.3075 24.5127 49.4818 26.023C49.714 26.5976 49.9347 28.1456 48.9591 29.7405C47.9139 32.2673 45.6201 33.9519 42.9489 34.3294C41.7003 36.1592 39.784 37.5532 37.6354 38.0179C36.0385 40.051 33.4544 41.2708 30.8703 41.0965C26.0795 43.7976 20.6789 41.4451 17.1076 37.9308L8.77454 29.7405H1.85825C0.842018 29.7405 0 28.8983 0 27.8818V8.36453C0 7.348 0.842018 6.50574 1.85825 6.50574H10.6037C11.0228 6.08653 11.4258 5.67091 11.8198 5.26448C14.5921 2.40465 16.9233 0 21.3467 0H24.7438C26.6311 0 28.4603 0.58087 29.9992 1.62644C30.9543 2.92758 31.0747 4.85995 31.0154 5.66348ZM43.8932 23.0664C41.9306 20.4905 39.9654 17.9113 37.7219 15.5675L34.0925 19.6335C30.8987 23.264 25.1788 23.1768 22.072 19.4593C19.8653 16.7873 19.8653 12.9535 22.1301 10.3106L27.2693 4.32762C25.8318 3.58545 24.1535 3.63967 22.5451 3.69163C22.1393 3.70474 21.738 3.7177 21.3461 3.7177C19.6331 3.7177 17.9781 4.41475 16.7586 5.63457L12.171 10.2234H7.6706V26.0231C7.83933 26.0231 8.00603 26.0201 8.17064 26.0171C9.25239 25.9973 10.2438 25.9793 11.1258 26.8363L19.7492 35.317C21.5203 37.0306 23.8141 38.5409 26.3402 38.5409C27.6468 38.5409 29.0404 38.1052 29.9696 37.1758C32.1472 37.9309 34.6732 36.7111 35.3411 34.4748C36.7347 34.5909 38.0123 34.1553 39.0285 33.1969C39.6963 32.5869 40.5674 31.3671 40.4803 30.4087C40.7416 30.6701 41.3804 30.6991 41.7288 30.6991C45.184 30.6991 46.9841 27.0687 44.8646 24.3386C44.5402 23.9156 44.217 23.4914 43.8938 23.0672L43.8932 23.0664ZM3.835 26.0231C6.27394 26.0231 6.27394 22.3055 3.835 22.3055C1.39605 22.3055 1.39605 26.0231 3.835 26.0231Z" fill="#03C3F8"/>
<g style="mix-blend-mode:multiply">
<path fill-rule="evenodd" clip-rule="evenodd" d="M43.9533 23.0662C41.9907 20.4904 40.0255 17.9111 37.7821 15.5673L34.1527 19.6334C30.9589 23.2638 25.2389 23.1767 22.1322 19.4591C19.9255 16.7871 19.9255 12.9534 22.1903 10.3104L27.3295 4.32748L30.0588 1.62644C31.5976 0.58087 33.4268 0 35.3141 0H40.163C45.0212 0 47.38 2.79299 50.1543 6.07804C50.5303 6.52327 50.9139 6.97755 51.3125 7.43514H58.1417C59.1579 7.43514 59.9999 8.2774 59.9999 9.29392V27.8818C59.9999 28.8983 59.1579 29.7405 58.1417 29.7405H49.0187L44.9247 24.3385C44.6002 23.9152 44.2768 23.4907 43.9533 23.0662ZM52.3291 26.0229H49.5417C49.3675 24.5127 48.6997 23.1186 47.7996 21.9569C47.2722 21.2787 46.7489 20.5925 46.2251 19.9057C45.3357 18.7396 44.4451 17.5719 43.5314 16.4386C42.9333 15.7271 42.2991 15.0246 41.6641 14.321C41.1585 13.761 40.6524 13.2003 40.1634 12.6339C40.7731 10.7461 38.3341 9.35198 36.9985 10.8332L31.3947 17.1647C29.6817 19.0815 26.633 19.0525 24.978 17.0775C23.9327 15.7996 23.9327 13.9989 25.007 12.721L31.0754 5.66345C32.1206 4.44362 33.6885 3.71754 35.3145 3.71754H40.1634C42.0216 3.71754 43.8508 4.53076 45.0703 5.92484L49.6288 11.1527H52.3291V26.0229ZM56.1647 26.0229C58.6036 26.0229 58.6036 22.3054 56.1647 22.3054C53.7257 22.3054 53.7257 26.0229 56.1647 26.0229Z" fill="#08B5A1"/>
</g>
</svg>
