<svg width="54" height="44" viewBox="0 0 54 44" fill="none" xmlns="http://www.w3.org/2000/svg">
<path d="M43.1667 35.0002H1.16667C0.522375 35.0002 0 34.4779 0 33.8335V10.5002C0 9.85587 0.522375 9.3335 1.16667 9.3335H43.1667C43.811 9.3335 44.3333 9.85587 44.3333 10.5002V33.8335C44.3333 34.4779 43.811 35.0002 43.1667 35.0002ZM2.33333 32.6668H42V11.6668H2.33333V32.6668Z" fill="#04BC88"/>
<path d="M26.833 21H18.6663V18.6667H26.833C27.4774 18.6667 27.9997 18.1444 27.9997 17.5C27.9997 16.8556 27.4774 16.3333 26.833 16.3333H23.333V15.1667C23.333 14.5223 22.8106 14 22.1663 14C21.522 14 20.9997 14.5223 20.9997 15.1667V16.3333H17.4997C16.8554 16.3333 16.333 16.8556 16.333 17.5V22.1667C16.333 22.811 16.8554 23.3333 17.4997 23.3333H25.6663V25.6667H17.4997C16.8554 25.6667 16.333 26.189 16.333 26.8333C16.333 27.4777 16.8554 28 17.4997 28H20.9997V29.1667C20.9997 29.811 21.522 30.3333 22.1663 30.3333C22.8106 30.3333 23.333 29.811 23.333 29.1667V28H26.833C27.4774 28 27.9997 27.4777 27.9997 26.8333V22.1667C27.9997 21.5223 27.4774 21 26.833 21Z" fill="#04BC88"/>
<path d="M40.833 6.99996H3.49967C2.85538 6.99996 2.33301 6.47758 2.33301 5.83329C2.33301 5.189 2.85538 4.66663 3.49967 4.66663H40.833C41.4774 4.66663 41.9997 5.189 41.9997 5.83329C41.9997 6.47758 41.4774 6.99996 40.833 6.99996Z" fill="#04BC88"/>
<path d="M38.5003 2.33333H5.83366C5.18937 2.33333 4.66699 1.81096 4.66699 1.16667C4.66699 0.522375 5.18937 0 5.83366 0H38.5003C39.1447 0 39.667 0.522375 39.667 1.16667C39.667 1.81096 39.1447 2.33333 38.5003 2.33333Z" fill="#04BC88"/>
<g style="mix-blend-mode:multiply">
<path d="M46.2534 36.0126C46.2092 36.0464 46.1663 36.0841 46.1247 36.1257C46.0831 36.1673 46.0467 36.2089 46.0116 36.2544C45.1965 37.0396 44.2371 37.6726 43.1776 38.1121C42.109 38.5541 40.9351 38.7998 39.7001 38.7998C38.4651 38.7998 37.2912 38.5541 36.22 38.1108C35.1072 37.6506 34.1049 36.9746 33.2651 36.1335C32.4253 35.2924 31.7493 34.2914 31.2878 33.1787C30.8458 32.1088 30.6001 30.9349 30.6001 29.6999C30.6001 28.4649 30.8458 27.2911 31.2891 26.2199C31.7493 25.1084 32.4253 24.1048 33.2651 23.265C34.1049 22.4252 35.1085 21.7492 36.22 21.2891C37.2912 20.8458 38.4651 20.6001 39.7001 20.6001C40.9351 20.6001 42.109 20.8458 43.1802 21.2891C44.293 21.7492 45.2953 22.4252 46.1351 23.2663C46.9749 24.1074 47.6509 25.1084 48.1124 26.2212C48.5544 27.2911 48.8001 28.4649 48.8001 29.6999C48.8001 30.9349 48.5544 32.1088 48.1112 33.18C47.6718 34.2394 47.0387 35.1988 46.2534 36.0139V36.0126ZM53.6193 41.7806L48.8417 37.0032C49.5242 36.1504 50.0897 35.2001 50.5135 34.1744C51.0855 32.7938 51.4001 31.282 51.4001 29.6999C51.4001 28.1178 51.0856 26.6059 50.5135 25.2253C49.9207 23.7927 49.051 22.5045 47.9733 21.4268C46.8956 20.3491 45.6073 19.4794 44.1747 18.8866C42.7941 18.3146 41.2822 18 39.7001 18C38.1179 18 36.6061 18.3146 35.2254 18.8866C33.7928 19.4794 32.5045 20.3491 31.4268 21.4268C30.3491 22.5045 29.4794 23.7927 28.8866 25.2253C28.3146 26.6059 28 28.1178 28 29.6999C28 31.282 28.3146 32.7938 28.8866 34.1744C29.4794 35.607 30.3491 36.8952 31.4268 37.9729C32.5045 39.0506 33.7928 39.9203 35.2254 40.5131C36.6061 41.0851 38.1179 41.3997 39.7001 41.3997C41.2822 41.3997 42.7941 41.0851 44.1747 40.5131C45.1991 40.088 46.1507 39.5225 47.0035 38.8413L51.781 43.6188C52.2894 44.1271 53.1123 44.1271 53.6193 43.6188C54.1263 43.1105 54.1276 42.2876 53.6193 41.7806Z" fill="#03C3F8"/>
</g>
</svg>
