<svg height="256.06" viewBox="0 0 357.71 256.06" width="357.71" xmlns="http://www.w3.org/2000/svg"><g fill="#42e8e0"><path d="m311.07 54.17c2.24.58 4.46 1.19 6.63 1.82v16.01c-2.17-.64-4.39-1.25-6.63-1.83z"/><path d="m295.7 54.84q3.62.69 7.12 1.46v11.92q-3.51-.78-7.12-1.47z" opacity=".5"/><path d="m279.37 41.79q3.83.49 7.54 1.08v22.35q-3.72-.59-7.54-1.08z"/><path d="m262.2 27.7c2.66.19 5.3.42 7.91.67v34.71q-3.92-.39-7.91-.67z" opacity=".5"/><path d="m244.3 35.15q4.15.06 8.23.23v26.48q-4.08-.16-8.23-.23z" opacity=".5"/><path d="m226.23 7.43q4.05-.16 8.16-.22v54.42q-4.11.06-8.16.23z"/><path d="m208.75 18.64q3.9-.37 7.87-.66v44.41q-4 .28-7.87.66z"/><path d="m192 4.14c2.47-.39 5-.75 7.51-1.07v61c-2.53.32-5 .68-7.51 1.07v-61z" opacity=".5"/><g opacity=".5"><path d="m137.93 21.28c20.92-6.3 33.38 17.41 21.15 40.27-10.38 19.45-35.67 33.45-42.29 13.03-3.89-12-.67-41.36 19.13-52.44-5.34 2.76-9.25 6.66-13.09 13 7.3 9 7.9 9.71 14.2 17 7.46-17.63 8.07-19.07 13.59-31a18 18 0 0 0 -12.69.13zm-1.47.61-.47.22zm1.07-.46.35-.13zm-.5.21-.5.21zm0 0 .4-.17z" opacity=".5"/><path d="m102.55 43.76q1.83-1.92 3.92-3.78v61q-2.09 1.86-3.92 3.78z"/><path d="m96.27 73.18a46.62 46.62 0 0 1 2.87-4v39.57a46.62 46.62 0 0 0 -2.87 4z"/><path d="m90.66 119.18.06.14.08-4-.14-.21v4.08zm0 11.8v-60.98c0-.39 0-.78 0-1.17a31.81 31.81 0 0 1 1.44-8.23v61a31.81 31.81 0 0 0 -1.44 8.23v1.17z" opacity=".5"/><path d="m90.66 119.18.06.14.08-4.01-.14-.21z"/><path d="m136 22.11h-.07zm1.89-.81h.05zm-1.34.55h-.08.07zm.89-.38h.1z"/><path d="m137 21.64a17.94 17.94 0 0 1 13.59-.49c-7.8 17.2-8.62 19-13.59 31-7.69-8.94-8.87-10.31-14.2-17 1.51-2.51 6.09-10.13 14.2-13.55z"/><path d="m185.45 171.76c-6.28 1.86-10.31-1.95-11.78-3.08-11.52-9.76-21.62-21.66-33.19-31.38-3.41-2.87-5.51-1.68-6.69-1.37-21.56 8.56-21.56 8.56-25 3.34-6.34-11.22-6.56-12.13-9.5-19.14-.67-1.6-3-4-4-3.89-4.84 1.36-4.2 2.35-4.65 2.94v-4.08c5.7-2.2 6.29-2.46 8.61 2.84 10.66 22.61 12.53 22.11 15 21.52 22.7-9.07 22.42-8.41 28.2-2.4 10 10.42 30.18 30.7 36.41 32.31a21.49 21.49 0 0 0 6.76-.48c21.9-7.34 30.59-11.95 52-21.19l1.93 3.12c-7.94 3.46-31.92 12.9-54 19.85zm68.48 24.61v-61q-10.11.57-20.61.49c-79.32-.66-142.66-30.04-142.66-65.86v61c0 35.87 63.35 65.25 142.66 65.88q10.49.09 20.61-.49z" opacity=".5"/><path d="m185.45 171.76c-5.65 1.45-11 2.81-44.21-32.93-4.2-4.22-4.2-4.22-25.78 4.38-2.45.59-6.15 1.49-16.35-22.84-3.15-7.19-8.4-1.26-8.45-1.19v-4.08a13.86 13.86 0 0 1 4.59-1.84 2 2 0 0 1 1.47.12c.72.37 1.44 1.22 2.7 3.9 5.88 12.52 5.88 12.52 10.11 19.36 2.5 3.7 2.5 3.7 22.75-4.33 1.38-.38 4.26-1.15 8.6 2.31 12.19 9.73 22.12 21.9 34.16 31.8 4.52 3.21 7.25 5.15 62.64-18.72l1.93 3.12c-7.94 3.46-32.09 14-54.16 20.94z"/></g></g></svg>