<svg height="256.06" viewBox="0 0 357.71 256.06" width="357.71" xmlns="http://www.w3.org/2000/svg" xmlns:xlink="http://www.w3.org/1999/xlink"><linearGradient id="a" gradientUnits="userSpaceOnUse" x1="153.02" x2="227.87" y1="133.91" y2="133.91"><stop offset="0" stop-color="#42e8e0"/><stop offset=".15" stop-color="#43e3e0"/><stop offset=".33" stop-color="#45d5df"/><stop offset=".52" stop-color="#49bddd"/><stop offset=".72" stop-color="#4e9cdb"/><stop offset=".93" stop-color="#5472d8"/><stop offset="1" stop-color="#5761d7"/></linearGradient><linearGradient id="b" gradientUnits="userSpaceOnUse" x1="151.81" x2="229.45" y1="119.25" y2="119.25"><stop offset="0" stop-color="#5761d7"/><stop offset=".18" stop-color="#5c66d9"/><stop offset=".39" stop-color="#6a73df"/><stop offset=".61" stop-color="#8289e8"/><stop offset=".85" stop-color="#a3a7f5"/><stop offset="1" stop-color="#bcbeff"/></linearGradient><linearGradient id="c" gradientTransform="matrix(-1 -.58 -.87 .5 -79.22 330.97)" gradientUnits="userSpaceOnUse" x1="54.98" x2="59.05" y1="-402.69" y2="-351.54"><stop offset="0" stop-color="#42ffff"/><stop offset=".02" stop-color="#40f4fa"/><stop offset=".09" stop-color="#3ac5e2"/><stop offset=".17" stop-color="#349bcd"/><stop offset=".26" stop-color="#2f78bb"/><stop offset=".35" stop-color="#2b5bac"/><stop offset=".44" stop-color="#2845a1"/><stop offset=".54" stop-color="#263599"/><stop offset=".66" stop-color="#242c94"/><stop offset=".82" stop-color="#242993"/></linearGradient><linearGradient id="d" x1="54.86" x2="60.26" xlink:href="#c" y1="-383.71" y2="-358.88"/><path d="m216.93 130.59c-14.62 8.44-38.32 8.44-52.94 0-7.31-4.22-11-9.75-11-15.28v15.49c0 5.57 3.6 11.14 11 15.38 14.62 8.44 38.32 8.44 52.94 0 7.43-4.29 11.06-9.93 10.94-15.56v-15c-.12 5.38-3.75 10.82-10.94 14.97z" fill="url(#a)" opacity=".5"/><path d="m229.45 119.25v-8.61h-3a26.62 26.62 0 0 0 -8.39-7.24c-15.16-8.75-39.74-8.75-54.9 0a26.4 26.4 0 0 0 -8.39 7.24h-3v8.61c0 5.74 3.79 11.47 11.37 15.85 15.16 8.75 39.74 8.75 54.9 0 7.62-4.38 11.41-10.1 11.41-15.85z" fill="url(#b)"/><ellipse cx="190.63" cy="110.64" fill="#bcbeff" rx="38.82" ry="22.41"/><ellipse cx="190.63" cy="110.64" fill="#bcbeff" rx="38.82" ry="22.41"/><path d="m229.45 119.25v-8.61h-3a26.62 26.62 0 0 0 -8.39-7.24c-15.16-8.75-39.74-8.75-54.9 0a26.4 26.4 0 0 0 -8.39 7.24h-3v8.61c0 5.74 3.79 11.47 11.37 15.85 15.16 8.75 39.74 8.75 54.9 0 7.62-4.38 11.41-10.1 11.41-15.85z" fill="url(#b)"/><ellipse cx="190.63" cy="110.64" fill="#bcbeff" rx="38.82" ry="22.41"/><ellipse cx="190.63" cy="110.64" fill="#bcbeff" rx="38.82" ry="22.41"/><path d="m218.08 125.79c-15.16 8.76-39.74 8.75-54.9 0-7.43-4.29-11.21-9.88-11.36-15.5-.15 5.85 3.63 11.73 11.36 16.2 15.16 8.75 39.74 8.75 54.9 0 7.73-4.47 11.51-10.35 11.35-16.2-.15 5.62-3.93 11.22-11.35 15.5z" fill="#fff"/><path d="m177.96 102 32.35-4-6.94 18.67-21.06-2.51z" fill="url(#c)"/><g fill="#0f1c75"><path d="m203.37 116.67-8.85-13.64-12.21 11.13z" opacity=".4"/><path d="m177.96 102 16.56 1.03-12.21 11.13z" opacity=".4"/><path d="m177.96 102 32.35-4-15.79 5.03-12.21 11.13z" opacity=".4"/></g><path d="m200.32 118.43-29.73 2.5 4.32-17.17 4.35 9.43z" fill="url(#d)"/><path d="m179.26 113.19-8.67 7.74 4.32-17.17z" fill="#0f1c75" opacity=".4"/></svg>