<svg fill="none" height="613" viewBox="0 0 990 613" width="990" xmlns="http://www.w3.org/2000/svg" xmlns:xlink="http://www.w3.org/1999/xlink"><linearGradient id="a" gradientUnits="userSpaceOnUse" x1="-10.3448" x2="1014.33" y1="-22.9017" y2="120.902"><stop offset="0" stop-color="#0f83c5"/><stop offset="1" stop-color="#6f388c"/></linearGradient><linearGradient id="b" gradientUnits="userSpaceOnUse" x1="314.221" x2="314.221" y1="206.103" y2="353"><stop offset="0" stop-color="#0e7abc" stop-opacity=".23"/><stop offset="1" stop-color="#0e7dc1" stop-opacity="0"/></linearGradient><clipPath id="c"><path d="m0 0h990v613h-990z"/></clipPath><clipPath id="d"><path d="m680 382h36v36h-36z"/></clipPath><g clip-path="url(#c)"><path d="m0 0h990v613h-990z" fill="#505050"/><path d="m0-2h1000v225h-1000z" fill="url(#a)"/><rect fill="#767676" height="274" rx="4" width="609" x="24" y="79"/><rect fill="#767676" height="213" rx="4" width="609" x="24" y="362"/><path d="m287.099 529.171c0 1.812-.655 3.27-1.966 4.375-1.31 1.094-3.144 1.749-5.503 1.965v3.504h-2.341v-3.435c-2.78-.057-5.218-.547-7.314-1.47v-4.512c.991.49 2.181.923 3.571 1.299 1.402.376 2.649.598 3.743.667v-5.298l-1.145-.445c-2.256-.888-3.857-1.851-4.802-2.888-.934-1.048-1.402-2.341-1.402-3.879 0-1.652.644-3.008 1.932-4.067 1.298-1.071 3.104-1.721 5.417-1.949v-2.614h2.341v2.546c2.609.114 4.968.638 7.076 1.572l-1.607 3.999c-1.777-.729-3.6-1.173-5.469-1.333v5.042c2.222.854 3.8 1.595 4.734 2.221.946.627 1.635 1.316 2.068 2.068.444.752.667 1.629.667 2.632zm-5.144.256c0-.478-.194-.883-.581-1.213-.388-.33-.969-.672-1.744-1.025v4.255c1.55-.262 2.325-.934 2.325-2.017zm-6.871-10.373c0 .501.171.917.513 1.247.353.319.917.65 1.692.992v-4.016c-1.47.216-2.205.808-2.205 1.777zm27.806 17.927h-5.281v-14.458l.051-2.375.086-2.598c-.878.877-1.487 1.453-1.829 1.726l-2.871 2.307-2.546-3.179 8.049-6.408h4.341zm13.381-3.674c-.592 2.301-1.595 5.03-3.008 8.186h-3.76c.741-3.031 1.316-5.89 1.726-8.579h4.786zm16.765 3.674h-5.281v-14.458l.052-2.375.085-2.598c-.877.877-1.487 1.453-1.829 1.726l-2.871 2.307-2.546-3.179 8.049-6.408h4.341zm24.404 0h-17.465v-3.674l6.272-6.341c1.857-1.902 3.07-3.218 3.64-3.947.569-.741.98-1.424 1.23-2.051.251-.627.376-1.276.376-1.948 0-1.003-.279-1.749-.837-2.239-.547-.49-1.282-.735-2.205-.735-.968 0-1.908.222-2.82.667-.911.444-1.862 1.076-2.854 1.897l-2.871-3.401c1.231-1.048 2.25-1.789 3.059-2.222s1.692-.763 2.649-.991c.957-.239 2.028-.359 3.213-.359 1.561 0 2.94.285 4.136.854 1.196.57 2.125 1.368 2.786 2.393.66 1.025.991 2.199.991 3.52 0 1.151-.205 2.234-.615 3.248-.399 1.002-1.026 2.033-1.88 3.093-.843 1.059-2.336 2.569-4.478 4.529l-3.213 3.025v.239h10.886zm11.622-15.962c2.415 0 4.335.678 5.759 2.034 1.435 1.356 2.153 3.213 2.153 5.571 0 2.792-.86 4.939-2.58 6.443-1.721 1.504-4.182 2.256-7.383 2.256-2.78 0-5.025-.45-6.734-1.35v-4.563c.9.478 1.949.871 3.145 1.179 1.196.296 2.33.444 3.401.444 3.224 0 4.836-1.321 4.836-3.964 0-2.518-1.669-3.777-5.007-3.777-.604 0-1.27.062-2 .188-.729.114-1.321.239-1.777.376l-2.102-1.128.94-12.732h13.552v4.477h-8.921l-.461 4.905.598-.12c.695-.159 1.555-.239 2.581-.239z" fill="#fff"/><path d="m390.336 529.667h-3.018v-8.262l.03-1.357.048-1.485c-.501.501-.849.83-1.044.986l-1.641 1.319-1.455-1.817 4.599-3.662h2.481zm5.381 0 5.361-11.719h-7.041v-2.539h10.244v1.894l-5.4 12.364z" fill="#fff"/><path d="m611.483 49.1836h-10.766v-8.1152h10.224v-1.7872h-10.224v-7.6025h10.766v-1.8164h-12.773v21.1377h12.773zm6.753 1.8164v-17.5635h.191l12.363 17.5635h1.934v-21.1377h-1.978v17.5488h-.19l-12.32-17.5488h-1.977v21.1377zm27.569 0v-19.3213h7.09v-1.8164h-16.172v1.8164h7.089v19.3213zm23.862-1.8164h-10.767v-8.1152h10.225v-1.7872h-10.225v-7.6025h10.767v-1.8164h-12.773v21.1377h12.773zm6.782-17.5342h5.318c3.076 0 4.951 1.6846 4.951 4.4531 0 2.8272-1.802 4.4532-4.864 4.4532h-5.405zm0 10.6934h5.405.308l4.863 8.6572h2.344l-5.127-8.9795c2.827-.7471 4.527-2.9883 4.527-5.9766 0-3.7646-2.637-6.1816-6.753-6.1816h-7.574v21.1377h2.007zm17.183-12.4805v21.1377h2.007v-7.9688h5.478c4.029 0 6.797-2.666 6.797-6.5478 0-3.9404-2.725-6.6211-6.768-6.6211zm2.007 1.7871h5.024c3.296 0 5.215 1.7871 5.215 4.834 0 2.9736-1.963 4.7607-5.215 4.7607h-5.024zm18.632 0h5.318c3.076 0 4.951 1.6846 4.951 4.4531 0 2.8272-1.802 4.4532-4.863 4.4532h-5.406zm0 10.6934h5.406.307l4.864 8.6572h2.343l-5.127-8.9795c2.828-.7471 4.527-2.9883 4.527-5.9766 0-3.7646-2.637-6.1816-6.753-6.1816h-7.573v21.1377h2.006zm19.19 8.6572v-21.1377h-2.007v21.1377zm4.409-5.4932c.249 3.5303 3.399 5.9327 7.764 5.9327 4.629 0 7.661-2.4756 7.661-6.167 0-2.9883-1.787-4.7168-6.152-5.8008l-2.095-.5274c-3.223-.8056-4.527-1.875-4.527-3.7207 0-2.2998 2.095-3.9697 5.127-3.9697 2.93 0 4.966 1.5234 5.289 3.7793h2.021c-.22-3.2227-3.208-5.6103-7.251-5.6103-4.292 0-7.236 2.4462-7.236 5.8593 0 2.8711 1.67 4.5264 5.639 5.5078l2.417.6153c3.267.8056 4.717 2.0947 4.717 4.0869 0 2.3437-2.27 4.1162-5.434 4.1162-3.223 0-5.64-1.6699-5.918-4.1016zm32.608 3.6768h-10.767v-8.1152h10.225v-1.7872h-10.225v-7.6025h10.767v-1.8164h-12.774v21.1377h12.774z" fill="#fff"/><path d="m816.656 51h-4.541v-17.6367h-5.815v-3.7793h16.172v3.7793h-5.816zm19.16 0-.864-2.2266h-.117c-.752.9473-1.528 1.6065-2.329 1.9776-.791.3613-1.826.542-3.106.542-1.572 0-2.812-.4492-3.72-1.3477-.899-.8984-1.348-2.1777-1.348-3.8379 0-1.7383.606-3.0176 1.816-3.8379 1.221-.83 3.057-1.289 5.508-1.3769l2.842-.0879v-.7178c0-1.6601-.85-2.4902-2.549-2.4902-1.308 0-2.846.3955-4.614 1.1865l-1.48-3.0176c1.885-.9863 3.975-1.4795 6.27-1.4795 2.197 0 3.882.4785 5.054 1.4356 1.172.957 1.758 2.4121 1.758 4.3652v10.9131zm-1.318-7.5879-1.728.0586c-1.299.0391-2.266.2734-2.901.7031s-.952 1.084-.952 1.9629c0 1.2598.723 1.8897 2.168 1.8897 1.035 0 1.86-.2979 2.476-.8936.625-.5957.937-1.3867.937-2.373zm12.407-.7764-5.273-8.0127h5.068l3.179 5.2149 3.208-5.2149h5.068l-5.332 8.0127 5.581 8.3643h-5.083l-3.442-5.6104-3.457 5.6104h-5.068zm31.231-9.58c-1.709 0-3.032.6445-3.97 1.9336-.937 1.2793-1.406 3.0664-1.406 5.3613 0 4.7754 1.792 7.1631 5.376 7.1631 1.504 0 3.325-.376 5.464-1.128v3.8086c-1.758.7325-3.721 1.0987-5.889 1.0987-3.115 0-5.498-.9424-7.149-2.8272-1.65-1.8945-2.475-4.6094-2.475-8.1445 0-2.2266.405-4.1748 1.216-5.8447.81-1.6797 1.972-2.9639 3.486-3.8526 1.523-.8984 3.306-1.3476 5.347-1.3476 2.08 0 4.17.5029 6.269 1.5088l-1.465 3.6914c-.8-.3809-1.606-.7129-2.417-.9961-.81-.2832-1.606-.4248-2.387-.4248zm16.465 4.4384c-.948 0-1.69.3028-2.227.9082-.537.5957-.845 1.4454-.923 2.5489h6.27c-.02-1.1035-.308-1.9532-.865-2.5489-.556-.6054-1.308-.9082-2.255-.9082zm.629 13.7989c-2.636 0-4.697-.7276-6.181-2.1826-1.485-1.4551-2.227-3.5157-2.227-6.1817 0-2.7441.684-4.8633 2.051-6.3574 1.377-1.5039 3.276-2.2559 5.698-2.2559 2.315 0 4.117.6592 5.406 1.9776 1.289 1.3183 1.933 3.1396 1.933 5.4638v2.168h-10.561c.048 1.2695.424 2.2607 1.128 2.9736.703.7129 1.689 1.0694 2.959 1.0694.986 0 1.918-.1026 2.797-.3076.879-.2051 1.797-.5323 2.754-.9815v3.457c-.781.3907-1.616.6788-2.505.8643-.888.1953-1.972.293-3.252.293zm25.43-.293h-4.468v-9.5654c0-1.1817-.21-2.0655-.63-2.6514-.419-.5957-1.088-.8936-2.006-.8936-1.25 0-2.154.42-2.71 1.2598-.557.8301-.835 2.2119-.835 4.1455v7.7051h-4.468v-16.377h3.413l.601 2.0948h.249c.498-.791 1.181-1.3867 2.05-1.7871.879-.4102 1.875-.6153 2.989-.6153 1.904 0 3.349.5176 4.336 1.5528.986 1.0254 1.479 2.5097 1.479 4.4531zm11.499-3.2666c.781 0 1.719-.1709 2.813-.5127v3.3252c-1.114.498-2.481.7471-4.102.7471-1.787 0-3.091-.4492-3.911-1.3477-.811-.9082-1.216-2.2656-1.216-4.0723v-7.8955h-2.139v-1.8896l2.461-1.4941 1.289-3.4571h2.857v3.4863h4.585v3.3545h-4.585v7.8955c0 .6348.176 1.1036.527 1.4063.362.3027.835.4541 1.421.4541zm12.92-10.2393c-.947 0-1.689.3028-2.226.9082-.538.5957-.845 1.4454-.923 2.5489h6.269c-.019-1.1035-.307-1.9532-.864-2.5489-.557-.6054-1.309-.9082-2.256-.9082zm.63 13.7989c-2.637 0-4.697-.7276-6.182-2.1826-1.484-1.4551-2.226-3.5157-2.226-6.1817 0-2.7441.683-4.8633 2.051-6.3574 1.377-1.5039 3.276-2.2559 5.698-2.2559 2.314 0 4.116.6592 5.405 1.9776 1.289 1.3183 1.934 3.1396 1.934 5.4638v2.168h-10.562c.049 1.2695.425 2.2607 1.128 2.9736s1.69 1.0694 2.959 1.0694c.986 0 1.919-.1026 2.798-.3076.879-.2051 1.797-.5323 2.754-.9815v3.457c-.781.3907-1.616.6788-2.505.8643-.889.1953-1.973.293-3.252.293zm19.453-16.9776c.606 0 1.109.044 1.509.1319l-.337 4.1894c-.361-.0976-.801-.1465-1.318-.1465-1.426 0-2.539.3662-3.34 1.0987-.791.7324-1.187 1.7578-1.187 3.0761v8.335h-4.468v-16.377h3.384l.659 2.754h.22c.508-.918 1.192-1.6553 2.051-2.212.869-.5664 1.811-.8496 2.827-.8496z" fill="#fff"/><path d="m70.5986 170.19c0 1.811-.6551 3.27-1.9653 4.375-1.3102 1.094-3.1445 1.749-5.5029 1.965v3.504h-2.3413v-3.435c-2.78-.057-5.2181-.547-7.3145-1.47v-4.512c.9912.49 2.1818.923 3.5718 1.299 1.4014.376 2.6489.598 3.7427.667v-5.298l-1.1451-.445c-2.2558-.888-3.8566-1.851-4.8022-2.888-.9342-1.048-1.4014-2.341-1.4014-3.879 0-1.652.6437-3.008 1.9312-4.068 1.2988-1.071 3.1046-1.72 5.4175-1.948v-2.615h2.3413v2.547c2.609.114 4.9674.638 7.0752 1.572l-1.6065 3.999c-1.7773-.729-3.6002-1.173-5.4687-1.333v5.042c2.2217.854 3.7996 1.595 4.7339 2.221.9456.627 1.6349 1.316 2.0678 2.068.4444.752.6665 1.629.6665 2.632zm-5.144.256c0-.478-.1937-.883-.5811-1.213-.3873-.33-.9684-.672-1.7431-1.025v4.255c1.5495-.262 2.3242-.934 2.3242-2.017zm-6.8701-10.373c0 .501.1709.917.5127 1.247.3532.319.9171.65 1.6919.992v-4.017c-1.4698.217-2.2046.809-2.2046 1.778zm27.8051 17.927h-5.2807v-14.458l.0513-2.375.0854-2.598c-.8773.877-1.4868 1.452-1.8286 1.726l-2.8711 2.307-2.5464-3.179 8.0493-6.408h4.3408zm13.3814-3.674c-.5925 2.301-1.5951 5.03-3.0078 8.186h-3.7598c.7406-3.031 1.3159-5.891 1.7261-8.579h4.7851zm21.738-1.504h-3.008v5.178h-5.161v-5.178h-10.664v-3.675l10.955-16.132h4.87v15.705h3.008zm-8.169-4.102v-4.238c0-.706.029-1.732.086-3.076.057-1.345.102-2.125.136-2.342h-.136c-.422.935-.929 1.846-1.521 2.735l-4.58 6.921zm26.626-10.117c0 1.561-.473 2.888-1.418 3.982-.946 1.094-2.273 1.846-3.982 2.256v.102c2.017.251 3.543.866 4.58 1.846 1.037.968 1.555 2.279 1.555 3.931 0 2.404-.871 4.278-2.615 5.622-1.743 1.333-4.232 2-7.468 2-2.711 0-5.115-.45-7.212-1.35v-4.495c.969.49 2.034.889 3.196 1.196 1.162.308 2.313.462 3.452.462 1.743 0 3.031-.296 3.863-.889.831-.592 1.247-1.544 1.247-2.854 0-1.173-.478-2.005-1.435-2.495-.958-.49-2.484-.735-4.581-.735h-1.897v-4.05h1.932c1.936 0 3.349-.251 4.238-.752.9-.513 1.35-1.384 1.35-2.615 0-1.891-1.185-2.837-3.555-2.837-.82 0-1.657.137-2.512.41-.843.274-1.783.747-2.82 1.419l-2.444-3.64c2.279-1.641 4.996-2.461 8.152-2.461 2.587 0 4.626.524 6.118 1.572 1.504 1.048 2.256 2.507 2.256 4.375zm12.117-5.913c2.393 0 4.318.547 5.776 1.641 1.47 1.082 2.205 2.546 2.205 4.392 0 1.276-.353 2.415-1.06 3.418-.706.991-1.845 1.88-3.418 2.666 1.869 1.002 3.208 2.05 4.017 3.144.82 1.083 1.23 2.273 1.23 3.572 0 2.051-.803 3.703-2.41 4.956-1.606 1.242-3.72 1.863-6.34 1.863-2.734 0-4.882-.581-6.443-1.743s-2.341-2.809-2.341-4.939c0-1.424.376-2.689 1.128-3.794.763-1.105 1.982-2.08 3.657-2.923-1.424-.9-2.45-1.862-3.076-2.888-.627-1.025-.94-2.147-.94-3.367 0-1.788.74-3.235 2.222-4.34 1.481-1.105 3.412-1.658 5.793-1.658zm-3.896 18.662c0 .98.341 1.743 1.025 2.29s1.618.82 2.803.82c1.31 0 2.29-.279 2.939-.837.65-.57.974-1.316.974-2.239 0-.763-.324-1.475-.974-2.136-.638-.672-1.68-1.384-3.127-2.136-2.427 1.116-3.64 2.529-3.64 4.238zm3.862-14.8c-.9 0-1.629.234-2.188.701-.547.456-.82 1.071-.82 1.846 0 .683.216 1.298.649 1.845.445.536 1.242 1.088 2.393 1.658 1.117-.524 1.897-1.06 2.341-1.606.445-.547.667-1.18.667-1.897 0-.787-.285-1.407-.855-1.863-.569-.456-1.298-.684-2.187-.684z" fill="#fff"/><path d="m62.2773 131h-2.3242v-17.924h-6.3301v-2.064h14.9844v2.064h-6.3301zm18.2247 0-.4512-2.133h-.1094c-.7474.939-1.4948 1.577-2.2422 1.914-.7383.328-1.6634.492-2.7754.492-1.4856 0-2.6523-.382-3.5-1.148-.8385-.766-1.2578-1.855-1.2578-3.268 0-3.026 2.4199-4.612 7.2598-4.757l2.543-.082v-.93c0-1.176-.2553-2.042-.7657-2.598-.5013-.565-1.3079-.847-2.4199-.847-1.2487 0-2.6615.382-4.2383 1.148l-.6972-1.736c.7382-.401 1.5449-.716 2.4199-.944.8841-.228 1.7682-.341 2.6523-.341 1.7865 0 3.1081.396 3.9649 1.189.8659.793 1.2988 2.064 1.2988 3.814v10.227zm-5.127-1.6c1.4128 0 2.5202-.387 3.3223-1.162.8112-.774 1.2168-1.859 1.2168-3.254v-1.353l-2.2696.096c-1.8047.063-3.108.346-3.9101.847-.793.492-1.1895 1.263-1.1895 2.311 0 .82.2461 1.444.7383 1.873.5013.428 1.1986.642 2.0918.642zm15.1074-6.07-5.209-7.314h2.584l3.9512 5.742 3.9375-5.742h2.5566l-5.2089 7.314 5.4824 7.67h-2.5703l-4.1973-6.07-4.2383 6.07h-2.5703zm20.2886 7.67-.451-2.133h-.109c-.747.939-1.495 1.577-2.242 1.914-.739.328-1.664.492-2.776.492-1.485 0-2.652-.382-3.5-1.148-.838-.766-1.257-1.855-1.257-3.268 0-3.026 2.419-4.612 7.259-4.757l2.543-.082v-.93c0-1.176-.255-2.042-.765-2.598-.502-.565-1.308-.847-2.42-.847-1.249 0-2.662.382-4.239 1.148l-.697-1.736c.738-.401 1.545-.716 2.42-.944.884-.228 1.768-.341 2.652-.341 1.787 0 3.109.396 3.965 1.189.866.793 1.299 2.064 1.299 3.814v10.227zm-5.126-1.6c1.412 0 2.52-.387 3.322-1.162.811-.774 1.217-1.859 1.217-3.254v-1.353l-2.27.096c-1.805.063-3.108.346-3.91.847-.793.492-1.19 1.263-1.19 2.311 0 .82.247 1.444.739 1.873.501.428 1.198.642 2.092.642zm18.47-13.63c1.969 0 3.496.674 4.58 2.023 1.094 1.34 1.641 3.24 1.641 5.701s-.551 4.375-1.654 5.742c-1.094 1.358-2.616 2.037-4.567 2.037-.975 0-1.868-.177-2.679-.533-.803-.364-1.477-.92-2.024-1.668h-.164l-.478 1.928h-1.627v-21.273h2.269v5.168c0 1.157-.036 2.196-.109 3.117h.109c1.057-1.495 2.625-2.242 4.703-2.242zm-.328 1.9c-1.549 0-2.666.447-3.349 1.34-.684.884-1.026 2.379-1.026 4.484 0 2.106.351 3.614 1.053 4.526.702.902 1.827 1.353 3.377 1.353 1.394 0 2.433-.506 3.117-1.518.684-1.02 1.025-2.483 1.025-4.388 0-1.951-.341-3.405-1.025-4.362s-1.741-1.435-3.172-1.435zm12.797 13.33h-2.27v-21.273h2.27zm11.143.273c-2.215 0-3.965-.674-5.25-2.023-1.276-1.349-1.915-3.222-1.915-5.619 0-2.416.593-4.334 1.778-5.756 1.194-1.422 2.793-2.133 4.799-2.133 1.877 0 3.363.62 4.457 1.86 1.093 1.23 1.64 2.857 1.64 4.88v1.436h-10.322c.046 1.759.488 3.094 1.326 4.006.848.911 2.037 1.367 3.569 1.367 1.613 0 3.208-.337 4.785-1.012v2.024c-.802.346-1.563.592-2.283.738-.711.155-1.573.232-2.584.232zm-.616-13.63c-1.203 0-2.164.392-2.884 1.175-.711.784-1.131 1.869-1.258 3.254h7.834c0-1.431-.319-2.524-.957-3.281-.638-.766-1.55-1.148-2.735-1.148zm26.414 2.884h6.795v9.721c-1.057.337-2.132.592-3.226.766-1.094.173-2.361.259-3.801.259-3.026 0-5.382-.897-7.068-2.693-1.687-1.805-2.53-4.329-2.53-7.574 0-2.078.415-3.897 1.244-5.455.839-1.568 2.042-2.762 3.61-3.582 1.568-.83 3.404-1.244 5.51-1.244 2.132 0 4.119.392 5.961 1.175l-.903 2.051c-1.805-.765-3.541-1.148-5.209-1.148-2.433 0-4.334.724-5.701 2.174-1.367 1.449-2.051 3.459-2.051 6.029 0 2.698.656 4.744 1.969 6.139 1.322 1.394 3.258 2.091 5.811 2.091 1.385 0 2.738-.159 4.06-.478v-6.153h-4.471zm20.481 10.473-.451-2.133h-.11c-.747.939-1.494 1.577-2.242 1.914-.738.328-1.663.492-2.775.492-1.486 0-2.653-.382-3.5-1.148-.839-.766-1.258-1.855-1.258-3.268 0-3.026 2.42-4.612 7.26-4.757l2.543-.082v-.93c0-1.176-.256-2.042-.766-2.598-.501-.565-1.308-.847-2.42-.847-1.249 0-2.661.382-4.238 1.148l-.697-1.736c.738-.401 1.544-.716 2.419-.944.885-.228 1.769-.341 2.653-.341 1.786 0 3.108.396 3.965 1.189.866.793 1.299 2.064 1.299 3.814v10.227zm-5.127-1.6c1.413 0 2.52-.387 3.322-1.162.811-.774 1.217-1.859 1.217-3.254v-1.353l-2.27.096c-1.804.063-3.108.346-3.91.847-.793.492-1.189 1.263-1.189 2.311 0 .82.246 1.444.738 1.873.501.428 1.199.642 2.092.642zm13.767 1.6h-2.269v-14.984h2.269zm-2.46-19.045c0-.519.127-.898.382-1.135.256-.246.575-.369.957-.369.365 0 .679.123.944.369.264.246.396.625.396 1.135s-.132.893-.396 1.149c-.265.246-.579.369-.944.369-.382 0-.701-.123-.957-.369-.255-.256-.382-.639-.382-1.149zm17.527 19.045v-9.693c0-1.222-.278-2.133-.834-2.735-.556-.601-1.427-.902-2.611-.902-1.568 0-2.717.424-3.446 1.271-.729.848-1.093 2.247-1.093 4.198v7.861h-2.27v-14.984h1.846l.369 2.05h.109c.465-.738 1.117-1.308 1.955-1.709.839-.41 1.773-.615 2.803-.615 1.805 0 3.163.438 4.074 1.313.912.866 1.367 2.256 1.367 4.17v9.775zm16.611-4.088c0 1.395-.519 2.47-1.558 3.227-1.039.756-2.498 1.134-4.375 1.134-1.987 0-3.537-.314-4.649-.943v-2.105c.72.364 1.49.651 2.311.861.829.21 1.627.314 2.392.314 1.185 0 2.097-.186 2.735-.56.638-.383.957-.962.957-1.736 0-.584-.255-1.081-.766-1.491-.501-.419-1.486-.911-2.953-1.476-1.395-.52-2.388-.971-2.98-1.354-.584-.392-1.021-.834-1.313-1.326-.283-.492-.424-1.08-.424-1.764 0-1.221.497-2.183 1.49-2.884.994-.711 2.357-1.067 4.088-1.067 1.614 0 3.19.328 4.731.985l-.807 1.845c-1.504-.62-2.866-.929-4.088-.929-1.075 0-1.886.168-2.433.505-.547.338-.821.803-.821 1.395 0 .401.101.743.301 1.025.21.283.542.552.998.807s1.331.624 2.625 1.107c1.777.648 2.976 1.299 3.596 1.956.629.656.943 1.481.943 2.474z" fill="#fff"/><path d="m177.299 156.916c0 .892-.27 1.65-.811 2.275-.54.625-1.299 1.055-2.275 1.289v.059c1.152.143 2.025.495 2.617 1.055.593.553.889 1.302.889 2.246 0 1.374-.498 2.445-1.494 3.213-.996.761-2.419 1.142-4.268 1.142-1.549 0-2.923-.257-4.121-.771v-2.569c.553.28 1.162.508 1.826.684s1.322.264 1.973.264c.996 0 1.732-.17 2.207-.508.475-.339.713-.882.713-1.631 0-.671-.274-1.146-.821-1.426-.546-.28-1.419-.42-2.617-.42h-1.084v-2.314h1.104c1.106 0 1.914-.143 2.422-.43.514-.293.771-.791.771-1.494 0-1.081-.677-1.621-2.031-1.621-.469 0-.947.078-1.436.234-.481.157-1.019.427-1.611.811l-1.397-2.08c1.303-.938 2.855-1.406 4.659-1.406 1.478 0 2.643.299 3.496.898.859.599 1.289 1.432 1.289 2.5zm7.197 1.963c1.38 0 2.477.387 3.291 1.162.82.775 1.231 1.836 1.231 3.184 0 1.595-.492 2.822-1.475 3.681-.983.86-2.389 1.289-4.219 1.289-1.588 0-2.871-.257-3.847-.771v-2.608c.514.274 1.113.498 1.796.674.684.17 1.332.254 1.944.254 1.842 0 2.763-.755 2.763-2.265 0-1.439-.953-2.159-2.861-2.159-.345 0-.726.036-1.142.108-.417.065-.756.136-1.016.215l-1.201-.645.537-7.275h7.744v2.558h-5.098l-.263 2.803.341-.068c.398-.092.889-.137 1.475-.137z" fill="#fff"/><path d="m521.672 168.19c0 1.811-.655 3.27-1.965 4.375-1.311 1.094-3.145 1.749-5.503 1.965v3.504h-2.342v-3.435c-2.78-.057-5.218-.547-7.314-1.47v-4.512c.991.49 2.182.923 3.572 1.299 1.401.376 2.649.598 3.742.667v-5.298l-1.145-.445c-2.256-.888-3.856-1.851-4.802-2.888-.934-1.048-1.401-2.341-1.401-3.879 0-1.652.643-3.008 1.931-4.068 1.299-1.071 3.104-1.72 5.417-1.948v-2.615h2.342v2.547c2.609.114 4.967.638 7.075 1.572l-1.607 3.999c-1.777-.729-3.6-1.173-5.468-1.333v5.042c2.221.854 3.799 1.595 4.734 2.221.945.627 1.634 1.316 2.067 2.068.445.752.667 1.629.667 2.632zm-5.144.256c0-.478-.194-.883-.581-1.213-.388-.33-.969-.672-1.743-1.025v4.255c1.549-.262 2.324-.934 2.324-2.017zm-6.87-10.373c0 .501.171.917.512 1.247.354.319.918.65 1.692.992v-4.017c-1.469.217-2.204.809-2.204 1.778zm23.362-7.383c2.392 0 4.318.547 5.776 1.641 1.47 1.082 2.204 2.546 2.204 4.392 0 1.276-.353 2.415-1.059 3.418-.706.991-1.846 1.88-3.418 2.666 1.868 1.002 3.207 2.05 4.016 3.144.82 1.083 1.231 2.273 1.231 3.572 0 2.051-.804 3.703-2.41 4.956-1.607 1.242-3.72 1.863-6.34 1.863-2.735 0-4.882-.581-6.443-1.743s-2.342-2.809-2.342-4.939c0-1.424.376-2.689 1.128-3.794.764-1.105 1.983-2.08 3.658-2.923-1.425-.9-2.45-1.862-3.077-2.888-.626-1.025-.94-2.147-.94-3.367 0-1.788.741-3.235 2.222-4.34s3.412-1.658 5.794-1.658zm-3.897 18.662c0 .98.342 1.743 1.025 2.29.684.547 1.618.82 2.803.82 1.31 0 2.29-.279 2.94-.837.649-.57.974-1.316.974-2.239 0-.763-.325-1.475-.974-2.136-.638-.672-1.681-1.384-3.128-2.136-2.427 1.116-3.64 2.529-3.64 4.238zm3.862-14.8c-.9 0-1.629.234-2.187.701-.547.456-.82 1.071-.82 1.846 0 .683.216 1.298.649 1.845.444.536 1.242 1.088 2.393 1.658 1.116-.524 1.897-1.06 2.341-1.606.444-.547.666-1.18.666-1.897 0-.787-.284-1.407-.854-1.863s-1.299-.684-2.188-.684zm28.882 21.448h-17.466v-3.674l6.272-6.341c1.857-1.902 3.071-3.218 3.64-3.947.57-.741.98-1.425 1.231-2.051.251-.627.376-1.276.376-1.948 0-1.003-.279-1.749-.837-2.239-.547-.49-1.282-.735-2.205-.735-.968 0-1.908.222-2.82.666-.911.445-1.863 1.077-2.854 1.897l-2.871-3.4c1.23-1.049 2.25-1.789 3.059-2.222s1.692-.763 2.649-.991c.957-.24 2.028-.359 3.213-.359 1.561 0 2.939.285 4.136.854 1.196.57 2.124 1.367 2.785 2.393.661 1.025.992 2.199.992 3.52 0 1.151-.206 2.233-.616 3.247-.398 1.003-1.025 2.034-1.88 3.094-.843 1.059-2.335 2.569-4.477 4.528l-3.213 3.025v.24h10.886zm11.621-15.962c2.416 0 4.335.678 5.76 2.034 1.435 1.356 2.153 3.213 2.153 5.571 0 2.791-.86 4.939-2.581 6.443-1.72 1.504-4.181 2.256-7.382 2.256-2.78 0-5.025-.45-6.734-1.35v-4.563c.9.478 1.948.871 3.145 1.179 1.196.296 2.33.444 3.401.444 3.224 0 4.836-1.321 4.836-3.965 0-2.518-1.669-3.776-5.007-3.776-.604 0-1.271.062-2 .188-.729.113-1.322.239-1.777.376l-2.102-1.128.94-12.732h13.552v4.477h-8.921l-.461 4.905.598-.12c.695-.159 1.555-.239 2.58-.239z" fill="#fff"/><path d="m411.732 129v-19.988h2.325v19.988zm17.733 0v-9.693c0-1.222-.278-2.133-.834-2.735-.556-.601-1.427-.902-2.611-.902-1.568 0-2.717.424-3.446 1.271-.729.848-1.094 2.247-1.094 4.198v7.861h-2.269v-14.984h1.846l.369 2.05h.109c.465-.738 1.117-1.308 1.955-1.709.839-.41 1.773-.615 2.803-.615 1.805 0 3.163.438 4.074 1.313.912.866 1.367 2.256 1.367 4.17v9.775zm11.785-1.6c.401 0 .788-.027 1.162-.082.374-.063.67-.127.889-.191v1.736c-.246.119-.611.214-1.094.287-.474.082-.902.123-1.285.123-2.899 0-4.348-1.526-4.348-4.58v-8.914h-2.146v-1.093l2.146-.944.957-3.199h1.313v3.473h4.347v1.763h-4.347v8.819c0 .902.214 1.595.642 2.078.429.483 1.017.724 1.764.724zm11.389 1.873c-2.215 0-3.965-.674-5.25-2.023-1.276-1.349-1.914-3.222-1.914-5.619 0-2.416.592-4.334 1.777-5.756 1.194-1.422 2.794-2.133 4.799-2.133 1.877 0 3.363.62 4.457 1.86 1.094 1.23 1.64 2.857 1.64 4.88v1.436h-10.322c.046 1.759.488 3.094 1.326 4.006.848.911 2.037 1.367 3.569 1.367 1.613 0 3.208-.337 4.785-1.012v2.024c-.802.346-1.563.592-2.283.738-.711.155-1.573.232-2.584.232zm-.616-13.63c-1.203 0-2.164.392-2.884 1.175-.711.784-1.131 1.869-1.258 3.254h7.834c0-1.431-.319-2.524-.957-3.281-.638-.766-1.55-1.148-2.735-1.148zm16.844-1.901c.666 0 1.263.055 1.791.164l-.314 2.106c-.62-.137-1.167-.205-1.641-.205-1.212 0-2.251.492-3.117 1.476-.857.985-1.285 2.21-1.285 3.678v8.039h-2.27v-14.984h1.873l.26 2.775h.109c.556-.975 1.226-1.727 2.01-2.256.784-.528 1.645-.793 2.584-.793zm10.924 15.531c-2.215 0-3.965-.674-5.25-2.023-1.276-1.349-1.914-3.222-1.914-5.619 0-2.416.592-4.334 1.777-5.756 1.194-1.422 2.794-2.133 4.799-2.133 1.878 0 3.363.62 4.457 1.86 1.094 1.23 1.641 2.857 1.641 4.88v1.436h-10.322c.045 1.759.487 3.094 1.326 4.006.847.911 2.037 1.367 3.568 1.367 1.613 0 3.208-.337 4.785-1.012v2.024c-.802.346-1.563.592-2.283.738-.711.155-1.572.232-2.584.232zm-.615-13.63c-1.203 0-2.165.392-2.885 1.175-.711.784-1.13 1.869-1.258 3.254h7.834c0-1.431-.319-2.524-.957-3.281-.638-.766-1.549-1.148-2.734-1.148zm19.674 9.269c0 1.395-.52 2.47-1.559 3.227-1.039.756-2.497 1.134-4.375 1.134-1.987 0-3.536-.314-4.648-.943v-2.105c.72.364 1.49.651 2.31.861.83.21 1.627.314 2.393.314 1.185 0 2.096-.186 2.734-.56.638-.383.957-.962.957-1.736 0-.584-.255-1.081-.766-1.491-.501-.419-1.485-.911-2.953-1.476-1.394-.52-2.388-.971-2.98-1.354-.583-.392-1.021-.834-1.313-1.326-.282-.492-.423-1.08-.423-1.764 0-1.221.496-2.183 1.49-2.884.993-.711 2.356-1.067 4.088-1.067 1.613 0 3.19.328 4.73.985l-.806 1.845c-1.504-.62-2.867-.929-4.088-.929-1.076 0-1.887.168-2.434.505-.547.338-.82.803-.82 1.395 0 .401.1.743.301 1.025.209.283.542.552.998.807.455.255 1.33.624 2.625 1.107 1.777.648 2.975 1.299 3.595 1.956.629.656.944 1.481.944 2.474zm8.545 2.488c.401 0 .788-.027 1.162-.082.373-.063.67-.127.888-.191v1.736c-.246.119-.61.214-1.093.287-.474.082-.903.123-1.286.123-2.898 0-4.347-1.526-4.347-4.58v-8.914h-2.147v-1.093l2.147-.944.957-3.199h1.312v3.473h4.348v1.763h-4.348v8.819c0 .902.214 1.595.643 2.078.428.483 1.016.724 1.764.724zm23.816 1.6h-11.143v-19.988h11.143v2.064h-8.818v6.44h8.285v2.05h-8.285v7.356h8.818zm13.316 0-.451-2.133h-.109c-.748.939-1.495 1.577-2.242 1.914-.739.328-1.664.492-2.776.492-1.485 0-2.652-.382-3.5-1.148-.838-.766-1.258-1.855-1.258-3.268 0-3.026 2.42-4.612 7.26-4.757l2.543-.082v-.93c0-1.176-.255-2.042-.765-2.598-.502-.565-1.308-.847-2.42-.847-1.249 0-2.662.382-4.239 1.148l-.697-1.736c.738-.401 1.545-.716 2.42-.944.884-.228 1.768-.341 2.652-.341 1.787 0 3.108.396 3.965 1.189.866.793 1.299 2.064 1.299 3.814v10.227zm-5.127-1.6c1.413 0 2.521-.387 3.323-1.162.811-.774 1.216-1.859 1.216-3.254v-1.353l-2.269.096c-1.805.063-3.108.346-3.91.847-.793.492-1.19 1.263-1.19 2.311 0 .82.246 1.444.739 1.873.501.428 1.198.642 2.091.642zm18.334-13.658c.666 0 1.263.055 1.791.164l-.314 2.106c-.62-.137-1.167-.205-1.641-.205-1.212 0-2.251.492-3.117 1.476-.857.985-1.285 2.21-1.285 3.678v8.039h-2.27v-14.984h1.873l.26 2.775h.11c.556-.975 1.226-1.727 2.009-2.256.784-.528 1.646-.793 2.584-.793zm14.848 15.258v-9.693c0-1.222-.278-2.133-.834-2.735-.556-.601-1.426-.902-2.611-.902-1.568 0-2.716.424-3.446 1.271-.729.848-1.093 2.247-1.093 4.198v7.861h-2.27v-14.984h1.846l.369 2.05h.109c.465-.738 1.117-1.308 1.955-1.709.839-.41 1.773-.615 2.803-.615 1.805 0 3.163.438 4.074 1.313.912.866 1.368 2.256 1.368 4.17v9.775zm13.275.273c-2.214 0-3.964-.674-5.25-2.023-1.276-1.349-1.914-3.222-1.914-5.619 0-2.416.593-4.334 1.778-5.756 1.194-1.422 2.793-2.133 4.799-2.133 1.877 0 3.363.62 4.457 1.86 1.093 1.23 1.64 2.857 1.64 4.88v1.436h-10.322c.045 1.759.488 3.094 1.326 4.006.848.911 2.037 1.367 3.568 1.367 1.614 0 3.209-.337 4.786-1.012v2.024c-.802.346-1.564.592-2.284.738-.711.155-1.572.232-2.584.232zm-.615-13.63c-1.203 0-2.165.392-2.885 1.175-.711.784-1.13 1.869-1.257 3.254h7.834c0-1.431-.319-2.524-.957-3.281-.638-.766-1.55-1.148-2.735-1.148zm20.207 11.347h-.123c-1.048 1.522-2.616 2.283-4.703 2.283-1.96 0-3.486-.669-4.58-2.009-1.085-1.34-1.627-3.245-1.627-5.715s.547-4.389 1.641-5.756c1.093-1.367 2.616-2.051 4.566-2.051 2.033 0 3.591.738 4.676 2.215h.178l-.096-1.08-.055-1.053v-6.097h2.27v21.273h-1.846zm-4.539.383c1.55 0 2.671-.419 3.363-1.258.702-.847 1.053-2.21 1.053-4.088v-.478c0-2.124-.355-3.637-1.066-4.539-.702-.912-1.828-1.367-3.377-1.367-1.331 0-2.352.519-3.063 1.558-.702 1.03-1.052 2.488-1.052 4.375 0 1.914.35 3.359 1.052 4.334s1.732 1.463 3.09 1.463z" fill="#fff"/><path d="m586.777 159.936c0-2.826.596-4.929 1.787-6.309 1.198-1.38 2.989-2.07 5.372-2.07.813 0 1.451.048 1.914.146v2.412c-.58-.13-1.153-.195-1.719-.195-1.035 0-1.882.156-2.539.469-.651.312-1.14.774-1.465 1.386-.326.612-.518 1.482-.576 2.608h.127c.644-1.107 1.676-1.66 3.095-1.66 1.276 0 2.276.4 2.998 1.201.723.801 1.084 1.907 1.084 3.32 0 1.524-.429 2.731-1.289 3.623-.859.886-2.05 1.328-3.574 1.328-1.054 0-1.976-.244-2.763-.732-.782-.488-1.387-1.201-1.817-2.139-.423-.937-.635-2.067-.635-3.388zm5.157 3.847c.644 0 1.139-.215 1.484-.644.345-.437.518-1.055.518-1.856 0-.696-.163-1.243-.489-1.64-.319-.404-.804-.606-1.455-.606-.612 0-1.136.199-1.572.596-.43.397-.645.859-.645 1.387 0 .774.202 1.429.606 1.962.41.534.928.801 1.553.801zm11.562-6.904c1.38 0 2.477.387 3.291 1.162.82.775 1.231 1.836 1.231 3.184 0 1.595-.492 2.822-1.475 3.681-.983.86-2.389 1.289-4.219 1.289-1.588 0-2.871-.257-3.847-.771v-2.608c.514.274 1.113.498 1.796.674.684.17 1.332.254 1.944.254 1.842 0 2.763-.755 2.763-2.265 0-1.439-.953-2.159-2.861-2.159-.345 0-.726.036-1.142.108-.417.065-.756.136-1.016.215l-1.201-.645.537-7.275h7.744v2.558h-5.098l-.263 2.803.341-.068c.398-.092.889-.137 1.475-.137z" fill="#fff"/><path clip-rule="evenodd" d="m460.371 204.636 172.497 38.029-.431 1.953-171.975-37.914-86.813 27.355-85.582-27.376-89.122 7.575-88.068 13.671-86.8071 6.078-.1397-1.995 86.7238-6.073 88.052-13.668 89.589-7.615 85.359 27.304z" fill="#009eff" fill-rule="evenodd"/><path d="m110.765 226.934-86.765 6.075v119.991h608.652v-109.359l-172.235-37.971-86.766 27.339-85.47-27.339-89.355 7.594z" fill="url(#b)"/><path d="m266.9 403h-2.324v-17.924h-6.33v-2.064h14.984v2.064h-6.33zm18.36 0-.451-2.133h-.109c-.748.939-1.495 1.577-2.242 1.914-.739.328-1.664.492-2.776.492-1.485 0-2.652-.382-3.5-1.148-.838-.766-1.258-1.855-1.258-3.268 0-3.026 2.42-4.612 7.26-4.757l2.543-.082v-.93c0-1.176-.255-2.042-.765-2.598-.502-.565-1.308-.847-2.42-.847-1.249 0-2.662.382-4.239 1.148l-.697-1.736c.738-.401 1.545-.716 2.42-.944.884-.228 1.768-.341 2.652-.341 1.787 0 3.108.396 3.965 1.189.866.793 1.299 2.064 1.299 3.814v10.227zm-5.127-1.6c1.413 0 2.521-.387 3.323-1.162.811-.774 1.217-1.859 1.217-3.254v-1.353l-2.27.096c-1.805.063-3.108.346-3.91.847-.793.492-1.19 1.263-1.19 2.311 0 .82.246 1.444.739 1.873.501.428 1.198.642 2.091.642zm15.243-6.07-5.209-7.314h2.584l3.951 5.742 3.938-5.742h2.557l-5.209 7.314 5.482 7.67h-2.57l-4.198-6.07-4.238 6.07h-2.57zm36.31-2.351c0 3.199-.811 5.714-2.433 7.546-1.614 1.832-3.86 2.748-6.741 2.748-2.944 0-5.218-.897-6.822-2.693-1.595-1.805-2.392-4.348-2.392-7.629 0-3.254.802-5.774 2.406-7.56 1.604-1.796 3.883-2.694 6.836-2.694 2.871 0 5.113.912 6.726 2.735 1.614 1.823 2.42 4.338 2.42 7.547zm-15.928 0c0 2.707.575 4.762 1.723 6.166 1.158 1.394 2.835 2.091 5.031 2.091 2.215 0 3.888-.697 5.018-2.091 1.13-1.395 1.695-3.45 1.695-6.166 0-2.689-.565-4.726-1.695-6.112-1.121-1.394-2.785-2.092-4.99-2.092-2.215 0-3.901.702-5.059 2.106-1.148 1.394-1.723 3.427-1.723 6.098zm27.165 10.294c-.975 0-1.868-.177-2.68-.533-.802-.364-1.476-.92-2.023-1.668h-.164c.109.875.164 1.705.164 2.489v6.166h-2.269v-21.711h1.845l.315 2.05h.109c.583-.82 1.262-1.412 2.037-1.777s1.664-.547 2.666-.547c1.987 0 3.518.679 4.594 2.037 1.085 1.358 1.627 3.263 1.627 5.715 0 2.461-.552 4.375-1.654 5.742-1.094 1.358-2.616 2.037-4.567 2.037zm-.328-13.603c-1.531 0-2.639.424-3.322 1.271-.684.848-1.035 2.197-1.053 4.047v.506c0 2.106.351 3.614 1.053 4.526.702.902 1.827 1.353 3.377 1.353 1.294 0 2.306-.524 3.035-1.572.738-1.048 1.107-2.493 1.107-4.334 0-1.869-.369-3.3-1.107-4.293-.729-1.003-1.759-1.504-3.09-1.504zm15.503 11.73c.401 0 .788-.027 1.162-.082.373-.063.67-.127.888-.191v1.736c-.246.119-.61.214-1.093.287-.474.082-.903.123-1.285.123-2.899 0-4.348-1.526-4.348-4.58v-8.914h-2.147v-1.093l2.147-.944.957-3.199h1.312v3.473h4.348v1.763h-4.348v8.819c0 .902.215 1.595.643 2.078s1.016.724 1.764.724zm7.463 1.6h-2.269v-14.984h2.269zm-2.461-19.045c0-.519.128-.898.383-1.135.255-.246.574-.369.957-.369.365 0 .679.123.943.369.265.246.397.625.397 1.135s-.132.893-.397 1.149c-.264.246-.578.369-.943.369-.383 0-.702-.123-.957-.369-.255-.256-.383-.639-.383-1.149zm26.509 19.045v-9.748c0-1.194-.255-2.087-.766-2.68-.51-.601-1.303-.902-2.379-.902-1.413 0-2.456.406-3.131 1.217-.674.811-1.011 2.06-1.011 3.746v8.367h-2.27v-9.748c0-1.194-.255-2.087-.766-2.68-.51-.601-1.307-.902-2.392-.902-1.422 0-2.466.428-3.131 1.285-.656.848-.984 2.242-.984 4.184v7.861h-2.27v-14.984h1.846l.369 2.05h.109c.429-.729 1.03-1.298 1.805-1.709.784-.41 1.659-.615 2.625-.615 2.342 0 3.874.848 4.594 2.543h.109c.447-.784 1.094-1.403 1.942-1.859.847-.456 1.813-.684 2.898-.684 1.695 0 2.962.438 3.801 1.313.847.866 1.271 2.256 1.271 4.17v9.775zm9.364 0h-2.27v-14.984h2.27zm-2.461-19.045c0-.519.127-.898.383-1.135.255-.246.574-.369.957-.369.364 0 .679.123.943.369s.396.625.396 1.135-.132.893-.396 1.149c-.264.246-.579.369-.943.369-.383 0-.702-.123-.957-.369-.256-.256-.383-.639-.383-1.149zm16.993 19.045h-10.87v-1.545l8.176-11.676h-7.67v-1.763h10.158v1.763l-8.066 11.457h8.272zm9.979.273c-2.215 0-3.965-.674-5.25-2.023-1.276-1.349-1.914-3.222-1.914-5.619 0-2.416.592-4.334 1.777-5.756 1.194-1.422 2.794-2.133 4.799-2.133 1.877 0 3.363.62 4.457 1.86 1.094 1.23 1.64 2.857 1.64 4.88v1.436h-10.322c.046 1.759.488 3.094 1.326 4.006.848.911 2.038 1.367 3.569 1.367 1.613 0 3.208-.337 4.785-1.012v2.024c-.802.346-1.563.592-2.283.738-.711.155-1.573.232-2.584.232zm-.616-13.63c-1.203 0-2.164.392-2.884 1.175-.711.784-1.13 1.869-1.258 3.254h7.834c0-1.431-.319-2.524-.957-3.281-.638-.766-1.55-1.148-2.735-1.148zm16.98-1.901c.665 0 1.262.055 1.791.164l-.315 2.106c-.62-.137-1.166-.205-1.64-.205-1.213 0-2.252.492-3.118 1.476-.856.985-1.285 2.21-1.285 3.678v8.039h-2.269v-14.984h1.873l.26 2.775h.109c.556-.975 1.226-1.727 2.01-2.256.784-.528 1.645-.793 2.584-.793z" fill="#fff"/><path d="m223.25 388.417v-9.115c0-.719-.56-1.302-1.25-1.302s-1.25.583-1.25 1.302v9.115c0 .718.56 1.302 1.25 1.302s1.25-.584 1.25-1.302zm10 14.323v-11.719c0-.719-.56-1.302-1.25-1.302s-1.25.583-1.25 1.302v11.719c0 .718.56 1.302 1.25 1.302s1.25-.584 1.25-1.302zm10-11.719v-11.719c0-.719-.56-1.302-1.25-1.302s-1.25.583-1.25 1.302v11.719c0 .719.56 1.302 1.25 1.302s1.25-.583 1.25-1.302zm-25 3.906h2.5v7.813c0 .718.56 1.302 1.25 1.302s1.25-.584 1.25-1.302v-7.813h2.5c.69 0 1.25-.583 1.25-1.302s-.56-1.302-1.25-1.302h-7.5c-.69 0-1.25.583-1.25 1.302s.56 1.302 1.25 1.302zm10-7.812h7.5c.69 0 1.25-.584 1.25-1.302 0-.719-.56-1.303-1.25-1.303h-2.5v-5.208c0-.719-.56-1.302-1.25-1.302s-1.25.583-1.25 1.302v5.208h-2.5c-.69 0-1.25.584-1.25 1.303 0 .718.56 1.302 1.25 1.302zm10 10.416h2.5v5.209c0 .718.56 1.302 1.25 1.302s1.25-.584 1.25-1.302v-5.209h2.5c.69 0 1.25-.583 1.25-1.302s-.56-1.302-1.25-1.302h-7.5c-.69 0-1.25.583-1.25 1.302s.56 1.302 1.25 1.302z" fill="#fff"/><path d="m185.153 459.702c0 2.556-.42 4.447-1.261 5.675-.834 1.228-2.122 1.842-3.864 1.842-1.688 0-2.963-.634-3.824-1.902-.854-1.268-1.281-3.14-1.281-5.615 0-2.583.417-4.485 1.251-5.706.834-1.228 2.119-1.842 3.854-1.842 1.688 0 2.963.641 3.824 1.922.867 1.281 1.301 3.157 1.301 5.626zm-7.157 0c0 1.795.153 3.083.46 3.863.314.775.838 1.162 1.572 1.162.721 0 1.241-.394 1.562-1.182.32-.787.48-2.068.48-3.843 0-1.795-.164-3.083-.49-3.864-.321-.787-.838-1.181-1.552-1.181-.727 0-1.248.394-1.562 1.181-.313.781-.47 2.069-.47 3.864zm9.704 5.885c0-.56.15-.984.451-1.271.3-.287.737-.43 1.311-.43.554 0 .981.147 1.281.44.307.294.461.714.461 1.261 0 .528-.154.945-.461 1.252-.307.3-.734.45-1.281.45-.561 0-.994-.147-1.301-.44-.307-.301-.461-.721-.461-1.262zm11.456-7.917c1.415 0 2.539.397 3.374 1.191.84.794 1.261 1.882 1.261 3.263 0 1.635-.504 2.893-1.512 3.774-1.007.881-2.449 1.321-4.324 1.321-1.628 0-2.943-.264-3.944-.791v-2.672c.527.28 1.141.51 1.842.69.701.174 1.365.261 1.992.261 1.888 0 2.833-.774 2.833-2.323 0-1.474-.978-2.212-2.933-2.212-.354 0-.744.037-1.171.11-.427.067-.774.14-1.041.221l-1.231-.661.55-7.457h7.938v2.622h-5.225l-.271 2.873.351-.07c.407-.094.911-.14 1.511-.14zm17.192.961c0 2.882-.607 5.035-1.822 6.456-1.214 1.421-3.053 2.132-5.515 2.132-.868 0-1.525-.047-1.972-.14v-2.483c.56.141 1.148.211 1.761.211 1.035 0 1.886-.15 2.553-.451.667-.307 1.178-.784 1.531-1.431.354-.654.558-1.552.611-2.693h-.12c-.387.628-.834 1.068-1.341 1.322-.508.253-1.142.38-1.902.38-1.275 0-2.279-.407-3.013-1.221-.734-.821-1.101-1.959-1.101-3.414 0-1.568.444-2.806 1.331-3.713.894-.914 2.109-1.372 3.644-1.372 1.081 0 2.025.254 2.832.761.814.507 1.438 1.245 1.872 2.212.434.961.651 2.109.651 3.444zm-5.295-3.934c-.641 0-1.141.22-1.502.66-.36.441-.54 1.075-.54 1.902 0 .708.163 1.268.49 1.682s.824.621 1.492.621c.627 0 1.164-.204 1.611-.611.447-.414.671-.888.671-1.421 0-.795-.21-1.465-.631-2.012-.414-.548-.944-.821-1.591-.821zm12.517-2.503c1.401 0 2.529.321 3.383.961.861.634 1.291 1.492 1.291 2.573 0 .747-.207 1.415-.62 2.002-.414.58-1.081 1.101-2.002 1.561 1.094.588 1.878 1.201 2.352 1.842.48.634.721 1.331.721 2.092 0 1.201-.471 2.169-1.412 2.903-.941.727-2.179 1.091-3.713 1.091-1.602 0-2.86-.34-3.774-1.021s-1.371-1.645-1.371-2.893c0-.834.22-1.575.66-2.222.447-.647 1.161-1.218 2.142-1.712-.834-.527-1.434-1.091-1.801-1.691-.367-.601-.551-1.258-.551-1.972 0-1.048.434-1.895 1.301-2.543.868-.647 1.999-.971 3.394-.971zm-2.283 10.931c0 .574.201 1.021.601 1.341.4.321.948.481 1.642.481.767 0 1.341-.164 1.721-.491.381-.333.571-.77.571-1.311 0-.447-.19-.864-.571-1.251-.373-.394-.984-.811-1.831-1.251-1.422.654-2.133 1.481-2.133 2.482zm2.263-8.668c-.528 0-.955.136-1.282.41-.32.267-.48.627-.48 1.081 0 .4.127.761.38 1.081.261.314.728.637 1.402.971.654-.307 1.111-.621 1.371-.941s.39-.691.39-1.111c0-.46-.166-.824-.5-1.091s-.761-.4-1.281-.4zm14.303-2.072h4.555c2.075 0 3.58.297 4.514.89.941.588 1.411 1.525 1.411 2.813 0 .874-.206 1.592-.62 2.152-.407.561-.951.898-1.632 1.011v.1c.928.207 1.595.594 2.002 1.162.414.567.621 1.321.621 2.262 0 1.334-.484 2.375-1.452 3.123-.961.747-2.269 1.121-3.923 1.121h-5.476zm3.103 5.795h1.802c.841 0 1.448-.13 1.822-.39.38-.26.57-.691.57-1.291 0-.561-.207-.961-.62-1.202-.407-.246-1.055-.37-1.942-.37h-1.632zm0 2.463v3.813h2.022c.854 0 1.485-.163 1.892-.49s.611-.828.611-1.502c0-1.214-.868-1.821-2.603-1.821zm16.952 6.376h-3.103v-12.052h-3.974v-2.582h11.05v2.582h-3.973zm13.077-12.262c-1.168 0-2.072.44-2.713 1.321-.64.874-.96 2.096-.96 3.664 0 3.263 1.224 4.895 3.673 4.895 1.028 0 2.272-.257 3.734-.771v2.602c-1.201.501-2.543.751-4.024.751-2.129 0-3.757-.644-4.885-1.932-1.128-1.294-1.692-3.15-1.692-5.565 0-1.522.277-2.853.831-3.994.554-1.148 1.348-2.025 2.383-2.633 1.041-.614 2.258-.921 3.653-.921 1.421 0 2.85.344 4.284 1.031l-1.001 2.523c-.547-.26-1.097-.487-1.651-.681-.554-.193-1.098-.29-1.632-.29z" fill="#fff"/><path d="m288.266 465.848c.293 0 .577-.02.851-.06.273-.047.49-.094.65-.14v1.271c-.18.087-.447.157-.801.21-.347.06-.66.09-.94.09-2.123 0-3.184-1.118-3.184-3.353v-6.527h-1.571v-.8l1.571-.691.701-2.342h.961v2.542h3.183v1.291h-3.183v6.457c0 .66.157 1.168.471 1.521.313.354.744.531 1.291.531zm13.808-4.325c0 1.789-.45 3.187-1.351 4.195-.901 1.001-2.146 1.501-3.734 1.501-.981 0-1.852-.23-2.612-.691-.761-.46-1.348-1.121-1.762-1.982-.414-.86-.621-1.868-.621-3.023 0-1.788.447-3.179 1.342-4.174.894-1.001 2.135-1.501 3.723-1.501 1.535 0 2.753.51 3.654 1.531.907 1.021 1.361 2.403 1.361 4.144zm-8.358 0c0 1.402.28 2.47.841 3.204.56.734 1.384 1.101 2.472 1.101s1.912-.364 2.473-1.091c.567-.734.85-1.805.85-3.214 0-1.394-.283-2.452-.85-3.173-.561-.727-1.392-1.091-2.493-1.091-1.088 0-1.908.357-2.462 1.071s-.831 1.779-.831 3.193zm19.829-.59v6.086h-1.702v-14.634h4.014c1.795 0 3.12.343 3.974 1.031.861.687 1.291 1.721 1.291 3.103 0 1.935-.981 3.243-2.943 3.923l3.974 6.577h-2.012l-3.543-6.086zm0-1.462h2.332c1.201 0 2.082-.236 2.643-.71.56-.481.841-1.198.841-2.152 0-.968-.287-1.665-.861-2.092-.568-.427-1.482-.641-2.743-.641h-2.212zm15.99 7.748c-1.621 0-2.903-.494-3.844-1.481-.934-.988-1.401-2.359-1.401-4.114 0-1.769.434-3.173 1.301-4.215.875-1.041 2.046-1.561 3.514-1.561 1.374 0 2.462.454 3.263 1.361.801.901 1.201 2.092 1.201 3.574v1.051h-7.557c.033 1.288.357 2.265.971 2.933.62.667 1.491 1.001 2.612 1.001 1.181 0 2.349-.247 3.504-.741v1.481c-.588.254-1.145.434-1.672.541-.52.113-1.151.17-1.892.17zm-.45-9.98c-.881 0-1.585.287-2.112.861-.521.574-.828 1.368-.921 2.382h5.735c0-1.047-.233-1.848-.7-2.402-.467-.56-1.135-.841-2.002-.841zm15.43 8.308h-.09c-.768 1.115-1.916 1.672-3.444 1.672-1.435 0-2.552-.49-3.353-1.471-.794-.981-1.191-2.376-1.191-4.184 0-1.809.4-3.214 1.201-4.215s1.915-1.501 3.343-1.501c1.488 0 2.629.54 3.424 1.622h.13l-.07-.791-.04-.771v-4.464h1.661v15.575h-1.351zm-3.324.281c1.135 0 1.956-.307 2.463-.921.514-.621.771-1.618.771-2.993v-.35c0-1.555-.261-2.663-.781-3.324-.514-.667-1.338-1.001-2.473-1.001-.974 0-1.721.381-2.242 1.141-.514.755-.771 1.822-.771 3.204 0 1.401.257 2.459.771 3.173s1.268 1.071 2.262 1.071zm10.626-9.78v7.117c0 .894.203 1.562.61 2.002s1.045.661 1.912.661c1.148 0 1.985-.314 2.512-.941.534-.627.801-1.652.801-3.073v-5.766h1.662v10.971h-1.371l-.241-1.472h-.09c-.34.541-.814.955-1.421 1.242-.601.287-1.288.43-2.062.43-1.335 0-2.336-.317-3.003-.951-.661-.634-.991-1.648-.991-3.043v-7.177zm16.05 11.171c-1.588 0-2.819-.487-3.694-1.461-.867-.981-1.301-2.366-1.301-4.154 0-1.836.441-3.254 1.321-4.255.888-1.001 2.149-1.501 3.784-1.501.527 0 1.054.057 1.582.17.527.114.941.247 1.241.401l-.511 1.411c-.367-.147-.767-.267-1.201-.36-.434-.101-.817-.151-1.151-.151-2.229 0-3.343 1.422-3.343 4.265 0 1.348.27 2.382.811 3.103.547.72 1.354 1.081 2.422 1.081.914 0 1.852-.197 2.813-.591v1.471c-.734.381-1.659.571-2.773.571zm10.655 0c-1.621 0-2.903-.494-3.844-1.481-.934-.988-1.401-2.359-1.401-4.114 0-1.769.434-3.173 1.301-4.215.875-1.041 2.046-1.561 3.514-1.561 1.374 0 2.462.454 3.263 1.361.801.901 1.201 2.092 1.201 3.574v1.051h-7.557c.033 1.288.357 2.265.971 2.933.62.667 1.491 1.001 2.612 1.001 1.181 0 2.349-.247 3.504-.741v1.481c-.588.254-1.145.434-1.672.541-.52.113-1.151.17-1.892.17zm-.45-9.98c-.881 0-1.585.287-2.112.861-.521.574-.828 1.368-.921 2.382h5.735c0-1.047-.233-1.848-.7-2.402-.467-.56-1.135-.841-2.002-.841zm12.181-1.191h1.782l2.402 6.256c.528 1.428.855 2.459.981 3.093h.08c.087-.34.267-.921.541-1.741.28-.828 1.188-3.364 2.723-7.608h1.781l-4.714 12.492c-.467 1.235-1.015 2.109-1.642 2.623-.621.52-1.385.781-2.292.781-.507 0-1.008-.057-1.502-.171v-1.331c.367.08.778.12 1.232.12 1.141 0 1.955-.64 2.442-1.922l.611-1.561zm22.177 5.475c0 1.789-.451 3.187-1.352 4.195-.901 1.001-2.145 1.501-3.733 1.501-.981 0-1.852-.23-2.613-.691-.761-.46-1.348-1.121-1.762-1.982-.413-.86-.62-1.868-.62-3.023 0-1.788.447-3.179 1.341-4.174.894-1.001 2.136-1.501 3.724-1.501 1.535 0 2.752.51 3.653 1.531.908 1.021 1.362 2.403 1.362 4.144zm-8.358 0c0 1.402.28 2.47.84 3.204.561.734 1.385 1.101 2.473 1.101 1.087 0 1.912-.364 2.472-1.091.567-.734.851-1.805.851-3.214 0-1.394-.284-2.452-.851-3.173-.56-.727-1.391-1.091-2.492-1.091-1.088 0-1.909.357-2.463 1.071s-.83 1.779-.83 3.193zm13.477-5.475v7.117c0 .894.204 1.562.611 2.002s1.044.661 1.912.661c1.148 0 1.985-.314 2.512-.941.534-.627.801-1.652.801-3.073v-5.766h1.662v10.971h-1.372l-.24-1.472h-.09c-.34.541-.814.955-1.421 1.242-.601.287-1.288.43-2.062.43-1.335 0-2.336-.317-3.003-.951-.661-.634-.991-1.648-.991-3.043v-7.177zm16.672-.2c.487 0 .924.04 1.311.12l-.23 1.542c-.454-.101-.855-.151-1.202-.151-.887 0-1.648.361-2.282 1.081-.627.721-.941 1.619-.941 2.693v5.886h-1.661v-10.971h1.371l.19 2.032h.08c.407-.714.898-1.264 1.472-1.651.574-.388 1.204-.581 1.892-.581zm14.713 11.171h-1.701v-13.123h-4.635v-1.511h10.971v1.511h-4.635zm13.979 0-.33-1.562h-.08c-.548.688-1.095 1.155-1.642 1.402-.541.24-1.218.36-2.032.36-1.088 0-1.942-.28-2.563-.841-.613-.56-.92-1.358-.92-2.392 0-2.216 1.771-3.377 5.315-3.483l1.862-.061v-.68c0-.861-.187-1.495-.561-1.902-.367-.414-.958-.621-1.772-.621-.914 0-1.948.281-3.103.841l-.51-1.271c.54-.294 1.131-.524 1.771-.691.648-.167 1.295-.25 1.942-.25 1.308 0 2.276.29 2.903.871.634.58.951 1.511.951 2.793v7.487zm-3.754-1.171c1.035 0 1.845-.284 2.433-.851.594-.567.89-1.361.89-2.382v-.991l-1.661.07c-1.321.046-2.276.253-2.863.62-.58.361-.871.925-.871 1.692 0 .601.18 1.058.541 1.371.367.314.877.471 1.531.471zm11.696-4.445-3.813-5.355h1.892l2.892 4.204 2.883-4.204h1.872l-3.814 5.355 4.014 5.616h-1.882l-3.073-4.444-3.103 4.444h-1.881zm15.49 5.616-.33-1.562h-.08c-.547.688-1.094 1.155-1.642 1.402-.54.24-1.217.36-2.032.36-1.087 0-1.941-.28-2.562-.841-.614-.56-.921-1.358-.921-2.392 0-2.216 1.772-3.377 5.315-3.483l1.862-.061v-.68c0-.861-.187-1.495-.561-1.902-.367-.414-.957-.621-1.771-.621-.914 0-1.949.281-3.103.841l-.511-1.271c.541-.294 1.131-.524 1.772-.691.647-.167 1.295-.25 1.942-.25 1.308 0 2.275.29 2.903.871.634.58.951 1.511.951 2.793v7.487zm-3.753-1.171c1.034 0 1.845-.284 2.432-.851.594-.567.891-1.361.891-2.382v-.991l-1.662.07c-1.321.046-2.275.253-2.862.62-.581.361-.871.925-.871 1.692 0 .601.18 1.058.54 1.371.367.314.878.471 1.532.471zm14.158-9.98c1.442 0 2.559.494 3.354 1.481.8.981 1.201 2.373 1.201 4.174 0 1.802-.404 3.204-1.211 4.205-.801.994-1.916 1.491-3.344 1.491-.714 0-1.368-.13-1.962-.39-.587-.267-1.081-.674-1.481-1.222h-.12l-.35 1.412h-1.192v-15.575h1.662v3.783c0 .848-.027 1.609-.08 2.283h.08c.774-1.095 1.922-1.642 3.443-1.642zm-.24 1.391c-1.134 0-1.952.327-2.452.981-.501.648-.751 1.742-.751 3.283 0 1.542.257 2.646.771 3.314.514.66 1.338.991 2.472.991 1.021 0 1.782-.371 2.282-1.111.501-.748.751-1.819.751-3.214 0-1.428-.25-2.492-.751-3.193-.5-.7-1.274-1.051-2.322-1.051zm10.005 9.76h-1.662v-15.575h1.662zm8.793.2c-1.622 0-2.903-.494-3.844-1.481-.934-.988-1.401-2.359-1.401-4.114 0-1.769.434-3.173 1.301-4.215.874-1.041 2.046-1.561 3.514-1.561 1.374 0 2.462.454 3.263 1.361.801.901 1.201 2.092 1.201 3.574v1.051h-7.557c.033 1.288.357 2.265.971 2.933.62.667 1.491 1.001 2.612 1.001 1.181 0 2.349-.247 3.504-.741v1.481c-.588.254-1.145.434-1.672.541-.521.113-1.151.17-1.892.17zm-.45-9.98c-.881 0-1.585.287-2.112.861-.521.574-.828 1.368-.921 2.382h5.735c0-1.047-.233-1.848-.7-2.402-.468-.56-1.135-.841-2.002-.841zm20.609 2.112h4.975v7.117c-.774.247-1.561.434-2.362.561s-1.729.19-2.783.19c-2.215 0-3.94-.657-5.175-1.972-1.234-1.321-1.852-3.17-1.852-5.545 0-1.522.304-2.853.911-3.994.614-1.148 1.495-2.022 2.643-2.623 1.148-.607 2.492-.911 4.034-.911 1.561 0 3.016.287 4.364.861l-.661 1.502c-1.321-.561-2.592-.841-3.813-.841-1.782 0-3.174.53-4.175 1.591-1 1.061-1.501 2.533-1.501 4.415 0 1.975.48 3.473 1.441 4.494.968 1.021 2.386 1.532 4.255 1.532 1.014 0 2.005-.117 2.972-.351v-4.504h-3.273zm15.63 7.668-.33-1.562h-.08c-.547.688-1.094 1.155-1.642 1.402-.54.24-1.218.36-2.032.36-1.087 0-1.942-.28-2.562-.841-.614-.56-.921-1.358-.921-2.392 0-2.216 1.772-3.377 5.315-3.483l1.862-.061v-.68c0-.861-.187-1.495-.561-1.902-.367-.414-.957-.621-1.771-.621-.915 0-1.949.281-3.103.841l-.511-1.271c.541-.294 1.131-.524 1.772-.691.647-.167 1.294-.25 1.942-.25 1.308 0 2.275.29 2.903.871.634.58.951 1.511.951 2.793v7.487zm-3.753-1.171c1.034 0 1.845-.284 2.432-.851.594-.567.891-1.361.891-2.382v-.991l-1.662.07c-1.321.046-2.275.253-2.863.62-.58.361-.87.925-.87 1.692 0 .601.18 1.058.54 1.371.367.314.878.471 1.532.471zm10.715 1.171h-1.662v-10.971h1.662zm-1.802-13.944c0-.38.094-.657.28-.831.187-.18.421-.27.701-.27.267 0 .497.09.691.27.193.181.29.458.29.831 0 .374-.097.654-.29.841-.194.18-.424.27-.691.27-.28 0-.514-.09-.701-.27-.186-.187-.28-.467-.28-.841zm13.468 13.944v-7.097c0-.894-.203-1.562-.61-2.002-.408-.44-1.045-.661-1.912-.661-1.148 0-1.989.311-2.523.931-.534.621-.801 1.645-.801 3.073v5.756h-1.661v-10.971h1.351l.27 1.502h.08c.341-.541.818-.958 1.432-1.252.614-.3 1.298-.45 2.052-.45 1.321 0 2.315.32 2.983.961.667.634 1.001 1.652 1.001 3.053v7.157zm12.797-2.993c0 1.021-.38 1.808-1.141 2.362-.76.554-1.828.831-3.203.831-1.455 0-2.589-.23-3.403-.691v-1.541c.527.267 1.091.477 1.691.63.608.154 1.192.231 1.752.231.868 0 1.535-.137 2.002-.411.467-.28.701-.704.701-1.271 0-.427-.187-.791-.561-1.091-.367-.307-1.087-.667-2.162-1.081-1.021-.38-1.748-.711-2.182-.991-.427-.287-.747-.611-.961-.971-.207-.36-.31-.791-.31-1.291 0-.894.363-1.598 1.091-2.112.727-.521 1.725-.781 2.993-.781 1.181 0 2.335.24 3.463.721l-.59 1.351c-1.102-.454-2.099-.681-2.993-.681-.788 0-1.382.124-1.782.371s-.601.587-.601 1.021c0 .293.074.544.221.75.153.207.397.404.73.591.334.187.975.457 1.922.811 1.301.474 2.179.951 2.633 1.431.46.481.69 1.085.69 1.812zm14.414-8.158c1.441 0 2.559.494 3.353 1.481.801.981 1.201 2.373 1.201 4.174 0 1.802-.403 3.204-1.211 4.205-.8.994-1.915 1.491-3.343 1.491-.714 0-1.368-.13-1.962-.39-.587-.267-1.081-.674-1.481-1.222h-.12l-.351 1.412h-1.191v-15.575h1.662v3.783c0 .848-.027 1.609-.08 2.283h.08c.774-1.095 1.922-1.642 3.443-1.642zm-.24 1.391c-1.135 0-1.952.327-2.453.981-.5.648-.75 1.742-.75 3.283 0 1.542.257 2.646.77 3.314.514.66 1.338.991 2.473.991 1.021 0 1.782-.371 2.282-1.111.501-.748.751-1.819.751-3.214 0-1.428-.25-2.492-.751-3.193-.5-.7-1.275-1.051-2.322-1.051zm6.601-1.211h1.782l2.402 6.256c.527 1.428.854 2.459.981 3.093h.08c.087-.34.267-.921.541-1.741.28-.828 1.187-3.364 2.722-7.608h1.782l-4.715 12.492c-.467 1.235-1.014 2.109-1.641 2.623-.621.52-1.385.781-2.292.781-.508 0-1.008-.057-1.502-.171v-1.331c.367.08.778.12 1.231.12 1.141 0 1.956-.64 2.443-1.922l.61-1.561z" fill="#fff"/><path d="m49.8882 463.125c0 1.288-.4671 2.292-1.4014 3.013-.9342.721-2.2021 1.081-3.8037 1.081-1.735 0-3.0697-.223-4.0039-.671v-1.641c.6006.253 1.2546.454 1.9619.6.7074.147 1.4081.221 2.1021.221 1.1344 0 1.9886-.214 2.5625-.641.5739-.434.8608-1.034.8608-1.802 0-.507-.1034-.921-.3103-1.241-.2002-.327-.5405-.627-1.021-.901-.4738-.273-1.1978-.584-2.1721-.931-1.3613-.487-2.3356-1.064-2.9229-1.731-.5805-.668-.8708-1.539-.8708-2.613 0-1.128.4237-2.025 1.2712-2.693.8475-.667 1.9686-1.001 3.3633-1.001 1.4548 0 2.7927.267 4.0139.801l-.5305 1.482c-1.2078-.508-2.3823-.761-3.5234-.761-.9009 0-1.6049.193-2.1121.58s-.7607.925-.7607 1.612c0 .507.0934.924.2802 1.251.1869.321.5005.617.941.891.4471.267 1.1277.564 2.0419.891 1.5349.547 2.5892 1.134 3.1631 1.762.5806.627.8709 1.441.8709 2.442zm8.0126 4.094c-1.6216 0-2.9028-.494-3.8438-1.481-.9342-.988-1.4013-2.359-1.4013-4.114 0-1.769.4337-3.173 1.3013-4.215.8741-1.041 2.0453-1.561 3.5134-1.561 1.3747 0 2.4624.454 3.2632 1.361.8007.901 1.2011 2.092 1.2011 3.574v1.051h-7.5573c.0333 1.288.357 2.265.9709 2.933.6206.667 1.4915 1.001 2.6126 1.001 1.1811 0 2.3489-.247 3.5034-.741v1.481c-.5873.254-1.1445.434-1.6717.541-.5205.113-1.1511.17-1.8918.17zm-.4504-9.98c-.8809 0-1.5849.287-2.1121.861-.5205.574-.8275 1.368-.9209 2.382h5.7356c0-1.047-.2336-1.848-.7007-2.402-.4671-.56-1.1344-.841-2.0019-.841zm9.6241 9.78h-1.6616v-15.575h1.6616zm5.8205 0h-1.6616v-15.575h1.6616zm19.5887-5.496c0 1.789-.4504 3.187-1.3513 4.195-.9009 1.001-2.1454 1.501-3.7336 1.501-.981 0-1.8518-.23-2.6126-.691-.7607-.46-1.348-1.121-1.7617-1.982-.4137-.86-.6206-1.868-.6206-3.023 0-1.788.4471-3.179 1.3413-4.174.8942-1.001 2.1354-1.501 3.7236-1.501 1.5349 0 2.7527.51 3.6536 1.531.9075 1.021 1.3613 2.403 1.3613 4.144zm-8.3581 0c0 1.402.2802 2.47.8408 3.204.5605.734 1.3847 1.101 2.4724 1.101s1.9119-.364 2.4724-1.091c.5672-.734.8508-1.805.8508-3.214 0-1.394-.2836-2.452-.8508-3.173-.5605-.727-1.3913-1.091-2.4924-1.091-1.0877 0-1.9085.357-2.4624 1.071s-.8308 1.779-.8308 3.193zm16.9214-5.675c.487 0 .924.04 1.311.12l-.23 1.542c-.454-.101-.854-.151-1.201-.151-.888 0-1.6485.361-2.2825 1.081-.6272.721-.9409 1.619-.9409 2.693v5.886h-1.6616v-10.971h1.3713l.1902 2.032h.0801c.4071-.714.8975-1.264 1.4714-1.651.5739-.388 1.205-.581 1.892-.581zm14.714 11.171h-1.702v-13.123h-4.634v-1.511h10.97v1.511h-4.634zm12.237-11.171c.487 0 .924.04 1.311.12l-.23 1.542c-.454-.101-.855-.151-1.202-.151-.887 0-1.648.361-2.282 1.081-.627.721-.941 1.619-.941 2.693v5.886h-1.661v-10.971h1.371l.19 2.032h.08c.407-.714.898-1.264 1.472-1.651.574-.388 1.204-.581 1.892-.581zm10.745 11.171-.33-1.562h-.081c-.547.688-1.094 1.155-1.641 1.402-.541.24-1.218.36-2.032.36-1.088 0-1.942-.28-2.563-.841-.614-.56-.921-1.358-.921-2.392 0-2.216 1.772-3.377 5.316-3.483l1.861-.061v-.68c0-.861-.186-1.495-.56-1.902-.367-.414-.958-.621-1.772-.621-.914 0-1.948.281-3.103.841l-.51-1.271c.54-.294 1.131-.524 1.771-.691.648-.167 1.295-.25 1.942-.25 1.308 0 2.276.29 2.903.871.634.58.951 1.511.951 2.793v7.487zm-3.754-1.171c1.035 0 1.845-.284 2.433-.851.593-.567.89-1.361.89-2.382v-.991l-1.661.07c-1.321.046-2.276.253-2.863.62-.581.361-.871.925-.871 1.692 0 .601.18 1.058.541 1.371.367.314.877.471 1.531.471zm16.521-.301h-.09c-.767 1.115-1.915 1.672-3.443 1.672-1.435 0-2.553-.49-3.354-1.471-.794-.981-1.191-2.376-1.191-4.184 0-1.809.401-3.214 1.201-4.215.801-1.001 1.916-1.501 3.344-1.501 1.488 0 2.629.54 3.423 1.622h.13l-.07-.791-.04-.771v-4.464h1.662v15.575h-1.352zm-3.323.281c1.134 0 1.955-.307 2.462-.921.514-.621.771-1.618.771-2.993v-.35c0-1.555-.26-2.663-.781-3.324-.514-.667-1.338-1.001-2.472-1.001-.974 0-1.722.381-2.242 1.141-.514.755-.771 1.822-.771 3.204 0 1.401.257 2.459.771 3.173.513.714 1.268 1.071 2.262 1.071zm13.698 1.391c-1.622 0-2.903-.494-3.844-1.481-.934-.988-1.401-2.359-1.401-4.114 0-1.769.434-3.173 1.301-4.215.874-1.041 2.045-1.561 3.514-1.561 1.374 0 2.462.454 3.263 1.361.801.901 1.201 2.092 1.201 3.574v1.051h-7.557c.033 1.288.357 2.265.971 2.933.62.667 1.491 1.001 2.612 1.001 1.181 0 2.349-.247 3.503-.741v1.481c-.587.254-1.144.434-1.671.541-.521.113-1.151.17-1.892.17zm-.45-9.98c-.881 0-1.585.287-2.112.861-.521.574-.828 1.368-.921 2.382h5.735c0-1.047-.233-1.848-.7-2.402-.468-.56-1.135-.841-2.002-.841z" fill="#fff"/><rect fill="#767676" height="274" rx="4" width="330" x="641" y="79"/><g fill="#fff"><path clip-rule="evenodd" d="m952 209h-290c-1.105 0-2 .895-2 2v49c0 1.105.895 2 2 2h290c1.105 0 2-.895 2-2v-49c0-1.105-.895-2-2-2zm-290-2c-2.209 0-4 1.791-4 4v49c0 2.209 1.791 4 4 4h290c2.209 0 4-1.791 4-4v-49c0-2.209-1.791-4-4-4z" fill-rule="evenodd"/><path d="m705 235.5c0-2.097-.417-4.1-1.174-5.928-.786-1.898-1.937-3.604-3.365-5.032-1.427-1.427-3.133-2.58-5.032-3.365-1.829-.758-3.832-1.175-5.929-1.175s-4.1.417-5.928 1.174c-1.898.786-3.604 1.937-5.032 3.366-1.427 1.429-2.58 3.134-3.366 5.032-.757 1.828-1.174 3.831-1.174 5.928s.417 4.1 1.174 5.928c.786 1.898 1.937 3.604 3.365 5.032 1.427 1.427 3.133 2.58 5.032 3.365 1.829.758 3.832 1.175 5.929 1.175s4.1-.417 5.928-1.174c1.898-.786 3.604-1.937 5.032-3.365 1.427-1.427 2.58-3.133 3.365-5.032.758-1.829 1.175-3.832 1.175-5.929zm-2.818 0c0 1.72-.343 3.358-.96 4.85-.642 1.552-1.584 2.948-2.755 4.117-1.17 1.17-2.567 2.113-4.117 2.755-1.492.617-3.129.96-4.85.96-1.72 0-3.358-.343-4.85-.96-1.551-.642-2.948-1.584-4.117-2.755-1.171-1.171-2.113-2.567-2.755-4.117-.617-1.492-.96-3.13-.96-4.85s.343-3.358.96-4.85c.642-1.552 1.584-2.948 2.755-4.117 1.171-1.17 2.567-2.113 4.117-2.755 1.492-.617 3.13-.96 4.85-.96 1.721 0 3.358.343 4.85.96 1.552.642 2.948 1.584 4.117 2.755 1.171 1.17 2.113 2.567 2.755 4.117.617 1.492.96 3.13.96 4.85zm-14.091-5.636v7.871l-3.231-3.231c-.551-.551-1.443-.551-1.993 0-.549.551-.551 1.443 0 1.992l5.637 5.637c.135.135.291.236.458.305.169.069.348.106.527.107h.022c.179-.001.36-.036.527-.107.167-.069.323-.17.458-.305l5.637-5.637c.551-.551.551-1.443 0-1.992-.551-.55-1.443-.551-1.993 0l-3.231 3.231v-7.871c0-.778-.631-1.409-1.409-1.409s-1.409.631-1.409 1.409z"/><path d="m738.367 235.542c0 3.064-.833 5.408-2.501 7.033-1.659 1.617-4.05 2.425-7.173 2.425h-5.141v-18.561h5.687c2.886 0 5.129.8 6.729 2.4 1.599 1.599 2.399 3.834 2.399 6.703zm-2.285.076c0-2.42-.609-4.244-1.828-5.472-1.21-1.227-3.013-1.84-5.408-1.84h-3.136v14.828h2.628c2.573 0 4.507-.631 5.802-1.892 1.295-1.269 1.942-3.144 1.942-5.624z"/><path d="m754.346 238.03c0 2.269-.571 4.042-1.714 5.32-1.142 1.269-2.721 1.904-4.735 1.904-1.244 0-2.348-.292-3.313-.876s-1.71-1.422-2.235-2.514c-.524-1.092-.787-2.37-.787-3.834 0-2.268.567-4.033 1.701-5.294 1.134-1.269 2.709-1.904 4.723-1.904 1.947 0 3.491.647 4.634 1.942 1.151 1.295 1.726 3.047 1.726 5.256zm-10.6 0c0 1.778.355 3.132 1.066 4.063s1.756 1.396 3.136 1.396c1.379 0 2.425-.461 3.136-1.384.719-.931 1.079-2.289 1.079-4.075 0-1.769-.36-3.11-1.079-4.024-.711-.923-1.765-1.384-3.161-1.384-1.38 0-2.421.453-3.124 1.358-.702.906-1.053 2.256-1.053 4.05z"/><path d="m769.551 245-2.552-8.163c-.16-.499-.461-1.634-.901-3.402h-.102c-.338 1.481-.634 2.623-.888 3.427l-2.628 8.138h-2.438l-3.796-13.914h2.209c.898 3.495 1.579 6.157 2.044 7.985.474 1.828.745 3.06.813 3.695h.101c.094-.483.242-1.105.445-1.867.211-.77.393-1.379.546-1.828l2.551-7.985h2.286l2.488 7.985c.474 1.456.795 2.679.965 3.669h.101c.034-.304.123-.774.267-1.409.152-.635 1.037-4.05 2.653-10.245h2.184l-3.847 13.914z"/><path d="m788.082 245v-9.001c0-1.134-.258-1.98-.774-2.539-.517-.559-1.325-.838-2.425-.838-1.456 0-2.522.394-3.199 1.181s-1.016 2.086-1.016 3.897v7.3h-2.107v-13.914h1.713l.343 1.904h.102c.431-.685 1.037-1.214 1.815-1.587.779-.381 1.646-.571 2.603-.571 1.675 0 2.937.406 3.783 1.219.846.804 1.269 2.095 1.269 3.872v9.077z"/><path d="m796.774 245h-2.107v-19.754h2.107z"/><path d="m813.388 238.03c0 2.269-.571 4.042-1.714 5.32-1.142 1.269-2.721 1.904-4.735 1.904-1.244 0-2.349-.292-3.314-.876s-1.709-1.422-2.234-2.514-.787-2.37-.787-3.834c0-2.268.567-4.033 1.701-5.294 1.134-1.269 2.708-1.904 4.723-1.904 1.946 0 3.491.647 4.633 1.942 1.152 1.295 1.727 3.047 1.727 5.256zm-10.601 0c0 1.778.356 3.132 1.067 4.063s1.756 1.396 3.136 1.396c1.379 0 2.424-.461 3.135-1.384.72-.931 1.079-2.289 1.079-4.075 0-1.769-.359-3.11-1.079-4.024-.711-.923-1.764-1.384-3.161-1.384-1.379 0-2.42.453-3.123 1.358-.702.906-1.054 2.256-1.054 4.05z"/><path d="m825.787 245-.419-1.98h-.101c-.694.871-1.388 1.464-2.082 1.777-.686.305-1.545.457-2.578.457-1.379 0-2.462-.356-3.25-1.066-.778-.711-1.168-1.723-1.168-3.035 0-2.81 2.248-4.282 6.742-4.418l2.361-.076v-.863c0-1.092-.237-1.896-.711-2.412-.465-.525-1.214-.787-2.247-.787-1.16 0-2.471.355-3.936 1.066l-.647-1.612c.686-.373 1.435-.665 2.247-.876.821-.212 1.642-.318 2.463-.318 1.659 0 2.886.369 3.682 1.105.804.736 1.206 1.917 1.206 3.542v9.496zm-4.761-1.485c1.312 0 2.341-.36 3.085-1.079.754-.72 1.13-1.727 1.13-3.022v-1.257l-2.107.089c-1.676.059-2.886.322-3.631.787-.736.457-1.105 1.172-1.105 2.146 0 .761.229 1.341.686 1.739.465.398 1.113.597 1.942.597z"/><path d="m841.309 243.134h-.114c-.973 1.413-2.429 2.12-4.367 2.12-1.82 0-3.238-.622-4.253-1.866-1.007-1.244-1.511-3.013-1.511-5.307s.508-4.075 1.524-5.345c1.015-1.269 2.429-1.904 4.24-1.904 1.887 0 3.334.686 4.342 2.057h.165l-.089-1.003-.051-.978v-5.662h2.107v19.754h-1.713zm-4.215.355c1.439 0 2.48-.389 3.123-1.168.652-.787.978-2.052.978-3.796v-.444c0-1.972-.33-3.377-.99-4.215-.652-.846-1.697-1.269-3.136-1.269-1.236 0-2.184.482-2.844 1.447-.651.956-.977 2.31-.977 4.062 0 1.778.326 3.119.977 4.025.652.905 1.608 1.358 2.869 1.358z"/><path d="m861.651 245h-2.056v-13.229c0-1.1.034-2.141.101-3.123-.177.178-.376.364-.596.559s-1.228 1.02-3.022 2.476l-1.117-1.448 4.913-3.796h1.777z"/><path d="m881.16 235.694c0 3.208-.508 5.603-1.524 7.186-1.007 1.583-2.551 2.374-4.633 2.374-1.998 0-3.517-.808-4.558-2.425-1.041-1.625-1.562-4.003-1.562-7.135 0-3.233.504-5.632 1.511-7.198s2.544-2.349 4.609-2.349c2.014 0 3.542.817 4.583 2.451 1.049 1.633 1.574 3.999 1.574 7.096zm-10.144 0c0 2.7.318 4.668.952 5.904.635 1.227 1.647 1.84 3.035 1.84 1.405 0 2.42-.622 3.046-1.866.635-1.252.953-3.212.953-5.878s-.318-4.617-.953-5.852c-.626-1.244-1.641-1.866-3.046-1.866-1.388 0-2.4.613-3.035 1.84-.634 1.219-.952 3.178-.952 5.878z"/><path d="m896.073 234.361c0 7.262-2.81 10.893-8.43 10.893-.982 0-1.761-.085-2.336-.254v-1.815c.677.22 1.447.33 2.311.33 2.031 0 3.563-.627 4.595-1.879 1.041-1.261 1.608-3.191 1.701-5.789h-.152c-.465.702-1.083 1.24-1.853 1.612-.771.364-1.638.546-2.603.546-1.642 0-2.945-.491-3.91-1.473s-1.447-2.353-1.447-4.113c0-1.93.537-3.453 1.612-4.57 1.083-1.118 2.505-1.676 4.265-1.676 1.262 0 2.362.326 3.301.977.948.644 1.676 1.587 2.184 2.831.508 1.236.762 2.696.762 4.38zm-6.247-6.385c-1.21 0-2.145.389-2.805 1.168-.66.778-.99 1.862-.99 3.25 0 1.218.304 2.179.914 2.881.609.694 1.536 1.041 2.78 1.041.77 0 1.477-.156 2.12-.469.652-.313 1.164-.741 1.536-1.283.373-.541.559-1.108.559-1.701 0-.888-.174-1.709-.521-2.463-.347-.753-.833-1.345-1.46-1.777-.618-.432-1.328-.647-2.133-.647z"/><path d="m911.087 234.361c0 7.262-2.81 10.893-8.43 10.893-.982 0-1.76-.085-2.336-.254v-1.815c.677.22 1.448.33 2.311.33 2.031 0 3.563-.627 4.596-1.879 1.041-1.261 1.608-3.191 1.701-5.789h-.153c-.465.702-1.083 1.24-1.853 1.612-.77.364-1.638.546-2.603.546-1.642 0-2.945-.491-3.91-1.473s-1.447-2.353-1.447-4.113c0-1.93.537-3.453 1.612-4.57 1.084-1.118 2.505-1.676 4.266-1.676 1.261 0 2.361.326 3.301.977.948.644 1.675 1.587 2.183 2.831.508 1.236.762 2.696.762 4.38zm-6.246-6.385c-1.21 0-2.146.389-2.806 1.168-.66.778-.99 1.862-.99 3.25 0 1.218.305 2.179.914 2.881.609.694 1.536 1.041 2.78 1.041.77 0 1.477-.156 2.12-.469.652-.313 1.164-.741 1.537-1.283.372-.541.558-1.108.558-1.701 0-.888-.173-1.709-.52-2.463-.347-.753-.834-1.345-1.46-1.777-.618-.432-1.329-.647-2.133-.647z"/><path d="m913.698 238.995v-1.93h6.233v1.93z"/><path d="m923.698 226.439h5.243c2.463 0 4.244.369 5.344 1.105 1.101.736 1.651 1.9 1.651 3.491 0 1.1-.309 2.01-.927 2.73-.609.711-1.502 1.172-2.679 1.383v.127c2.819.483 4.228 1.964 4.228 4.444 0 1.659-.563 2.954-1.689 3.885-1.117.931-2.682 1.396-4.697 1.396h-6.474zm2.158 7.948h3.554c1.524 0 2.62-.237 3.289-.711.668-.483 1.002-1.291 1.002-2.425 0-1.041-.372-1.79-1.117-2.247-.744-.466-1.929-.698-3.554-.698h-3.174zm0 1.828v6.944h3.872c1.498 0 2.624-.288 3.377-.863.762-.584 1.142-1.494 1.142-2.73 0-1.151-.389-1.997-1.168-2.539-.77-.541-1.946-.812-3.529-.812z"/><path clip-rule="evenodd" d="m952 281h-290c-1.105 0-2 .895-2 2v49c0 1.105.895 2 2 2h290c1.105 0 2-.895 2-2v-49c0-1.105-.895-2-2-2zm-290-2c-2.209 0-4 1.791-4 4v49c0 2.209 1.791 4 4 4h290c2.209 0 4-1.791 4-4v-49c0-2.209-1.791-4-4-4z" fill-rule="evenodd"/><path d="m705 307.5c0-2.097-.417-4.1-1.174-5.928-.786-1.898-1.937-3.604-3.365-5.032-1.427-1.427-3.133-2.58-5.032-3.365-1.829-.758-3.832-1.175-5.929-1.175s-4.1.417-5.928 1.174c-1.898.786-3.604 1.937-5.032 3.366-1.427 1.429-2.58 3.134-3.366 5.032-.757 1.828-1.174 3.831-1.174 5.928s.417 4.1 1.174 5.928c.786 1.898 1.937 3.604 3.365 5.032 1.427 1.427 3.133 2.58 5.032 3.365 1.829.758 3.832 1.175 5.929 1.175s4.1-.417 5.928-1.174c1.898-.786 3.604-1.937 5.032-3.365 1.427-1.427 2.58-3.133 3.365-5.032.758-1.829 1.175-3.832 1.175-5.929zm-2.818 0c0 1.72-.343 3.358-.96 4.85-.642 1.552-1.584 2.948-2.755 4.117-1.17 1.17-2.567 2.113-4.117 2.755-1.492.617-3.129.96-4.85.96-1.72 0-3.358-.343-4.85-.96-1.551-.642-2.948-1.584-4.117-2.755-1.171-1.171-2.113-2.567-2.755-4.117-.617-1.492-.96-3.13-.96-4.85s.343-3.358.96-4.85c.642-1.552 1.584-2.948 2.755-4.117 1.171-1.17 2.567-2.113 4.117-2.755 1.492-.617 3.13-.96 4.85-.96 1.721 0 3.358.343 4.85.96 1.552.642 2.948 1.584 4.117 2.755 1.171 1.17 2.113 2.567 2.755 4.117.617 1.492.96 3.13.96 4.85zm-14.091-5.636v7.871l-3.231-3.231c-.551-.551-1.443-.551-1.993 0-.549.551-.551 1.443 0 1.992l5.637 5.637c.135.135.291.236.458.305.169.069.348.106.527.107h.022c.179-.001.36-.036.527-.107.167-.069.323-.17.458-.305l5.637-5.637c.551-.551.551-1.443 0-1.992-.551-.55-1.443-.551-1.993 0l-3.231 3.231v-7.871c0-.778-.631-1.409-1.409-1.409s-1.409.631-1.409 1.409z"/><path d="m733.367 307.542c0 3.064-.833 5.408-2.501 7.033-1.659 1.617-4.05 2.425-7.173 2.425h-5.141v-18.561h5.687c2.886 0 5.129.8 6.729 2.4 1.599 1.599 2.399 3.834 2.399 6.703zm-2.285.076c0-2.42-.609-4.244-1.828-5.472-1.21-1.227-3.013-1.84-5.408-1.84h-3.136v14.828h2.628c2.573 0 4.507-.631 5.802-1.892 1.295-1.269 1.942-3.144 1.942-5.624z"/><path d="m749.346 310.03c0 2.269-.571 4.042-1.714 5.32-1.142 1.269-2.721 1.904-4.735 1.904-1.244 0-2.348-.292-3.313-.876s-1.71-1.422-2.235-2.514c-.524-1.092-.787-2.37-.787-3.834 0-2.268.567-4.033 1.701-5.294 1.134-1.269 2.709-1.904 4.723-1.904 1.947 0 3.491.647 4.634 1.942 1.151 1.295 1.726 3.047 1.726 5.256zm-10.6 0c0 1.778.355 3.132 1.066 4.063s1.756 1.396 3.136 1.396c1.379 0 2.425-.461 3.136-1.384.719-.931 1.079-2.289 1.079-4.075 0-1.769-.36-3.11-1.079-4.024-.711-.923-1.765-1.384-3.161-1.384-1.38 0-2.421.453-3.124 1.358-.702.906-1.053 2.256-1.053 4.05z"/><path d="m764.551 317-2.552-8.163c-.16-.499-.461-1.634-.901-3.402h-.102c-.338 1.481-.634 2.623-.888 3.427l-2.628 8.138h-2.438l-3.796-13.914h2.209c.898 3.495 1.579 6.157 2.044 7.985.474 1.828.745 3.06.813 3.695h.101c.094-.483.242-1.105.445-1.867.211-.77.393-1.379.546-1.828l2.551-7.985h2.286l2.488 7.985c.474 1.456.795 2.679.965 3.669h.101c.034-.304.123-.774.267-1.409.152-.635 1.037-4.05 2.653-10.245h2.184l-3.847 13.914z"/><path d="m783.082 317v-9.001c0-1.134-.258-1.98-.774-2.539-.517-.559-1.325-.838-2.425-.838-1.456 0-2.522.394-3.199 1.181s-1.016 2.086-1.016 3.897v7.3h-2.107v-13.914h1.713l.343 1.904h.102c.431-.685 1.037-1.214 1.815-1.587.779-.381 1.646-.571 2.603-.571 1.675 0 2.937.406 3.783 1.219.846.804 1.269 2.095 1.269 3.872v9.077z"/><path d="m791.774 317h-2.107v-19.754h2.107z"/><path d="m808.388 310.03c0 2.269-.571 4.042-1.714 5.32-1.142 1.269-2.721 1.904-4.735 1.904-1.244 0-2.349-.292-3.314-.876s-1.709-1.422-2.234-2.514-.787-2.37-.787-3.834c0-2.268.567-4.033 1.701-5.294 1.134-1.269 2.708-1.904 4.723-1.904 1.946 0 3.491.647 4.633 1.942 1.152 1.295 1.727 3.047 1.727 5.256zm-10.601 0c0 1.778.356 3.132 1.067 4.063s1.756 1.396 3.136 1.396c1.379 0 2.424-.461 3.135-1.384.72-.931 1.079-2.289 1.079-4.075 0-1.769-.359-3.11-1.079-4.024-.711-.923-1.764-1.384-3.161-1.384-1.379 0-2.42.453-3.123 1.358-.702.906-1.054 2.256-1.054 4.05z"/><path d="m820.787 317-.419-1.98h-.101c-.694.871-1.388 1.464-2.082 1.777-.686.305-1.545.457-2.578.457-1.379 0-2.462-.356-3.25-1.066-.778-.711-1.168-1.723-1.168-3.035 0-2.81 2.248-4.282 6.742-4.418l2.361-.076v-.863c0-1.092-.237-1.896-.711-2.412-.465-.525-1.214-.787-2.247-.787-1.16 0-2.471.355-3.936 1.066l-.647-1.612c.686-.373 1.435-.665 2.247-.876.821-.212 1.642-.318 2.463-.318 1.659 0 2.886.369 3.682 1.105.804.736 1.206 1.917 1.206 3.542v9.496zm-4.761-1.485c1.312 0 2.341-.36 3.085-1.079.754-.72 1.13-1.727 1.13-3.022v-1.257l-2.107.089c-1.676.059-2.886.322-3.631.787-.736.457-1.105 1.172-1.105 2.146 0 .761.229 1.341.686 1.739.465.398 1.113.597 1.942.597z"/><path d="m836.309 315.134h-.114c-.973 1.413-2.429 2.12-4.367 2.12-1.82 0-3.238-.622-4.253-1.866-1.007-1.244-1.511-3.013-1.511-5.307s.508-4.075 1.524-5.345c1.015-1.269 2.429-1.904 4.24-1.904 1.887 0 3.334.686 4.342 2.057h.165l-.089-1.003-.051-.978v-5.662h2.107v19.754h-1.713zm-4.215.355c1.439 0 2.48-.389 3.123-1.168.652-.787.978-2.052.978-3.796v-.444c0-1.972-.33-3.377-.99-4.215-.652-.846-1.697-1.269-3.136-1.269-1.236 0-2.184.482-2.844 1.447-.651.956-.977 2.31-.977 4.062 0 1.778.326 3.119.977 4.025.652.905 1.608 1.358 2.869 1.358z"/><path d="m854.988 298.173c1.693 0 3.034.393 4.025 1.181.99.787 1.485 1.874 1.485 3.262 0 .914-.283 1.748-.851 2.501-.567.753-1.472 1.439-2.716 2.057 1.506.719 2.577 1.477 3.212 2.272.634.787.952 1.701.952 2.742 0 1.541-.538 2.772-1.613 3.695-1.074.914-2.547 1.371-4.418 1.371-1.98 0-3.503-.432-4.57-1.295-1.066-.872-1.599-2.103-1.599-3.694 0-2.125 1.294-3.779 3.884-4.964-1.168-.66-2.006-1.371-2.513-2.133-.508-.77-.762-1.629-.762-2.577 0-1.346.495-2.417 1.485-3.212.999-.804 2.332-1.206 3.999-1.206zm-4.011 14.142c0 1.016.351 1.807 1.053 2.374.711.568 1.706.851 2.984.851 1.261 0 2.243-.296 2.945-.889.702-.592 1.054-1.405 1.054-2.437 0-.821-.33-1.549-.991-2.184-.66-.643-1.811-1.265-3.453-1.866-1.261.542-2.175 1.143-2.742 1.803-.567.651-.85 1.434-.85 2.348zm3.986-12.428c-1.058 0-1.887.254-2.488.761-.601.508-.902 1.185-.902 2.032 0 .778.25 1.447.749 2.006.5.558 1.422 1.117 2.768 1.675 1.21-.507 2.065-1.053 2.564-1.637.508-.584.762-1.266.762-2.044 0-.855-.309-1.532-.927-2.032-.609-.507-1.451-.761-2.526-.761z"/><path d="m876.058 306.361c0 7.262-2.81 10.893-8.429 10.893-.982 0-1.761-.085-2.336-.254v-1.815c.677.22 1.447.33 2.31.33 2.031 0 3.563-.627 4.596-1.879 1.041-1.261 1.608-3.191 1.701-5.789h-.152c-.466.702-1.084 1.24-1.854 1.612-.77.364-1.637.546-2.602.546-1.642 0-2.946-.491-3.91-1.473-.965-.982-1.448-2.353-1.448-4.113 0-1.93.538-3.453 1.613-4.57 1.083-1.118 2.505-1.676 4.265-1.676 1.261 0 2.362.326 3.301.977.948.644 1.676 1.587 2.184 2.831.507 1.236.761 2.696.761 4.38zm-6.246-6.385c-1.21 0-2.145.389-2.805 1.168-.661.778-.991 1.862-.991 3.25 0 1.218.305 2.179.914 2.881.61.694 1.536 1.041 2.781 1.041.77 0 1.477-.156 2.12-.469.651-.313 1.163-.741 1.536-1.283.372-.541.558-1.108.558-1.701 0-.888-.173-1.709-.52-2.463-.347-.753-.834-1.345-1.46-1.777-.618-.432-1.329-.647-2.133-.647z"/><path d="m891.949 312.734h-2.755v4.266h-2.019v-4.266h-9.026v-1.84l8.81-12.556h2.235v12.479h2.755zm-4.774-1.917v-6.17c0-1.21.042-2.577.127-4.1h-.101c-.407.812-.788 1.485-1.143 2.018l-5.802 8.252z"/><path d="m906.087 306.361c0 7.262-2.81 10.893-8.43 10.893-.982 0-1.76-.085-2.336-.254v-1.815c.677.22 1.448.33 2.311.33 2.031 0 3.563-.627 4.596-1.879 1.041-1.261 1.608-3.191 1.701-5.789h-.153c-.465.702-1.083 1.24-1.853 1.612-.77.364-1.638.546-2.603.546-1.642 0-2.945-.491-3.91-1.473s-1.447-2.353-1.447-4.113c0-1.93.537-3.453 1.612-4.57 1.084-1.118 2.505-1.676 4.266-1.676 1.261 0 2.361.326 3.301.977.948.644 1.675 1.587 2.183 2.831.508 1.236.762 2.696.762 4.38zm-6.246-6.385c-1.21 0-2.146.389-2.806 1.168-.66.778-.99 1.862-.99 3.25 0 1.218.305 2.179.914 2.881.609.694 1.536 1.041 2.78 1.041.77 0 1.477-.156 2.12-.469.652-.313 1.164-.741 1.537-1.283.372-.541.558-1.108.558-1.701 0-.888-.173-1.709-.52-2.463-.347-.753-.834-1.345-1.46-1.777-.618-.432-1.329-.647-2.133-.647z"/><path d="m785.377 178h-17.466v-3.674l6.272-6.341c1.857-1.902 3.071-3.218 3.64-3.947.57-.741.98-1.425 1.231-2.051.25-.627.376-1.276.376-1.948 0-1.003-.279-1.749-.838-2.239-.547-.49-1.281-.735-2.204-.735-.969 0-1.909.222-2.82.666-.912.445-1.863 1.077-2.854 1.897l-2.871-3.4c1.23-1.049 2.25-1.789 3.059-2.222s1.692-.763 2.649-.991c.957-.24 2.028-.359 3.213-.359 1.561 0 2.939.285 4.135.854 1.197.57 2.125 1.367 2.786 2.393.661 1.025.991 2.199.991 3.52 0 1.151-.205 2.233-.615 3.247-.399 1.003-1.025 2.034-1.88 3.094-.843 1.059-2.335 2.569-4.477 4.528l-3.213 3.025v.24h10.886zm19.858-12.493c0 4.364-.717 7.594-2.153 9.69-1.424 2.097-3.623 3.145-6.597 3.145-2.882 0-5.058-1.083-6.528-3.247-1.458-2.165-2.187-5.361-2.187-9.588 0-4.409.712-7.656 2.136-9.741 1.424-2.096 3.617-3.144 6.579-3.144 2.883 0 5.059 1.093 6.529 3.281 1.481 2.187 2.221 5.389 2.221 9.604zm-12.219 0c0 3.065.262 5.264.786 6.597.536 1.322 1.43 1.982 2.683 1.982 1.231 0 2.119-.672 2.666-2.016.547-1.345.821-3.532.821-6.563 0-3.064-.279-5.263-.838-6.596-.547-1.345-1.43-2.017-2.649-2.017-1.242 0-2.13.672-2.666 2.017-.535 1.333-.803 3.532-.803 6.596zm27.942 12.493h-5.281v-14.458l.052-2.375.085-2.598c-.877.877-1.487 1.452-1.829 1.726l-2.871 2.307-2.546-3.179 8.049-6.408h4.341zm24.302-14.321c0 4.922-1.037 8.596-3.111 11.023-2.073 2.426-5.212 3.64-9.416 3.64-1.481 0-2.603-.08-3.367-.239v-4.239c.957.24 1.96.359 3.008.359 1.766 0 3.219-.256 4.358-.769 1.139-.524 2.011-1.339 2.615-2.444.604-1.116.951-2.649 1.042-4.597h-.205c-.661 1.071-1.424 1.823-2.29 2.256s-1.948.649-3.247.649c-2.176 0-3.891-.695-5.144-2.085-1.253-1.401-1.88-3.344-1.88-5.827 0-2.678.758-4.791 2.273-6.341 1.527-1.56 3.6-2.341 6.221-2.341 1.845 0 3.458.433 4.836 1.299 1.39.866 2.455 2.125 3.196 3.777.74 1.64 1.111 3.6 1.111 5.879zm-9.041-6.717c-1.094 0-1.948.376-2.563 1.128s-.923 1.835-.923 3.247c0 1.208.279 2.165.837 2.871.559.707 1.407 1.06 2.547 1.06 1.071 0 1.988-.347 2.751-1.042.764-.707 1.145-1.516 1.145-2.427 0-1.356-.359-2.501-1.076-3.435-.707-.934-1.613-1.402-2.718-1.402z"/><path d="m759.66 131h-2.324v-17.924h-6.33v-2.064h14.984v2.064h-6.33zm18.225 0-.451-2.133h-.11c-.747.939-1.495 1.577-2.242 1.914-.738.328-1.663.492-2.775.492-1.486 0-2.653-.382-3.5-1.148-.839-.766-1.258-1.855-1.258-3.268 0-3.026 2.42-4.612 7.26-4.757l2.543-.082v-.93c0-1.176-.256-2.042-.766-2.598-.501-.565-1.308-.847-2.42-.847-1.249 0-2.661.382-4.238 1.148l-.698-1.736c.739-.401 1.545-.716 2.42-.944.885-.228 1.769-.341 2.653-.341 1.786 0 3.108.396 3.965 1.189.865.793 1.298 2.064 1.298 3.814v10.227zm-5.127-1.6c1.413 0 2.52-.387 3.322-1.162.811-.774 1.217-1.859 1.217-3.254v-1.353l-2.27.096c-1.804.063-3.108.346-3.91.847-.793.492-1.189 1.263-1.189 2.311 0 .82.246 1.444.738 1.873.501.428 1.199.642 2.092.642zm15.107-6.07-5.209-7.314h2.584l3.951 5.742 3.938-5.742h2.557l-5.209 7.314 5.482 7.67h-2.57l-4.198-6.07-4.238 6.07h-2.57zm23.776-2.324 5.332-9.994h2.515l-6.672 12.236v7.752h-2.351v-7.643l-6.658-12.345h2.543zm16.597 10.267c-2.215 0-3.965-.674-5.25-2.023-1.276-1.349-1.914-3.222-1.914-5.619 0-2.416.593-4.334 1.778-5.756 1.194-1.422 2.793-2.133 4.798-2.133 1.878 0 3.364.62 4.457 1.86 1.094 1.23 1.641 2.857 1.641 4.88v1.436h-10.322c.045 1.759.487 3.094 1.326 4.006.848.911 2.037 1.367 3.568 1.367 1.614 0 3.209-.337 4.785-1.012v2.024c-.802.346-1.563.592-2.283.738-.711.155-1.572.232-2.584.232zm-.615-13.63c-1.203 0-2.165.392-2.885 1.175-.711.784-1.13 1.869-1.258 3.254h7.834c0-1.431-.319-2.524-.957-3.281-.638-.766-1.549-1.148-2.734-1.148zm19.223 13.357-.451-2.133h-.11c-.747.939-1.495 1.577-2.242 1.914-.738.328-1.663.492-2.775.492-1.486 0-2.653-.382-3.5-1.148-.839-.766-1.258-1.855-1.258-3.268 0-3.026 2.42-4.612 7.26-4.757l2.542-.082v-.93c0-1.176-.255-2.042-.765-2.598-.501-.565-1.308-.847-2.42-.847-1.249 0-2.662.382-4.238 1.148l-.698-1.736c.739-.401 1.545-.716 2.42-.944.884-.228 1.769-.341 2.653-.341 1.786 0 3.108.396 3.965 1.189.865.793 1.298 2.064 1.298 3.814v10.227zm-5.127-1.6c1.413 0 2.52-.387 3.322-1.162.811-.774 1.217-1.859 1.217-3.254v-1.353l-2.27.096c-1.804.063-3.108.346-3.91.847-.793.492-1.189 1.263-1.189 2.311 0 .82.246 1.444.738 1.873.501.428 1.199.642 2.092.642zm18.334-13.658c.665 0 1.262.055 1.791.164l-.315 2.106c-.619-.137-1.166-.205-1.64-.205-1.213 0-2.252.492-3.118 1.476-.856.985-1.285 2.21-1.285 3.678v8.039h-2.269v-14.984h1.873l.26 2.775h.109c.556-.975 1.226-1.727 2.01-2.256.784-.528 1.645-.793 2.584-.793z"/><path d="m732.552 411v-18.561h2.158v16.606h8.188v1.955zm15.433 0h-2.107v-13.914h2.107zm-2.285-17.685c0-.482.118-.833.355-1.053.237-.229.534-.343.889-.343.339 0 .631.114.876.343.245.228.368.579.368 1.053s-.123.83-.368 1.067c-.245.228-.537.343-.876.343-.355 0-.652-.115-.889-.343-.237-.237-.355-.593-.355-1.067zm9.936 17.685-5.281-13.914h2.26l2.996 8.252c.677 1.93 1.075 3.182 1.193 3.758h.102c.093-.449.385-1.376.876-2.781.499-1.413 1.612-4.489 3.338-9.229h2.26l-5.281 13.914zm15.992.254c-2.057 0-3.682-.626-4.875-1.879-1.185-1.253-1.777-2.992-1.777-5.218 0-2.243.55-4.024 1.65-5.345 1.109-1.32 2.594-1.98 4.456-1.98 1.744 0 3.123.576 4.139 1.727 1.015 1.142 1.523 2.653 1.523 4.532v1.333h-9.585c.042 1.633.453 2.873 1.232 3.72.787.846 1.891 1.269 3.313 1.269 1.498 0 2.979-.313 4.443-.939v1.879c-.744.321-1.451.55-2.12.685-.66.144-1.46.216-2.399.216zm-.571-12.657c-1.118 0-2.01.364-2.679 1.091-.66.728-1.05 1.736-1.168 3.022h7.274c0-1.329-.296-2.344-.888-3.047-.593-.711-1.439-1.066-2.539-1.066zm22.348 12.403h-2.159v-16.644h-5.878v-1.917h13.915v1.917h-5.878zm17.058 0-.419-1.98h-.102c-.694.871-1.388 1.464-2.082 1.777-.685.305-1.544.457-2.577.457-1.379 0-2.463-.356-3.25-1.066-.778-.711-1.168-1.723-1.168-3.035 0-2.81 2.247-4.282 6.741-4.418l2.362-.076v-.863c0-1.092-.237-1.896-.711-2.412-.466-.525-1.215-.787-2.247-.787-1.16 0-2.472.355-3.936 1.066l-.647-1.612c.685-.373 1.434-.665 2.247-.876.821-.212 1.642-.318 2.463-.318 1.659 0 2.886.369 3.681 1.105.804.736 1.206 1.917 1.206 3.542v9.496zm-4.761-1.485c1.312 0 2.34-.36 3.085-1.079.753-.72 1.13-1.727 1.13-3.022v-1.257l-2.107.089c-1.676.059-2.886.322-3.631.787-.737.457-1.105 1.172-1.105 2.146 0 .761.229 1.341.686 1.739.465.398 1.113.597 1.942.597zm14.164-5.637-4.837-6.792h2.399l3.669 5.332 3.657-5.332h2.374l-4.837 6.792 5.091 7.122h-2.387l-3.898-5.637-3.935 5.637h-2.387zm28.099 2.184c0 1.633-.593 2.907-1.777 3.821-1.185.914-2.793 1.371-4.825 1.371-2.2 0-3.893-.284-5.078-.851v-2.082c.762.322 1.591.576 2.488.762.898.186 1.786.279 2.666.279 1.439 0 2.523-.271 3.25-.812.728-.55 1.092-1.312 1.092-2.285 0-.644-.131-1.168-.393-1.575-.254-.414-.686-.795-1.295-1.142-.601-.347-1.519-.741-2.755-1.181-1.727-.618-2.962-1.35-3.707-2.196-.736-.846-1.105-1.951-1.105-3.314 0-1.43.538-2.568 1.613-3.415 1.075-.846 2.496-1.269 4.265-1.269 1.845 0 3.542.338 5.091 1.015l-.673 1.879c-1.532-.643-3.021-.964-4.468-.964-1.143 0-2.036.245-2.679.736s-.965 1.172-.965 2.044c0 .643.118 1.172.355 1.587.237.406.635.783 1.194 1.13.567.338 1.43.715 2.59 1.129 1.946.695 3.283 1.439 4.011 2.235.737.795 1.105 1.828 1.105 3.098zm5.594-8.976v9.026c0 1.134.258 1.981.775 2.539.516.559 1.324.838 2.424.838 1.456 0 2.518-.398 3.187-1.193.677-.796 1.016-2.095 1.016-3.898v-7.312h2.107v13.914h-1.739l-.305-1.866h-.114c-.432.685-1.033 1.21-1.803 1.574-.762.364-1.633.546-2.615.546-1.693 0-2.962-.402-3.809-1.206-.838-.804-1.257-2.091-1.257-3.86v-9.102zm20.601 14.168c-.906 0-1.736-.165-2.489-.495-.745-.339-1.371-.855-1.879-1.549h-.152c.102.812.152 1.583.152 2.311v5.725h-2.107v-20.16h1.714l.292 1.904h.101c.542-.761 1.173-1.312 1.892-1.65.719-.339 1.545-.508 2.476-.508 1.845 0 3.266.631 4.265 1.892 1.007 1.261 1.511 3.03 1.511 5.306 0 2.285-.512 4.063-1.536 5.332-1.016 1.261-2.429 1.892-4.24 1.892zm-.305-12.632c-1.422 0-2.45.394-3.085 1.181s-.961 2.039-.978 3.758v.469c0 1.955.326 3.356.978 4.202.652.838 1.697 1.257 3.136 1.257 1.201 0 2.141-.486 2.818-1.46.686-.973 1.028-2.314 1.028-4.024 0-1.735-.342-3.064-1.028-3.986-.677-.931-1.634-1.397-2.869-1.397zm16.385 12.632c-.905 0-1.735-.165-2.488-.495-.745-.339-1.371-.855-1.879-1.549h-.152c.101.812.152 1.583.152 2.311v5.725h-2.107v-20.16h1.713l.292 1.904h.102c.542-.761 1.172-1.312 1.892-1.65.719-.339 1.544-.508 2.475-.508 1.845 0 3.267.631 4.266 1.892 1.007 1.261 1.511 3.03 1.511 5.306 0 2.285-.512 4.063-1.537 5.332-1.015 1.261-2.429 1.892-4.24 1.892zm-.304-12.632c-1.422 0-2.451.394-3.085 1.181-.635.787-.961 2.039-.978 3.758v.469c0 1.955.326 3.356.978 4.202.651.838 1.697 1.257 3.135 1.257 1.202 0 2.142-.486 2.819-1.46.685-.973 1.028-2.314 1.028-4.024 0-1.735-.343-3.064-1.028-3.986-.677-.931-1.634-1.397-2.869-1.397zm21.92 5.408c0 2.269-.571 4.042-1.714 5.32-1.142 1.269-2.721 1.904-4.735 1.904-1.244 0-2.349-.292-3.314-.876-.964-.584-1.709-1.422-2.234-2.514s-.787-2.37-.787-3.834c0-2.268.567-4.033 1.701-5.294 1.134-1.269 2.708-1.904 4.723-1.904 1.946 0 3.491.647 4.634 1.942 1.151 1.295 1.726 3.047 1.726 5.256zm-10.6 0c0 1.778.355 3.132 1.066 4.063s1.756 1.396 3.136 1.396c1.379 0 2.424-.461 3.135-1.384.72-.931 1.08-2.289 1.08-4.075 0-1.769-.36-3.11-1.08-4.024-.711-.923-1.764-1.384-3.161-1.384-1.379 0-2.42.453-3.123 1.358-.702.906-1.053 2.256-1.053 4.05zm20.79-7.198c.618 0 1.172.051 1.663.152l-.292 1.955c-.575-.127-1.083-.19-1.523-.19-1.126 0-2.091.457-2.895 1.371-.795.914-1.193 2.053-1.193 3.415v7.465h-2.107v-13.914h1.739l.241 2.577h.102c.516-.906 1.138-1.604 1.866-2.095s1.527-.736 2.399-.736zm8.895 12.683c.373 0 .733-.026 1.08-.077.347-.059.622-.118.825-.177v1.612c-.229.11-.567.199-1.016.267-.44.076-.838.114-1.193.114-2.692 0-4.037-1.418-4.037-4.253v-8.277h-1.994v-1.016l1.994-.876.888-2.971h1.219v3.225h4.037v1.638h-4.037v8.188c0 .838.199 1.481.597 1.93.397.448.943.673 1.637.673z"/></g><g clip-path="url(#d)"><path d="m698 389.714c-8.357 0-15.429 4.701-15.429 10.286 0 2.993 2.009 5.846 5.485 7.815l1.748 1.004-.543 1.929c-.382 1.426-.884 2.531-1.406 3.455 2.029-.844 3.877-1.989 5.524-3.435l.864-.764 1.145.121c.864.1 1.748.161 2.612.161 8.357 0 15.429-4.701 15.429-10.286s-7.072-10.286-15.429-10.286zm18 10.286c0 7.112-8.056 12.857-18 12.857-.984 0-1.969-.06-2.913-.161-2.632 2.331-5.766 3.978-9.241 4.862-.723.201-1.507.342-2.29.442h-.101c-.401 0-.763-.321-.863-.763v-.02c-.101-.503.241-.804.542-1.166 1.266-1.426 2.712-2.631 3.656-5.986-4.138-2.351-6.79-5.987-6.79-10.065 0-7.112 8.056-12.857 18-12.857s18 5.745 18 12.857z" fill="#fff"/></g><path d="m791.5 22v41" stroke="#fff"/><path d="m225.867 330h-2.117v-8.159l-2.527.784v-1.722l4.417-1.582h.227zm6.57-10.664 2.739 7.734 2.724-7.734h2.886v10.664h-2.204v-2.915l.219-5.032-2.878 7.947h-1.509l-2.871-7.939.22 5.024v2.915h-2.198v-10.664z" fill="#6be7bc"/><path d="m296.326 319.329v1.15h-.249c-1.055.019-1.895.332-2.52.937s-.986 1.458-1.084 2.556c.562-.644 1.328-.967 2.3-.967.928 0 1.667.328 2.219.982.557.654.835 1.499.835 2.534 0 1.099-.3 1.978-.901 2.637-.595.659-1.396.988-2.402.988-1.021 0-1.848-.39-2.483-1.171-.635-.787-.952-1.797-.952-3.033v-.52c0-1.963.417-3.462 1.252-4.497.84-1.04 2.088-1.572 3.743-1.596zm-1.78 4.804c-.464 0-.891.139-1.282.418-.39.278-.661.627-.813 1.047v.498c0 .879.198 1.587.593 2.124.396.537.889.806 1.48.806.61 0 1.089-.225 1.435-.674.352-.449.528-1.038.528-1.765 0-.733-.178-1.323-.535-1.773-.351-.454-.82-.681-1.406-.681zm7.053-4.797 3.486 8.701 3.487-8.701h1.824v10.664h-1.407v-4.153l.132-4.482-3.501 8.635h-1.077l-3.493-8.613.139 4.46v4.153h-1.406v-10.664zm63.75 10.664h-1.362v-9.031l-2.732 1.004v-1.231l3.882-1.457h.212zm7.573-5.31 2.784-5.354h1.596l-3.677 6.687v3.977h-1.406v-3.977l-3.677-6.687h1.612zm67.456 2.527h-4.467l-1.004 2.783h-1.45l4.072-10.664h1.231l4.079 10.664h-1.443zm-4.043-1.157h3.626l-1.816-4.988zm9.353 2.79h5.054v1.15h-6.467v-10.664h1.413zm8.072 0h5.053v1.15h-6.467v-10.664h1.414z" fill="#fff"/><path d="m219 337.5h27" stroke="#6be7bc" stroke-width="3"/><path d="m26.4286 41.4286h25.7142c.7886 0 1.4286-.64 1.4286-1.4286s-.64-1.4286-1.4286-1.4286h-25.7142c-.7886 0-1.4286.64-1.4286 1.4286s.64 1.4286 1.4286 1.4286zm0-8.5714h25.7142c.7886 0 1.4286-.64 1.4286-1.4286s-.64-1.4286-1.4286-1.4286h-25.7142c-.7886 0-1.4286.64-1.4286 1.4286s.64 1.4286 1.4286 1.4286zm0 17.1428h25.7142c.7886 0 1.4286-.64 1.4286-1.4286 0-.7885-.64-1.4286-1.4286-1.4286h-25.7142c-.7886 0-1.4286.6401-1.4286 1.4286 0 .7886.64 1.4286 1.4286 1.4286z" fill="#fff"/></g></svg>