<svg id="Layer_1" data-name="Layer 1" xmlns="http://www.w3.org/2000/svg" xmlns:xlink="http://www.w3.org/1999/xlink" viewBox="0 0 440.87 363.7"><defs><style>.cls-1,.cls-3,.cls-4,.cls-5{opacity:0.7;}.cls-1,.cls-2,.cls-3,.cls-4,.cls-5,.cls-6{isolation:isolate;}.cls-1{fill:url(#linear-gradient);}.cls-2{fill:#73fff5;opacity:0.5;}.cls-3{fill:url(#linear-gradient-2);}.cls-4{fill:url(#linear-gradient-3);}.cls-5{fill:url(#linear-gradient-4);}.cls-6{opacity:0.6;fill:url(#linear-gradient-5);}</style><linearGradient id="linear-gradient" x1="185.67" y1="509.67" x2="258.28" y2="509.67" gradientTransform="matrix(0.87, -0.5, -0.5, -0.87, 168.46, 749.09)" gradientUnits="userSpaceOnUse"><stop offset="0" stop-color="#16133e" stop-opacity="0"/><stop offset="0" stop-color="#1f4161" stop-opacity="0"/><stop offset="0.64" stop-color="#2e8a99"/><stop offset="1" stop-color="#42e8e0"/></linearGradient><linearGradient id="linear-gradient-2" x1="155.07" y1="474.94" x2="228.16" y2="474.94" xlink:href="#linear-gradient"/><linearGradient id="linear-gradient-3" x1="165.63" y1="452.47" x2="280.58" y2="452.47" xlink:href="#linear-gradient"/><linearGradient id="linear-gradient-4" x1="197.29" y1="487.44" x2="301.7" y2="487.44" xlink:href="#linear-gradient"/><linearGradient id="linear-gradient-5" x1="197.39" y1="183.63" x2="43.2" y2="97.79" gradientTransform="matrix(1, 0, 0, -1, -0.11, 365.46)" gradientUnits="userSpaceOnUse"><stop offset="0" stop-color="#42e8e0"/><stop offset="0.16" stop-color="#36adb3" stop-opacity="0.74"/><stop offset="0.32" stop-color="#2b798b" stop-opacity="0.52"/><stop offset="0.47" stop-color="#224e6b" stop-opacity="0.33"/><stop offset="0.62" stop-color="#1b2d52" stop-opacity="0.19"/><stop offset="0.76" stop-color="#161540" stop-opacity="0.08"/><stop offset="0.89" stop-color="#130735" stop-opacity="0.02"/><stop offset="1" stop-color="#120231" stop-opacity="0"/></linearGradient></defs><g id="stem4"><path class="cls-1" d="M76.39,214.74a2.58,2.58,0,0,1-1.29-4.81l58.47-33.66a2.57,2.57,0,0,1,2.57,4.46L77.67,214.39A2.51,2.51,0,0,1,76.39,214.74Z"/><path class="cls-2" d="M137.06,177.23a2.54,2.54,0,1,1-3.48-.94,2.54,2.54,0,0,1,3.48.94Z"/><path class="cls-2" d="M135.65,178a.92.92,0,1,1-1.6.91.92.92,0,0,1,.34-1.25.93.93,0,0,1,1.26.34Z"/></g><g id="stem3"><path class="cls-3" d="M67.25,260.18a2.57,2.57,0,0,1-1.29-4.8l58.93-33.92a2.57,2.57,0,0,1,2.57,4.46h0l-58.88,33.9A2.58,2.58,0,0,1,67.25,260.18Z"/><path class="cls-2" d="M128.33,222.46a2.54,2.54,0,1,1-3.45-1h0A2.55,2.55,0,0,1,128.33,222.46Z"/><path class="cls-2" d="M126.89,223.25a.92.92,0,1,1-1.6.91.92.92,0,0,1,.34-1.25A.93.93,0,0,1,126.89,223.25Z"/></g><g id="stem2"><path class="cls-4" d="M87.67,274.46a2.57,2.57,0,0,1-1.29-4.8l95.16-54.79a2.57,2.57,0,0,1,2.57,4.46h0L89,274.15A2.58,2.58,0,0,1,87.67,274.46Z"/><path class="cls-2" d="M185,215.86a2.54,2.54,0,1,1-3.48-.94A2.54,2.54,0,0,1,185,215.86Z"/><path class="cls-2" d="M183.62,216.67a.93.93,0,0,1-.34,1.26.92.92,0,0,1-.92-1.6h0a.91.91,0,0,1,1.24.33Z"/></g><g id="stem1"><path class="cls-5" d="M97.6,228.29a2.57,2.57,0,0,1-1.28-4.8l86-49.53a2.59,2.59,0,0,1,2.57,4.5L98.89,228A2.64,2.64,0,0,1,97.6,228.29Z"/><path class="cls-2" d="M185.83,174.91a2.55,2.55,0,1,1-3.49-.92h0A2.54,2.54,0,0,1,185.83,174.91Z"/><path class="cls-2" d="M184.42,175.73a.93.93,0,0,1-.34,1.26.92.92,0,0,1-.92-1.6h0a.9.9,0,0,1,1.23.31Z"/></g><path class="cls-6" d="M205.28,216.35c0-22.74-16-50.39-35.66-61.76-10.1-5.83-19.22-6.23-25.7-2.18h0L0,235.68l48,88.41,145.54-84a17.08,17.08,0,0,0,2.45-1.41h0C201.78,234.67,205.28,227,205.28,216.35Z"/></svg>