<?xml version="1.0" encoding="utf-8"?>
<!-- Generator: Adobe Illustrator 24.1.2, SVG Export Plug-In . SVG Version: 6.00 Build 0)  -->
<svg version="1.1" id="Layer_1" xmlns="http://www.w3.org/2000/svg" xmlns:xlink="http://www.w3.org/1999/xlink" x="0px" y="0px"
	 viewBox="0 0 440.9 363.7" style="enable-background:new 0 0 440.9 363.7;" xml:space="preserve">
<style type="text/css">
	.st0{opacity:0.6;fill:url(#SVGID_1_);enable-background:new    ;}
	.st1{opacity:0.6;fill:url(#SVGID_2_);enable-background:new    ;}
	.st2{fill:url(#SVGID_3_);}
	.st3{opacity:0.8;fill:url(#SVGID_4_);enable-background:new    ;}
	.st4{fill:url(#SVGID_5_);}
	.st5{opacity:0.7;fill:url(#SVGID_6_);enable-background:new    ;}
	.st6{opacity:0.7;fill:url(#SVGID_7_);enable-background:new    ;}
	.st7{fill:#312A91;}
	.st8{opacity:0.7;fill:url(#SVGID_8_);enable-background:new    ;}
	.st9{opacity:0.7;fill:url(#SVGID_9_);enable-background:new    ;}
	.st10{opacity:0.7;fill:url(#SVGID_10_);enable-background:new    ;}
	.st11{fill:url(#SVGID_11_);}
	.st12{opacity:0.8;fill:url(#SVGID_12_);enable-background:new    ;}
	.st13{fill:url(#SVGID_13_);}
	.st14{opacity:0.7;fill:url(#SVGID_14_);enable-background:new    ;}
	.st15{opacity:0.7;fill:url(#SVGID_15_);enable-background:new    ;}
	.st16{opacity:0.7;fill:url(#SVGID_16_);enable-background:new    ;}
	.st17{opacity:0.7;fill:url(#SVGID_17_);enable-background:new    ;}
	.st18{opacity:0.7;fill:url(#SVGID_18_);enable-background:new    ;}
	.st19{fill:url(#SVGID_19_);}
	.st20{opacity:0.7;fill:url(#SVGID_20_);enable-background:new    ;}
	.st21{opacity:0.7;fill:url(#SVGID_21_);enable-background:new    ;}
	.st22{opacity:0.7;fill:url(#SVGID_22_);enable-background:new    ;}
	.st23{opacity:0.1;fill:#73FFF5;enable-background:new    ;}
	.st24{fill:url(#SVGID_23_);}
	.st25{opacity:0.8;fill:url(#SVGID_24_);enable-background:new    ;}
	.st26{opacity:0.7;fill:url(#SVGID_25_);enable-background:new    ;}
	.st27{opacity:0.7;fill:url(#SVGID_26_);enable-background:new    ;}
	.st28{opacity:0.7;fill:url(#SVGID_27_);enable-background:new    ;}
	.st29{opacity:0.4;}
	.st30{fill:#FCCC6B;}
	.st31{opacity:0.9;}
	.st32{opacity:0.6;}
	.st33{opacity:0.3;}
	.st34{opacity:0.1;}
	.st35{opacity:0.8;fill:url(#SVGID_28_);enable-background:new    ;}
	.st36{opacity:0.7;fill:url(#SVGID_29_);enable-background:new    ;}
	.st37{opacity:0.5;fill:#73FFF5;enable-background:new    ;}
	.st38{opacity:0.7;fill:url(#SVGID_30_);enable-background:new    ;}
	.st39{opacity:0.7;fill:url(#SVGID_31_);enable-background:new    ;}
	.st40{opacity:0.7;fill:url(#SVGID_32_);enable-background:new    ;}
	.st41{opacity:0.6;fill:url(#SVGID_33_);enable-background:new    ;}
	.st42{fill:#73FFF5;}
</style>
<linearGradient id="SVGID_1_" gradientUnits="userSpaceOnUse" x1="6011.832" y1="-2654.0056" x2="5857.6421" y2="-2739.8557" gradientTransform="matrix(-1 0 0 1 6255.4102 2807.8301)">
	<stop  offset="0" style="stop-color:#42E8E0"/>
	<stop  offset="0.16" style="stop-color:#36ADB3;stop-opacity:0.74"/>
	<stop  offset="0.32" style="stop-color:#2B798B;stop-opacity:0.52"/>
	<stop  offset="0.47" style="stop-color:#224E6B;stop-opacity:0.33"/>
	<stop  offset="0.62" style="stop-color:#1B2D52;stop-opacity:0.19"/>
	<stop  offset="0.76" style="stop-color:#161540;stop-opacity:8.000000e-02"/>
	<stop  offset="0.89" style="stop-color:#130735;stop-opacity:2.000000e-02"/>
	<stop  offset="1" style="stop-color:#120231;stop-opacity:0"/>
</linearGradient>
<path class="st0" d="M235.6,119.3c0,22.7,16,50.4,35.7,61.8c10.1,5.8,19.2,6.2,25.7,2.2l0,0L440.9,100l-48-88.4l-145.5,84
	c-0.9,0.4-1.7,0.9-2.4,1.4l0,0C239.1,101,235.6,108.7,235.6,119.3z"/>
<g>
	<g id="_ÎÓÈ_1">
		
			<radialGradient id="SVGID_2_" cx="-3373.5977" cy="1056.8591" r="136.41" gradientTransform="matrix(0.9892 0.1685 0.6436 -0.7699 2878.7356 1642.1484)" gradientUnits="userSpaceOnUse">
			<stop  offset="0" style="stop-color:#42E8E0"/>
			<stop  offset="1.000000e-02" style="stop-color:#41E5DE;stop-opacity:0.99"/>
			<stop  offset="0.11" style="stop-color:#36B1B6;stop-opacity:0.76"/>
			<stop  offset="0.23" style="stop-color:#2D8292;stop-opacity:0.56"/>
			<stop  offset="0.34" style="stop-color:#245B74;stop-opacity:0.39"/>
			<stop  offset="0.46" style="stop-color:#1E3A5C;stop-opacity:0.25"/>
			<stop  offset="0.58" style="stop-color:#192249;stop-opacity:0.14"/>
			<stop  offset="0.7" style="stop-color:#15103C;stop-opacity:6.000000e-02"/>
			<stop  offset="0.83" style="stop-color:#130534;stop-opacity:1.000000e-02"/>
			<stop  offset="0.99" style="stop-color:#120231;stop-opacity:0"/>
		</radialGradient>
		<path class="st1" d="M198.8,165.8c86.6-31.9,171.7-17.2,190.1,32.8S352,314.9,265.4,346.8S93.7,364,75.3,314
			S112.2,197.7,198.8,165.8z"/>
		
			<linearGradient id="SVGID_3_" gradientUnits="userSpaceOnUse" x1="185.77" y1="210.1214" x2="305.7" y2="210.1214" gradientTransform="matrix(1 0 0 -1 -0.11 365.46)">
			<stop  offset="0" style="stop-color:#2B237C"/>
			<stop  offset="1" style="stop-color:#180D5B"/>
		</linearGradient>
		<path class="st2" d="M305.6,190.8c0-40.6-28.5-89.9-63.6-110.2c-17.8-10.3-33.9-11.1-45.4-4.2l0,0l-10.9,6.3l12.5,12.3h0.1
			l-0.2,1.2c10.7,0.9,21.2,4.8,31.1,10c0.5-0.8,1-1.6,1.5-2.3l19.2,5.3l23.8,46.2l0.8,33.8c-2.2,10.1-4.7,20.6-11.2,28.4
			c3.8,2.1,7.8,3.8,12,5.1l-0.1,16.1l12.2-7l0,0C298.6,225.1,305.6,210.9,305.6,190.8z"/>
		
			<linearGradient id="SVGID_4_" gradientUnits="userSpaceOnUse" x1="281.8578" y1="185.3383" x2="185.3678" y2="279.0883" gradientTransform="matrix(1 0 0 -1 -0.11 365.46)">
			<stop  offset="0" style="stop-color:#180D5B"/>
			<stop  offset="9.000000e-02" style="stop-color:#1A1560"/>
			<stop  offset="0.25" style="stop-color:#1E2D6E"/>
			<stop  offset="0.29" style="stop-color:#203573"/>
			<stop  offset="0.39" style="stop-color:#23467E"/>
			<stop  offset="0.58" style="stop-color:#2C7499"/>
			<stop  offset="0.85" style="stop-color:#3ABCC5"/>
			<stop  offset="1" style="stop-color:#42E8E0"/>
		</linearGradient>
		<path class="st3" d="M305.6,190.8c0-40.6-28.5-89.9-63.6-110.2c-17.8-10.3-33.9-11.1-45.4-4.2l0,0l-10.9,6.3l12.5,12.3h0.1
			l-0.2,1.2c10.7,0.9,21.2,4.8,31.1,10c0.5-0.8,1-1.6,1.5-2.3l19.2,5.3l23.8,46.2l0.8,33.8c-2.2,10.1-4.7,20.6-11.2,28.4
			c3.8,2.1,7.8,3.8,12,5.1l-0.1,16.1l12.2-7l0,0C298.6,225.1,305.6,210.9,305.6,190.8z"/>
		
			<linearGradient id="SVGID_5_" gradientUnits="userSpaceOnUse" x1="182.11" y1="207.35" x2="274.59" y2="207.35" gradientTransform="matrix(1 0 0 -1 -0.11 365.46)">
			<stop  offset="0" style="stop-color:#2B237C"/>
			<stop  offset="1" style="stop-color:#180D5B"/>
		</linearGradient>
		<path class="st4" d="M261.1,184.1c-19.7-11.4-35.7-39-35.7-61.8c0-6.6,1.4-12.1,3.8-16.2c-9.9-5.2-20.4-9.1-31.1-10
			c-0.4,3.3-0.6,6.7-0.6,10c0,3.7,0.2,7.5,0.7,11.2l-12.5,2.6l-3.6,7.3l15.5,60.6l30.9,32.2c0,0,14.6-4.9,24.9-8.8
			c2.6,1.8,5.2,3.5,7.8,5.1c0.7,0.4,1.4,0.8,2.1,1.2c6.6-7.9,9-18.5,11.2-28.8C269.7,188.2,265.2,186.6,261.1,184.1z"/>
		
			<radialGradient id="SVGID_6_" cx="209.69" cy="217.67" r="120.05" gradientTransform="matrix(1 0 0 -1 -0.11 365.46)" gradientUnits="userSpaceOnUse">
			<stop  offset="0" style="stop-color:#180D5B"/>
			<stop  offset="9.000000e-02" style="stop-color:#1A1660"/>
			<stop  offset="0.25" style="stop-color:#1E2D6E"/>
			<stop  offset="0.44" style="stop-color:#255385"/>
			<stop  offset="0.66" style="stop-color:#2F87A5"/>
			<stop  offset="0.9" style="stop-color:#3CCACE"/>
			<stop  offset="1" style="stop-color:#42E8E0"/>
		</radialGradient>
		<path class="st5" d="M261.1,184.1c-19.7-11.4-35.7-39-35.7-61.8c0-6.6,1.4-12.1,3.8-16.2c-9.9-5.2-20.4-9.1-31.1-10
			c-0.4,3.3-0.6,6.7-0.6,10c0,3.7,0.2,7.5,0.7,11.2l-12.5,2.6l-3.6,7.3l15.5,60.6l30.9,32.2c0,0,14.6-4.9,24.9-8.8
			c2.6,1.8,5.2,3.5,7.8,5.1c0.7,0.4,1.4,0.8,2.1,1.2c6.6-7.9,9-18.5,11.2-28.8C269.7,188.2,265.2,186.6,261.1,184.1z"/>
		
			<radialGradient id="SVGID_7_" cx="236.575" cy="208.61" r="50.9171" gradientTransform="matrix(1 0 0 -1 -0.11 365.46)" gradientUnits="userSpaceOnUse">
			<stop  offset="0" style="stop-color:#180D5B"/>
			<stop  offset="9.000000e-02" style="stop-color:#1A1660"/>
			<stop  offset="0.25" style="stop-color:#1E2D6E"/>
			<stop  offset="0.44" style="stop-color:#255385"/>
			<stop  offset="0.66" style="stop-color:#2F87A5"/>
			<stop  offset="0.9" style="stop-color:#3CCACE"/>
			<stop  offset="1" style="stop-color:#42E8E0"/>
		</radialGradient>
		<path class="st6" d="M263.5,217.8l-0.5-0.4c6.5-7.9,9-18.7,11.1-28.3c-4.7-0.7-9.1-2.3-13.2-4.7c-19.7-11.4-35.8-39.2-35.8-62
			c0-6.4,1.2-11.8,3.6-16.1c-11.1-5.8-21.2-9-30.7-9.8l0.1-0.6c9.7,0.8,19.9,4.1,31.2,10l0.3,0.2l-0.2,0.3
			c-2.5,4.3-3.7,9.7-3.7,16.1c0,22.6,15.9,50.2,35.5,61.5c4.1,2.5,8.6,4.1,13.3,4.7h0.3l-0.1,0.3
			C272.6,198.7,270.2,209.7,263.5,217.8z"/>
		<path class="st7" d="M229.7,87.6c-35.1-20.3-63.6-3.8-63.6,36.7s28.5,89.9,63.6,110.2s63.6,3.9,63.6-36.7S264.8,107.9,229.7,87.6z
			 M229.7,202.3c-19.7-11.4-35.6-39-35.6-61.8s16-32,35.6-20.6s35.7,39,35.7,61.8S249.4,213.6,229.7,202.3z"/>
		
			<linearGradient id="SVGID_8_" gradientUnits="userSpaceOnUse" x1="293.4199" y1="124.2199" x2="147.6999" y2="307.7399" gradientTransform="matrix(1 0 0 -1 -0.11 365.46)">
			<stop  offset="0" style="stop-color:#180D5B"/>
			<stop  offset="9.000000e-02" style="stop-color:#1A1660"/>
			<stop  offset="0.25" style="stop-color:#1E2D6E"/>
			<stop  offset="0.44" style="stop-color:#255385"/>
			<stop  offset="0.66" style="stop-color:#2F87A5"/>
			<stop  offset="0.9" style="stop-color:#3CCACE"/>
			<stop  offset="1" style="stop-color:#42E8E0"/>
		</linearGradient>
		<path class="st8" d="M229.7,87.6c-35.1-20.3-63.6-3.8-63.6,36.7s28.5,89.9,63.6,110.2s63.6,3.9,63.6-36.7S264.8,107.9,229.7,87.6z
			 M229.7,202.3c-19.7-11.4-35.6-39-35.6-61.8s16-32,35.6-20.6s35.7,39,35.7,61.8S249.4,213.6,229.7,202.3z"/>
		
			<linearGradient id="SVGID_9_" gradientUnits="userSpaceOnUse" x1="261.0971" y1="164.9059" x2="198.4688" y2="243.7737" gradientTransform="matrix(1 0 0 -1 -0.11 365.46)">
			<stop  offset="0" style="stop-color:#180D5B"/>
			<stop  offset="9.000000e-02" style="stop-color:#1A1660"/>
			<stop  offset="0.25" style="stop-color:#1E2D6E"/>
			<stop  offset="0.44" style="stop-color:#255385"/>
			<stop  offset="0.66" style="stop-color:#2F87A5"/>
			<stop  offset="0.9" style="stop-color:#3CCACE"/>
			<stop  offset="1" style="stop-color:#42E8E0"/>
		</linearGradient>
		<path class="st9" d="M245.6,207.5c-4.9,0-10.4-1.6-16.1-4.9c-19.7-11.4-35.8-39.2-35.8-62c0-11.1,3.8-19.4,10.6-23.3
			s15.9-3,25.5,2.5c19.7,11.4,35.8,39.2,35.8,62c0,11.1-3.8,19.4-10.6,23.3C252.2,206.7,248.9,207.5,245.6,207.5z M213.8,115.4
			c-3.2,0-6.4,0.8-9.1,2.3c-6.6,3.8-10.3,11.9-10.3,22.8c0,22.6,15.9,50.2,35.5,61.5l0,0c9.4,5.4,18.3,6.3,24.9,2.5
			s10.3-11.9,10.3-22.8c0-22.6-15.9-50.2-35.5-61.5C223.9,117,218.6,115.3,213.8,115.4L213.8,115.4z"/>
		
			<linearGradient id="SVGID_10_" gradientUnits="userSpaceOnUse" x1="285.5173" y1="134.1758" x2="174.0551" y2="274.5486" gradientTransform="matrix(1 0 0 -1 -0.11 365.46)">
			<stop  offset="0" style="stop-color:#180D5B"/>
			<stop  offset="9.000000e-02" style="stop-color:#1A1660"/>
			<stop  offset="0.25" style="stop-color:#1E2D6E"/>
			<stop  offset="0.44" style="stop-color:#255385"/>
			<stop  offset="0.66" style="stop-color:#2F87A5"/>
			<stop  offset="0.9" style="stop-color:#3CCACE"/>
			<stop  offset="1" style="stop-color:#42E8E0"/>
		</linearGradient>
		<path class="st10" d="M258.1,243.6c-8.8,0-18.5-2.9-28.6-8.8c-35.2-20.3-63.8-69.8-63.8-110.4c0-19.7,6.7-34.4,18.8-41.4
			s28.2-5.4,45.3,4.4c35.2,20.3,63.8,69.8,63.8,110.5c0,19.7-6.7,34.4-18.8,41.4C269.7,242.2,263.9,243.6,258.1,243.6z M201.3,79.2
			c-5.7-0.1-11.4,1.4-16.4,4.2c-11.9,6.9-18.5,21.4-18.5,40.9c0,40.4,28.5,89.7,63.5,109.9c16.9,9.8,32.8,11.3,44.7,4.4
			s18.5-21.4,18.5-40.9c0-40.4-28.5-89.7-63.5-109.9C219.6,82.1,209.9,79.2,201.3,79.2z"/>
		
			<linearGradient id="SVGID_11_" gradientUnits="userSpaceOnUse" x1="152.52" y1="196.4571" x2="291.58" y2="196.4571" gradientTransform="matrix(1 0 0 -1 -0.11 365.46)">
			<stop  offset="0" style="stop-color:#2B237C"/>
			<stop  offset="1" style="stop-color:#180D5B"/>
		</linearGradient>
		<path class="st11" d="M291.5,198.9c0-40.6-28.5-89.9-63.6-110.2c-17.8-10.2-33.8-11.1-45.4-4.2l0,0l-30.1,17.4l12.5,12.3h0.1
			c-0.1,0.4-0.1,0.8-0.2,1.2c10.7,0.9,21.2,4.8,31.1,10c0.5-0.8,1-1.6,1.5-2.3l19.1,5.3l23.8,46.2l0.8,33.8
			c-2.3,10.1-4.7,20.7-11.2,28.5c3.8,2.1,7.8,3.8,12,5.1l-0.1,16.1l31.3-18.1l0,0C284.5,233.2,291.5,219,291.5,198.9z"/>
		
			<linearGradient id="SVGID_12_" gradientUnits="userSpaceOnUse" x1="280.0443" y1="124.9024" x2="186.3143" y2="294.1824" gradientTransform="matrix(1 0 0 -1 -0.11 365.46)">
			<stop  offset="0" style="stop-color:#41E3DD"/>
			<stop  offset="1.000000e-02" style="stop-color:#3FD8D6"/>
			<stop  offset="6.000000e-02" style="stop-color:#37ADBC"/>
			<stop  offset="0.12" style="stop-color:#3088A5"/>
			<stop  offset="0.17" style="stop-color:#2A6A93"/>
			<stop  offset="0.23" style="stop-color:#265285"/>
			<stop  offset="0.29" style="stop-color:#22427B"/>
			<stop  offset="0.36" style="stop-color:#213875"/>
			<stop  offset="0.45" style="stop-color:#203573"/>
			<stop  offset="0.53" style="stop-color:#23467E"/>
			<stop  offset="0.68" style="stop-color:#2C7499"/>
			<stop  offset="0.88" style="stop-color:#3ABCC5"/>
			<stop  offset="1" style="stop-color:#42E8E0"/>
		</linearGradient>
		<path class="st12" d="M291.5,198.9c0-40.6-28.5-89.9-63.6-110.2c-17.8-10.2-33.8-11.1-45.4-4.2l0,0l-30.1,17.4l12.5,12.3h0.1
			c-0.1,0.4-0.1,0.8-0.2,1.2c10.7,0.9,21.2,4.8,31.1,10c0.5-0.8,1-1.6,1.5-2.3l19.1,5.3l23.8,46.2l0.8,33.8
			c-2.3,10.1-4.7,20.7-11.2,28.5c3.8,2.1,7.8,3.8,12,5.1l-0.1,16.1l31.3-18.1l0,0C284.5,233.2,291.5,219,291.5,198.9z"/>
		
			<linearGradient id="SVGID_13_" gradientUnits="userSpaceOnUse" x1="148.9" y1="188.145" x2="241.38" y2="188.145" gradientTransform="matrix(1 0 0 -1 -0.11 365.46)">
			<stop  offset="0" style="stop-color:#2B237C"/>
			<stop  offset="1" style="stop-color:#180D5B"/>
		</linearGradient>
		<path class="st13" d="M227.9,203.3c-19.7-11.4-35.6-39-35.6-61.8c0-6.6,1.4-12.1,3.7-16.2c-9.9-5.2-20.4-9.1-31.1-10
			c-0.4,3.3-0.6,6.7-0.6,10c0,3.7,0.2,7.5,0.7,11.2l-12.5,2.6l-3.6,7.3l15.5,60.6l30.9,32.2c0,0,14.6-4.9,24.9-8.8
			c2.5,1.8,5.1,3.5,7.8,5.1c0.7,0.4,1.4,0.8,2.1,1.2c6.6-7.9,9-18.5,11.2-28.8C236.5,207.4,232,205.8,227.9,203.3z"/>
		
			<radialGradient id="SVGID_14_" cx="176.44" cy="198.46" r="120.05" gradientTransform="matrix(1 0 0 -1 -0.11 365.46)" gradientUnits="userSpaceOnUse">
			<stop  offset="0" style="stop-color:#180D5B"/>
			<stop  offset="9.000000e-02" style="stop-color:#1A1660"/>
			<stop  offset="0.25" style="stop-color:#1E2D6E"/>
			<stop  offset="0.44" style="stop-color:#255385"/>
			<stop  offset="0.66" style="stop-color:#2F87A5"/>
			<stop  offset="0.9" style="stop-color:#3CCACE"/>
			<stop  offset="1" style="stop-color:#42E8E0"/>
		</radialGradient>
		<path class="st14" d="M227.9,203.3c-19.7-11.4-35.6-39-35.6-61.8c0-6.6,1.4-12.1,3.7-16.2c-9.9-5.2-20.4-9.1-31.1-10
			c-0.4,3.3-0.6,6.7-0.6,10c0,3.7,0.2,7.5,0.7,11.2l-12.5,2.6l-3.6,7.3l15.5,60.6l30.9,32.2c0,0,14.6-4.9,24.9-8.8
			c2.5,1.8,5.1,3.5,7.8,5.1c0.7,0.4,1.4,0.8,2.1,1.2c6.6-7.9,9-18.5,11.2-28.8C236.5,207.4,232,205.8,227.9,203.3z"/>
		
			<radialGradient id="SVGID_15_" cx="203.325" cy="189.4" r="50.9171" gradientTransform="matrix(1 0 0 -1 -0.11 365.46)" gradientUnits="userSpaceOnUse">
			<stop  offset="0" style="stop-color:#180D5B"/>
			<stop  offset="9.000000e-02" style="stop-color:#1A1660"/>
			<stop  offset="0.25" style="stop-color:#1E2D6E"/>
			<stop  offset="0.44" style="stop-color:#255385"/>
			<stop  offset="0.66" style="stop-color:#2F87A5"/>
			<stop  offset="0.9" style="stop-color:#3CCACE"/>
			<stop  offset="1" style="stop-color:#42E8E0"/>
		</radialGradient>
		<path class="st15" d="M230.2,237l-0.5-0.4c6.5-7.9,9-18.7,11.1-28.3c-4.7-0.7-9.1-2.3-13.2-4.7c-19.7-11.4-35.8-39.2-35.8-62
			c0-6.4,1.2-11.8,3.6-16.1c-11.1-5.8-21.1-9-30.7-9.8l0.1-0.6c9.7,0.8,19.9,4.1,31.2,10l0.3,0.1l-0.1,0.3
			c-2.5,4.3-3.7,9.7-3.7,16.1c0,22.6,15.9,50.2,35.5,61.5c4.1,2.5,8.6,4.1,13.3,4.7h0.3l-0.1,0.3C239.4,217.9,236.9,229,230.2,237z"
			/>
		<path class="st7" d="M196.4,106.8c-35.1-20.3-63.6-3.8-63.6,36.7s28.5,89.9,63.6,110.2s63.6,3.8,63.6-36.7
			S231.6,127.1,196.4,106.8z M196.4,221.5c-19.7-11.4-35.7-39-35.7-61.8s16-32,35.6-20.6s35.6,39,35.6,61.8S216.1,232.9,196.4,221.5
			L196.4,221.5z"/>
		
			<linearGradient id="SVGID_16_" gradientUnits="userSpaceOnUse" x1="260.1702" y1="105.0102" x2="114.4602" y2="288.5302" gradientTransform="matrix(1 0 0 -1 -0.11 365.46)">
			<stop  offset="0" style="stop-color:#180D5B"/>
			<stop  offset="9.000000e-02" style="stop-color:#1A1660"/>
			<stop  offset="0.25" style="stop-color:#1E2D6E"/>
			<stop  offset="0.44" style="stop-color:#255385"/>
			<stop  offset="0.66" style="stop-color:#2F87A5"/>
			<stop  offset="0.9" style="stop-color:#3CCACE"/>
			<stop  offset="1" style="stop-color:#42E8E0"/>
		</linearGradient>
		<path class="st16" d="M196.4,106.8c-35.1-20.3-63.6-3.8-63.6,36.7s28.5,89.9,63.6,110.2s63.6,3.8,63.6-36.7
			S231.6,127.1,196.4,106.8z M196.4,221.5c-19.7-11.4-35.7-39-35.7-61.8s16-32,35.6-20.6s35.6,39,35.6,61.8S216.1,232.9,196.4,221.5
			L196.4,221.5z"/>
		
			<linearGradient id="SVGID_17_" gradientUnits="userSpaceOnUse" x1="227.847" y1="145.7071" x2="165.2314" y2="224.5816" gradientTransform="matrix(1 0 0 -1 -0.11 365.46)">
			<stop  offset="0" style="stop-color:#180D5B"/>
			<stop  offset="9.000000e-02" style="stop-color:#1A1660"/>
			<stop  offset="0.25" style="stop-color:#1E2D6E"/>
			<stop  offset="0.44" style="stop-color:#255385"/>
			<stop  offset="0.66" style="stop-color:#2F87A5"/>
			<stop  offset="0.9" style="stop-color:#3CCACE"/>
			<stop  offset="1" style="stop-color:#42E8E0"/>
		</linearGradient>
		<path class="st17" d="M212.4,226.7c-4.9,0-10.4-1.6-16.1-4.9c-19.7-11.4-35.8-39.2-35.8-62c0-11.1,3.8-19.4,10.6-23.3
			s15.9-3.1,25.5,2.5c19.7,11.4,35.8,39.2,35.8,62c0,11.1-3.8,19.4-10.6,23.3C218.9,225.9,215.7,226.7,212.4,226.7z M180.5,134.6
			c-3.2,0-6.4,0.8-9.1,2.3c-6.6,3.8-10.3,11.9-10.3,22.8c0,22.6,15.9,50.2,35.5,61.5c9.4,5.4,18.3,6.3,24.9,2.5s10.3-11.9,10.3-22.8
			c0-22.6-15.9-50.2-35.5-61.5C190.7,136.2,185.3,134.6,180.5,134.6L180.5,134.6z"/>
		
			<linearGradient id="SVGID_18_" gradientUnits="userSpaceOnUse" x1="252.3198" y1="114.9652" x2="140.8602" y2="255.3347" gradientTransform="matrix(1 0 0 -1 -0.11 365.46)">
			<stop  offset="0" style="stop-color:#180D5B"/>
			<stop  offset="9.000000e-02" style="stop-color:#1A1660"/>
			<stop  offset="0.25" style="stop-color:#1E2D6E"/>
			<stop  offset="0.44" style="stop-color:#255385"/>
			<stop  offset="0.66" style="stop-color:#2F87A5"/>
			<stop  offset="0.9" style="stop-color:#3CCACE"/>
			<stop  offset="1" style="stop-color:#42E8E0"/>
		</linearGradient>
		<path class="st18" d="M224.9,262.8c-8.8,0-18.5-2.9-28.6-8.8c-35.2-20.3-63.8-69.8-63.8-110.4c0-19.7,6.7-34.5,18.8-41.4
			s28.2-5.4,45.3,4.5c35.2,20.3,63.8,69.8,63.8,110.4c0,19.7-6.7,34.4-18.8,41.4C236.5,261.4,230.7,262.9,224.9,262.8z M168,98.5
			c-5.8-0.1-11.4,1.4-16.4,4.2c-11.9,6.9-18.5,21.4-18.5,40.9c0,40.4,28.5,89.7,63.5,109.9c16.9,9.8,32.8,11.3,44.7,4.5
			c11.9-6.9,18.5-21.4,18.5-40.9c0-40.4-28.5-89.7-63.5-109.9C186.3,101.3,176.7,98.5,168,98.5z"/>
		
			<linearGradient id="SVGID_19_" gradientUnits="userSpaceOnUse" x1="122.05" y1="172.695" x2="214.54" y2="172.695" gradientTransform="matrix(1 0 0 -1 -0.11 365.46)">
			<stop  offset="0" style="stop-color:#2B237C"/>
			<stop  offset="1" style="stop-color:#180D5B"/>
		</linearGradient>
		<path class="st19" d="M201,218.8c-19.7-11.4-35.6-39-35.6-61.8c0-6.6,1.4-12.1,3.7-16.2c-9.9-5.2-20.4-9.1-31.1-10
			c-0.4,3.3-0.6,6.7-0.6,10c0,3.7,0.2,7.5,0.7,11.2l-12.5,2.6l-3.7,7.3l15.5,60.6l30.9,32.2c0,0,14.6-4.9,24.9-8.8
			c2.5,1.8,5.1,3.5,7.8,5.1c0.7,0.4,1.4,0.8,2.1,1.2c6.6-7.9,9-18.5,11.2-28.8C209.7,222.8,205.1,221.2,201,218.8z"/>
		
			<linearGradient id="SVGID_20_" gradientUnits="userSpaceOnUse" x1="232.1847" y1="149.7852" x2="169.9232" y2="228.1871" gradientTransform="matrix(1.0034 1.987308e-03 1.987308e-03 -1.0034 -0.4975 367.3138)">
			<stop  offset="0" style="stop-color:#180D5B"/>
			<stop  offset="9.000000e-02" style="stop-color:#1A1660"/>
			<stop  offset="0.25" style="stop-color:#1E2D6E"/>
			<stop  offset="0.44" style="stop-color:#255385"/>
			<stop  offset="0.66" style="stop-color:#2F87A5"/>
			<stop  offset="0.9" style="stop-color:#3CCACE"/>
			<stop  offset="1" style="stop-color:#42E8E0"/>
		</linearGradient>
		<path class="st20" d="M176.4,134.2c14-8,36.6,5.1,50.5,29.3s13.9,50.4-0.1,58.4c-14,8-36.6-5.1-50.5-29.3S162.4,142.2,176.4,134.2
			z"/>
		
			<linearGradient id="SVGID_21_" gradientUnits="userSpaceOnUse" x1="232.1847" y1="149.7852" x2="169.9232" y2="228.1871" gradientTransform="matrix(1.0034 1.987308e-03 1.987308e-03 -1.0034 -0.4975 367.3138)">
			<stop  offset="0" style="stop-color:#180D5B"/>
			<stop  offset="9.000000e-02" style="stop-color:#1A1660"/>
			<stop  offset="0.25" style="stop-color:#1E2D6E"/>
			<stop  offset="0.44" style="stop-color:#255385"/>
			<stop  offset="0.66" style="stop-color:#2F87A5"/>
			<stop  offset="0.9" style="stop-color:#3CCACE"/>
			<stop  offset="1" style="stop-color:#42E8E0"/>
		</linearGradient>
		<path class="st21" d="M176.4,134.2c14-8,36.6,5.1,50.5,29.3s13.9,50.4-0.1,58.4c-14,8-36.6-5.1-50.5-29.3S162.4,142.2,176.4,134.2
			z"/>
		
			<radialGradient id="SVGID_22_" cx="149.64" cy="183.01" r="120.05" gradientTransform="matrix(1 0 0 -1 -0.11 365.46)" gradientUnits="userSpaceOnUse">
			<stop  offset="0" style="stop-color:#180D5B"/>
			<stop  offset="9.000000e-02" style="stop-color:#1A1660"/>
			<stop  offset="0.25" style="stop-color:#1E2D6E"/>
			<stop  offset="0.44" style="stop-color:#255385"/>
			<stop  offset="0.66" style="stop-color:#2F87A5"/>
			<stop  offset="0.9" style="stop-color:#3CCACE"/>
			<stop  offset="1" style="stop-color:#42E8E0"/>
		</radialGradient>
		<path class="st22" d="M201,218.8c-19.7-11.4-35.6-39-35.6-61.8c0-6.6,1.4-12.1,3.7-16.2c-9.9-5.2-20.4-9.1-31.1-10
			c-0.4,3.3-0.6,6.7-0.6,10c0,3.7,0.2,7.5,0.7,11.2l-12.5,2.6l-3.7,7.3l15.5,60.6l30.9,32.2c0,0,14.6-4.9,24.9-8.8
			c2.5,1.8,5.1,3.5,7.8,5.1c0.7,0.4,1.4,0.8,2.1,1.2c6.6-7.9,9-18.5,11.2-28.8C209.7,222.8,205.1,221.2,201,218.8z"/>
		
			<image style="overflow:visible;opacity:0.7;enable-background:new    ;" width="320" height="509" xlink:href="FC738645E29F9DDC.png"  transform="matrix(0.24 0 0 0.24 138.01 130.42)">
		</image>
		<path class="st23" d="M190.6,224.9c-19.7-11.4-35.7-39-35.7-61.8c0-8.2,2.1-14.6,5.6-18.9c-9.9,1.6-16.4,10.6-16.4,25.2
			c0,22.7,16,50.4,35.7,61.8c12.6,7.3,23.7,6.1,30-1.6C204.2,230.4,197.6,229,190.6,224.9z"/>
		
			<linearGradient id="SVGID_23_" gradientUnits="userSpaceOnUse" x1="125.72" y1="175.4339" x2="245.65" y2="175.4339" gradientTransform="matrix(1 0 0 -1 -0.11 365.46)">
			<stop  offset="0" style="stop-color:#2B237C"/>
			<stop  offset="1" style="stop-color:#180D5B"/>
		</linearGradient>
		<path class="st24" d="M245.5,225.5c0-40.6-28.5-89.9-63.6-110.2c-17.8-10.3-33.9-11.1-45.4-4.2l0,0l-10.9,6.3l12.5,12.3h0.1
			l-0.2,1.2c10.7,0.9,21.2,4.8,31.1,10c0.5-0.8,1-1.6,1.5-2.3l19.1,5.3l23.8,46.2l0.8,33.8c-2.2,10.1-4.7,20.6-11.2,28.4
			c3.8,2.1,7.8,3.8,12,5.1l-0.2,16l12.2-7l0,0C238.5,259.7,245.5,245.6,245.5,225.5z"/>
		
			<linearGradient id="SVGID_24_" gradientUnits="userSpaceOnUse" x1="221.1701" y1="151.2298" x2="124.6801" y2="244.9898" gradientTransform="matrix(1 0 0 -1 -0.11 365.46)">
			<stop  offset="0" style="stop-color:#180D5B"/>
			<stop  offset="9.000000e-02" style="stop-color:#1A1560"/>
			<stop  offset="0.25" style="stop-color:#1E2D6E"/>
			<stop  offset="0.29" style="stop-color:#203573"/>
			<stop  offset="0.39" style="stop-color:#23467E"/>
			<stop  offset="0.58" style="stop-color:#2C7499"/>
			<stop  offset="0.85" style="stop-color:#3ABCC5"/>
			<stop  offset="1" style="stop-color:#42E8E0"/>
		</linearGradient>
		<path class="st25" d="M245.5,225.5c0-40.6-28.5-89.9-63.6-110.2c-17.8-10.3-33.9-11.1-45.4-4.2l0,0l-10.9,6.3l12.5,12.3h0.1
			l-0.2,1.2c10.7,0.9,21.2,4.8,31.1,10c0.5-0.8,1-1.6,1.5-2.3l19.1,5.3l23.8,46.2l0.8,33.8c-2.2,10.1-4.7,20.6-11.2,28.4
			c3.8,2.1,7.8,3.8,12,5.1l-0.2,16l12.2-7l0,0C238.5,259.7,245.5,245.6,245.5,225.5z"/>
		<path class="st7" d="M169.6,122.3C134.5,102,106,118.5,106,159s28.5,89.9,63.6,110.2s63.6,3.8,63.6-36.7S204.8,142.6,169.6,122.3z
			 M169.6,236.9c-19.7-11.4-35.7-39-35.7-61.8s16-31.9,35.6-20.6s35.7,39,35.7,61.8S189.3,248.3,169.6,236.9z"/>
		
			<linearGradient id="SVGID_25_" gradientUnits="userSpaceOnUse" x1="233.3681" y1="89.5585" x2="87.6481" y2="273.0785" gradientTransform="matrix(1 0 0 -1 -0.11 365.46)">
			<stop  offset="0" style="stop-color:#180D5B"/>
			<stop  offset="9.000000e-02" style="stop-color:#1A1660"/>
			<stop  offset="0.25" style="stop-color:#1E2D6E"/>
			<stop  offset="0.44" style="stop-color:#255385"/>
			<stop  offset="0.66" style="stop-color:#2F87A5"/>
			<stop  offset="0.9" style="stop-color:#3CCACE"/>
			<stop  offset="1" style="stop-color:#42E8E0"/>
		</linearGradient>
		<path class="st26" d="M169.6,122.3C134.5,102,106,118.5,106,159s28.5,89.9,63.6,110.2s63.6,3.8,63.6-36.7S204.8,142.6,169.6,122.3
			z M169.6,236.9c-19.7-11.4-35.7-39-35.7-61.8s16-31.9,35.6-20.6s35.7,39,35.7,61.8S189.3,248.3,169.6,236.9z"/>
		
			<linearGradient id="SVGID_26_" gradientUnits="userSpaceOnUse" x1="201.0408" y1="130.2605" x2="138.4194" y2="209.1296" gradientTransform="matrix(1 0 0 -1 -0.11 365.46)">
			<stop  offset="0" style="stop-color:#180D5B"/>
			<stop  offset="9.000000e-02" style="stop-color:#1A1660"/>
			<stop  offset="0.25" style="stop-color:#1E2D6E"/>
			<stop  offset="0.44" style="stop-color:#255385"/>
			<stop  offset="0.66" style="stop-color:#2F87A5"/>
			<stop  offset="0.9" style="stop-color:#3CCACE"/>
			<stop  offset="1" style="stop-color:#42E8E0"/>
		</linearGradient>
		<path class="st27" d="M185.6,242.1c-4.9,0-10.4-1.6-16.1-4.9c-19.8-11.4-35.8-39.2-35.8-62c0-11.1,3.8-19.4,10.6-23.3
			s15.9-3.1,25.5,2.5c19.7,11.4,35.8,39.2,35.8,62c0,11.1-3.8,19.4-10.6,23.3C192.1,241.3,188.9,242.2,185.6,242.1z M153.7,150
			c-3.2,0-6.4,0.8-9.1,2.3c-6.6,3.8-10.3,11.9-10.3,22.8c0,22.6,15.9,50.2,35.5,61.5c9.4,5.4,18.3,6.3,24.9,2.5s10.3-11.9,10.3-22.8
			c0-22.6-15.9-50.2-35.5-61.5C163.9,151.6,158.5,150,153.7,150L153.7,150z"/>
		
			<linearGradient id="SVGID_27_" gradientUnits="userSpaceOnUse" x1="225.4445" y1="99.5252" x2="113.9956" y2="239.8811" gradientTransform="matrix(1 0 0 -1 -0.11 365.46)">
			<stop  offset="0" style="stop-color:#180D5B"/>
			<stop  offset="9.000000e-02" style="stop-color:#1A1660"/>
			<stop  offset="0.25" style="stop-color:#1E2D6E"/>
			<stop  offset="0.44" style="stop-color:#255385"/>
			<stop  offset="0.66" style="stop-color:#2F87A5"/>
			<stop  offset="0.9" style="stop-color:#3CCACE"/>
			<stop  offset="1" style="stop-color:#42E8E0"/>
		</linearGradient>
		<path class="st28" d="M198,278.2c-8.8,0-18.5-2.9-28.6-8.8c-35.2-20.3-63.8-69.8-63.8-110.4c0-19.7,6.7-34.5,18.8-41.4
			s28.2-5.4,45.3,4.5c35.1,20.3,63.8,69.8,63.8,110.4c0,19.7-6.7,34.4-18.8,41.4C209.7,276.8,203.9,278.3,198,278.2z M141.2,113.9
			c-5.8-0.1-11.4,1.4-16.4,4.2c-11.9,6.9-18.5,21.4-18.5,40.9c0,40.4,28.5,89.7,63.5,109.9c16.9,9.8,32.8,11.3,44.7,4.5
			s18.5-21.4,18.5-40.9c0-40.4-28.5-89.7-63.5-109.9C159.5,116.8,149.9,113.9,141.2,113.9z"/>
		<g class="st29">
			<path class="st30" d="M170.7,152c0,0.4-0.3,0.6-0.6,0.4c-0.3-0.2-0.6-0.6-0.6-1c0-0.4,0.3-0.6,0.6-0.4
				C170.5,151.2,170.7,151.5,170.7,152z"/>
			<path class="st30" d="M163.9,148.6c0.1,0.4-0.2,0.7-0.5,0.5c-0.4-0.2-0.7-0.6-0.7-1c-0.1-0.4,0.2-0.6,0.5-0.5
				C163.6,147.8,163.8,148.1,163.9,148.6z"/>
			<path class="st30" d="M157.2,146.7c0.1,0.4,0,0.8-0.4,0.7c-0.4-0.1-0.7-0.5-0.8-0.9c-0.1-0.4,0-0.8,0.4-0.7
				C156.8,146,157.1,146.3,157.2,146.7z"/>
			<path class="st30" d="M150.9,146.5c0.2,0.4,0.1,0.8-0.2,0.9s-0.7-0.3-0.8-0.7s-0.1-0.8,0.2-0.8S150.7,146,150.9,146.5z"/>
			<path class="st30" d="M145.3,147.8c0.2,0.4,0.2,0.9-0.1,1s-0.6-0.1-0.9-0.6s-0.2-0.9,0.1-1S145,147.3,145.3,147.8z"/>
			<path class="st30" d="M140.4,150.6c0.3,0.4,0.3,0.9,0.1,1s-0.6,0-0.9-0.4s-0.3-0.9-0.1-1.1S140.1,150.2,140.4,150.6z"/>
			<path class="st30" d="M136.5,155c0.3,0.3,0.4,0.7,0.2,1.1c-0.2,0.2-0.5,0.2-0.8-0.2c-0.3-0.3-0.4-0.7-0.2-1.1
				C135.9,154.5,136.2,154.6,136.5,155z"/>
			<path class="st30" d="M133.7,160.6c0.3,0.3,0.5,0.7,0.4,1.1c-0.1,0.3-0.4,0.3-0.8,0c-0.3-0.3-0.5-0.7-0.4-1.1
				C133.1,160.3,133.4,160.3,133.7,160.6z"/>
			<path class="st30" d="M132.1,167.5c0.3,0.3,0.5,0.7,0.5,1.1c0,0.4-0.4,0.4-0.7,0.2c-0.3-0.3-0.5-0.7-0.5-1.1
				C131.4,167.3,131.7,167.2,132.1,167.5z"/>
			<path class="st30" d="M131.6,175.1c0.4,0.2,0.6,0.6,0.6,1c0,0.4-0.2,0.6-0.6,0.4c-0.4-0.2-0.6-0.6-0.6-1
				C131.1,175.1,131.3,174.9,131.6,175.1z"/>
			<path class="st30" d="M132.5,183.5c0.4,0.2,0.7,0.6,0.7,1c0.1,0.4-0.1,0.7-0.5,0.6c-0.4-0.2-0.7-0.6-0.7-1
				C131.9,183.7,132.1,183.4,132.5,183.5z"/>
			<path class="st30" d="M134.5,192.3c0.3,0,0.7,0.4,0.8,0.8s0,0.8-0.3,0.7s-0.7-0.4-0.8-0.8S134.2,192.3,134.5,192.3z"/>
			<path class="st30" d="M137.7,201.2c0.3,0,0.7,0.3,0.9,0.7s0.1,0.8-0.2,0.9s-0.7-0.2-0.8-0.7S137.4,201.2,137.7,201.2z"/>
			<path class="st30" d="M141.9,209.9c0.2-0.1,0.6,0.1,0.9,0.5s0.2,0.9,0,1s-0.6-0.1-0.9-0.5S141.6,210.1,141.9,209.9z"/>
			<path class="st30" d="M147,218.2c0.2-0.2,0.6-0.1,0.9,0.3s0.3,0.9,0.1,1.1s-0.6,0.1-0.9-0.3S146.8,218.5,147,218.2z"/>
			<path class="st30" d="M152.9,225.8c0.1-0.3,0.5-0.2,0.8,0.1c0.3,0.3,0.4,0.7,0.3,1.1c-0.1,0.3-0.5,0.2-0.8-0.1
				C152.9,226.6,152.8,226.2,152.9,225.8z"/>
			<path class="st30" d="M159.3,232.5c0.1-0.3,0.4-0.4,0.8-0.1c0.3,0.3,0.5,0.7,0.4,1.1c-0.1,0.3-0.4,0.4-0.8,0.1
				C159.4,233.3,159.2,232.9,159.3,232.5z"/>
			<path class="st30" d="M166.1,237.9c0-0.4,0.3-0.5,0.7-0.3c0.3,0.3,0.5,0.7,0.6,1.1c0,0.4-0.3,0.5-0.7,0.3
				C166.3,238.7,166.1,238.3,166.1,237.9z"/>
			<path class="st30" d="M173,242c0-0.4,0.2-0.6,0.6-0.4c0.4,0.2,0.6,0.6,0.7,1c0,0.4-0.2,0.6-0.6,0.4
				C173.3,242.8,173,242.4,173,242z"/>
			<path class="st30" d="M179.8,244.6c-0.1-0.4,0.1-0.7,0.4-0.6c0.4,0.2,0.7,0.5,0.8,0.9c0.1,0.4-0.1,0.7-0.4,0.6
				C180.1,245.4,179.8,245,179.8,244.6z"/>
			<path class="st30" d="M186.3,245.7c-0.1-0.4,0-0.8,0.3-0.8s0.7,0.4,0.8,0.8s0,0.8-0.3,0.8S186.4,246.1,186.3,245.7z"/>
			<path class="st30" d="M192.2,245.2c-0.2-0.4-0.1-0.8,0.1-0.9s0.7,0.2,0.9,0.6s0.1,0.8-0.1,0.9S192.4,245.6,192.2,245.2z"/>
			<path class="st30" d="M197.5,243.1c-0.2-0.4-0.2-0.9,0-1s0.6,0.1,0.9,0.5s0.2,0.9,0,1S197.8,243.5,197.5,243.1z"/>
			<path class="st30" d="M201.9,239.5c-0.3-0.4-0.4-0.9-0.2-1.1s0.6-0.1,0.9,0.3c0.3,0.3,0.3,0.7,0.2,1.1
				C202.6,240,202.2,239.8,201.9,239.5z"/>
			<path class="st30" d="M205.3,234.5c-0.3-0.3-0.4-0.7-0.3-1.1c0.1-0.3,0.5-0.2,0.8,0.1c0.3,0.3,0.4,0.7,0.3,1.1
				C205.9,234.8,205.6,234.8,205.3,234.5z"/>
			<path class="st30" d="M207.5,228.2c-0.3-0.3-0.5-0.7-0.5-1.1c0.1-0.3,0.4-0.4,0.7-0.1c0.3,0.3,0.5,0.7,0.5,1.1
				C208.2,228.5,207.8,228.5,207.5,228.2z"/>
			<path class="st30" d="M208.5,220.9c-0.4-0.2-0.6-0.6-0.6-1.1c0-0.4,0.3-0.5,0.6-0.3c0.4,0.2,0.6,0.6,0.6,1.1
				C209.2,221,208.9,221.1,208.5,220.9z"/>
			<path class="st30" d="M208.3,212.8c-0.4-0.2-0.6-0.6-0.7-1c0-0.4,0.2-0.6,0.5-0.5c0.4,0.2,0.6,0.6,0.7,1
				C208.9,212.8,208.7,213,208.3,212.8z"/>
			<path class="st30" d="M206.9,204.2c-0.4-0.1-0.7-0.5-0.8-0.9c-0.1-0.4,0.1-0.7,0.4-0.7c0.4,0.1,0.7,0.5,0.8,0.9
				C207.4,204,207.2,204.3,206.9,204.2z"/>
			<path class="st30" d="M204.3,195.3c-0.3,0-0.7-0.3-0.8-0.8s-0.1-0.8,0.2-0.8s0.7,0.3,0.8,0.8S204.6,195.3,204.3,195.3z"/>
			<path class="st30" d="M200.6,186.5c-0.3,0.1-0.6-0.2-0.9-0.6s-0.2-0.8,0.1-0.9s0.6,0.2,0.9,0.6S200.9,186.4,200.6,186.5z"/>
			<path class="st30" d="M195.9,177.9c-0.2,0.2-0.6,0-0.9-0.4s-0.3-0.9-0.1-1s0.6,0,0.9,0.4S196.1,177.8,195.9,177.9z"/>
			<path class="st30" d="M190.4,170c-0.2,0.2-0.5,0.1-0.8-0.2c-0.3-0.3-0.4-0.7-0.2-1.1c0.2-0.2,0.6-0.1,0.8,0.2
				C190.5,169.2,190.5,169.6,190.4,170z"/>
			<path class="st30" d="M184.2,162.8c-0.1,0.3-0.5,0.3-0.8,0c-0.3-0.3-0.4-0.7-0.4-1.1c0.1-0.3,0.5-0.3,0.8,0
				C184.2,162,184.3,162.4,184.2,162.8z"/>
			<path class="st30" d="M177.6,156.8c-0.1,0.4-0.4,0.4-0.7,0.2c-0.3-0.3-0.5-0.7-0.5-1.1c0.1-0.4,0.4-0.4,0.7-0.2
				C177.4,155.9,177.6,156.3,177.6,156.8z"/>
			<g class="st31">
				<path class="st30" d="M170.8,145.5c0,0.4-0.3,0.6-0.7,0.4c-0.4-0.3-0.7-0.7-0.7-1.2c0-0.4,0.3-0.6,0.7-0.4
					C170.5,144.6,170.8,145,170.8,145.5z"/>
				<path class="st30" d="M162.9,141.7c0.1,0.5-0.2,0.8-0.6,0.6c-0.4-0.2-0.7-0.6-0.8-1.1c-0.1-0.5,0.2-0.8,0.6-0.6
					C162.6,140.7,162.9,141.2,162.9,141.7z"/>
				<path class="st30" d="M155.3,139.5c0.1,0.5-0.1,0.9-0.4,0.8c-0.5-0.2-0.8-0.5-0.9-1c-0.1-0.5,0-0.9,0.4-0.8
					C154.8,138.7,155.2,139.1,155.3,139.5z"/>
				<path class="st30" d="M148.1,139.2c0.2,0.5,0.1,0.9-0.2,1s-0.8-0.3-1-0.8s-0.1-0.9,0.2-1S147.9,138.7,148.1,139.2z"/>
				<path class="st30" d="M141.6,140.7c0.3,0.5,0.2,1-0.1,1.1s-0.7-0.2-1-0.6s-0.2-1,0.1-1.1S141.4,140.2,141.6,140.7z"/>
				<path class="st30" d="M136.1,144c0.3,0.4,0.4,1,0.1,1.2s-0.7,0-1-0.4s-0.4-1-0.1-1.2S135.8,143.6,136.1,144z"/>
				<path class="st30" d="M131.6,149c0.3,0.3,0.4,0.8,0.3,1.3c-0.2,0.3-0.6,0.2-0.9-0.2c-0.3-0.3-0.4-0.8-0.3-1.3
					C130.9,148.5,131.3,148.6,131.6,149z"/>
				<path class="st30" d="M128.4,155.5c0.4,0.3,0.5,0.8,0.4,1.3c-0.1,0.4-0.5,0.4-0.9,0c-0.4-0.3-0.5-0.8-0.4-1.3
					C127.6,155.1,128,155.1,128.4,155.5z"/>
				<path class="st30" d="M126.5,163.2c0.4,0.3,0.6,0.8,0.6,1.2c-0.1,0.4-0.4,0.5-0.8,0.2c-0.4-0.3-0.6-0.8-0.6-1.3
					C125.8,163.1,126.1,163,126.5,163.2z"/>
				<path class="st30" d="M126.1,172.1c0.4,0.3,0.7,0.7,0.7,1.2c0,0.4-0.3,0.7-0.7,0.4c-0.4-0.3-0.7-0.7-0.7-1.2
					C125.4,172.1,125.7,171.9,126.1,172.1z"/>
				<path class="st30" d="M127,181.7c0.4,0.2,0.8,0.6,0.8,1.1c0.1,0.5-0.2,0.8-0.5,0.7c-0.4-0.2-0.8-0.6-0.8-1.1
					C126.4,181.8,126.6,181.6,127,181.7z"/>
				<path class="st30" d="M129.3,191.7c0.5,0.1,0.8,0.5,0.9,1c0.1,0.5,0,0.9-0.4,0.9c-0.5-0.1-0.8-0.5-0.9-1
					C128.8,192.1,128.9,191.7,129.3,191.7z"/>
				<path class="st30" d="M132.9,201.9c0.3-0.1,0.8,0.3,1,0.8s0.1,0.9-0.2,1s-0.8-0.3-1-0.8S132.6,202,132.9,201.9z"/>
				<path class="st30" d="M137.8,212c0.3-0.1,0.7,0.1,1,0.6s0.3,1,0,1.1s-0.7-0.1-1-0.6S137.5,212.1,137.8,212z"/>
				<path class="st30" d="M143.6,221.5c0.2-0.2,0.7-0.1,1,0.4s0.4,1,0.1,1.2s-0.7,0.1-1-0.4S143.4,221.7,143.6,221.5z"/>
				<path class="st30" d="M150.4,230.1c0.2-0.3,0.6-0.2,0.9,0.2c0.3,0.3,0.5,0.8,0.3,1.3c-0.2,0.3-0.6,0.2-0.9-0.2
					C150.4,231.1,150.2,230.6,150.4,230.1z"/>
				<path class="st30" d="M157.7,237.7c0.1-0.4,0.5-0.4,0.9-0.1c0.4,0.3,0.5,0.8,0.5,1.3c-0.1,0.4-0.5,0.4-0.9,0.1
					C157.8,238.7,157.7,238.2,157.7,237.7z"/>
				<path class="st30" d="M165.5,244c0-0.4,0.4-0.6,0.8-0.3c0.4,0.3,0.6,0.8,0.6,1.2c0,0.4-0.4,0.6-0.8,0.3
					C165.7,244.9,165.5,244.5,165.5,244z"/>
				<path class="st30" d="M173.4,248.7c0-0.5,0.2-0.7,0.6-0.5c0.4,0.2,0.7,0.7,0.8,1.2c0,0.5-0.2,0.7-0.6,0.5
					C173.7,249.6,173.4,249.2,173.4,248.7z"/>
				<path class="st30" d="M181.2,251.7c-0.1-0.5,0.1-0.8,0.5-0.7c0.4,0.2,0.8,0.6,0.9,1.1c0.1,0.5-0.1,0.8-0.5,0.7
					C181.6,252.6,181.3,252.2,181.2,251.7z"/>
				<path class="st30" d="M188.6,252.9c-0.2-0.5,0-0.9,0.3-0.9s0.8,0.4,0.9,0.9s0,0.9-0.3,0.9S188.8,253.5,188.6,252.9z"/>
				<path class="st30" d="M195.5,252.3c-0.2-0.5-0.2-1,0.2-1s0.8,0.2,1,0.7s0.2,1-0.1,1S195.7,252.8,195.5,252.3z"/>
				<path class="st30" d="M201.5,249.9c-0.3-0.5-0.3-1,0-1.2s0.7,0.1,1,0.6s0.3,1,0,1.1S201.8,250.4,201.5,249.9z"/>
				<path class="st30" d="M206.5,245.8c-0.3-0.3-0.4-0.8-0.2-1.2c0.2-0.2,0.6-0.1,1,0.3s0.4,1,0.2,1.2S206.9,246.2,206.5,245.8z"/>
				<path class="st30" d="M210.4,240c-0.3-0.3-0.5-0.8-0.4-1.3c0.1-0.3,0.6-0.3,0.9,0.1c0.3,0.3,0.5,0.8,0.4,1.3
					C211.2,240.5,210.7,240.5,210.4,240z"/>
				<path class="st30" d="M212.9,232.9c-0.4-0.3-0.6-0.8-0.5-1.3c0.1-0.4,0.5-0.4,0.8-0.1c0.4,0.3,0.6,0.8,0.5,1.3
					C213.7,233.1,213.3,233.2,212.9,232.9z"/>
				<path class="st30" d="M214.1,224.5c-0.4-0.3-0.7-0.7-0.7-1.2c0-0.4,0.3-0.6,0.7-0.4c0.4,0.3,0.7,0.7,0.7,1.2
					C214.9,224.6,214.5,224.8,214.1,224.5z"/>
				<path class="st30" d="M213.9,215.3c-0.4-0.2-0.7-0.7-0.8-1.1c0-0.5,0.2-0.7,0.6-0.6c0.4,0.2,0.7,0.7,0.8,1.1
					C214.6,215.2,214.3,215.5,213.9,215.3z"/>
				<path class="st30" d="M212.3,205.4c-0.4-0.2-0.8-0.5-0.9-1c-0.1-0.5,0.1-0.8,0.4-0.8c0.4,0.2,0.8,0.5,0.9,1
					C212.9,205.1,212.6,205.5,212.3,205.4z"/>
				<path class="st30" d="M209.3,195.2c-0.3,0-0.8-0.4-0.9-0.9s-0.1-0.9,0.3-0.9s0.8,0.4,0.9,0.9S209.6,195.2,209.3,195.2z"/>
				<path class="st30" d="M205,185.1c-0.3,0.1-0.7-0.2-1-0.7s-0.2-1,0.1-1.1s0.7,0.2,1,0.7S205.3,185,205,185.1z"/>
				<path class="st30" d="M199.7,175.3c-0.3,0.2-0.7,0-1-0.5s-0.3-1-0.1-1.2s0.7,0,1,0.5S199.9,175.1,199.7,175.3z"/>
				<path class="st30" d="M193.3,166.2c-0.2,0.3-0.6,0.1-1-0.3c-0.3-0.3-0.4-0.8-0.2-1.2c0.2-0.3,0.6-0.1,1,0.3
					C193.4,165.2,193.5,165.7,193.3,166.2z"/>
				<path class="st30" d="M186.3,158c-0.1,0.3-0.5,0.3-0.9-0.1c-0.4-0.3-0.5-0.8-0.4-1.3c0.1-0.3,0.5-0.3,0.9,0.1
					C186.2,157,186.4,157.5,186.3,158z"/>
				<path class="st30" d="M178.7,151c-0.1,0.4-0.4,0.5-0.8,0.2c-0.4-0.3-0.6-0.8-0.6-1.3c0.1-0.4,0.4-0.5,0.8-0.2
					C178.5,150.1,178.7,150.5,178.7,151z"/>
			</g>
			<g class="st32">
				<path class="st30" d="M170.9,138.9c0,0.5-0.4,0.7-0.8,0.5c-0.5-0.3-0.8-0.8-0.8-1.4c0-0.5,0.4-0.7,0.8-0.4
					C170.6,137.8,170.9,138.3,170.9,138.9z"/>
				<path class="st30" d="M162,134.5c0.1,0.5-0.2,0.9-0.6,0.7c-0.5-0.2-0.8-0.7-0.9-1.3c-0.1-0.5,0.2-0.9,0.6-0.7
					C161.6,133.5,161.9,134,162,134.5z"/>
				<path class="st30" d="M153.3,132.1c0.2,0.6,0,1-0.5,0.9c-0.5-0.2-0.9-0.6-1-1.1c-0.2-0.6,0.1-1,0.5-0.9
					C152.8,131.2,153.2,131.6,153.3,132.1z"/>
				<path class="st30" d="M145.2,131.8c0.2,0.6,0.1,1.1-0.3,1.1s-0.9-0.4-1.1-0.9s-0.1-1.1,0.3-1.1S145,131.2,145.2,131.8z"/>
				<path class="st30" d="M137.9,133.5c0.3,0.5,0.2,1.1-0.1,1.2s-0.8-0.2-1.1-0.7s-0.2-1.1,0.1-1.2S137.6,132.9,137.9,133.5z"/>
				<path class="st30" d="M131.6,137.2c0.3,0.5,0.4,1.1,0.1,1.4s-0.8,0-1.1-0.5s-0.4-1.1-0.1-1.4S131.3,136.7,131.6,137.2z"/>
				<path class="st30" d="M126.6,142.8c0.4,0.4,0.5,0.9,0.3,1.4c-0.2,0.3-0.7,0.2-1.1-0.2c-0.4-0.4-0.5-0.9-0.3-1.4
					C125.7,142.2,126.2,142.3,126.6,142.8z"/>
				<path class="st30" d="M122.9,150.1c0.4,0.4,0.6,0.9,0.5,1.4c-0.1,0.4-0.6,0.4-1,0c-0.4-0.4-0.6-0.9-0.5-1.4
					C122.1,149.7,122.5,149.7,122.9,150.1z"/>
				<path class="st30" d="M120.8,158.9c0.4,0.3,0.7,0.9,0.7,1.4c-0.1,0.5-0.5,0.6-0.9,0.3c-0.4-0.3-0.7-0.9-0.7-1.4
					C120,158.7,120.4,158.6,120.8,158.9z"/>
				<path class="st30" d="M120.3,168.9c0.5,0.3,0.8,0.8,0.8,1.4c0,0.5-0.3,0.8-0.8,0.5c-0.5-0.3-0.8-0.8-0.8-1.4
					C119.5,168.9,119.8,168.7,120.3,168.9z"/>
				<path class="st30" d="M121.3,179.8c0.5,0.2,0.9,0.7,1,1.2c0.1,0.6-0.2,0.9-0.6,0.8c-0.5-0.2-0.9-0.7-1-1.2
					C120.6,180,120.9,179.6,121.3,179.8z"/>
				<path class="st30" d="M123.9,191.2c0.4,0,0.9,0.5,1,1.1s0,1-0.4,1s-0.9-0.5-1-1.1S123.6,191.1,123.9,191.2z"/>
				<path class="st30" d="M128.1,202.7c0.4-0.1,0.9,0.3,1.1,0.9s0.1,1.1-0.2,1.1s-0.9-0.3-1.1-0.9S127.7,202.8,128.1,202.7z"/>
				<path class="st30" d="M133.5,214c0.3-0.2,0.8,0.1,1.1,0.7s0.3,1.1,0,1.3s-0.8-0.1-1.1-0.7S133.2,214.2,133.5,214z"/>
				<path class="st30" d="M140.2,224.8c0.3-0.3,0.8-0.1,1.1,0.4s0.4,1.1,0.2,1.4s-0.8,0.1-1.1-0.4S139.9,225,140.2,224.8z"/>
				<path class="st30" d="M147.8,234.6c0.2-0.3,0.7-0.3,1.1,0.2c0.4,0.4,0.5,0.9,0.4,1.4c-0.2,0.4-0.7,0.3-1.1-0.2
					C147.8,235.7,147.6,235.1,147.8,234.6z"/>
				<path class="st30" d="M156.1,243.2c0.1-0.4,0.6-0.5,1-0.1c0.4,0.4,0.6,0.9,0.6,1.4c-0.1,0.4-0.6,0.5-1,0.1
					C156.2,244.3,156,243.7,156.1,243.2z"/>
				<path class="st30" d="M164.9,250.2c0-0.5,0.4-0.6,0.9-0.3c0.5,0.3,0.7,0.9,0.7,1.4c0,0.5-0.4,0.6-0.9,0.3
					C165.2,251.3,164.9,250.8,164.9,250.2z"/>
				<path class="st30" d="M173.8,255.6c0-0.5,0.3-0.8,0.7-0.6c0.5,0.3,0.8,0.8,0.9,1.3c0,0.5-0.3,0.8-0.7,0.6
					C174.2,256.6,173.9,256.1,173.8,255.6z"/>
				<path class="st30" d="M182.6,259c-0.1-0.5,0.1-0.9,0.6-0.8c0.5,0.2,0.9,0.7,1,1.2c0.1,0.5-0.1,0.9-0.6,0.8
					C183.1,260,182.7,259.5,182.6,259z"/>
				<path class="st30" d="M191.1,260.4c-0.2-0.6,0-1,0.4-1s0.9,0.5,1.1,1s0,1-0.4,1S191.2,260.9,191.1,260.4z"/>
				<path class="st30" d="M198.8,259.7c-0.2-0.6-0.2-1.1,0.2-1.2s0.9,0.3,1.1,0.8s0.2,1.1-0.2,1.2S199.1,260.3,198.8,259.7z"/>
				<path class="st30" d="M205.6,257c-0.3-0.5-0.3-1.1,0-1.3s0.8,0.1,1.1,0.6c0.3,0.5,0.3,1.1,0,1.3S205.9,257.5,205.6,257z"/>
				<path class="st30" d="M211.3,252.3c-0.4-0.5-0.5-1.1-0.2-1.4s0.7-0.1,1.1,0.4s0.5,1.1,0.2,1.4S211.7,252.8,211.3,252.3z"/>
				<path class="st30" d="M215.7,245.8c-0.4-0.4-0.6-0.9-0.4-1.4c0.2-0.4,0.6-0.3,1,0.1c0.4,0.4,0.5,0.9,0.4,1.4
					C216.5,246.3,216.1,246.2,215.7,245.8z"/>
				<path class="st30" d="M218.6,237.7c-0.4-0.4-0.6-0.9-0.6-1.4c0.1-0.4,0.5-0.5,0.9-0.1c0.4,0.4,0.6,0.9,0.6,1.4
					C219.4,238,219,238.1,218.6,237.7z"/>
				<path class="st30" d="M219.9,228.3c-0.5-0.3-0.7-0.8-0.8-1.4c0-0.5,0.4-0.7,0.8-0.4c0.5,0.3,0.7,0.8,0.8,1.4
					C220.7,228.4,220.3,228.5,219.9,228.3z"/>
				<path class="st30" d="M219.6,217.8c-0.5-0.3-0.8-0.7-0.9-1.3c-0.1-0.5,0.2-0.8,0.7-0.6c0.5,0.3,0.8,0.7,0.9,1.3
					C220.4,217.7,220.1,218,219.6,217.8z"/>
				<path class="st30" d="M217.8,206.6c-0.5-0.2-0.9-0.6-1-1.2c-0.1-0.6,0.1-0.9,0.5-0.9c0.5,0.2,0.9,0.6,1,1.2
					C218.4,206.3,218.2,206.7,217.8,206.6z"/>
				<path class="st30" d="M214.4,195.1c-0.4,0-0.9-0.4-1.1-1s-0.1-1,0.3-1s0.9,0.4,1.1,1S214.8,195.1,214.4,195.1z"/>
				<path class="st30" d="M209.6,183.6c-0.4,0.1-0.9-0.2-1.1-0.8s-0.2-1.1,0.1-1.2s0.8,0.2,1.1,0.8S209.9,183.5,209.6,183.6z"/>
				<path class="st30" d="M203.5,172.6c-0.3,0.2-0.8,0-1.1-0.6s-0.4-1.1-0.1-1.3s0.8,0,1.1,0.6S203.8,172.3,203.5,172.6z"/>
				<path class="st30" d="M196.4,162.2c-0.2,0.3-0.7,0.2-1.1-0.3c-0.4-0.4-0.5-0.9-0.3-1.4c0.2-0.3,0.7-0.2,1.1,0.3
					C196.5,161.2,196.6,161.7,196.4,162.2z"/>
				<path class="st30" d="M188.4,153c-0.2,0.4-0.6,0.4-1-0.1c-0.4-0.4-0.6-0.9-0.5-1.5c0.2-0.4,0.6-0.4,1,0
					C188.3,151.8,188.5,152.4,188.4,153z"/>
				<path class="st30" d="M179.8,145.1c-0.1,0.4-0.5,0.5-0.9,0.2c-0.4-0.3-0.7-0.9-0.6-1.4c0.1-0.4,0.5-0.5,0.9-0.2
					C179.6,144,179.8,144.6,179.8,145.1z"/>
			</g>
			<g class="st33">
				<path class="st30" d="M171,133.4c0,0.6-0.4,0.8-0.9,0.5c-0.5-0.3-0.8-0.9-0.9-1.5c0-0.6,0.4-0.8,0.9-0.5
					C170.6,132.2,171,132.8,171,133.4z"/>
				<path class="st30" d="M161.2,128.6c0.1,0.6-0.2,0.9-0.7,0.8c-0.5-0.3-0.9-0.8-1-1.4c-0.1-0.6,0.2-0.9,0.7-0.8
					C160.8,127.5,161.1,128,161.2,128.6z"/>
				<path class="st30" d="M151.7,125.9c0.2,0.6-0.1,1.1-0.5,1c-0.6-0.2-1-0.7-1.1-1.2c-0.2-0.6,0.1-1.1,0.5-1
					C151.2,124.9,151.6,125.4,151.7,125.9z"/>
				<path class="st30" d="M142.8,125.6c0.2,0.6,0.1,1.2-0.3,1.2s-0.9-0.4-1.2-1s-0.1-1.2,0.3-1.2S142.6,124.9,142.8,125.6z"/>
				<path class="st30" d="M134.8,127.5c0.3,0.6,0.3,1.2-0.1,1.4s-0.9-0.2-1.2-0.8c-0.3-0.6-0.3-1.2,0.1-1.4S134.5,126.8,134.8,127.5
					z"/>
				<path class="st30" d="M127.9,131.5c0.4,0.6,0.4,1.2,0.1,1.5s-0.8,0-1.2-0.6s-0.4-1.2-0.1-1.5S127.6,131,127.9,131.5z"/>
				<path class="st30" d="M122.4,137.7c0.4,0.4,0.5,1,0.3,1.6c-0.2,0.4-0.8,0.2-1.2-0.3c-0.4-0.4-0.5-1-0.4-1.6
					C121.4,137,122,137.2,122.4,137.7z"/>
				<path class="st30" d="M118.4,145.7c0.4,0.4,0.7,1,0.6,1.6c-0.1,0.4-0.6,0.4-1.1,0c-0.4-0.4-0.7-1-0.6-1.6
					C117.5,145.3,117.9,145.3,118.4,145.7z"/>
				<path class="st30" d="M116.1,155.3c0.5,0.4,0.8,0.9,0.8,1.6c-0.1,0.5-0.5,0.6-1,0.3c-0.5-0.4-0.8-1-0.7-1.6
					C115.2,155.1,115.6,155,116.1,155.3z"/>
				<path class="st30" d="M115.5,166.3c0.5,0.3,0.9,0.9,0.9,1.5c0,0.6-0.3,0.8-0.8,0.6c-0.5-0.3-0.9-0.9-0.9-1.5
					C114.6,166.3,115,166,115.5,166.3z"/>
				<path class="st30" d="M116.6,178.2c0.5,0.3,0.9,0.8,1,1.4c0.1,0.6-0.2,1-0.7,0.8c-0.5-0.3-0.9-0.8-1-1.4
					C115.9,178.5,116.2,178.1,116.6,178.2z"/>
				<path class="st30" d="M119.5,190.7c0.6,0.2,1,0.6,1.1,1.2c0.2,0.6,0,1.1-0.5,1.1c-0.6-0.2-1-0.6-1.1-1.2
					C118.9,191.1,119.1,190.7,119.5,190.7z"/>
				<path class="st30" d="M124,203.3c0.4-0.1,0.9,0.4,1.2,1s0.2,1.2-0.2,1.2s-0.9-0.4-1.2-1S123.6,203.5,124,203.3z"/>
				<path class="st30" d="M130,215.8c0.4-0.2,0.9,0.1,1.2,0.7s0.3,1.2,0,1.4s-0.9-0.1-1.2-0.7S129.7,215.9,130,215.8z"/>
				<path class="st30" d="M137.3,227.5c0.3-0.3,0.8-0.1,1.2,0.5s0.5,1.2,0.2,1.5s-0.8,0.1-1.2-0.5S137,227.8,137.3,227.5z"/>
				<path class="st30" d="M145.6,238.3c0.2-0.4,0.7-0.3,1.2,0.2c0.4,0.4,0.6,1,0.4,1.6c-0.2,0.4-0.7,0.3-1.2-0.2
					C145.6,239.5,145.5,238.9,145.6,238.3z"/>
				<path class="st30" d="M154.7,247.7c0.1-0.5,0.6-0.5,1.1-0.1c0.5,0.4,0.7,1,0.6,1.6c-0.1,0.5-0.6,0.5-1.1,0.1
					C154.9,248.9,154.7,248.3,154.7,247.7z"/>
				<path class="st30" d="M164.4,255.5c0-0.5,0.5-0.7,0.9-0.4c0.5,0.4,0.8,0.9,0.8,1.5c0,0.5-0.5,0.7-0.9,0.4
					C164.6,256.6,164.4,256.1,164.4,255.5z"/>
				<path class="st30" d="M174.2,261.3c-0.1-0.6,0.3-0.9,0.8-0.6c0.5,0.3,0.9,0.8,0.9,1.5c0,0.6-0.3,0.9-0.8,0.6
					C174.6,262.4,174.2,261.9,174.2,261.3z"/>
				<path class="st30" d="M183.8,265c-0.1-0.6,0.1-1,0.6-0.9c0.6,0.2,1,0.7,1.1,1.3c0.1,0.6-0.1,1-0.6,0.9
					C184.3,266.1,183.9,265.6,183.8,265z"/>
				<path class="st30" d="M193.1,266.5c-0.2-0.6,0-1.1,0.4-1.1s1,0.5,1.2,1.1s0,1.1-0.4,1.1S193.3,267.2,193.1,266.5z"/>
				<path class="st30" d="M201.6,265.8c-0.3-0.6-0.2-1.2,0.2-1.3s0.9,0.3,1.2,0.9s0.2,1.2-0.2,1.3S201.8,266.5,201.6,265.8z"/>
				<path class="st30" d="M209,262.8c-0.4-0.6-0.4-1.2,0-1.4s0.9,0.1,1.2,0.7s0.4,1.2,0,1.4S209.4,263.4,209,262.8z"/>
				<path class="st30" d="M215.3,257.7c-0.4-0.4-0.5-1-0.2-1.5c0.3-0.3,0.8-0.1,1.2,0.4s0.5,1.2,0.2,1.5S215.7,258.2,215.3,257.7z"
					/>
				<path class="st30" d="M220,250.6c-0.4-0.4-0.6-1-0.5-1.6c0.2-0.4,0.7-0.3,1.1,0.1c0.4,0.4,0.6,1,0.5,1.6
					C221,251.1,220.5,251,220,250.6z"/>
				<path class="st30" d="M223.2,241.7c-0.5-0.4-0.7-1-0.7-1.6c0.1-0.5,0.6-0.6,1-0.1c0.5,0.4,0.7,1,0.7,1.6
					C224.1,242,223.7,242.1,223.2,241.7z"/>
				<path class="st30" d="M224.7,231.4c-0.5-0.3-0.8-0.9-0.8-1.5c0-0.6,0.4-0.7,0.9-0.4c0.5,0.3,0.8,0.9,0.8,1.5
					C225.6,231.5,225.2,231.7,224.7,231.4z"/>
				<path class="st30" d="M224.4,219.9c-0.5-0.3-0.9-0.8-1-1.4c-0.1-0.6,0.3-0.9,0.7-0.7c0.5,0.3,0.9,0.8,1,1.4
					C225.2,219.8,224.9,220.1,224.4,219.9z"/>
				<path class="st30" d="M222.4,207.6c-0.6-0.2-1-0.7-1.1-1.3c-0.1-0.6,0.1-1,0.6-0.9c0.6,0.2,1,0.7,1.1,1.3
					C223.1,207.3,222.8,207.7,222.4,207.6z"/>
				<path class="st30" d="M218.7,195c-0.4,0-0.9-0.5-1.2-1.1s-0.1-1.1,0.4-1.1s1,0.5,1.2,1.1S219.1,195,218.7,195z"/>
				<path class="st30" d="M213.4,182.5c-0.4,0.1-0.9-0.2-1.2-0.9s-0.2-1.2,0.1-1.3s0.9,0.3,1.2,0.9S213.8,182.3,213.4,182.5z"/>
				<path class="st30" d="M206.7,170.3c-0.3,0.2-0.9,0-1.2-0.6s-0.4-1.2-0.1-1.5s0.9,0,1.2,0.6S207.1,170.1,206.7,170.3z"/>
				<path class="st30" d="M198.9,159c-0.2,0.3-0.8,0.2-1.2-0.4c-0.4-0.4-0.5-1-0.3-1.5c0.2-0.3,0.8-0.2,1.2,0.3
					C199,157.8,199.1,158.4,198.9,159z"/>
				<path class="st30" d="M190.1,148.8c-0.2,0.4-0.7,0.4-1.1-0.1c-0.4-0.4-0.6-1-0.5-1.6c0.2-0.4,0.7-0.4,1.1,0.1
					C190.1,147.7,190.3,148.3,190.1,148.8z"/>
				<path class="st30" d="M180.7,140.2c-0.1,0.5-0.5,0.6-1,0.2c-0.5-0.4-0.7-1-0.7-1.6c0.1-0.5,0.5-0.6,1-0.2
					C180.5,139,180.8,139.6,180.7,140.2z"/>
			</g>
			<g class="st34">
				<path class="st30" d="M171.1,127.3c0,0.6-0.4,0.9-1,0.6c-0.6-0.4-0.9-1-0.9-1.7c0-0.6,0.4-0.8,0.9-0.6
					C170.7,126,171,126.6,171.1,127.3z"/>
				<path class="st30" d="M160.4,122c0.1,0.7-0.2,1-0.8,0.8c-0.6-0.3-1-0.9-1.1-1.5c-0.1-0.7,0.2-1,0.8-0.8
					C159.8,120.8,160.3,121.3,160.4,122z"/>
				<path class="st30" d="M149.9,119.1c0.2,0.7-0.1,1.2-0.6,1.1c-0.6-0.2-1.1-0.7-1.2-1.3c-0.2-0.7,0.1-1.2,0.6-1.1
					C149.3,117.9,149.7,118.5,149.9,119.1z"/>
				<path class="st30" d="M140.2,118.7c0.3,0.7,0.1,1.3-0.3,1.3s-1-0.5-1.3-1.1s-0.1-1.3,0.3-1.3S139.9,118,140.2,118.7z"/>
				<path class="st30" d="M131.4,120.7c0.4,0.7,0.3,1.3-0.1,1.5s-1-0.2-1.3-0.9s-0.3-1.3,0.1-1.5S131,120.1,131.4,120.7z"/>
				<path class="st30" d="M123.8,125.2c0.4,0.6,0.5,1.3,0.2,1.6s-0.9,0-1.3-0.6s-0.5-1.3-0.2-1.6S123.4,124.6,123.8,125.2z"/>
				<path class="st30" d="M117.7,132c0.4,0.5,0.6,1.1,0.4,1.7c-0.2,0.4-0.8,0.2-1.3-0.3c-0.4-0.5-0.6-1.1-0.4-1.7
					C116.7,131.3,117.3,131.4,117.7,132z"/>
				<path class="st30" d="M113.3,140.8c0.5,0.4,0.7,1.1,0.6,1.7c-0.2,0.5-0.7,0.5-1.2,0c-0.5-0.4-0.7-1.1-0.6-1.7
					C112.3,140.3,112.9,140.3,113.3,140.8z"/>
				<path class="st30" d="M110.8,151.4c0.5,0.4,0.8,1,0.8,1.7c-0.1,0.6-0.6,0.7-1.1,0.3c-0.5-0.4-0.9-1-0.8-1.7
					C109.8,151.1,110.3,151,110.8,151.4z"/>
				<path class="st30" d="M110.1,163.4c0.6,0.4,0.9,1,1,1.6c0,0.6-0.4,0.9-0.9,0.6c-0.6-0.3-0.9-1-1-1.6
					C109.2,163.4,109.6,163.1,110.1,163.4z"/>
				<path class="st30" d="M111.4,176.5c0.6,0.3,1,0.8,1.1,1.5c0.1,0.7-0.2,1.1-0.7,0.9c-0.6-0.3-1-0.8-1.1-1.5
					C110.6,176.7,110.9,176.3,111.4,176.5z"/>
				<path class="st30" d="M114.6,190.2c0.6,0.2,1.1,0.7,1.3,1.3c0.2,0.7,0,1.2-0.5,1.2c-0.6-0.2-1.1-0.7-1.2-1.3
					C113.9,190.6,114.1,190.1,114.6,190.2z"/>
				<path class="st30" d="M119.5,204c0.4-0.1,1,0.4,1.3,1.1s0.2,1.3-0.3,1.4s-1-0.4-1.3-1.1S119.1,204.1,119.5,204z"/>
				<path class="st30" d="M126.1,217.7c0.4-0.2,1,0.2,1.3,0.8s0.3,1.3,0,1.5s-1-0.2-1.3-0.8S125.7,217.9,126.1,217.7z"/>
				<path class="st30" d="M134.1,230.6c0.3-0.3,0.9-0.1,1.3,0.5s0.5,1.3,0.2,1.7s-0.9,0.1-1.3-0.5S133.8,230.9,134.1,230.6z"/>
				<path class="st30" d="M143.2,242.5c0.2-0.4,0.8-0.3,1.3,0.2c0.5,0.4,0.6,1.1,0.4,1.7c-0.2,0.4-0.8,0.3-1.3-0.2
					C143.2,243.7,143,243.1,143.2,242.5z"/>
				<path class="st30" d="M153.2,252.8c0.1-0.5,0.7-0.6,1.2-0.1c0.5,0.4,0.7,1.1,0.7,1.7c-0.1,0.5-0.7,0.5-1.2,0.1
					C153.4,254.1,153.2,253.4,153.2,252.8z"/>
				<path class="st30" d="M163.8,261.3c0-0.6,0.5-0.8,1-0.4c0.5,0.4,0.9,1,0.9,1.7c0,0.6-0.5,0.8-1,0.4
					C164.1,262.6,163.8,261.9,163.8,261.3z"/>
				<path class="st30" d="M174.6,267.7c0-0.6,0.3-0.9,0.9-0.7c0.6,0.3,0.9,0.9,1,1.6c0.1,0.6-0.3,1-0.9,0.7
					C175,268.9,174.6,268.3,174.6,267.7z"/>
				<path class="st30" d="M185.2,271.8c-0.1-0.7,0.1-1.1,0.7-1c0.6,0.3,1,0.8,1.2,1.4c0.1,0.7-0.1,1.1-0.7,1
					C185.7,273,185.3,272.4,185.2,271.8z"/>
				<path class="st30" d="M195.3,273.5c-0.2-0.7,0-1.2,0.4-1.2s1.1,0.6,1.3,1.2s0,1.2-0.4,1.2S195.5,274.1,195.3,273.5z"/>
				<path class="st30" d="M204.6,272.6c-0.3-0.7-0.2-1.3,0.2-1.4s1,0.3,1.3,1s0.2,1.3-0.2,1.4S204.9,273.3,204.6,272.6z"/>
				<path class="st30" d="M212.8,269.3c-0.4-0.6-0.4-1.4,0-1.6s1,0.1,1.4,0.8s0.4,1.3,0,1.6S213.2,270,212.8,269.3z"/>
				<path class="st30" d="M219.7,263.7c-0.4-0.6-0.6-1.3-0.3-1.7s0.9-0.1,1.3,0.5s0.6,1.3,0.3,1.7S220.1,264.3,219.7,263.7z"/>
				<path class="st30" d="M224.9,255.9c-0.5-0.4-0.7-1.1-0.5-1.7c0.2-0.4,0.8-0.4,1.2,0.1c0.5,0.4,0.7,1.1,0.5,1.7
					C226,256.5,225.4,256.4,224.9,255.9z"/>
				<path class="st30" d="M228.4,246.2c-0.5-0.4-0.8-1.1-0.7-1.7c0.1-0.5,0.6-0.6,1.1-0.2c0.5,0.4,0.8,1.1,0.7,1.7
					C229.4,246.5,228.9,246.6,228.4,246.2z"/>
				<path class="st30" d="M230,234.8c-0.6-0.4-0.9-1-0.9-1.7c0-0.6,0.5-0.8,1-0.5c0.5,0.4,0.9,1,0.9,1.7
					C231,234.9,230.6,235.1,230,234.8z"/>
				<path class="st30" d="M229.7,222.2c-0.6-0.3-1-0.9-1.1-1.6c-0.1-0.6,0.3-1,0.8-0.8c0.6,0.3,1,0.9,1.1,1.6
					C230.6,222.1,230.2,222.5,229.7,222.2z"/>
				<path class="st30" d="M227.5,208.8c-0.6-0.2-1.1-0.8-1.2-1.4c-0.2-0.7,0.1-1.1,0.6-1c0.6,0.2,1.1,0.8,1.2,1.4
					C228.3,208.4,228,208.9,227.5,208.8z"/>
				<path class="st30" d="M223.4,194.9c-0.5,0-1-0.5-1.3-1.2s-0.1-1.2,0.4-1.3s1,0.5,1.3,1.2S223.9,194.9,223.4,194.9z"/>
				<path class="st30" d="M217.6,181.1c-0.4,0.1-1-0.3-1.3-0.9s-0.3-1.3,0.1-1.5s1,0.3,1.3,1S218,181,217.6,181.1z"/>
				<path class="st30" d="M210.3,167.8c-0.4,0.3-1,0-1.4-0.7s-0.4-1.4-0.1-1.6s0.9,0,1.4,0.7S210.7,167.5,210.3,167.8z"/>
				<path class="st30" d="M201.7,155.3c-0.3,0.4-0.9,0.2-1.3-0.4c-0.4-0.5-0.6-1.1-0.3-1.7c0.3-0.4,0.9-0.2,1.3,0.4
					C201.8,154.1,202,154.8,201.7,155.3z"/>
				<path class="st30" d="M192.1,144.2c-0.2,0.5-0.7,0.4-1.2-0.1c-0.5-0.4-0.7-1.1-0.6-1.7c0.2-0.5,0.7-0.4,1.2,0.1
					C192,142.9,192.2,143.6,192.1,144.2z"/>
				<path class="st30" d="M181.8,134.8c-0.1,0.5-0.6,0.7-1.1,0.2c-0.5-0.4-0.8-1.1-0.8-1.7c0.1-0.5,0.6-0.6,1.1-0.2
					C181.5,133.5,181.8,134.1,181.8,134.8z"/>
			</g>
		</g>
		<path class="st30" d="M132.1,167.5c0.3,0.3,0.5,0.7,0.5,1.1c0,0.4-0.4,0.4-0.7,0.2c-0.3-0.3-0.5-0.7-0.5-1.1
			C131.4,167.3,131.7,167.2,132.1,167.5z"/>
		<path class="st30" d="M208.5,220.9c-0.4-0.2-0.6-0.6-0.6-1.1c0-0.4,0.3-0.5,0.6-0.3c0.4,0.2,0.6,0.6,0.6,1.1
			C209.2,221,208.9,221.1,208.5,220.9z"/>
		<path class="st30" d="M206.9,204.2c-0.4-0.1-0.7-0.5-0.8-0.9c-0.1-0.4,0.1-0.7,0.4-0.7c0.4,0.1,0.7,0.5,0.8,0.9
			C207.4,204,207.2,204.3,206.9,204.2z"/>
		<path class="st30" d="M201.5,249.9c-0.3-0.5-0.3-1,0-1.2s0.7,0.1,1,0.6s0.3,1,0,1.1S201.8,250.4,201.5,249.9z"/>
		<path class="st30" d="M186.3,158c-0.1,0.3-0.5,0.3-0.9-0.1c-0.4-0.3-0.5-0.8-0.4-1.3c0.1-0.3,0.5-0.3,0.9,0.1
			C186.2,157,186.4,157.5,186.3,158z"/>
		<path class="st30" d="M145.2,131.8c0.2,0.6,0.1,1.1-0.3,1.1s-0.9-0.4-1.1-0.9s-0.1-1.1,0.3-1.1S145,131.2,145.2,131.8z"/>
		<path class="st30" d="M120.3,168.9c0.5,0.3,0.8,0.8,0.8,1.4c0,0.5-0.3,0.8-0.8,0.5c-0.5-0.3-0.8-0.8-0.8-1.4
			C119.5,168.9,119.8,168.7,120.3,168.9z"/>
		<path class="st30" d="M133.5,214c0.3-0.2,0.8,0.1,1.1,0.7s0.3,1.1,0,1.3s-0.8-0.1-1.1-0.7S133.2,214.2,133.5,214z"/>
		<path class="st30" d="M215.7,245.8c-0.4-0.4-0.6-0.9-0.4-1.4c0.2-0.4,0.6-0.3,1,0.1c0.4,0.4,0.5,0.9,0.4,1.4
			C216.5,246.3,216.1,246.2,215.7,245.8z"/>
		<path class="st30" d="M217.8,206.6c-0.5-0.2-0.9-0.6-1-1.2c-0.1-0.6,0.1-0.9,0.5-0.9c0.5,0.2,0.9,0.6,1,1.2
			C218.4,206.3,218.2,206.7,217.8,206.6z"/>
		<path class="st30" d="M116.1,155.3c0.5,0.4,0.8,0.9,0.8,1.6c-0.1,0.5-0.5,0.6-1,0.3c-0.5-0.4-0.8-1-0.7-1.6
			C115.2,155.1,115.6,155,116.1,155.3z"/>
		<path class="st30" d="M174.2,261.3c-0.1-0.6,0.3-0.9,0.8-0.6c0.5,0.3,0.9,0.8,0.9,1.5c0,0.6-0.3,0.9-0.8,0.6
			C174.6,262.4,174.2,261.9,174.2,261.3z"/>
		<path class="st30" d="M198.9,159c-0.2,0.3-0.8,0.2-1.2-0.4c-0.4-0.4-0.5-1-0.3-1.5c0.2-0.3,0.8-0.2,1.2,0.3
			C199,157.8,199.1,158.4,198.9,159z"/>
		<path class="st30" d="M143.2,242.5c0.2-0.4,0.8-0.3,1.3,0.2c0.5,0.4,0.6,1.1,0.4,1.7c-0.2,0.4-0.8,0.3-1.3-0.2
			C143.2,243.7,143,243.1,143.2,242.5z"/>
		
			<linearGradient id="SVGID_28_" gradientUnits="userSpaceOnUse" x1="293.6733" y1="136.4692" x2="206.1976" y2="294.4615" gradientTransform="matrix(1 0 0 -1 -0.11 365.46)">
			<stop  offset="0" style="stop-color:#203573"/>
			<stop  offset="7.000000e-02" style="stop-color:#23467E"/>
			<stop  offset="0.2" style="stop-color:#2C7499"/>
			<stop  offset="0.39" style="stop-color:#3ABCC5"/>
			<stop  offset="0.5" style="stop-color:#42E8E0"/>
			<stop  offset="1" style="stop-color:#203573"/>
		</linearGradient>
		<path class="st35" d="M273.3,240.2l-0.4-0.6c11.7-6.9,18.2-21.4,18.2-40.7c0-40.4-28.5-89.7-63.4-109.9
			c-17.1-9.9-33.1-11.4-45-4.2l-0.4-0.6c12.2-7.3,28.4-5.8,45.8,4.2c35.2,20.3,63.8,69.9,63.8,110.5
			C291.8,218.5,285.2,233.1,273.3,240.2z"/>
	</g>
</g>
<g id="stem4">
	
		<linearGradient id="SVGID_29_" gradientUnits="userSpaceOnUse" x1="185.673" y1="509.6744" x2="258.2831" y2="509.6744" gradientTransform="matrix(0.87 -0.5 -0.5 -0.87 168.46 749.09)">
		<stop  offset="0" style="stop-color:#16133E;stop-opacity:0"/>
		<stop  offset="0" style="stop-color:#1F4161;stop-opacity:0"/>
		<stop  offset="0.64" style="stop-color:#2E8A99"/>
		<stop  offset="1" style="stop-color:#42E8E0"/>
	</linearGradient>
	<path class="st36" d="M76.4,214.7c-1.4,0-2.6-1.2-2.6-2.6c0-0.9,0.5-1.8,1.3-2.2l58.5-33.7c1.2-0.7,2.8-0.3,3.5,0.9
		c0.7,1.2,0.3,2.8-0.9,3.5l-58.5,33.7C77.3,214.6,76.8,214.7,76.4,214.7z"/>
	<path class="st37" d="M137.1,177.2c0.7,1.2,0.3,2.8-0.9,3.5c-1.2,0.7-2.8,0.3-3.5-0.9c-0.7-1.2-0.3-2.8,0.9-3.5
		C134.8,175.6,136.3,176,137.1,177.2C137.1,177.2,137.1,177.2,137.1,177.2z"/>
	<path class="st37" d="M135.6,178c0.3,0.4,0.1,1-0.3,1.3c-0.4,0.3-1,0.1-1.3-0.3c-0.3-0.4-0.1-1,0.3-1.3
		C134.8,177.4,135.4,177.6,135.6,178C135.6,178,135.6,178,135.6,178z"/>
</g>
<g id="stem3">
	
		<linearGradient id="SVGID_30_" gradientUnits="userSpaceOnUse" x1="155.073" y1="474.9368" x2="228.163" y2="474.9368" gradientTransform="matrix(0.87 -0.5 -0.5 -0.87 168.46 749.09)">
		<stop  offset="0" style="stop-color:#16133E;stop-opacity:0"/>
		<stop  offset="0" style="stop-color:#1F4161;stop-opacity:0"/>
		<stop  offset="0.64" style="stop-color:#2E8A99"/>
		<stop  offset="1" style="stop-color:#42E8E0"/>
	</linearGradient>
	<path class="st38" d="M67.2,260.2c-1.4,0-2.6-1.1-2.6-2.6c0-0.9,0.5-1.8,1.3-2.2l58.9-33.9c1.2-0.7,2.8-0.3,3.5,0.9
		c0.7,1.2,0.3,2.8-0.9,3.5l0,0l-58.9,33.9C68.2,260.1,67.7,260.2,67.2,260.2z"/>
	<path class="st37" d="M128.3,222.5c0.7,1.2,0.2,2.8-1,3.5c-1.2,0.7-2.8,0.2-3.5-1s-0.2-2.8,1-3.5c0,0,0,0,0,0
		C126.1,220.8,127.7,221.2,128.3,222.5z"/>
	<path class="st37" d="M126.9,223.2c0.3,0.4,0.1,1-0.3,1.3c-0.4,0.3-1,0.1-1.3-0.3c-0.3-0.4-0.1-1,0.3-1.3
		C126.1,222.7,126.6,222.8,126.9,223.2z"/>
</g>
<g id="stem2">
	
		<linearGradient id="SVGID_31_" gradientUnits="userSpaceOnUse" x1="165.633" y1="452.4701" x2="280.5831" y2="452.4701" gradientTransform="matrix(0.87 -0.5 -0.5 -0.87 168.46 749.09)">
		<stop  offset="0" style="stop-color:#16133E;stop-opacity:0"/>
		<stop  offset="0" style="stop-color:#1F4161;stop-opacity:0"/>
		<stop  offset="0.64" style="stop-color:#2E8A99"/>
		<stop  offset="1" style="stop-color:#42E8E0"/>
	</linearGradient>
	<path class="st39" d="M87.7,274.5c-1.4,0-2.6-1.1-2.6-2.6c0-0.9,0.5-1.8,1.3-2.2l95.2-54.8c1.2-0.7,2.8-0.3,3.5,0.9
		c0.7,1.2,0.3,2.8-0.9,3.5l0,0l-95.2,54.8C88.6,274.4,88.1,274.5,87.7,274.5z"/>
	<path class="st37" d="M185,215.9c0.7,1.2,0.3,2.8-0.9,3.5c-1.2,0.7-2.8,0.3-3.5-0.9c-0.7-1.2-0.3-2.8,0.9-3.5
		C182.8,214.2,184.3,214.6,185,215.9z"/>
	<path class="st37" d="M183.6,216.7c0.3,0.4,0.1,1-0.3,1.3c-0.4,0.3-1,0.1-1.3-0.3c-0.3-0.4-0.1-1,0.3-1.3c0,0,0,0,0,0
		C182.8,216.1,183.4,216.2,183.6,216.7C183.6,216.7,183.6,216.7,183.6,216.7z"/>
</g>
<g id="stem1">
	
		<linearGradient id="SVGID_32_" gradientUnits="userSpaceOnUse" x1="197.293" y1="487.4416" x2="301.7031" y2="487.4416" gradientTransform="matrix(0.87 -0.5 -0.5 -0.87 168.46 749.09)">
		<stop  offset="0" style="stop-color:#16133E;stop-opacity:0"/>
		<stop  offset="0" style="stop-color:#1F4161;stop-opacity:0"/>
		<stop  offset="0.64" style="stop-color:#2E8A99"/>
		<stop  offset="1" style="stop-color:#42E8E0"/>
	</linearGradient>
	<path class="st40" d="M97.6,228.3c-1.4,0-2.6-1.1-2.6-2.6c0-0.9,0.5-1.8,1.3-2.2l86-49.5c1.2-0.7,2.8-0.3,3.5,1s0.3,2.8-1,3.5
		l-86,49.5C98.5,228.2,98.1,228.3,97.6,228.3z"/>
	<path class="st37" d="M185.8,174.9c0.7,1.2,0.3,2.8-0.9,3.5c-1.2,0.7-2.8,0.3-3.5-0.9c-0.7-1.2-0.3-2.8,0.9-3.5c0,0,0,0,0,0
		C183.6,173.3,185.1,173.7,185.8,174.9z"/>
	<path class="st37" d="M184.4,175.7c0.3,0.4,0.1,1-0.3,1.3c-0.4,0.3-1,0.1-1.3-0.3c-0.3-0.4-0.1-1,0.3-1.3c0,0,0,0,0,0
		C183.6,175.1,184.1,175.3,184.4,175.7C184.4,175.7,184.4,175.7,184.4,175.7z"/>
</g>
<linearGradient id="SVGID_33_" gradientUnits="userSpaceOnUse" x1="197.3939" y1="183.631" x2="43.2039" y2="97.791" gradientTransform="matrix(1 0 0 -1 -0.11 365.46)">
	<stop  offset="0" style="stop-color:#42E8E0"/>
	<stop  offset="0.16" style="stop-color:#36ADB3;stop-opacity:0.74"/>
	<stop  offset="0.32" style="stop-color:#2B798B;stop-opacity:0.52"/>
	<stop  offset="0.47" style="stop-color:#224E6B;stop-opacity:0.33"/>
	<stop  offset="0.62" style="stop-color:#1B2D52;stop-opacity:0.19"/>
	<stop  offset="0.76" style="stop-color:#161540;stop-opacity:8.000000e-02"/>
	<stop  offset="0.89" style="stop-color:#130735;stop-opacity:2.000000e-02"/>
	<stop  offset="1" style="stop-color:#120231;stop-opacity:0"/>
</linearGradient>
<path class="st41" d="M205.3,216.4c0-22.7-16-50.4-35.7-61.8c-10.1-5.8-19.2-6.2-25.7-2.2l0,0L0,235.7l48,88.4l145.5-84
	c0.9-0.4,1.7-0.9,2.4-1.4l0,0C201.8,234.7,205.3,227,205.3,216.4z"/>
<g id="b10">
	<path class="st42" d="M318.9,257.9H318v-86.2c0-6.7-2.2-11.7-6.3-14.1s-9.5-1.8-15.3,1.6L242.9,190l-0.5-0.8l53.4-30.8
		c6.1-3.5,11.9-4.1,16.3-1.6s6.8,7.8,6.8,14.9L318.9,257.9z"/>
	<path class="st42" d="M317.8,261.8c-0.2,0-0.4-0.1-0.6-0.2c-0.5-0.3-0.7-0.8-0.7-1.4c0.1-1.2,0.7-2.3,1.7-3
		c0.6-0.5,1.5-0.4,1.9,0.3c0.2,0.3,0.3,0.7,0.3,1c-0.1,1.2-0.7,2.3-1.7,3C318.4,261.7,318.1,261.8,317.8,261.8z M319.1,257.9
		c-0.2,0-0.3,0.1-0.4,0.1l0,0c-0.7,0.5-1.2,1.3-1.3,2.2c0,0.2,0.1,0.4,0.2,0.6c0.2,0.1,0.4,0,0.6-0.1c0.7-0.5,1.2-1.3,1.3-2.2
		c0-0.2,0-0.4-0.2-0.6C319.2,257.9,319.2,257.9,319.1,257.9L319.1,257.9z"/>
</g>
<g id="b9">
	<path class="st42" d="M325.7,236.7h-0.9v-69.5c0-8.4-2.8-14.7-8-17.7s-12-2.3-19.3,1.9L243,183l-0.5-0.8l54.6-31.5
		c7.6-4.4,14.8-5.1,20.2-2s8.4,9.7,8.4,18.5V236.7z"/>
	<path class="st42" d="M324.6,240.5c-0.2,0-0.4-0.1-0.6-0.2c-0.5-0.3-0.7-0.8-0.7-1.4c0.1-1.2,0.7-2.3,1.7-3l0,0
		c0.5-0.3,1-0.4,1.5-0.1c0.5,0.3,0.7,0.8,0.7,1.4c-0.1,1.2-0.7,2.3-1.8,3C325.2,240.4,324.9,240.5,324.6,240.5z M325.5,236.7
		c-0.7,0.5-1.2,1.3-1.3,2.2c0,0.2,0.1,0.4,0.2,0.6c0.1,0.1,0.4,0,0.6-0.1c0.7-0.5,1.2-1.3,1.3-2.2c0-0.2-0.1-0.4-0.2-0.6
		C325.9,236.5,325.7,236.6,325.5,236.7L325.5,236.7z"/>
</g>
<g id="b8">
	<path class="st42" d="M333,239.5H332v-76.6c0-10.4-3.5-18.1-9.8-21.8s-14.8-2.8-23.8,2.4l-55.5,32l-0.5-0.8l55.5-32
		c9.3-5.4,18.1-6.2,24.7-2.4s10.3,11.9,10.3,22.6V239.5z"/>
	<path class="st42" d="M331.8,243.2c-0.2,0-0.4-0.1-0.6-0.2c-0.5-0.3-0.7-0.8-0.7-1.4c0.1-1.2,0.7-2.3,1.7-3l0,0
		c0.6-0.5,1.5-0.4,1.9,0.3c0.2,0.3,0.3,0.7,0.3,1c-0.1,1.2-0.7,2.3-1.7,3C332.5,243.1,332.1,243.2,331.8,243.2z M333.2,239.3
		c-0.2,0-0.3,0.1-0.4,0.1l0,0c-0.7,0.5-1.2,1.3-1.3,2.2c0,0.2,0.1,0.4,0.2,0.6c0.1,0.1,0.4,0,0.6-0.1c0.7-0.5,1.2-1.3,1.3-2.2
		c0-0.2,0-0.4-0.2-0.6C333.3,239.3,333.2,239.3,333.2,239.3z"/>
</g>
<g id="b7">
	<path class="st42" d="M338.7,257.3h-0.9V157c0-11.7-3.9-20.4-11-24.5s-16.6-3.1-26.8,2.7l-57,32.9l-0.5-0.8l57-32.9
		c10.4-6,20.3-7,27.7-2.7c7.4,4.3,11.5,13.3,11.5,25.3L338.7,257.3z"/>
	<path class="st42" d="M337.6,261c-0.2,0-0.4-0.1-0.6-0.2c-0.5-0.3-0.7-0.8-0.7-1.4c0.1-1.2,0.7-2.3,1.7-3c0.6-0.5,1.5-0.4,1.9,0.3
		c0.2,0.3,0.3,0.7,0.3,1c-0.1,1.2-0.7,2.3-1.7,3C338.2,260.9,337.9,261,337.6,261z M338.9,257.1c-0.2,0-0.3,0.1-0.4,0.1
		c-0.8,0.5-1.2,1.3-1.3,2.2c0,0.2,0,0.4,0.2,0.6c0.2,0.1,0.4,0,0.6-0.1c0.7-0.5,1.2-1.3,1.3-2.2c0-0.2-0.1-0.4-0.2-0.6
		C339,257.2,338.9,257.1,338.9,257.1L338.9,257.1z"/>
</g>
<g id="b6">
	
		<rect x="230.6" y="116.7" transform="matrix(0.8662 -0.4997 0.4997 0.8662 -15.9181 174.9061)" class="st42" width="176.1" height="0.9"/>
	<path class="st42" d="M395.6,74.8c-0.2,0-0.4-0.1-0.6-0.2c-0.5-0.3-0.7-0.8-0.7-1.4c0.1-1.2,0.7-2.3,1.7-3c0.5-0.3,1-0.3,1.5-0.1
		c0.5,0.3,0.7,0.8,0.7,1.4c-0.1,1.2-0.7,2.3-1.7,3C396.2,74.7,395.9,74.8,395.6,74.8z M396.9,70.9c-0.2,0-0.3,0.1-0.4,0.2
		c-0.8,0.5-1.2,1.3-1.3,2.2c0,0.2,0.1,0.4,0.2,0.6c0.2,0.1,0.4,0,0.6-0.1c0.8-0.5,1.2-1.3,1.3-2.2c0-0.2-0.1-0.4-0.2-0.6
		C397,70.9,397,70.9,396.9,70.9L396.9,70.9z"/>
</g>
<g id="b5">
	
		<rect x="233.5" y="115.4" transform="matrix(0.867 -0.4983 0.4983 0.867 -16.3343 170.4335)" class="st42" width="155.3" height="0.9"/>
	<path class="st42" d="M377.6,78.4c-0.2,0-0.4-0.1-0.6-0.2c-0.5-0.3-0.7-0.8-0.7-1.4c0.1-1.2,0.7-2.3,1.7-3c0.5-0.3,1-0.4,1.5-0.1
		c0.5,0.3,0.7,0.8,0.7,1.4c-0.1,1.2-0.7,2.3-1.7,3l0,0C378.3,78.3,377.9,78.4,377.6,78.4z M379,74.5c-0.2,0-0.3,0.1-0.4,0.1
		c-0.8,0.5-1.2,1.3-1.3,2.2c0,0.2,0.1,0.4,0.2,0.6c0.2,0.1,0.4,0,0.6-0.1c0.7-0.5,1.2-1.3,1.3-2.2c0-0.2-0.1-0.4-0.2-0.6
		C379.1,74.5,379,74.5,379,74.5z"/>
</g>
<g id="b4">
	<path class="st42" d="M242.6,148l-0.5-0.8l57-32.9c21.1-12.2,38.3-41.9,38.3-66.3V3.8h0.9V48c0,24.7-17.4,54.8-38.8,67.1L242.6,148
		z"/>
	<path class="st42" d="M337.2,4.8c-0.2,0-0.4-0.1-0.6-0.2c-0.5-0.3-0.7-0.8-0.7-1.4c0.1-1.2,0.7-2.3,1.7-3c0.5-0.3,1-0.4,1.5-0.1
		c0.5,0.3,0.8,0.8,0.7,1.4c-0.1,1.2-0.7,2.3-1.7,3C337.9,4.7,337.5,4.8,337.2,4.8z M338.5,0.9c-0.2,0-0.3,0.1-0.4,0.1
		c-0.7,0.5-1.2,1.3-1.3,2.2c0,0.2,0,0.4,0.2,0.6c0.2,0.1,0.4,0,0.6-0.1l0,0c0.7-0.5,1.2-1.3,1.2-2.2c0-0.2,0-0.4-0.2-0.6
		C338.6,0.9,338.6,0.9,338.5,0.9z"/>
</g>
<g id="b3">
	<path class="st42" d="M242.6,140.5l-0.5-0.8l55.5-32c18.8-10.8,34-37.3,34-59V28.2h0.9v20.5c0,22-15.5,48.8-34.5,59.8L242.6,140.5z
		"/>
	<path class="st42" d="M331.5,29.3c-0.2,0-0.4-0.1-0.6-0.2c-0.5-0.3-0.7-0.8-0.7-1.4c0.1-1.2,0.7-2.3,1.7-3c0.6-0.5,1.5-0.4,1.9,0.2
		c0.2,0.3,0.3,0.7,0.3,1c-0.1,1.2-0.7,2.3-1.7,3C332.1,29.2,331.8,29.3,331.5,29.3z M332.8,25.4c-0.2,0-0.3,0.1-0.4,0.1
		c-0.7,0.5-1.2,1.3-1.3,2.2c-0.1,0.2,0,0.5,0.3,0.6c0.2,0.1,0.4,0,0.5-0.2l0,0c0.7-0.5,1.2-1.3,1.3-2.2c0-0.3-0.1-0.5-0.2-0.6
		C332.9,25.4,332.9,25.4,332.8,25.4z"/>
</g>
<g id="b2">
	<path class="st42" d="M242.6,133l-0.5-0.8l54.6-31.5c15.3-8.8,27.7-30.3,27.7-48V39.3h0.9v13.4c0,17.9-12.6,39.8-28.1,48.8
		L242.6,133z"/>
	<path class="st42" d="M324.2,40.4c-0.2,0-0.4-0.1-0.6-0.2c-0.5-0.3-0.7-0.8-0.7-1.4c0.1-1.2,0.7-2.3,1.7-3c0.6-0.5,1.5-0.4,1.9,0.2
		c0.2,0.3,0.3,0.7,0.3,1c-0.1,1.2-0.7,2.3-1.7,3l0,0C324.9,40.3,324.6,40.4,324.2,40.4z M325.6,36.5c-0.2,0-0.3,0.1-0.4,0.1
		c-0.7,0.5-1.2,1.3-1.3,2.2c0,0.2,0,0.4,0.2,0.6c0.2,0.1,0.4,0,0.6-0.1l0,0c0.7-0.5,1.2-1.3,1.3-2.2c0-0.2-0.1-0.4-0.2-0.6
		C325.7,36.5,325.7,36.5,325.6,36.5z"/>
</g>
<g id="b1">
	<path class="st42" d="M242.6,126l-0.5-0.8l53.4-30.8c12.2-7,22.1-24.2,22.1-38.3V26h0.9v30.1c0,14.4-10.1,31.9-22.6,39.1L242.6,126
		z"/>
	<path class="st42" d="M317.4,26.9c-0.2,0-0.4-0.1-0.6-0.2c-0.5-0.3-0.7-0.8-0.7-1.4c0.1-1.2,0.7-2.3,1.7-3c0.6-0.5,1.5-0.4,1.9,0.3
		c0.2,0.3,0.3,0.7,0.3,1c-0.1,1.2-0.7,2.3-1.8,3l0,0C318.1,26.8,317.7,26.9,317.4,26.9z M318.8,23c-0.2,0-0.3,0.1-0.5,0.1
		c-0.7,0.5-1.2,1.3-1.3,2.2c0,0.2,0.1,0.4,0.2,0.6c0.1,0.1,0.4,0,0.6-0.1l0,0c0.7-0.5,1.2-1.3,1.3-2.2c0-0.2,0-0.4-0.2-0.6
		C318.9,23,318.8,23,318.8,23z"/>
</g>
</svg>
