<svg id="Layer_1" data-name="Layer 1" xmlns="http://www.w3.org/2000/svg" xmlns:xlink="http://www.w3.org/1999/xlink" viewBox="0 0 440.87 363.7"><defs><style>.cls-1{opacity:0.6;isolation:isolate;fill:url(#linear-gradient);}.cls-2{fill:#73fff5;}</style><linearGradient id="linear-gradient" x1="6011.83" y1="-2654.01" x2="5857.64" y2="-2739.86" gradientTransform="matrix(-1, 0, 0, 1, 6255.41, 2807.83)" gradientUnits="userSpaceOnUse"><stop offset="0" stop-color="#42e8e0"/><stop offset="0.16" stop-color="#36adb3" stop-opacity="0.74"/><stop offset="0.32" stop-color="#2b798b" stop-opacity="0.52"/><stop offset="0.47" stop-color="#224e6b" stop-opacity="0.33"/><stop offset="0.62" stop-color="#1b2d52" stop-opacity="0.19"/><stop offset="0.76" stop-color="#161540" stop-opacity="0.08"/><stop offset="0.89" stop-color="#130735" stop-opacity="0.02"/><stop offset="1" stop-color="#120231" stop-opacity="0"/></linearGradient></defs><path id="beam2" class="cls-1" d="M235.58,119.3c0,22.73,16,50.38,35.66,61.75,10.1,5.83,19.21,6.23,25.7,2.18h0l144-83.27-48-88.41-145.54,84A17.08,17.08,0,0,0,244.9,97h0C239.08,101,235.58,108.65,235.58,119.3Z"/><g id="b10"><path class="cls-2" d="M318.89,257.87H318V171.69c0-6.72-2.24-11.71-6.31-14.06s-9.51-1.79-15.32,1.57L242.93,190l-.46-.81,53.42-30.83c6.12-3.53,11.89-4.08,16.26-1.56s6.77,7.8,6.77,14.86Z"/><path class="cls-2" d="M317.78,261.78a1.22,1.22,0,0,1-.62-.16,1.52,1.52,0,0,1-.68-1.38,3.83,3.83,0,0,1,1.74-3,1.38,1.38,0,0,1,2.21,1.28,3.79,3.79,0,0,1-1.74,3A2,2,0,0,1,317.78,261.78Zm1.35-3.89a.85.85,0,0,0-.44.14h0a2.88,2.88,0,0,0-1.28,2.21.65.65,0,0,0,.21.57.62.62,0,0,0,.6-.11,2.86,2.86,0,0,0,1.28-2.2.66.66,0,0,0-.21-.58.45.45,0,0,0-.16,0Z"/></g><g id="b9"><path class="cls-2" d="M325.74,236.69h-.93V167.21c0-8.44-2.83-14.72-7.95-17.67s-12-2.27-19.28,2L243,183l-.46-.81,54.62-31.53c7.61-4.4,14.78-5.09,20.21-2s8.41,9.69,8.41,18.48Z"/><path class="cls-2" d="M324.6,240.46a1.26,1.26,0,0,1-.63-.16,1.52,1.52,0,0,1-.67-1.38,3.79,3.79,0,0,1,1.74-3h0a1.38,1.38,0,0,1,2.21,1.27,3.77,3.77,0,0,1-1.75,3A1.79,1.79,0,0,1,324.6,240.46Zm.9-3.75a2.84,2.84,0,0,0-1.27,2.21.65.65,0,0,0,.21.57c.13.08.35,0,.6-.1a2.88,2.88,0,0,0,1.28-2.21.65.65,0,0,0-.21-.57.66.66,0,0,0-.61.1Z"/></g><g id="b8"><path class="cls-2" d="M333,239.46H332V162.87c0-10.39-3.48-18.13-9.81-21.78s-14.76-2.8-23.77,2.4l-55.49,32-.46-.81,55.49-32c9.3-5.37,18.08-6.22,24.7-2.4S333,152.13,333,162.87Z"/><path class="cls-2" d="M331.82,243.23a1.37,1.37,0,0,1-.63-.16,1.54,1.54,0,0,1-.67-1.38,3.83,3.83,0,0,1,1.74-3h0a1.38,1.38,0,0,1,2.21,1.28,3.79,3.79,0,0,1-1.74,3A2,2,0,0,1,331.82,243.23Zm1.35-3.89a.77.77,0,0,0-.44.14h0a2.88,2.88,0,0,0-1.28,2.21.65.65,0,0,0,.21.57c.13.08.35,0,.6-.1a2.88,2.88,0,0,0,1.28-2.21.66.66,0,0,0-.21-.58A.45.45,0,0,0,333.17,239.34Z"/></g><g id="b7"><path class="cls-2" d="M338.69,257.29h-.93V157c0-11.71-3.92-20.42-11.05-24.53s-16.63-3.15-26.76,2.7L243,168l-.46-.81,57-32.9c10.44-6,20.27-7,27.7-2.7S338.7,144.91,338.7,157Z"/><path class="cls-2" d="M337.55,261a1.26,1.26,0,0,1-.63-.16,1.54,1.54,0,0,1-.67-1.38,3.79,3.79,0,0,1,1.74-3,1.38,1.38,0,0,1,2.21,1.27,3.83,3.83,0,0,1-1.74,3A1.85,1.85,0,0,1,337.55,261Zm1.35-3.89a1,1,0,0,0-.44.14,2.86,2.86,0,0,0-1.28,2.21.66.66,0,0,0,.21.58.68.68,0,0,0,.6-.11,2.88,2.88,0,0,0,1.28-2.21.65.65,0,0,0-.21-.57.33.33,0,0,0-.17,0Z"/></g><g id="b6"><rect class="cls-2" x="230.59" y="116.71" width="176.12" height="0.93" transform="matrix(0.87, -0.5, 0.5, 0.87, -15.92, 174.91)"/><path class="cls-2" d="M395.59,74.76a1.27,1.27,0,0,1-.63-.17,1.52,1.52,0,0,1-.67-1.37,3.79,3.79,0,0,1,1.74-3,1.55,1.55,0,0,1,1.53-.11,1.52,1.52,0,0,1,.68,1.38,3.79,3.79,0,0,1-1.74,3A1.82,1.82,0,0,1,395.59,74.76Zm1.35-3.9a.86.86,0,0,0-.44.15,2.83,2.83,0,0,0-1.28,2.21.65.65,0,0,0,.21.57.68.68,0,0,0,.6-.11,2.89,2.89,0,0,0,1.28-2.22.65.65,0,0,0-.21-.57.45.45,0,0,0-.16,0Z"/></g><g id="b5"><rect class="cls-2" x="233.47" y="115.35" width="155.32" height="0.93" transform="translate(-16.33 170.43) rotate(-29.89)"/><path class="cls-2" d="M377.62,78.38a1.13,1.13,0,0,1-.62-.16,1.52,1.52,0,0,1-.68-1.38,3.79,3.79,0,0,1,1.74-3,1.38,1.38,0,0,1,2.21,1.27,3.79,3.79,0,0,1-1.74,3h0A1.82,1.82,0,0,1,377.62,78.38ZM379,74.46a1,1,0,0,0-.44.14,2.83,2.83,0,0,0-1.28,2.21.48.48,0,0,0,.81.47,2.88,2.88,0,0,0,1.28-2.21.65.65,0,0,0-.21-.57A.29.29,0,0,0,379,74.46Z"/></g><g id="b4"><path class="cls-2" d="M242.61,148l-.47-.81,57-32.9c21.1-12.18,38.28-41.92,38.28-66.29V3.76h.93V48c0,24.66-17.38,54.77-38.75,67.1Z"/><path class="cls-2" d="M337.19,4.82a1.22,1.22,0,0,1-.62-.16,1.52,1.52,0,0,1-.68-1.38,3.79,3.79,0,0,1,1.74-3,1.55,1.55,0,0,1,1.54-.12,1.51,1.51,0,0,1,.72,1.38,3.79,3.79,0,0,1-1.74,3A1.82,1.82,0,0,1,337.19,4.82ZM338.54.93a.86.86,0,0,0-.44.15,2.87,2.87,0,0,0-1.27,2.2.66.66,0,0,0,.21.58.68.68,0,0,0,.6-.11h0a2.86,2.86,0,0,0,1.25-2.21.68.68,0,0,0-.2-.57A.42.42,0,0,0,338.54.93Z"/></g><g id="b3"><path class="cls-2" d="M242.61,140.54l-.47-.81,55.5-32c18.77-10.84,34-37.29,34-59V28.23h.93V48.74c0,22-15.48,48.78-34.51,59.76Z"/><path class="cls-2" d="M331.46,29.26a1.33,1.33,0,0,1-.62-.16,1.52,1.52,0,0,1-.67-1.38,3.79,3.79,0,0,1,1.74-3,1.37,1.37,0,0,1,1.92.23,1.34,1.34,0,0,1,.28,1.05,3.79,3.79,0,0,1-1.74,3A1.72,1.72,0,0,1,331.46,29.26Zm1.35-3.89a1,1,0,0,0-.44.14,2.84,2.84,0,0,0-1.27,2.21.47.47,0,0,0,.81.46h0a2.87,2.87,0,0,0,1.27-2.2c0-.29-.07-.5-.21-.58A.45.45,0,0,0,332.81,25.37Z"/></g><g id="b2"><path class="cls-2" d="M242.61,133l-.47-.81,54.63-31.53c15.26-8.82,27.68-30.33,27.68-48V39.32h.93V52.74c0,17.93-12.63,39.8-28.15,48.76Z"/><path class="cls-2" d="M324.24,40.36a1.22,1.22,0,0,1-.62-.16,1.49,1.49,0,0,1-.67-1.38,3.79,3.79,0,0,1,1.74-3,1.37,1.37,0,0,1,2.2,1.27,3.79,3.79,0,0,1-1.74,3h0A1.82,1.82,0,0,1,324.24,40.36Zm1.35-3.9a1,1,0,0,0-.44.14,2.87,2.87,0,0,0-1.26,2.22.66.66,0,0,0,.21.58.68.68,0,0,0,.6-.11h0A2.84,2.84,0,0,0,326,37.08a.65.65,0,0,0-.21-.57A.26.26,0,0,0,325.59,36.46Z"/></g><g id="b1"><path class="cls-2" d="M242.61,126l-.47-.81,53.4-30.77c12.18-7,22.1-24.21,22.1-38.28V26h.93V56.13c0,14.37-10.12,31.9-22.56,39.08Z"/><path class="cls-2" d="M317.43,26.92a1.37,1.37,0,0,1-.63-.16,1.54,1.54,0,0,1-.67-1.38,3.79,3.79,0,0,1,1.74-3,1.38,1.38,0,0,1,2.21,1.28,3.8,3.8,0,0,1-1.75,3h0A1.68,1.68,0,0,1,317.43,26.92ZM318.78,23a.88.88,0,0,0-.45.14,2.84,2.84,0,0,0-1.27,2.21.65.65,0,0,0,.21.57c.13.08.35,0,.6-.1h0a2.88,2.88,0,0,0,1.28-2.21.66.66,0,0,0-.21-.58A.45.45,0,0,0,318.78,23Z"/></g></svg>