<svg height="1024" viewBox="0 0 4385 1024" width="4385" xmlns="http://www.w3.org/2000/svg"><g fill="#fff"><path d="m1172.884 6.701h-572.075l-97.098 224.927-335.213 787.988h250.25l335.213-787.988h323.239z"/><path d="m121.067 6.701h381.104l-95.176 224.927-338.382 787.988h-59.278l338.382-787.988h-323.239z"/><path d="m1951.713 779.261 183.877-264.852-216.537-507.708h267.361l114.795 269.156 186.866-269.156h267.361l-352.484 507.708 215.144 504.443h-267.361l-113.402-265.891-184.177 265.283-101.443-238.984z"/><path d="m1682.287 1019.616-68.521-174.281h-428.999l-67.031 174.281h-268.125l430.489-1012.915h241.312l428.999 1012.915h-268.125zm-415.593-384.312h265.145l-132.573-341.114-132.573 341.114z"/><path d="m3009.1 955.68v61.541h-147.992v-355.072c.002-.864 0-1.729 0-2.596v-653.193h152.476v408.035c27.904-30.894 61.538-55.061 100.903-72.501s81.968-26.16 127.811-26.16c62.785 0 120.586 15.198 173.404 45.593s94.426 72.252 124.821 125.569c30.396 53.317 45.593 112.364 45.593 177.142 0 66.771-15.945 127.063-47.836 180.879s-75.74 95.92-131.548 126.316c-55.809 30.396-118.094 45.593-186.858 45.593-67.768 0-129.057-14.949-183.869-44.846-9.315-5.081-18.284-10.514-26.908-16.3zm322.891-100.3c32.887-18.935 58.798-45.095 77.733-78.48s28.402-70.508 28.402-111.368c0-39.863-9.218-76.487-27.655-109.873s-43.849-59.545-76.238-78.48-68.514-28.402-108.378-28.402-76.487 9.467-109.873 28.402-59.545 45.344-78.48 79.228-28.402 71.255-28.402 112.115c0 39.863 9.218 76.238 27.655 109.125s43.849 58.798 76.238 77.733 68.514 28.402 108.378 28.402c40.86 0 77.733-9.467 110.62-28.402z"/><path d="m3705.301 315.837 150.981.047v694.128h-150.981z"/><path d="m3705.377 6.36h150.906v150.906h-150.906v-150.906z"/><path d="m4198.065 443.103v340.919c0 30.894 8.222 55.061 24.665 72.501s39.116 26.16 68.016 26.16c13.952 0 78.639.293 91.187.293v134.245c-15.295 0-96.668 0-119.589 0-67.768 0-120.586-19.433-158.456-58.3s-56.805-92.183-56.805-159.951v-355.867h-73.389v-128.558h73.389v-307.942h150.981v307.942h183.869v128.558h-183.869z"/></g></svg>